<svg xmlns="http://www.w3.org/2000/svg" viewBox="0 0 154.53 37.58"><defs><style>.cls-1{fill:none;}.cls-2{fill:#de3400;}.cls-3{fill:#fff;}</style></defs><title>logo_earth_tagline_final</title><g id="Layer_2" data-name="Layer 2"><g id="Layer_1-2" data-name="Layer 1"><rect class="cls-1" width="154.53" height="37.58"/><circle class="cls-2" cx="87.71" cy="21.13" r="2.94"/><path class="cls-3" d="M145.43,6.12A8.48,8.48,0,0,0,140.31,8a7.57,7.57,0,0,0-4.81-1.84A7.33,7.33,0,0,0,128,13.35V23a.61.61,0,0,0,.61.61h3.91a.61.61,0,0,0,.61-.61V13.37a2.41,2.41,0,1,1,4.8-.19V23c0,.34.58.61.92.61h3.6A.61.61,0,0,0,143,23V13.18a2.31,2.31,0,0,1,2.4-2.51,2.24,2.24,0,0,1,2.4,2.4V23a.61.61,0,0,0,.61.61h3.91A.61.61,0,0,0,153,23V13.35A7.33,7.33,0,0,0,145.43,6.12Z"/><path class="cls-3" d="M117.23,6.12a9,9,0,1,0,9.39,9A9,9,0,0,0,117.23,6.12Zm0,13.23a4.28,4.28,0,1,1,4.28-4.27A4.28,4.28,0,0,1,117.23,19.35Z"/><path class="cls-3" d="M39.27,15.08c0-4.95-3.61-9-9.44-9s-9.33,4-9.33,9a9,9,0,0,0,8.66,9c2.69,0,4.05-.66,5.29-1.78l.18.87a.66.66,0,0,0,.61.53h3.4c.34,0,.61-.27.61-1.09V15.47C39.26,15.34,39.27,15.21,39.27,15.08Zm-9.39,4.27a4.28,4.28,0,1,1,4.28-4.27A4.28,4.28,0,0,1,29.88,19.35Z"/><path class="cls-3" d="M51.42,6.12H49.87A8.57,8.57,0,0,0,41,14.85h0V23a.61.61,0,0,0,.61.61h3.82A.61.61,0,0,0,46,23V15a4,4,0,0,1,4-4.26h1.37a.61.61,0,0,0,.61-.61V6.73A.61.61,0,0,0,51.42,6.12Z"/><path class="cls-3" d="M83,14.85a8.45,8.45,0,0,0-8.48-8.73,7.58,7.58,0,0,0-4.33,1.41V.61A.61.61,0,0,0,69.61,0H65.75a.61.61,0,0,0-.61.61V14.85h0V23a.61.61,0,0,0,.61.61h3.82a.62.62,0,0,0,.57-.37l0-.12a.49.49,0,0,0,0-.12h0V15.75c0-.24,0-.47,0-.71v0a4,4,0,0,1,3.89-4.27A4.12,4.12,0,0,1,78,15v8a.61.61,0,0,0,.61.61h3.82A.61.61,0,0,0,83,23V14.85Z"/><path class="cls-3" d="M62.79,19.21h-.9A2.83,2.83,0,0,1,58.79,16V13.49h0V10.76h3.38a.61.61,0,0,0,.61-.61V6.73a.61.61,0,0,0-.61-.61H58.79V2.27a.61.61,0,0,0-.61-.61H54.4a.61.61,0,0,0-.61.61v8.66h0v5.72c0,6,4.73,7.23,7.35,7.23.3,0,1.49,0,1.73-.06a.43.43,0,0,0,.37-.43V19.67A.46.46,0,0,0,62.79,19.21Z"/><path class="cls-3" d="M11.18,6.12a9,9,0,1,0,0,17.91,11.45,11.45,0,0,0,6.53-1.88.6.6,0,0,0,.1-.9l-2.07-2.34a.61.61,0,0,0-.75-.13,6.78,6.78,0,0,1-3.67.91,4.39,4.39,0,0,1-4.09-2.64H17.4a1.9,1.9,0,0,0,1.9-1.9v-.37C19.3,10.4,16.7,6.12,11.18,6.12ZM11,10.44a3,3,0,0,1,3.35,3H7.05A3.82,3.82,0,0,1,11,10.44Z"/><path class="cls-3" d="M103.93,18a4.28,4.28,0,1,1,0-5.87.61.61,0,0,0,.84,0l2.87-2.47a.61.61,0,0,0,0-.89,9.3,9.3,0,0,0-6.85-2.71,9,9,0,1,0,0,17.91,9.26,9.26,0,0,0,6.85-2.71.6.6,0,0,0,0-.88L104.77,18A.61.61,0,0,0,103.93,18Z"/><path class="cls-3" d="M7.86,31H9.19v5.95H7.86L5,33.21v3.73H3.69V31H4.94l2.92,3.83Z"/><path class="cls-3" d="M17.29,36.94l-.56-1.28H14.24l-.56,1.28H12.27L14.84,31h1.29l2.57,5.95Zm-1.8-4.18-.75,1.73h1.49Z"/><path class="cls-3" d="M23.87,32.14v4.8H22.54v-4.8H20.85V31h4.71v1.15Z"/><path class="cls-3" d="M30.49,35.41a1.18,1.18,0,0,0,1.79,0,1.79,1.79,0,0,0,.33-1.13V31h1.33v3.33a2.64,2.64,0,0,1-.72,2,2.54,2.54,0,0,1-1.83.69,2.51,2.51,0,0,1-1.84-.7,2.61,2.61,0,0,1-.72-2V31h1.33v3.29A1.79,1.79,0,0,0,30.49,35.41Z"/><path class="cls-3" d="M42.54,33a1.75,1.75,0,0,1-1.14,1.85l1.51,2.13H41.28L40,35H39v1.9H37.7V31H40a3.24,3.24,0,0,1,2,.46A1.81,1.81,0,0,1,42.54,33Zm-1.61.71a.88.88,0,0,0,.25-.7.75.75,0,0,0-.25-.66,1.64,1.64,0,0,0-.9-.18H39v1.76h1A1.39,1.39,0,0,0,40.93,33.67Z"/><path class="cls-3" d="M50.58,31v1.18h-3V33.4h2.67v1.13H47.62v1.24h3.06v1.17H46.29V31Z"/><path class="cls-3" d="M56.47,34.77a.73.73,0,0,1-.22-.54.71.71,0,0,1,.22-.53.75.75,0,0,1,1.06,0,.71.71,0,0,1,.22.53.73.73,0,0,1-.22.54.77.77,0,0,1-1.06,0Z"/><path class="cls-3" d="M65,32.18A.52.52,0,0,0,65,33a4.53,4.53,0,0,0,1.09.36,3.14,3.14,0,0,1,1.31.62,1.53,1.53,0,0,1,.47,1.22,1.6,1.6,0,0,1-.6,1.3,2.36,2.36,0,0,1-1.58.5,3.67,3.67,0,0,1-2.55-1L64,35a2.87,2.87,0,0,0,1.79.85,1,1,0,0,0,.57-.16.52.52,0,0,0,.21-.43.47.47,0,0,0-.22-.42,2.59,2.59,0,0,0-.88-.32,3.81,3.81,0,0,1-1.52-.65,1.51,1.51,0,0,1-.48-1.24,1.53,1.53,0,0,1,.61-1.31,2.41,2.41,0,0,1,1.52-.46,3.81,3.81,0,0,1,1.19.2,3.18,3.18,0,0,1,1,.58l-.67,1a2.58,2.58,0,0,0-1.6-.59A.78.78,0,0,0,65,32.18Z"/><path class="cls-3" d="M74.17,35.77a2,2,0,0,0,1.6-.78l.85.88a3.21,3.21,0,0,1-4.65.27,2.92,2.92,0,0,1-.9-2.19A3,3,0,0,1,72,31.74a3,3,0,0,1,2.22-.89A3.14,3.14,0,0,1,76.66,32l-.83.93a1.94,1.94,0,0,0-1.57-.78,1.8,1.8,0,0,0-1.28.49,1.7,1.7,0,0,0-.53,1.32,1.76,1.76,0,0,0,.5,1.33A1.64,1.64,0,0,0,74.17,35.77Z"/><path class="cls-3" d="M80.06,31h1.33v5.95H80.06Z"/><path class="cls-3" d="M89.54,31v1.18h-3V33.4h2.67v1.13H86.57v1.24h3.06v1.17H85.24V31Z"/><path class="cls-3" d="M97.37,31H98.7v5.95H97.37l-2.84-3.73v3.73H93.2V31h1.25l2.92,3.83Z"/><path class="cls-3" d="M105.29,35.77a2,2,0,0,0,1.6-.78l.85.88a3.21,3.21,0,0,1-4.65.27A2.91,2.91,0,0,1,102.2,34a3,3,0,0,1,.9-2.21,3,3,0,0,1,2.22-.89A3.14,3.14,0,0,1,107.78,32l-.83.93a1.94,1.94,0,0,0-1.57-.78,1.81,1.81,0,0,0-1.28.49,1.73,1.73,0,0,0-.53,1.32,1.8,1.8,0,0,0,.5,1.33A1.65,1.65,0,0,0,105.29,35.77Z"/><path class="cls-3" d="M115.48,31v1.18h-3V33.4h2.67v1.13h-2.67v1.24h3.06v1.17h-4.39V31Z"/><path class="cls-3" d="M121.36,34.77a.77.77,0,0,1-.22-.54.75.75,0,0,1,.75-.75.77.77,0,0,1,.54.22.74.74,0,0,1,.21.53.72.72,0,0,1-.75.75A.74.74,0,0,1,121.36,34.77Z"/><path class="cls-3" d="M128.5,36.94V31h1.33v4.77h2.54v1.18Z"/><path class="cls-3" d="M135.73,31h1.33v5.95h-1.33Z"/><path class="cls-3" d="M145,31v1.16h-2.76v1.29h2.63v1.17h-2.63v2.33h-1.33V31Z"/><path class="cls-3" d="M152.81,31v1.18h-3V33.4h2.67v1.13h-2.67v1.24h3.06v1.17h-4.39V31Z"/></g></g></svg>