<?xml version="1.0" standalone="no"?>
<!DOCTYPE svg PUBLIC "-//W3C//DTD SVG 20010904//EN"
 "http://www.w3.org/TR/2001/REC-SVG-20010904/DTD/svg10.dtd">
<svg version="1.0" xmlns="http://www.w3.org/2000/svg"
 width="768.000000pt" height="768.000000pt" viewBox="0 0 768.000000 768.000000"
 preserveAspectRatio="xMidYMid meet">
<metadata>
Created by potrace 1.11, written by Peter Selinger 2001-2013
</metadata>
<g transform="translate(0.000000,768.000000) scale(0.100000,-0.100000)"
fill="#000000" stroke="none">
<path d="M6438 7589 c-15 -4 -45 -10 -65 -13 -48 -6 -208 -53 -237 -68 -11 -6
-23 -11 -26 -11 -24 2 -290 -118 -415 -187 -33 -18 -73 -40 -90 -49 -46 -25
-304 -199 -328 -222 -12 -11 -37 -29 -54 -40 -18 -12 -33 -25 -33 -30 0 -5 -7
-9 -15 -9 -8 0 -15 -4 -15 -8 0 -4 -21 -24 -47 -45 -27 -20 -61 -48 -78 -63
-16 -14 -46 -38 -65 -53 -48 -36 -345 -334 -405 -405 -28 -33 -59 -69 -70 -82
-11 -12 -29 -34 -39 -49 -11 -14 -28 -36 -38 -48 -28 -34 -30 -37 -86 -114
-28 -40 -52 -77 -52 -82 0 -6 -6 -14 -13 -18 -38 -24 -242 -382 -351 -614 -32
-68 -32 -73 -3 -87 12 -7 29 -16 37 -22 30 -19 172 -100 176 -100 3 0 30 -16
61 -36 31 -19 65 -40 77 -45 27 -13 60 -32 77 -45 8 -6 43 -27 79 -46 l65 -36
175 3 c96 2 197 6 225 9 27 3 82 8 120 11 39 4 81 8 95 10 14 2 45 6 70 10 25
3 56 8 70 10 14 3 39 7 55 9 73 12 101 17 117 22 17 5 42 10 92 19 39 8 224
60 261 75 17 6 38 13 47 15 75 15 380 160 483 229 80 53 223 199 315 321 41
55 77 104 80 110 3 5 26 42 51 80 144 219 277 495 353 730 69 214 97 442 71
561 -38 171 -230 345 -434 396 -54 13 -254 18 -293 7z"/>
<path d="M955 6723 c3 -10 27 -79 52 -153 24 -74 48 -144 53 -155 5 -11 31
-85 58 -165 28 -80 64 -185 81 -234 17 -49 31 -93 31 -97 0 -4 -15 -10 -32
-14 -72 -15 -177 -76 -243 -143 -36 -36 -65 -69 -65 -72 0 -4 -46 40 -102 97
-76 75 -118 109 -158 127 -52 23 -173 59 -236 71 -16 2 -40 7 -54 10 -14 3
-41 7 -60 10 -19 3 -46 7 -60 10 -36 7 -101 17 -135 21 -16 1 -40 5 -52 8 -48
11 -29 -13 40 -47 40 -21 119 -62 177 -93 113 -60 366 -191 495 -257 44 -23
82 -42 83 -43 2 -2 -10 -31 -26 -66 -30 -62 -94 -211 -93 -215 1 -4 -9 -33
-25 -76 -8 -20 -14 -39 -14 -42 0 -3 0 -6 -1 -7 0 -2 -2 -10 -4 -18 -2 -8 -14
-51 -26 -95 -25 -94 -24 -88 -39 -190 -28 -178 -9 -332 49 -397 56 -63 124
-40 368 127 48 33 90 62 93 66 3 3 15 11 26 17 16 9 33 48 69 159 145 452 289
710 498 886 75 64 203 141 277 167 90 32 97 43 25 35 -33 -4 -67 -8 -75 -10
-8 -3 -30 -7 -49 -10 -50 -9 -181 -61 -223 -90 -46 -31 -59 -31 -95 -2 -55 45
-73 53 -158 75 -11 3 -40 6 -65 6 l-45 1 -1 48 c-3 81 -14 153 -35 216 -11 34
-109 229 -148 296 -23 39 -70 122 -91 160 -38 69 -55 95 -64 95 -4 0 -5 -8 -1
-17z m252 -1039 c18 -14 30 -30 27 -38 -8 -21 -110 -49 -152 -43 -89 15 -75
84 23 108 38 9 62 2 102 -27z"/>
<path d="M7198 6278 c-9 -7 -55 -89 -102 -183 -90 -181 -179 -329 -260 -435
-124 -163 -273 -304 -407 -386 -32 -20 -59 -38 -59 -40 0 -2 66 16 128 35 18
5 35 10 37 10 11 0 270 84 280 89 6 4 16 7 23 8 8 2 21 6 30 10 9 4 23 8 30
10 15 3 179 69 247 100 28 12 54 22 59 22 5 0 12 4 15 9 5 7 83 51 138 77 13
6 23 14 23 19 0 4 5 7 11 7 16 0 87 58 162 132 85 84 121 156 123 246 1 34 -3
62 -7 62 -5 0 -9 6 -9 13 0 16 -65 78 -101 97 -13 7 -27 17 -30 22 -3 5 -16
10 -28 13 -13 2 -28 9 -35 14 -47 39 -237 74 -268 49z"/>
<path d="M3839 5824 c-96 -48 -176 -90 -179 -94 -3 -4 -10 -9 -16 -11 -34 -12
-183 -106 -183 -114 0 -11 239 -196 253 -197 6 0 23 24 38 53 16 29 33 58 39
66 6 7 8 13 5 13 -4 0 7 20 24 44 16 25 30 47 30 50 0 5 81 138 90 146 13 13
81 122 78 126 -3 2 -83 -35 -179 -82z"/>
<path d="M2412 5884 c-68 -12 -168 -37 -202 -51 -8 -3 -17 -7 -20 -8 -190 -65
-427 -248 -563 -436 -32 -45 -87 -131 -87 -137 0 -4 -9 -18 -20 -32 -11 -14
-20 -33 -20 -42 0 -10 -3 -18 -8 -18 -4 0 -18 -28 -32 -62 -13 -35 -27 -67
-30 -73 -6 -9 -51 -136 -56 -157 -1 -5 -3 -10 -4 -13 -1 -3 -3 -8 -4 -12 -1
-5 -6 -24 -11 -43 -4 -19 -9 -42 -10 -50 0 -9 -4 -21 -9 -28 -4 -6 -5 -12 -2
-12 2 0 0 -15 -5 -32 -18 -60 -20 -266 -3 -347 35 -167 70 -222 271 -426 87
-88 167 -171 178 -185 102 -126 148 -228 146 -317 -1 -34 -51 -117 -113 -186
-16 -18 -28 -37 -28 -44 0 -7 -4 -13 -9 -13 -15 0 -47 -94 -46 -135 3 -78 16
-207 25 -230 5 -13 7 -25 5 -27 -3 -3 48 -210 75 -303 5 -16 16 -55 25 -85 9
-30 17 -59 19 -65 1 -5 11 -37 21 -70 10 -33 20 -64 21 -70 18 -65 112 -330
136 -385 9 -19 26 -62 38 -95 12 -33 26 -69 30 -80 5 -11 19 -45 31 -75 12
-30 29 -73 39 -95 9 -22 32 -79 50 -127 18 -48 37 -85 42 -82 4 3 6 9 3 14 -3
4 4 29 15 54 l20 47 59 -30 c32 -17 61 -36 64 -43 4 -9 6 -10 6 -1 1 7 -28 70
-63 140 -102 205 -277 571 -281 588 -2 11 -10 31 -45 110 -42 97 -43 295 -3
480 2 11 6 31 9 44 3 13 9 31 13 40 5 9 9 19 10 24 1 4 1 8 2 10 0 1 2 10 4
20 12 64 100 158 190 204 97 50 97 50 157 -27 29 -37 62 -81 73 -96 11 -15 32
-43 47 -63 15 -20 31 -41 35 -46 5 -6 28 -37 53 -70 24 -33 49 -66 56 -72 7
-7 22 -29 35 -50 13 -21 31 -46 39 -55 9 -10 39 -51 66 -90 27 -40 54 -79 61
-86 7 -7 13 -17 13 -22 0 -5 6 -15 13 -22 20 -20 117 -168 117 -179 0 -5 4 -9
9 -9 5 0 11 -8 14 -17 4 -10 17 -36 31 -58 48 -76 82 -159 111 -270 11 -44 27
-126 26 -140 0 -2 5 -19 10 -37 10 -34 19 -78 23 -113 2 -11 6 -29 9 -40 3
-11 8 -38 12 -60 10 -72 57 -249 80 -306 39 -97 139 -237 270 -379 288 -312
455 -473 522 -507 32 -15 64 -29 73 -32 23 -6 249 -5 256 2 6 6 -19 37 -30 37
-5 0 -50 32 -123 88 -12 9 -32 24 -44 32 -158 108 -469 392 -537 492 -66 96
-73 126 -68 277 3 75 8 161 11 191 14 142 12 175 -19 315 -3 11 -7 34 -11 50
-8 40 -40 151 -72 250 -24 75 -34 99 -85 215 -11 25 -81 169 -155 320 -193
394 -226 466 -262 581 -56 174 -71 523 -31 719 6 30 14 66 16 80 25 131 112
325 200 447 115 159 284 333 389 401 22 14 45 31 50 36 11 11 61 39 159 88
108 55 332 87 446 65 14 -3 43 -8 65 -12 l40 -8 -44 37 c-24 20 -53 42 -65 48
-12 6 -23 14 -26 17 -10 12 -188 96 -330 156 -145 61 -264 125 -318 170 -43
37 -202 176 -257 226 -79 72 -93 85 -151 134 -31 28 -62 55 -68 60 -6 6 -47
38 -91 71 -169 127 -298 192 -415 209 -75 11 -188 11 -258 -1z"/>
<path d="M4246 4603 c-2 -2 -12 -5 -22 -7 -47 -10 -82 -19 -124 -33 -65 -22
-264 -121 -289 -144 -11 -10 -23 -19 -27 -19 -15 0 -112 -82 -195 -164 -82
-82 -158 -183 -222 -296 -49 -85 -118 -278 -133 -369 -3 -18 -8 -43 -10 -55
-22 -106 -21 -330 2 -441 3 -16 7 -39 9 -50 2 -11 9 -38 15 -60 31 -110 39
-136 68 -209 l19 -49 7 49 c4 27 10 65 12 84 3 19 7 42 9 50 2 8 7 31 10 50
16 96 94 381 114 415 3 6 6 15 7 20 2 11 33 83 60 139 8 16 14 35 14 43 0 7 4
13 8 13 5 0 16 18 26 40 23 54 153 247 202 301 106 118 186 189 298 266 161
111 326 177 491 198 64 8 220 8 260 -1 l30 -6 -20 23 c-29 34 -72 70 -119 101
-22 15 -46 32 -53 38 -7 5 -17 10 -23 10 -6 0 -25 7 -43 17 -63 32 -162 51
-271 50 -59 0 -108 -2 -110 -4z"/>
<path d="M1127 4483 c-10 -32 -21 -80 -24 -108 -9 -64 -8 -250 1 -295 4 -19 9
-47 11 -63 2 -15 17 -73 33 -130 48 -165 35 -229 -92 -487 -74 -150 -94 -200
-78 -200 15 0 356 345 372 375 8 17 21 38 29 48 8 9 12 17 8 17 -3 0 1 26 8
58 7 31 15 82 18 113 4 52 2 59 -27 90 -88 94 -154 183 -161 219 -1 3 -8 21
-17 40 -30 69 -47 163 -50 278 -1 45 -5 87 -8 92 -3 6 -14 -16 -23 -47z"/>
<path d="M4747 4214 c-2 -2 -21 -6 -43 -9 -45 -7 -143 -33 -189 -49 -225 -82
-447 -248 -595 -445 -14 -18 -35 -46 -47 -61 -13 -15 -23 -30 -23 -33 0 -3
-13 -26 -30 -50 -31 -47 -140 -256 -140 -270 0 -7 -26 -71 -51 -122 -13 -29
-97 -277 -103 -306 -6 -33 -34 -177 -41 -214 -3 -16 -8 -56 -11 -87 -5 -57 -5
-58 57 -150 34 -51 65 -94 70 -96 5 -2 9 -9 9 -15 1 -15 64 -83 117 -124 65
-52 180 -86 303 -89 58 -2 128 2 155 7 28 6 61 13 75 15 63 13 231 104 307
168 85 70 216 221 279 321 10 17 21 32 24 35 11 10 130 250 124 250 -4 0 -2 6
3 13 5 6 18 35 28 62 9 28 23 64 30 80 7 17 41 96 75 177 70 167 90 199 121
191 24 -7 87 -67 149 -143 41 -51 150 -162 181 -185 39 -29 115 -53 149 -49
76 11 86 15 104 45 21 35 18 86 -9 164 -19 58 -103 218 -116 223 -5 2 -9 10
-9 17 0 8 -6 20 -12 27 -7 7 -33 42 -57 78 -42 61 -154 212 -176 236 -5 6 -32
38 -60 70 -60 71 -212 222 -250 248 -15 10 -51 31 -79 46 -49 27 -59 28 -183
28 -73 0 -134 -2 -136 -4z"/>
<path d="M5256 2993 c-20 -49 -41 -96 -46 -105 -6 -10 -10 -22 -10 -27 0 -5
-5 -22 -12 -38 -6 -15 -12 -30 -13 -33 -57 -168 -155 -353 -249 -469 -48 -59
-195 -199 -247 -234 -93 -62 -232 -124 -320 -143 -95 -19 -260 -25 -334 -10
-16 3 -40 8 -53 10 l-23 5 23 -27 c12 -15 54 -52 93 -83 63 -52 72 -63 95
-125 13 -38 25 -71 26 -74 0 -3 6 -18 13 -35 7 -16 17 -41 21 -55 11 -32 60
-149 90 -215 42 -90 93 -153 245 -303 147 -144 248 -234 340 -305 6 -4 21 -16
34 -27 33 -27 99 -58 141 -65 81 -15 284 -5 303 14 5 5 -24 25 -63 46 -156 80
-493 287 -536 329 -6 6 -23 20 -38 31 -68 49 -151 128 -196 184 -38 48 -38 54
-18 176 7 39 11 73 10 78 -3 12 24 8 69 -12 24 -11 49 -21 54 -22 6 -1 20 -5
33 -10 35 -13 72 -20 134 -24 31 -2 61 -6 66 -9 5 -3 12 -3 15 0 3 3 25 7 49
9 246 18 489 214 649 525 24 47 49 88 54 92 6 4 7 8 2 8 -4 0 -1 13 8 30 8 16
14 31 13 33 -2 2 4 14 13 27 33 51 93 249 124 410 24 130 40 343 26 367 -7 13
-10 13 -22 0 -19 -19 -70 -36 -114 -39 -39 -3 -120 14 -160 34 -38 20 -74 45
-120 85 -125 109 -122 109 -169 -4z"/>
</g>
</svg>
