<?xml version="1.0" encoding="utf-8"?>
<!-- Generator: Adobe Illustrator 16.0.4, SVG Export Plug-In . SVG Version: 6.00 Build 0)  -->
<!DOCTYPE svg PUBLIC "-//W3C//DTD SVG 1.1//EN" "http://www.w3.org/Graphics/SVG/1.1/DTD/svg11.dtd">
<svg version="1.1" id="Layer_1" xmlns="http://www.w3.org/2000/svg" xmlns:xlink="http://www.w3.org/1999/xlink" x="0px" y="0px"
	 width="106.333px" height="39px" viewBox="21.667 0 106.333 39" enable-background="new 21.667 0 106.333 39" xml:space="preserve"
	>
<title>Artboard</title>
<desc>Created with Sketch.</desc>
<g id="Page-1_2_">
	<g id="Artboard">
		<g id="Page-1" transform="translate(1.000000, 1.000000)">
			<g id="Group">
				
					<polyline id="Stroke-1" fill="none" stroke="#1ABC9C" stroke-width="1.825" stroke-linecap="round" stroke-linejoin="round" points="
					40.959,29.783 40.959,17.324 26.605,6.447 26.605,29.783 				"/>
				
					<polyline id="Stroke-3" fill="none" stroke="#546979" stroke-width="1.825" stroke-linecap="round" stroke-linejoin="round" points="
					45.375,29.783 45.375,17.324 59.729,6.447 59.729,29.783 				"/>
			</g>
			<g id="Group-7" transform="translate(67.000000, 12.000000)">
				<g id="Clip-6">
				</g>
				<defs>
					<filter id="Adobe_OpacityMaskFilter" filterUnits="userSpaceOnUse" x="2.792" y="2.321" width="53.242" height="10.424">
						<feColorMatrix  type="matrix" values="1 0 0 0 0  0 1 0 0 0  0 0 1 0 0  0 0 0 1 0"/>
					</filter>
				</defs>
				<mask maskUnits="userSpaceOnUse" x="2.792" y="2.321" width="53.242" height="10.424" id="mask-2">
					<g filter="url(#Adobe_OpacityMaskFilter)">
						<polygon id="path-1" fill="#FFFFFF" points="2.792,12.745 56.034,12.745 56.034,2.321 2.792,2.321 						"/>
					</g>
				</mask>
				<path id="Fill-5" mask="url(#mask-2)" fill="#546979" d="M49.694,2.351c-0.116,0-0.218,0.041-0.305,0.123
					c-0.084,0.083-0.124,0.185-0.124,0.305v9.466c0,0.116,0.04,0.219,0.124,0.305c0.087,0.082,0.188,0.123,0.305,0.123
					c0.122,0,0.223-0.041,0.306-0.123c0.088-0.086,0.131-0.188,0.131-0.305v-4.29h2.431l2.25,4.552
					c0.077,0.16,0.206,0.239,0.386,0.239c0.067,0,0.131-0.015,0.188-0.044c0.107-0.053,0.18-0.135,0.219-0.247
					c0.039-0.11,0.031-0.219-0.021-0.326L53.509,7.91c0.723-0.111,1.322-0.426,1.798-0.943c0.484-0.523,0.728-1.127,0.728-1.814
					c0-0.774-0.297-1.435-0.889-1.982c-0.597-0.547-1.314-0.82-2.154-0.82H49.694z M54.549,6.51
					c-0.412,0.377-0.914,0.571-1.506,0.58h-2.912V3.207h2.86c0.602,0,1.116,0.191,1.544,0.573c0.427,0.377,0.64,0.834,0.64,1.372
					C55.175,5.68,54.967,6.133,54.549,6.51L54.549,6.51z M45.342,12.745c0.122,0,0.224-0.044,0.306-0.131
					c0.087-0.082,0.131-0.185,0.131-0.305c0-0.121-0.044-0.222-0.131-0.305c-0.082-0.087-0.184-0.131-0.306-0.131H40V7.969h3.994
					c0.122,0,0.225-0.044,0.307-0.131c0.087-0.082,0.131-0.184,0.131-0.305s-0.044-0.223-0.131-0.305
					c-0.082-0.088-0.185-0.131-0.307-0.131H40V3.192l5.342,0.015c0.122,0,0.224-0.042,0.306-0.124
					c0.087-0.087,0.131-0.191,0.131-0.312c0-0.116-0.044-0.218-0.131-0.305c-0.082-0.087-0.184-0.13-0.306-0.13l-5.779-0.015
					c-0.117-0.005-0.219,0.039-0.306,0.131c-0.088,0.082-0.131,0.184-0.131,0.305v9.552c0,0.12,0.043,0.223,0.131,0.305
					c0.083,0.087,0.185,0.131,0.306,0.131H45.342z M29.307,12.541c0.088-0.082,0.131-0.184,0.131-0.305V9.465L30.733,8.1
					l4.302,4.515c0.087,0.087,0.191,0.131,0.312,0.131c0.117,0,0.217-0.038,0.299-0.116c0.087-0.082,0.133-0.184,0.139-0.305
					c0-0.121-0.041-0.223-0.124-0.305L31.33,7.475l4.186-4.383c0.083-0.088,0.122-0.191,0.116-0.313
					c0-0.116-0.044-0.215-0.131-0.297s-0.191-0.124-0.313-0.124c-0.115,0.005-0.215,0.051-0.298,0.138l-5.452,5.72V2.75
					c0-0.116-0.043-0.217-0.131-0.305c-0.082-0.082-0.184-0.124-0.306-0.124c-0.116,0-0.218,0.042-0.306,0.124
					c-0.082,0.087-0.123,0.188-0.123,0.305v9.487c0,0.121,0.041,0.223,0.123,0.305c0.088,0.088,0.189,0.131,0.306,0.131
					C29.123,12.672,29.225,12.629,29.307,12.541L29.307,12.541z M17.014,12.745c0.193,0,0.328-0.089,0.4-0.269l0.902-2.163h5.314
					l0.901,2.163c0.073,0.18,0.206,0.269,0.4,0.269c0.058,0,0.114-0.013,0.167-0.036c0.112-0.043,0.189-0.121,0.233-0.232
					c0.049-0.111,0.049-0.223,0-0.334L24.32,9.711V9.703l-2.947-7.092c-0.01-0.024-0.021-0.05-0.036-0.079
					c0,0.004-0.009-0.005-0.028-0.03c-0.015-0.02-0.025-0.031-0.029-0.036c-0.006,0-0.018-0.01-0.037-0.029l-0.029-0.022
					c-0.047-0.034-0.102-0.056-0.16-0.065h-0.036c-0.024-0.005-0.039-0.007-0.044-0.007c-0.004,0-0.021,0.002-0.051,0.007h-0.036
					c-0.054,0.009-0.104,0.031-0.152,0.065c0.004-0.004-0.005,0.003-0.028,0.022c-0.021,0.015-0.033,0.024-0.037,0.029
					c-0.005,0.005-0.016,0.017-0.029,0.036l-0.029,0.03c-0.015,0.029-0.027,0.055-0.037,0.079l-2.947,7.092v0.008l-1.012,2.432
					c-0.049,0.111-0.049,0.223,0,0.334c0.045,0.111,0.121,0.189,0.232,0.232C16.9,12.732,16.956,12.745,17.014,12.745L17.014,12.745
					z M18.674,9.443l2.299-5.532l2.301,5.532H18.674z M3.658,4.347l3.909,6.438l0.008,0.008V10.8c0.01,0.01,0.02,0.021,0.028,0.036
					c0.01,0.01,0.02,0.02,0.028,0.029c0.01,0.009,0.02,0.02,0.029,0.029c0.016,0.01,0.027,0.019,0.037,0.029
					c0.023,0.014,0.029,0.017,0.014,0.006c0.006,0,0.008,0.003,0.008,0.008h0.015c0.015,0.01,0.029,0.018,0.044,0.022
					c0.01,0.005,0.021,0.009,0.036,0.014s0.029,0.007,0.044,0.007c0.01,0.006,0.021,0.008,0.037,0.008
					c0.014,0.005,0.028,0.008,0.043,0.008s0.029-0.003,0.044-0.008c0.015,0,0.026-0.002,0.036-0.008
					c0.014,0,0.029-0.002,0.043-0.007c0.016-0.005,0.027-0.009,0.037-0.014c0.015-0.005,0.029-0.013,0.043-0.022
					c0.021-0.01,0.027-0.012,0.021-0.008c-0.014,0.011-0.009,0.008,0.016-0.006c0.01-0.011,0.021-0.02,0.036-0.029
					c0.011-0.01,0.02-0.021,0.029-0.029l0.028-0.029c0.011-0.015,0.021-0.026,0.029-0.036v-0.007
					c0.006-0.006,0.008-0.008,0.008-0.008l3.909-6.438v7.963c0,0.12,0.041,0.226,0.123,0.312c0.087,0.083,0.188,0.124,0.306,0.124
					c0.121,0,0.223-0.041,0.306-0.124c0.088-0.086,0.13-0.191,0.13-0.312V2.793c0-0.218-0.105-0.356-0.319-0.414
					c-0.208-0.058-0.37,0.007-0.487,0.196l-4.338,7.15L3.6,2.575C3.483,2.386,3.32,2.321,3.112,2.379
					c-0.213,0.058-0.32,0.196-0.32,0.414v9.516c0,0.12,0.041,0.226,0.123,0.312c0.088,0.083,0.192,0.124,0.313,0.124
					c0.116,0,0.218-0.041,0.305-0.124c0.083-0.086,0.124-0.191,0.124-0.312V4.347z"/>
			</g>
		</g>
		<g id="Page-1_1_" transform="translate(1.000000, 1.000000)">
			<g id="Group_1_">
				
					<polyline id="Stroke-1_1_" fill="none" stroke="#1ABC9C" stroke-width="1.825" stroke-linecap="round" stroke-linejoin="round" points="
					40.959,29.783 40.959,17.324 26.605,6.447 26.605,29.783 				"/>
				
					<polyline id="Stroke-3_1_" fill="none" stroke="#546979" stroke-width="1.825" stroke-linecap="round" stroke-linejoin="round" points="
					45.375,29.783 45.375,17.324 59.729,6.447 59.729,29.783 				"/>
			</g>
			<g id="Group-7_1_" transform="translate(67.000000, 12.000000)">
				<g id="Clip-6_1_">
				</g>
				<defs>
					<filter id="Adobe_OpacityMaskFilter_1_" filterUnits="userSpaceOnUse" x="2.792" y="2.321" width="53.242" height="10.424">
						<feColorMatrix  type="matrix" values="1 0 0 0 0  0 1 0 0 0  0 0 1 0 0  0 0 0 1 0"/>
					</filter>
				</defs>
				<mask maskUnits="userSpaceOnUse" x="2.792" y="2.321" width="53.242" height="10.424" id="mask-4">
					<g filter="url(#Adobe_OpacityMaskFilter_1_)">
						<polygon id="path-3" fill="#FFFFFF" points="2.792,12.745 56.034,12.745 56.034,2.321 2.792,2.321 						"/>
					</g>
				</mask>
				<path id="Fill-5_1_" mask="url(#mask-4)" fill="#546979" d="M49.694,2.351c-0.116,0-0.218,0.041-0.305,0.123
					c-0.084,0.083-0.124,0.185-0.124,0.305v9.466c0,0.116,0.04,0.219,0.124,0.305c0.087,0.082,0.188,0.123,0.305,0.123
					c0.122,0,0.223-0.041,0.306-0.123c0.088-0.086,0.131-0.188,0.131-0.305v-4.29h2.431l2.25,4.552
					c0.077,0.16,0.206,0.239,0.386,0.239c0.067,0,0.131-0.015,0.188-0.044c0.107-0.053,0.18-0.135,0.219-0.247
					c0.039-0.11,0.031-0.219-0.021-0.326L53.509,7.91c0.723-0.111,1.322-0.426,1.798-0.943c0.484-0.523,0.728-1.127,0.728-1.814
					c0-0.774-0.297-1.435-0.889-1.982c-0.597-0.547-1.314-0.82-2.154-0.82H49.694z M54.549,6.51
					c-0.412,0.377-0.914,0.571-1.506,0.58h-2.912V3.207h2.86c0.602,0,1.116,0.191,1.544,0.573c0.427,0.377,0.64,0.834,0.64,1.372
					C55.175,5.68,54.967,6.133,54.549,6.51L54.549,6.51z M45.342,12.745c0.122,0,0.224-0.044,0.306-0.131
					c0.087-0.082,0.131-0.185,0.131-0.305c0-0.121-0.044-0.222-0.131-0.305c-0.082-0.087-0.184-0.131-0.306-0.131H40V7.969h3.994
					c0.122,0,0.225-0.044,0.307-0.131c0.087-0.082,0.131-0.184,0.131-0.305s-0.044-0.223-0.131-0.305
					c-0.082-0.088-0.185-0.131-0.307-0.131H40V3.192l5.342,0.015c0.122,0,0.224-0.042,0.306-0.124
					c0.087-0.087,0.131-0.191,0.131-0.312c0-0.116-0.044-0.218-0.131-0.305c-0.082-0.087-0.184-0.13-0.306-0.13l-5.779-0.015
					c-0.117-0.005-0.219,0.039-0.306,0.131c-0.088,0.082-0.131,0.184-0.131,0.305v9.552c0,0.12,0.043,0.223,0.131,0.305
					c0.083,0.087,0.185,0.131,0.306,0.131H45.342z M29.307,12.541c0.088-0.082,0.131-0.184,0.131-0.305V9.465L30.733,8.1
					l4.302,4.515c0.087,0.087,0.191,0.131,0.312,0.131c0.117,0,0.217-0.038,0.299-0.116c0.087-0.082,0.133-0.184,0.139-0.305
					c0-0.121-0.041-0.223-0.124-0.305L31.33,7.475l4.186-4.383c0.083-0.088,0.122-0.191,0.116-0.313
					c0-0.116-0.044-0.215-0.131-0.297s-0.191-0.124-0.313-0.124c-0.115,0.005-0.215,0.051-0.298,0.138l-5.452,5.72V2.75
					c0-0.116-0.043-0.217-0.131-0.305c-0.082-0.082-0.184-0.124-0.306-0.124c-0.116,0-0.218,0.042-0.306,0.124
					c-0.082,0.087-0.123,0.188-0.123,0.305v9.487c0,0.121,0.041,0.223,0.123,0.305c0.088,0.088,0.189,0.131,0.306,0.131
					C29.123,12.672,29.225,12.629,29.307,12.541L29.307,12.541z M17.014,12.745c0.193,0,0.328-0.089,0.4-0.269l0.902-2.163h5.314
					l0.901,2.163c0.073,0.18,0.206,0.269,0.4,0.269c0.058,0,0.114-0.013,0.167-0.036c0.112-0.043,0.189-0.121,0.233-0.232
					c0.049-0.111,0.049-0.223,0-0.334L24.32,9.711V9.703l-2.947-7.092c-0.01-0.024-0.021-0.05-0.036-0.079
					c0,0.004-0.009-0.005-0.028-0.03c-0.015-0.02-0.025-0.031-0.029-0.036c-0.006,0-0.018-0.01-0.037-0.029l-0.029-0.022
					c-0.047-0.034-0.102-0.056-0.16-0.065h-0.036c-0.024-0.005-0.039-0.007-0.044-0.007c-0.004,0-0.021,0.002-0.051,0.007h-0.036
					c-0.054,0.009-0.104,0.031-0.152,0.065c0.004-0.004-0.005,0.003-0.028,0.022c-0.021,0.015-0.033,0.024-0.037,0.029
					c-0.005,0.005-0.016,0.017-0.029,0.036l-0.029,0.03c-0.015,0.029-0.027,0.055-0.037,0.079l-2.947,7.092v0.008l-1.012,2.432
					c-0.049,0.111-0.049,0.223,0,0.334c0.045,0.111,0.121,0.189,0.232,0.232C16.9,12.732,16.956,12.745,17.014,12.745L17.014,12.745
					z M18.674,9.443l2.299-5.532l2.301,5.532H18.674z M3.658,4.347l3.909,6.438l0.008,0.008V10.8c0.01,0.01,0.02,0.021,0.028,0.036
					c0.01,0.01,0.02,0.02,0.028,0.029c0.01,0.009,0.02,0.02,0.029,0.029c0.016,0.01,0.027,0.019,0.037,0.029
					c0.023,0.014,0.029,0.017,0.014,0.006c0.006,0,0.008,0.003,0.008,0.008h0.015c0.015,0.01,0.029,0.018,0.044,0.022
					c0.01,0.005,0.021,0.009,0.036,0.014s0.029,0.007,0.044,0.007c0.01,0.006,0.021,0.008,0.037,0.008
					c0.014,0.005,0.028,0.008,0.043,0.008s0.029-0.003,0.044-0.008c0.015,0,0.026-0.002,0.036-0.008
					c0.014,0,0.029-0.002,0.043-0.007c0.016-0.005,0.027-0.009,0.037-0.014c0.015-0.005,0.029-0.013,0.043-0.022
					c0.021-0.01,0.027-0.012,0.021-0.008c-0.014,0.011-0.009,0.008,0.016-0.006c0.01-0.011,0.021-0.02,0.036-0.029
					c0.011-0.01,0.02-0.021,0.029-0.029l0.028-0.029c0.011-0.015,0.021-0.026,0.029-0.036v-0.007
					c0.006-0.006,0.008-0.008,0.008-0.008l3.909-6.438v7.963c0,0.12,0.041,0.226,0.123,0.312c0.087,0.083,0.188,0.124,0.306,0.124
					c0.121,0,0.223-0.041,0.306-0.124c0.088-0.086,0.13-0.191,0.13-0.312V2.793c0-0.218-0.105-0.356-0.319-0.414
					c-0.208-0.058-0.37,0.007-0.487,0.196l-4.338,7.15L3.6,2.575C3.483,2.386,3.32,2.321,3.112,2.379
					c-0.213,0.058-0.32,0.196-0.32,0.414v9.516c0,0.12,0.041,0.226,0.123,0.312c0.088,0.083,0.192,0.124,0.313,0.124
					c0.116,0,0.218-0.041,0.305-0.124c0.083-0.086,0.124-0.191,0.124-0.312V4.347z"/>
			</g>
		</g>
	</g>
</g>
</svg>
