<?xml version="1.0" encoding="utf-8"?>
<!-- Generator: Adobe Illustrator 16.0.4, SVG Export Plug-In . SVG Version: 6.00 Build 0)  -->
<!DOCTYPE svg PUBLIC "-//W3C//DTD SVG 1.1//EN" "http://www.w3.org/Graphics/SVG/1.1/DTD/svg11.dtd">
<svg version="1.1" id="Layer_1" xmlns="http://www.w3.org/2000/svg" xmlns:xlink="http://www.w3.org/1999/xlink" x="0px" y="0px"
	 width="122px" height="52px" viewBox="8.5 0 122 52" enable-background="new 8.5 0 122 52" xml:space="preserve">
<path fill="#AAAAAC" d="M40.315,26.361c-2.289,0.131-3.723-0.396-6.012-0.266c-0.567,0.032-1.131,0.113-1.685,0.243
	c0.338-4.179,3.333-7.834,7.407-8.066c2.5-0.142,4.999,1.382,5.134,3.855C45.293,24.559,43.416,26.185,40.315,26.361L40.315,26.361z
	 M34.17,34.909c-2.395,0.133-4.789-1.294-4.918-3.607c-0.128-2.275,1.671-3.798,4.641-3.963c2.192-0.122,3.566,0.37,5.758,0.248
	c0.543-0.029,1.084-0.105,1.614-0.228C40.942,31.271,38.072,34.692,34.17,34.909z M37.095,7.686C26.549,7.686,18,16.125,18,26.536
	c0,10.41,8.549,18.85,19.095,18.85s19.095-8.439,19.095-18.85C56.189,16.125,47.641,7.686,37.095,7.686"/>
<path fill="#AAAAAC" d="M64.813,29.314h2.915c0,0.424,0.139,0.727,0.417,0.911c0.279,0.185,0.637,0.276,1.073,0.276
	c0.361,0,0.657-0.059,0.888-0.181s0.346-0.32,0.346-0.598c0-0.163-0.049-0.298-0.148-0.402c-0.097-0.104-0.248-0.197-0.45-0.279
	c-0.255-0.1-0.514-0.19-0.775-0.271l-1.143-0.359c-0.379-0.121-0.755-0.254-1.125-0.397c-0.351-0.138-0.659-0.309-0.925-0.513
	c-0.262-0.2-0.475-0.456-0.622-0.749c-0.148-0.294-0.223-0.658-0.223-1.093c0-0.499,0.098-0.93,0.294-1.294
	c0.195-0.364,0.479-0.673,0.826-0.901c0.354-0.236,0.778-0.414,1.272-0.532s1.038-0.177,1.633-0.177c0.729,0,1.354,0.083,1.88,0.249
	c0.525,0.167,0.956,0.394,1.291,0.681s0.583,0.626,0.745,1.016s0.242,0.809,0.242,1.257h-2.934c0-0.391-0.1-0.694-0.299-0.911
	c-0.2-0.218-0.501-0.326-0.907-0.326c-0.31,0-0.576,0.068-0.797,0.206c-0.222,0.137-0.332,0.344-0.332,0.618
	c0,0.185,0.052,0.333,0.157,0.443c0.105,0.111,0.259,0.212,0.461,0.301c0.204,0.088,0.454,0.181,0.751,0.276l1.024,0.327
	c0.417,0.109,0.806,0.229,1.168,0.362c0.359,0.132,0.678,0.293,0.951,0.483c0.272,0.185,0.496,0.429,0.656,0.713
	c0.162,0.286,0.242,0.649,0.242,1.089c0,0.58-0.115,1.074-0.342,1.482c-0.221,0.4-0.535,0.741-0.916,0.996
	c-0.383,0.257-0.828,0.44-1.334,0.551c-0.506,0.111-1.038,0.167-1.595,0.167c-1.387,0-2.461-0.292-3.224-0.877
	S64.813,30.426,64.813,29.314L64.813,29.314z M73.673,25.368v-2.229h1.447v-2.804h2.943v2.804h2.104v2.23h-2.104v3.358
	c0,0.349,0.03,0.626,0.093,0.832s0.152,0.368,0.268,0.485c0.115,0.116,0.262,0.196,0.424,0.229c0.185,0.036,0.372,0.055,0.56,0.052
	c0.124,0,0.285-0.004,0.48-0.014c0.193-0.01,0.362-0.028,0.507-0.053v2.323c-0.273,0.046-0.547,0.08-0.823,0.106
	c-0.329,0.032-0.716,0.048-1.161,0.048c-0.365-0.002-0.73-0.026-1.093-0.075c-0.382-0.051-0.747-0.188-1.065-0.403
	c-0.327-0.216-0.598-0.549-0.812-0.999c-0.214-0.449-0.32-1.066-0.32-1.851v-4.04H73.673z M84.059,28.044
	c0,0.327,0.057,0.64,0.171,0.938c0.113,0.299,0.27,0.556,0.467,0.77c0.202,0.219,0.445,0.396,0.716,0.521
	c0.279,0.132,0.591,0.197,0.935,0.197s0.657-0.065,0.938-0.197c0.284-0.133,0.522-0.306,0.721-0.521
	c0.198-0.214,0.354-0.47,0.468-0.765c0.114-0.301,0.173-0.621,0.171-0.942c0.002-0.315-0.057-0.63-0.171-0.925
	c-0.109-0.281-0.268-0.542-0.468-0.77c-0.198-0.225-0.441-0.405-0.715-0.529c-0.278-0.129-0.595-0.192-0.944-0.192
	c-0.344,0-0.655,0.063-0.935,0.191c-0.273,0.125-0.518,0.306-0.716,0.53c-0.2,0.228-0.357,0.488-0.467,0.77
	C84.114,27.414,84.057,27.729,84.059,28.044z M81.005,28.044c0-0.712,0.116-1.374,0.348-1.983c0.232-0.609,0.556-1.135,0.97-1.574
	c0.412-0.437,0.905-0.792,1.453-1.044c0.556-0.256,1.156-0.385,1.803-0.385c0.72,0,1.345,0.15,1.873,0.452
	c0.53,0.302,0.928,0.684,1.193,1.146v-1.357h3.054v9.501h-3.054v-1.338c-0.24,0.437-0.627,0.808-1.158,1.115
	c-0.533,0.308-1.169,0.463-1.908,0.463c-0.641,0-1.239-0.129-1.798-0.386c-0.55-0.251-1.046-0.607-1.458-1.049
	c-0.414-0.442-0.737-0.969-0.97-1.578C81.121,29.416,81.005,28.756,81.005,28.044L81.005,28.044z M92.31,25.368v-2.229h1.447v-2.804
	h2.942v2.804h2.105v2.23h-2.105v3.358c0,0.349,0.031,0.626,0.094,0.832c0.062,0.206,0.151,0.368,0.269,0.485
	c0.114,0.116,0.262,0.196,0.422,0.229c0.185,0.037,0.372,0.055,0.56,0.052c0.126,0,0.286-0.004,0.479-0.014
	c0.194-0.01,0.363-0.028,0.508-0.053v2.323c-0.271,0.046-0.547,0.08-0.822,0.106c-0.329,0.032-0.716,0.048-1.161,0.048
	c-0.366-0.002-0.731-0.026-1.092-0.075c-0.383-0.051-0.748-0.188-1.067-0.403c-0.326-0.216-0.597-0.549-0.81-0.999
	c-0.215-0.449-0.321-1.066-0.321-1.851v-4.04H92.31L92.31,25.368z M100.253,28.662v-5.604h2.994v4.839
	c0,0.677,0.121,1.226,0.362,1.65c0.242,0.424,0.674,0.637,1.297,0.637s1.083-0.215,1.38-0.646c0.296-0.43,0.442-1.012,0.442-1.745
	v-4.734h2.995v9.439h-2.995v-1.349c-0.26,0.498-0.658,0.887-1.191,1.167c-0.535,0.281-1.173,0.421-1.918,0.421
	c-0.653,0-1.19-0.102-1.611-0.306c-0.419-0.204-0.761-0.462-1.024-0.774c-0.302-0.364-0.499-0.784-0.591-1.263
	C100.299,29.915,100.253,29.338,100.253,28.662L100.253,28.662z M110.945,29.314h2.914c0,0.424,0.141,0.727,0.418,0.911
	c0.279,0.185,0.637,0.276,1.073,0.276c0.361,0,0.657-0.059,0.888-0.181c0.231-0.122,0.348-0.32,0.348-0.598
	c0-0.163-0.05-0.298-0.147-0.402c-0.099-0.104-0.249-0.197-0.451-0.279c-0.256-0.1-0.515-0.19-0.775-0.271l-1.144-0.359
	c-0.378-0.121-0.754-0.254-1.124-0.397c-0.352-0.138-0.661-0.309-0.925-0.513c-0.264-0.2-0.476-0.456-0.623-0.749
	c-0.148-0.294-0.223-0.658-0.223-1.093c0-0.499,0.098-0.93,0.294-1.294c0.196-0.364,0.479-0.673,0.826-0.901
	c0.354-0.236,0.777-0.414,1.271-0.532s1.039-0.177,1.634-0.177c0.727,0,1.354,0.083,1.881,0.249c0.523,0.167,0.954,0.394,1.29,0.681
	c0.335,0.288,0.584,0.626,0.746,1.016c0.16,0.39,0.242,0.809,0.242,1.257h-2.935c0-0.391-0.1-0.694-0.3-0.911
	c-0.2-0.218-0.501-0.326-0.905-0.326c-0.311,0-0.577,0.068-0.799,0.206c-0.222,0.137-0.332,0.344-0.332,0.618
	c0,0.185,0.052,0.333,0.157,0.443c0.104,0.111,0.258,0.212,0.461,0.301c0.203,0.088,0.454,0.181,0.751,0.276l1.024,0.327
	c0.396,0.102,0.785,0.223,1.168,0.362c0.359,0.132,0.678,0.293,0.954,0.483c0.271,0.185,0.494,0.429,0.654,0.713
	c0.162,0.286,0.242,0.649,0.242,1.089c0,0.58-0.113,1.074-0.343,1.482c-0.22,0.4-0.534,0.741-0.915,0.996
	c-0.384,0.257-0.828,0.44-1.334,0.551c-0.506,0.111-1.038,0.167-1.596,0.167c-1.386,0-2.46-0.292-3.222-0.877
	C111.326,31.274,110.945,30.426,110.945,29.314"/>
</svg>
