<svg width="140" height="52" viewBox="0 0 140 52" fill="none" xmlns="http://www.w3.org/2000/svg">
<path fill-rule="evenodd" clip-rule="evenodd" d="M30.7801 25.7599C27.6234 25.9394 25.6451 25.2135 22.488 25.3935C21.705 25.4369 20.9274 25.549 20.1643 25.7283C20.6303 19.9647 24.7624 14.9229 30.3812 14.6024C33.8293 14.406 37.2756 16.5076 37.4626 19.9193C37.6465 23.2726 35.0565 25.5159 30.7805 25.7594L30.7801 25.7599ZM22.3032 37.549C19 37.7332 15.6989 35.7658 15.5196 32.5732C15.3433 29.4348 17.825 27.3353 21.9213 27.1074C24.945 26.9391 26.8405 27.6188 29.8642 27.4501C30.6139 27.4096 31.3587 27.3047 32.0901 27.1368C31.6445 32.5307 27.6862 37.2496 22.3032 37.549ZM26.3375 0.00042057C11.7916 -5.43472e-09 0 11.6403 0 26C0 40.3597 11.7916 52 26.3375 52C40.8835 52 52.675 40.3593 52.675 26C52.675 11.6407 40.8835 0 26.3375 0" fill="#AAAAAC"/>
<path fill-rule="evenodd" clip-rule="evenodd" d="M64.5693 29.8316H68.5896C68.5896 30.4158 68.7816 30.8351 69.1657 31.0896C69.5501 31.344 70.0433 31.4714 70.6457 31.4714C71.1435 31.4714 71.5513 31.3882 71.8703 31.2208C72.1889 31.0534 72.3482 30.7792 72.3482 30.3973C72.3482 30.1719 72.2803 29.9868 72.1452 29.843C72.0097 29.6991 71.8024 29.5704 71.5229 29.4577C71.1715 29.3195 70.8148 29.195 70.4536 29.0842L68.8776 28.588C68.3547 28.4214 67.8371 28.2385 67.3259 28.0395C66.8416 27.8503 66.4159 27.6139 66.0493 27.3317C65.6881 27.0566 65.3947 26.7038 65.1912 26.3C64.9861 25.8946 64.8837 25.392 64.8837 24.7927C64.8837 24.1046 65.0192 23.5099 65.2894 23.0069C65.5592 22.5053 65.9509 22.0781 66.4291 21.7637C66.9176 21.4373 67.503 21.1926 68.1835 21.0298C68.8649 20.8666 69.6155 20.785 70.4362 20.785C71.4405 20.785 72.3045 20.8994 73.0292 21.1286C73.7535 21.3583 74.3473 21.6712 74.8104 22.0678C75.2726 22.4648 75.6154 22.9321 75.8384 23.47C76.061 24.0079 76.1723 24.5853 76.1723 25.2028H72.1256C72.1256 24.6644 71.988 24.2459 71.7127 23.9461C71.4379 23.6462 71.0212 23.4961 70.4626 23.4961C70.0348 23.4961 69.6682 23.5911 69.3623 23.7808C69.0565 23.97 68.904 24.2548 68.904 24.6337C68.904 24.8882 68.9762 25.0921 69.1206 25.2452C69.2651 25.3983 69.477 25.5367 69.7565 25.6591C70.0369 25.7819 70.3819 25.9093 70.7931 26.0405L72.2059 26.4931C72.7815 26.6428 73.3185 26.8085 73.8159 26.9915C74.3129 27.1744 74.7518 27.3969 75.1311 27.6585C75.5048 27.9133 75.814 28.2501 76.0346 28.6426C76.2572 29.0371 76.3685 29.538 76.3685 30.1441C76.3685 30.9445 76.2114 31.6258 75.897 32.1885C75.5928 32.74 75.1594 33.2112 74.6332 33.5625C74.1052 33.9158 73.4918 34.1694 72.7934 34.3229C72.0951 34.4765 71.3619 34.553 70.5934 34.553C68.6818 34.553 67.1993 34.1497 66.1475 33.343C65.0952 32.5363 64.5693 31.3655 64.5693 29.8312V29.8316ZM76.7899 24.3898V21.3149H78.7865V17.4478H82.845V21.3149H85.7494V24.3902H82.845V29.0228C82.845 29.504 82.8883 29.8867 82.9746 30.171C83.0608 30.4553 83.184 30.6787 83.3442 30.8402C83.5021 31.0011 83.7056 31.111 83.9278 31.1552C84.1817 31.2057 84.4403 31.2298 84.6993 31.2271C84.8717 31.2271 85.0926 31.2208 85.3607 31.2073C85.6283 31.1947 85.8619 31.1703 86.0607 31.135V34.3398C85.6845 34.4026 85.306 34.4516 84.9261 34.4865C84.4724 34.5311 83.9384 34.5534 83.3246 34.5534C82.8204 34.5513 82.3169 34.5162 81.8174 34.4483C81.2907 34.3784 80.7875 34.1884 80.3476 33.8931C79.8965 33.5945 79.5235 33.1344 79.2291 32.5145C78.9339 31.8941 78.7865 31.0424 78.7865 29.9603V24.3898H76.7899ZM91.1154 28.0795C91.1154 28.5308 91.194 28.9623 91.3508 29.374C91.5071 29.7853 91.7225 30.1395 91.9952 30.436C92.2737 30.7364 92.609 30.98 92.982 31.1531C93.3668 31.3347 93.7967 31.4252 94.2712 31.4252C94.7453 31.4252 95.1778 31.3347 95.5669 31.1531C95.9568 30.9714 96.2878 30.7325 96.5609 30.436C96.8341 30.1399 97.0486 29.7883 97.2053 29.3803C97.3637 28.9647 97.4434 28.5237 97.4407 28.0795C97.4435 27.6439 97.3637 27.2116 97.2053 26.8051C97.0547 26.4166 96.8366 26.057 96.5609 25.7428C96.2878 25.4331 95.9515 25.1842 95.5741 25.0127C95.1888 24.836 94.7542 24.7473 94.2712 24.7473C93.7967 24.7473 93.3668 24.8356 92.982 25.0122C92.6046 25.184 92.2683 25.433 91.9952 25.7428C91.7195 26.0571 91.5015 26.4166 91.3508 26.8051C91.1924 27.2116 91.1126 27.6439 91.1154 28.0795ZM86.9035 28.0795C86.9035 27.097 87.0633 26.1852 87.3831 25.3445C87.7026 24.5033 88.1478 23.7799 88.72 23.1739C89.2882 22.5701 89.9691 22.081 90.725 21.7334C91.4905 21.3793 92.3189 21.2022 93.2105 21.2022C94.2041 21.2022 95.066 21.4104 95.7954 21.8259C96.5252 22.2423 97.0736 22.7689 97.4407 23.4061V21.5341H101.653V34.6384H97.4407V32.7925C97.1093 33.3939 96.5762 33.9074 95.8426 34.3322C95.1085 34.757 94.2309 34.9698 93.2105 34.9698C92.3282 34.9698 91.502 34.7927 90.7323 34.4386C89.9721 34.0916 89.2883 33.5998 88.72 32.9914C88.1482 32.3807 87.7026 31.6552 87.3831 30.8141C87.0633 29.9733 86.9035 29.0615 86.9035 28.0791V28.0795ZM102.495 24.3894V21.3149H104.492V17.4478H108.55V21.3149H111.455V24.3902H108.55V29.0228C108.55 29.504 108.594 29.8867 108.68 30.171C108.766 30.4553 108.889 30.6787 109.05 30.8402C109.208 31.0011 109.411 31.111 109.633 31.1552C109.887 31.2058 110.146 31.2299 110.405 31.2271C110.577 31.2271 110.798 31.2208 111.066 31.2073C111.334 31.1947 111.567 31.1703 111.766 31.135V34.3398C111.39 34.4026 111.011 34.4516 110.632 34.4865C110.178 34.5311 109.644 34.5534 109.03 34.5534C108.526 34.5513 108.022 34.5162 107.523 34.4483C106.996 34.3784 106.493 34.1884 106.053 33.8931C105.602 33.5945 105.229 33.1344 104.935 32.5145C104.639 31.8941 104.492 31.0424 104.492 29.9603V24.3898H102.495V24.3894ZM113.452 28.9324V21.2022H117.582V27.8776C117.582 28.81 117.749 29.5683 118.082 30.1534C118.415 30.738 119.012 31.0307 119.871 31.0307C120.731 31.0307 121.365 30.7337 121.773 30.1399C122.181 29.5465 122.385 28.744 122.385 27.7325V21.2022H126.515V34.2233H122.385V32.3631C122.025 33.049 121.477 33.5857 120.74 33.9726C120.003 34.3595 119.122 34.553 118.095 34.553C117.193 34.553 116.453 34.4121 115.873 34.1307C115.294 33.8494 114.823 33.4936 114.46 33.0625C114.044 32.5607 113.772 31.9803 113.644 31.3213C113.516 30.661 113.452 29.8653 113.452 28.9328V28.9324ZM128.201 29.8316H132.221C132.221 30.4158 132.413 30.8351 132.797 31.0896C133.181 31.344 133.675 31.4714 134.277 31.4714C134.775 31.4714 135.183 31.3882 135.501 31.2208C135.82 31.0534 135.98 30.7792 135.98 30.3973C135.98 30.1719 135.912 29.9868 135.777 29.843C135.641 29.6991 135.434 29.5704 135.154 29.4577C134.803 29.3196 134.446 29.195 134.085 29.0842L132.509 28.588C131.986 28.4214 131.469 28.2385 130.957 28.0395C130.473 27.8503 130.047 27.6139 129.681 27.3317C129.319 27.0566 129.026 26.7038 128.823 26.3C128.617 25.8946 128.515 25.392 128.515 24.7927C128.515 24.1046 128.65 23.5099 128.921 23.0069C129.191 22.5053 129.582 22.0781 130.061 21.7637C130.549 21.4373 131.134 21.1926 131.815 21.0298C132.496 20.8666 133.247 20.785 134.068 20.785C135.071 20.785 135.936 20.8994 136.661 21.1286C137.385 21.3583 137.979 21.6712 138.442 22.0678C138.904 22.4648 139.247 22.9321 139.47 23.47C139.692 24.0079 139.804 24.5853 139.804 25.2028H135.757C135.757 24.6644 135.619 24.2459 135.344 23.9461C135.069 23.6462 134.652 23.4961 134.094 23.4961C133.666 23.4961 133.299 23.5911 132.993 23.7808C132.688 23.97 132.535 24.2548 132.535 24.6337C132.535 24.8882 132.608 25.0921 132.752 25.2452C132.896 25.3983 133.108 25.5367 133.388 25.6591C133.668 25.7819 134.013 25.9093 134.424 26.0405L135.837 26.4931C136.382 26.633 136.919 26.7993 137.447 26.9915C137.944 27.1744 138.383 27.3969 138.763 27.6585C139.136 27.9133 139.445 28.2501 139.666 28.6426C139.889 29.0371 140 29.538 140 30.1441C140 30.9445 139.843 31.6258 139.528 32.1885C139.224 32.7401 138.791 33.2113 138.265 33.5625C137.737 33.9158 137.123 34.1694 136.425 34.3229C135.726 34.4765 134.993 34.553 134.225 34.553C132.313 34.553 130.831 34.1497 129.779 33.343C128.727 32.5363 128.201 31.3655 128.201 29.8312" fill="#AAAAAC"/>
</svg>
