<?xml version="1.0" encoding="utf-8"?>
<!-- Generator: Adobe Illustrator 16.0.4, SVG Export Plug-In . SVG Version: 6.00 Build 0)  -->
<!DOCTYPE svg PUBLIC "-//W3C//DTD SVG 1.1//EN" "http://www.w3.org/Graphics/SVG/1.1/DTD/svg11.dtd">
<svg version="1.1" id="Layer_1" xmlns="http://www.w3.org/2000/svg" xmlns:xlink="http://www.w3.org/1999/xlink" x="0px" y="0px"
	 width="720px" height="983px" viewBox="440.5 0 720 983" enable-background="new 440.5 0 720 983" xml:space="preserve">
<title>Group 20</title>
<desc>Created with Sketch.</desc>
<radialGradient id="SVGID_1_" cx="804.5" cy="204.0615" r="215.0615" gradientUnits="userSpaceOnUse">
	<stop  offset="0" style="stop-color:#997ADC;stop-opacity:0.753"/>
	<stop  offset="0.1475" style="stop-color:#A286DF;stop-opacity:0.6419"/>
	<stop  offset="0.415" style="stop-color:#BBA6E8;stop-opacity:0.4404"/>
	<stop  offset="0.7693" style="stop-color:#E2DAF5;stop-opacity:0.1735"/>
	<stop  offset="0.9995" style="stop-color:#FFFFFF;stop-opacity:0"/>
</radialGradient>
<circle fill="url(#SVGID_1_)" cx="804.5" cy="204.062" r="215.062"/>
<g>
	<path fill="#FFFFFF" d="M799.394,136.868l9.529,7.465c2.54-4.765,4.606-9.053,11.118-18.423
		C807.652,131.151,799.394,136.868,799.394,136.868z"/>
	<path fill="#FFFFFF" d="M722.048,125.274c-0.158-2.223-0.635-6.987-1.27-8.735c-1.588-4.605-7.941-15.405-10.799-20.17
		c-0.159-0.318-0.635,0-0.477,0.317l10.482,30.017c0.318-0.159,0.635-0.477,0.794-0.635
		C721.096,125.751,721.572,125.433,722.048,125.274z"/>
	<path fill="#FFFFFF" d="M711.09,136.233c-0.635,0.635-1.747,0-1.747,0s-8.259-8.735-9.847-9.688
		c-4.605-2.858-18.741-4.765-23.823-5.4c-0.318,0-0.477,0.477-0.159,0.477c0,0,33.352,17.471,33.511,17.153
		C709.661,137.821,710.455,137.027,711.09,136.233z"/>
	<path fill="#FFFFFF" d="M854.027,313c2.541,1.747,7.941,1.588,10.959,1.43l3.494-0.636c0.317,0,0.317-0.477,0.158-0.477
		c-5.399-2.381-26.681-14.134-31.287-22.234c-0.953-1.747,2.699-13.977,2.699-13.977l-16.676-5.083c0,0,6.035,16.994,8.576,20.488
		C835.604,297.594,847.357,308.394,854.027,313z"/>
	<path fill="#FFFFFF" d="M867.209,227.237c-1.904-1.429-2.064,0-7.305,13.659c-5.241,13.5-19.535,31.446-42.724,26.523
		c0.794,1.111,1.905,1.906,3.177,3.017c1.111,1.112,5.876,4.606,5.876,4.606s10.006,8.735,19.376,10.64
		c23.029,4.605,32.877-21.44,35.893-29.222c1.906-4.923,3.654-14.453,3.971-20.488c0-1.11,0-4.288-0.635-3.652
		c-2.224,2.382-5.24,2.224-8.735,1.271C872.768,232.796,868.321,228.19,867.209,227.237z"/>
	<path fill="#FFFFFF" d="M930.103,74.929L930.103,74.929c-2.064-2.541-3.812-4.447-6.193-5.718
		c-6.354-4.129-15.247-5.241-29.382,0.159c-14.771,5.558-26.205,13.022-36.211,21.6c-30.97,24.141-43.358,56.539-43.358,56.539
		s5.559,3.334,7.782,4.447c5.24,3.018,13.5,7.783,13.5,7.783s38.275,1.904,64.798-14.612c12.389-7.782,30.652-38.276,31.923-57.811
		C933.597,82.394,932.803,78.264,930.103,74.929z"/>
	<path fill="#FFFFFF" d="M951.226,121.463c-0.318-5.241-16.359-11.594-17.947-8.1c-5.082,10.799-12.864,27.476-29.539,37.005
		C918.985,146.08,952.178,136.868,951.226,121.463z"/>
	<path fill="#FFFFFF" d="M817.023,176.414c-20.807,10.482-26.841,30.176-26.523,43.834c0.158,3.812,0.635,7.624,1.588,10.8
		c1.27,4.448,1.428,5.241,3.176,9.212c2.699-22.076,10.64-40.022,25.569-51.14c9.371-6.988,17.312-8.577,23.347-8.577
		c2.224-0.158,6.035,0.159,6.67,0.477C848.627,178.002,836.717,166.25,817.023,176.414z"/>
	<path fill="#FFFFFF" d="M863.715,191.979c-3.652-3.494-4.764-3.652-7.781-5.399c-4.605-0.635-13.341-0.793-22.712,3.812
		c-15.882,7.941-23.981,21.758-30.175,40.657c-2.382,7.146-3.176,16.2-3.017,16.359c5.241,7.781,7.623,12.388,14.611,14.134
		c20.17,4.924,33.987-13.658,39.547-26.363c2.859-6.67,7.464-19.376,8.734-20.012c2.225-1.271,6.672,5.718,9.53,8.735
		c3.812,3.812,6.828,5.242,10.482,4.447C892.938,226.125,871.021,198.808,863.715,191.979z"/>
	<path fill="#FFFFFF" d="M837.034,333.169c-3.97-2.699-25.093-17.629-28.429-25.888c-2.064-4.922,0.953-16.041,0-21.281
		c-0.477-2.382-2.541-10.958-4.447-16.201c-3.652-9.847-14.611-28.429-17.629-38.434c-0.476-1.747-6.511-26.046,6.989-44.151
		c17.945-24.141,34.781-21.918,40.975-20.012c-3.811-5.399-20.963-10.005-26.84-14.452c-7.464-5.717-19.217-18.106-28.111-22.871
		c-2.223-1.27-4.288-2.064-6.511-2.7c-2.223-0.635-4.605-0.477-7.305-0.635c-3.971,0-28.587,2.382-39.705,32.717
		c-7.305,20.011-1.429,28.588,0.159,31.288c0.477,0.793,1.111,1.588,1.905,2.381c5.241,5.56,15.882,13.659,16.359,21.917
		c0.158,3.811-6.353,8.417-6.988,12.229c-1.27,8.418,5.082,26.523,7.465,34.623c2.541,8.099,12.388,31.764,12.388,31.764
		c-0.158-2.064,0.953-3.97,1.429-4.765c0,0,3.653,1.588,4.606,2.7l0.794,1.111c0,0-0.159-0.477-0.635-1.271
		c-2.224-4.447-8.417-16.835-11.118-22.711c-0.953-2.064-2.223-5.241-3.335-7.782c-2.223-5.082-0.158-18.106,2.224-23.029
		c2.7-5.399,9.846-7.146,9.846-7.146s22.711,28.587,27.793,39.546c3.494,7.624,4.605,25.094,8.417,32.559
		c3.495,6.988,17.153,20.487,24.3,27.476c2.858,2.699,6.671,4.129,10.642,3.811l4.445-0.317
		C837.034,333.646,837.192,333.329,837.034,333.169z"/>
	<path fill="#FFFFFF" d="M722.524,194.838c-0.793-0.953-1.905-2.382-2.223-3.018c-0.953-1.747-3.812-6.67-3.335-15.087
		c-0.317-3.812-0.953-0.794-0.953-0.477c-2.064,5.082-1.905,15.247,0.794,22.552c2.858,7.465-3.017,15.087-5.082,19.695
		c-1.747,3.97-2.065,5.399-0.477,3.651c2.542-2.381,11.435-10.64,13.023-13.499c0,0,1.747-2.382,1.905-9.848
		C724.907,197.379,723.636,195.95,722.524,194.838z"/>
	<path fill="#FFFFFF" d="M743.172,127.021c5.241-2.7,9.529-3.018,7.782-2.858c-5.4,0.159-11.752,0.953-17.788,5.241
		c-0.159,0.158-0.794-0.318-1.588-0.952c-2.064-2.065-6.67-3.494-9.529-3.018c-5.241,0.794-10.799,2.223-16.041,10.324
		c-5.399,8.418-14.77,36.529-6.194,41.61c2.858,1.588,10.482-4.605,17.153-9.052c1.271-3.335,3.017-9.848,4.765-14.135
		C729.83,133.851,738.407,130.039,743.172,127.021z M719.507,135.757c-1.747,1.112-6.353,2.383-7.464,0
		c-0.635-1.27,2.542-3.176,4.606-2.858C717.761,133.215,720.778,134.963,719.507,135.757z"/>
</g>
</svg>
