<?xml version="1.0" encoding="utf-8"?>
<!-- Generator: Adobe Illustrator 16.0.4, SVG Export Plug-In . SVG Version: 6.00 Build 0)  -->
<!DOCTYPE svg PUBLIC "-//W3C//DTD SVG 1.1//EN" "http://www.w3.org/Graphics/SVG/1.1/DTD/svg11.dtd">
<svg version="1.1" id="Layer_1" xmlns="http://www.w3.org/2000/svg" xmlns:xlink="http://www.w3.org/1999/xlink" x="0px" y="0px"
	 width="1600px" height="879px" viewBox="0 84 1600 879" enable-background="new 0 84 1600 879" xml:space="preserve">
<filter  height="106.0%" width="105.6%" x="-2.8%" y="-3.0%" id="filter-8" filterUnits="objectBoundingBox">
	<feGaussianBlur  in="SourceAlpha" result="shadowBlurInner1" stdDeviation="5"></feGaussianBlur>
	<feOffset  in="shadowBlurInner1" result="shadowOffsetInner1" dx="2" dy="2"></feOffset>
	<feComposite  in2="SourceAlpha" k3="1" k2="-1" in="shadowOffsetInner1" result="shadowInnerInner1" operator="arithmetic">
		</feComposite>
	<feColorMatrix  type="matrix" values="0 0 0 0 0   0 0 0 0 0   0 0 0 0 0  0 0 0 0.155485734 0" in="shadowInnerInner1">
		</feColorMatrix>
</filter>
<filter  height="106.0%" width="105.6%" x="-2.8%" y="-3.0%" id="filter-6" filterUnits="objectBoundingBox">
	<feGaussianBlur  in="SourceAlpha" result="shadowBlurInner1" stdDeviation="5"></feGaussianBlur>
	<feOffset  in="shadowBlurInner1" result="shadowOffsetInner1" dx="2" dy="2"></feOffset>
	<feComposite  in2="SourceAlpha" k3="1" k2="-1" in="shadowOffsetInner1" result="shadowInnerInner1" operator="arithmetic">
		</feComposite>
	<feColorMatrix  type="matrix" values="0 0 0 0 0   0 0 0 0 0   0 0 0 0 0  0 0 0 0.155485734 0" in="shadowInnerInner1">
		</feColorMatrix>
</filter>
<filter  height="106.0%" width="105.6%" x="-2.8%" y="-3.0%" id="filter-4" filterUnits="objectBoundingBox">
	<feGaussianBlur  in="SourceAlpha" result="shadowBlurInner1" stdDeviation="5"></feGaussianBlur>
	<feOffset  in="shadowBlurInner1" result="shadowOffsetInner1" dx="2" dy="2"></feOffset>
	<feComposite  in2="SourceAlpha" k3="1" k2="-1" in="shadowOffsetInner1" result="shadowInnerInner1" operator="arithmetic">
		</feComposite>
	<feColorMatrix  type="matrix" values="0 0 0 0 0   0 0 0 0 0   0 0 0 0 0  0 0 0 0.155485734 0" in="shadowInnerInner1">
		</feColorMatrix>
</filter>
<filter  height="105.9%" width="105.5%" x="-2.7%" y="-3.0%" id="filter-15" filterUnits="objectBoundingBox">
	<feGaussianBlur  in="SourceAlpha" result="shadowBlurInner1" stdDeviation="5"></feGaussianBlur>
	<feOffset  in="shadowBlurInner1" result="shadowOffsetInner1" dx="2" dy="2"></feOffset>
	<feComposite  in2="SourceAlpha" k3="1" k2="-1" in="shadowOffsetInner1" result="shadowInnerInner1" operator="arithmetic">
		</feComposite>
	<feColorMatrix  type="matrix" values="0 0 0 0 0   0 0 0 0 0   0 0 0 0 0  0 0 0 0.155485734 0" in="shadowInnerInner1">
		</feColorMatrix>
</filter>
<filter  height="105.9%" width="105.5%" x="-2.7%" y="-3.0%" id="filter-13" filterUnits="objectBoundingBox">
	<feGaussianBlur  in="SourceAlpha" result="shadowBlurInner1" stdDeviation="5"></feGaussianBlur>
	<feOffset  in="shadowBlurInner1" result="shadowOffsetInner1" dx="2" dy="2"></feOffset>
	<feComposite  in2="SourceAlpha" k3="1" k2="-1" in="shadowOffsetInner1" result="shadowInnerInner1" operator="arithmetic">
		</feComposite>
	<feColorMatrix  type="matrix" values="0 0 0 0 0   0 0 0 0 0   0 0 0 0 0  0 0 0 0.155485734 0" in="shadowInnerInner1">
		</feColorMatrix>
</filter>
<filter  height="105.9%" width="105.5%" x="-2.7%" y="-3.0%" id="filter-11" filterUnits="objectBoundingBox">
	<feGaussianBlur  in="SourceAlpha" result="shadowBlurInner1" stdDeviation="5"></feGaussianBlur>
	<feOffset  in="shadowBlurInner1" result="shadowOffsetInner1" dx="2" dy="2"></feOffset>
	<feComposite  in2="SourceAlpha" k3="1" k2="-1" in="shadowOffsetInner1" result="shadowInnerInner1" operator="arithmetic">
		</feComposite>
	<feColorMatrix  type="matrix" values="0 0 0 0 0   0 0 0 0 0   0 0 0 0 0  0 0 0 0.155485734 0" in="shadowInnerInner1">
		</feColorMatrix>
</filter>
<title>Group 20</title>
<desc>Created with Sketch.</desc>
<g id="Path-13">
	<g>
		
			<linearGradient id="path-3_1_" gradientUnits="userSpaceOnUse" x1="876.9746" y1="-153.4805" x2="877.5437" y2="-154.0839" gradientTransform="matrix(216 0 0 199 -189487 31098)">
			<stop  offset="0" style="stop-color:#5B29C7"/>
			<stop  offset="1" style="stop-color:#2D0674"/>
		</linearGradient>
		<path id="path-3" fill="url(#path-3_1_)" d="M-56.41,567.411l-37.536-63.068c-6.722-11.294-6.754-25.354-0.085-36.679
			l37.646-63.931C-49.914,392.745-38.114,386-25.363,386h66.696c12.559,0,24.21,6.545,30.744,17.271l39.657,65.096
			c6.663,10.937,7.014,24.59,0.922,35.854L79.18,566.125C72.891,577.754,60.734,585,47.514,585h-72.988
			C-38.166,585-49.919,578.317-56.41,567.411z"/>
	</g>
	<g filter="url(#filter-4)">
		<path id="path-3_2_" d="M-56.41,567.411l-37.536-63.068c-6.722-11.294-6.754-25.354-0.085-36.679l37.646-63.931
			C-49.914,392.745-38.114,386-25.363,386h66.696c12.559,0,24.21,6.545,30.744,17.271l39.657,65.096
			c6.663,10.937,7.014,24.59,0.922,35.854L79.18,566.125C72.891,577.754,60.734,585,47.514,585h-72.988
			C-38.166,585-49.919,578.317-56.41,567.411z"/>
	</g>
</g>
<g id="Path-13_1_">
	<g>
		
			<linearGradient id="path-5_1_" gradientUnits="userSpaceOnUse" x1="876.9746" y1="-153.4814" x2="877.5431" y2="-154.0843" gradientTransform="matrix(216 0 0 199 -189299 30992)">
			<stop  offset="0" style="stop-color:#5B29C7"/>
			<stop  offset="1" style="stop-color:#2D0674"/>
		</linearGradient>
		<path id="path-5" fill="url(#path-5_1_)" d="M131.59,461.412l-37.536-63.069c-6.722-11.294-6.754-25.354-0.085-36.679
			l37.646-63.931c6.47-10.988,18.27-17.733,31.021-17.733h66.696c12.559,0,24.21,6.545,30.744,17.271l39.657,65.096
			c6.663,10.937,7.014,24.589,0.922,35.854l-33.477,61.904C260.891,471.754,248.734,479,235.514,479h-72.988
			C149.834,479,138.081,472.317,131.59,461.412z"/>
	</g>
	<g filter="url(#filter-6)">
		<path id="path-5_2_" d="M131.59,461.412l-37.536-63.069c-6.722-11.294-6.754-25.354-0.085-36.679l37.646-63.931
			c6.47-10.988,18.27-17.733,31.021-17.733h66.696c12.559,0,24.21,6.545,30.744,17.271l39.657,65.096
			c6.663,10.937,7.014,24.589,0.922,35.854l-33.477,61.904C260.891,471.754,248.734,479,235.514,479h-72.988
			C149.834,479,138.081,472.317,131.59,461.412z"/>
	</g>
</g>
<g id="Path-13_2_">
	<g>
		
			<linearGradient id="path-7_1_" gradientUnits="userSpaceOnUse" x1="876.9746" y1="-153.4814" x2="877.5436" y2="-154.0847" gradientTransform="matrix(216 0 0 199 -189487 30879)">
			<stop  offset="0" style="stop-color:#5B29C7"/>
			<stop  offset="1" style="stop-color:#2D0674"/>
		</linearGradient>
		<path id="path-7" fill="url(#path-7_1_)" d="M-56.41,348.412l-37.536-63.069c-6.722-11.294-6.754-25.354-0.085-36.679
			l37.646-63.931C-49.914,173.745-38.114,167-25.363,167h66.696c12.559,0,24.21,6.545,30.744,17.271l39.657,65.096
			c6.663,10.937,7.014,24.589,0.922,35.854L79.18,347.125C72.891,358.753,60.734,366,47.514,366h-72.988
			C-38.166,366-49.919,359.317-56.41,348.412z"/>
	</g>
	<g filter="url(#filter-8)">
		<path id="path-7_2_" d="M-56.41,348.412l-37.536-63.069c-6.722-11.294-6.754-25.354-0.085-36.679l37.646-63.931
			C-49.914,173.745-38.114,167-25.363,167h66.696c12.559,0,24.21,6.545,30.744,17.271l39.657,65.096
			c6.663,10.937,7.014,24.589,0.922,35.854L79.18,347.125C72.891,358.753,60.734,366,47.514,366h-72.988
			C-38.166,366-49.919,359.317-56.41,348.412z"/>
	</g>
</g>
<g id="Path-10">
	<g>
		
			<linearGradient id="path-10_1_" gradientUnits="userSpaceOnUse" x1="878.0928" y1="-154.2417" x2="877.2191" y2="-153.6094" gradientTransform="matrix(220 0 0 202 -191451 31710.5)">
			<stop  offset="0" style="stop-color:#FE9D3D"/>
			<stop  offset="1" style="stop-color:#EA5D4A"/>
		</linearGradient>
		<path id="path-10" fill="url(#path-10_1_)" d="M1561.689,538h79.033c10.838,0,20.833,5.845,26.146,15.29l40.287,71.61
			c5.17,9.188,5.136,20.419-0.09,29.576l-40.166,70.392c-5.339,9.355-15.283,15.132-26.057,15.132h-79.068
			c-10.771,0-20.717-5.774-26.057-15.13l-40.765-71.426c-5.283-9.257-5.259-20.619,0.062-29.854l40.681-70.573
			C1541.056,543.726,1550.965,538,1561.689,538z"/>
	</g>
	<g filter="url(#filter-11)">
		<path id="path-10_2_" d="M1561.689,538h79.033c10.838,0,20.833,5.845,26.146,15.29l40.287,71.61
			c5.17,9.188,5.136,20.419-0.09,29.576l-40.166,70.392c-5.339,9.355-15.283,15.132-26.057,15.132h-79.068
			c-10.771,0-20.717-5.774-26.057-15.13l-40.765-71.426c-5.283-9.257-5.259-20.619,0.062-29.854l40.681-70.573
			C1541.056,543.726,1550.965,538,1561.689,538z"/>
	</g>
</g>
<g id="Path-10_1_">
	<g>
		
			<linearGradient id="path-12_1_" gradientUnits="userSpaceOnUse" x1="878.0928" y1="-154.2397" x2="877.2199" y2="-153.6082" gradientTransform="matrix(220 0 0 202 -191639 31823.5)">
			<stop  offset="0" style="stop-color:#FE9D3D"/>
			<stop  offset="1" style="stop-color:#EA5D4A"/>
		</linearGradient>
		<path id="path-12" fill="url(#path-12_1_)" d="M1373.689,651h79.033c10.838,0,20.833,5.845,26.146,15.29l40.287,71.61
			c5.17,9.188,5.136,20.419-0.09,29.576l-40.166,70.392c-5.339,9.355-15.283,15.132-26.057,15.132h-79.068
			c-10.771,0-20.717-5.774-26.057-15.13l-40.765-71.426c-5.283-9.257-5.259-20.619,0.062-29.854l40.681-70.573
			C1353.056,656.726,1362.965,651,1373.689,651z"/>
	</g>
	<g filter="url(#filter-13)">
		<path id="path-12_2_" d="M1373.689,651h79.033c10.838,0,20.833,5.845,26.146,15.29l40.287,71.61
			c5.17,9.188,5.136,20.419-0.09,29.576l-40.166,70.392c-5.339,9.355-15.283,15.132-26.057,15.132h-79.068
			c-10.771,0-20.717-5.774-26.057-15.13l-40.765-71.426c-5.283-9.257-5.259-20.619,0.062-29.854l40.681-70.573
			C1353.056,656.726,1362.965,651,1373.689,651z"/>
	</g>
</g>
<g id="Path-10_2_">
	<g>
		
			<linearGradient id="path-14_1_" gradientUnits="userSpaceOnUse" x1="878.0928" y1="-154.2397" x2="877.2201" y2="-153.6083" gradientTransform="matrix(220 0 0 202 -191451 31932.5)">
			<stop  offset="0" style="stop-color:#FE9D3D"/>
			<stop  offset="1" style="stop-color:#EA5D4A"/>
		</linearGradient>
		<path id="path-14" fill="url(#path-14_1_)" d="M1561.689,760h79.033c10.838,0,20.833,5.845,26.146,15.29l40.287,71.61
			c5.17,9.188,5.136,20.419-0.09,29.576l-40.166,70.392c-5.339,9.355-15.283,15.132-26.057,15.132h-79.068
			c-10.771,0-20.717-5.774-26.057-15.13l-40.765-71.426c-5.283-9.257-5.259-20.619,0.062-29.854l40.681-70.573
			C1541.056,765.726,1550.965,760,1561.689,760z"/>
	</g>
	<g filter="url(#filter-15)">
		<path id="path-14_2_" d="M1561.689,760h79.033c10.838,0,20.833,5.845,26.146,15.29l40.287,71.61
			c5.17,9.188,5.136,20.419-0.09,29.576l-40.166,70.392c-5.339,9.355-15.283,15.132-26.057,15.132h-79.068
			c-10.771,0-20.717-5.774-26.057-15.13l-40.765-71.426c-5.283-9.257-5.259-20.619,0.062-29.854l40.681-70.573
			C1541.056,765.726,1550.965,760,1561.689,760z"/>
	</g>
</g>
</svg>
