<?xml version="1.0" encoding="utf-8"?>
<!-- Generator: Adobe Illustrator 16.0.4, SVG Export Plug-In . SVG Version: 6.00 Build 0)  -->
<!DOCTYPE svg PUBLIC "-//W3C//DTD SVG 1.1//EN" "http://www.w3.org/Graphics/SVG/1.1/DTD/svg11.dtd">
<svg version="1.1" id="Layer_1" xmlns="http://www.w3.org/2000/svg" xmlns:xlink="http://www.w3.org/1999/xlink" x="0px" y="0px"
	 width="1652.917px" height="720px" viewBox="0 0 1652.917 720" enable-background="new 0 0 1652.917 720" xml:space="preserve">
<image display="none" overflow="visible" enable-background="new    " width="1300" height="1192" xlink:href="../../../Desktop/Screen Shot 2017-10-04 at 6.19.43 PM.png"  transform="matrix(0.5 0 0 0.5 531.3496 52.125)">
</image>
<g opacity="0.08">
	<circle fill="#FFFFFF" cx="474.14" cy="130.967" r="5.176"/>
	<path fill="#FFFFFF" d="M474.141,136.644c-3.13,0-5.677-2.546-5.677-5.677c0-3.129,2.546-5.675,5.677-5.675
		c3.129,0,5.676,2.546,5.676,5.675C479.816,134.097,477.271,136.644,474.141,136.644z M474.141,126.292
		c-2.578,0-4.677,2.097-4.677,4.675c0,2.579,2.099,4.677,4.677,4.677s4.676-2.098,4.676-4.677
		C478.816,128.389,476.719,126.292,474.141,126.292z"/>
</g>
<g opacity="0.08">
	<circle fill="#FFFFFF" cx="547.432" cy="159.539" r="5.176"/>
	<path fill="#FFFFFF" d="M547.432,165.215c-3.13,0-5.676-2.546-5.676-5.677c0-3.13,2.546-5.676,5.676-5.676
		c3.131,0,5.677,2.546,5.677,5.676C553.108,162.669,550.562,165.215,547.432,165.215z M547.432,154.863
		c-2.578,0-4.676,2.098-4.676,4.676c0,2.579,2.098,4.677,4.676,4.677s4.677-2.098,4.677-4.677S550.01,154.863,547.432,154.863z"/>
</g>
<g opacity="0.08">
	<circle fill="#FFFFFF" cx="528.799" cy="231.588" r="5.176"/>
	<path fill="#FFFFFF" d="M528.799,237.264c-3.13,0-5.677-2.546-5.677-5.676s2.546-5.676,5.677-5.676
		c3.129,0,5.675,2.546,5.675,5.676S531.929,237.264,528.799,237.264z M528.799,226.912c-2.579,0-4.677,2.098-4.677,4.676
		c0,2.579,2.098,4.676,4.677,4.676c2.578,0,4.675-2.098,4.675-4.676C533.475,229.01,531.377,226.912,528.799,226.912z"/>
</g>
<g opacity="0.08">
	<circle fill="#FFFFFF" cx="533.768" cy="272.582" r="5.176"/>
	<path fill="#FFFFFF" d="M533.768,278.258c-3.13,0-5.676-2.546-5.676-5.676s2.546-5.676,5.676-5.676
		c3.131,0,5.677,2.546,5.677,5.676S536.898,278.258,533.768,278.258z M533.768,267.905c-2.578,0-4.676,2.098-4.676,4.676
		s2.099,4.676,4.676,4.676c2.578,0,4.677-2.098,4.677-4.676S536.346,267.905,533.768,267.905z"/>
</g>
<g opacity="0.08">
	<circle fill="#FFFFFF" cx="552.401" cy="262.644" r="5.176"/>
	<path fill="#FFFFFF" d="M552.401,268.32c-3.13,0-5.677-2.546-5.677-5.676s2.547-5.676,5.677-5.676s5.676,2.546,5.676,5.676
		S555.531,268.32,552.401,268.32z M552.401,257.968c-2.579,0-4.677,2.098-4.677,4.676c0,2.579,2.099,4.676,4.677,4.676
		c2.577,0,4.676-2.098,4.676-4.676C557.077,260.065,554.979,257.968,552.401,257.968z"/>
</g>
<g opacity="0.08">
	<circle fill="#FFFFFF" cx="567.308" cy="358.295" r="5.176"/>
	<path fill="#FFFFFF" d="M567.308,363.973c-3.13,0-5.676-2.547-5.676-5.677s2.546-5.676,5.676-5.676s5.677,2.546,5.677,5.676
		S570.438,363.973,567.308,363.973z M567.308,353.619c-2.579,0-4.676,2.098-4.676,4.676c0,2.579,2.099,4.678,4.676,4.678
		c2.578,0,4.677-2.099,4.677-4.678C571.984,355.717,569.886,353.619,567.308,353.619z"/>
</g>
<g opacity="0.08">
	<circle fill="#FFFFFF" cx="593.395" cy="306.122" r="5.176"/>
	<path fill="#FFFFFF" d="M593.395,311.798c-3.13,0-5.677-2.546-5.677-5.676c0-3.129,2.546-5.675,5.677-5.675
		s5.677,2.546,5.677,5.675S596.525,311.798,593.395,311.798z M593.395,301.446c-2.578,0-4.677,2.097-4.677,4.675
		c0,2.579,2.099,4.676,4.677,4.676s4.677-2.098,4.677-4.676S595.973,301.446,593.395,301.446z"/>
</g>
<g opacity="0.08">
	<circle fill="#FFFFFF" cx="588.426" cy="140.905" r="5.176"/>
	<path fill="#FFFFFF" d="M588.426,146.582c-3.13,0-5.676-2.546-5.676-5.676c0-3.13,2.546-5.676,5.676-5.676s5.676,2.546,5.676,5.676
		C594.102,144.036,591.556,146.582,588.426,146.582z M588.426,136.229c-2.578,0-4.676,2.098-4.676,4.676
		c0,2.578,2.098,4.676,4.676,4.676s4.676-2.098,4.676-4.676C593.102,138.327,591.004,136.229,588.426,136.229z"/>
</g>
<g opacity="0.08">
	<circle fill="#FFFFFF" cx="598.364" cy="52.707" r="5.176"/>
	<path fill="#FFFFFF" d="M598.364,58.383c-3.13,0-5.677-2.546-5.677-5.676s2.547-5.676,5.677-5.676s5.676,2.546,5.676,5.676
		S601.494,58.383,598.364,58.383z M598.364,48.031c-2.579,0-4.677,2.098-4.677,4.676s2.099,4.676,4.677,4.676
		s4.676-2.098,4.676-4.676S600.942,48.031,598.364,48.031z"/>
</g>
<g opacity="0.08">
	<circle fill="#FFFFFF" cx="538.737" cy="140.905" r="5.176"/>
	<path fill="#FFFFFF" d="M538.737,146.582c-3.13,0-5.677-2.546-5.677-5.676c0-3.13,2.547-5.676,5.677-5.676s5.676,2.546,5.676,5.676
		C544.413,144.036,541.867,146.582,538.737,146.582z M538.737,136.229c-2.579,0-4.677,2.098-4.677,4.676
		c0,2.578,2.099,4.676,4.677,4.676s4.676-2.098,4.676-4.676C543.413,138.327,541.315,136.229,538.737,136.229z"/>
</g>
<g opacity="0.08">
	<circle fill="#FFFFFF" cx="598.364" cy="114.818" r="5.176"/>
	<path fill="#FFFFFF" d="M598.364,120.495c-3.13,0-5.677-2.546-5.677-5.677c0-3.129,2.547-5.675,5.677-5.675
		s5.676,2.546,5.676,5.675C604.04,117.948,601.494,120.495,598.364,120.495z M598.364,110.143c-2.579,0-4.677,2.097-4.677,4.675
		c0,2.579,2.099,4.677,4.677,4.677s4.676-2.098,4.676-4.677C603.04,112.24,600.942,110.143,598.364,110.143z"/>
</g>
<g opacity="0.08">
	<circle fill="#FFFFFF" cx="616.997" cy="150.843" r="5.176"/>
	<path fill="#FFFFFF" d="M616.998,156.519c-3.13,0-5.677-2.546-5.677-5.676c0-3.13,2.546-5.676,5.677-5.676
		c3.13,0,5.676,2.546,5.676,5.676C622.674,153.973,620.127,156.519,616.998,156.519z M616.998,146.167
		c-2.579,0-4.677,2.098-4.677,4.676c0,2.578,2.098,4.676,4.677,4.676c2.578,0,4.676-2.098,4.676-4.676
		C621.673,148.265,619.576,146.167,616.998,146.167z"/>
</g>
<g opacity="0.08">
	<circle fill="#FFFFFF" cx="679.109" cy="140.905" r="5.176"/>
	<path fill="#FFFFFF" d="M679.108,146.582c-3.131,0-5.677-2.546-5.677-5.676c0-3.13,2.546-5.676,5.677-5.676
		c3.13,0,5.676,2.546,5.676,5.676C684.784,144.036,682.238,146.582,679.108,146.582z M679.108,136.229
		c-2.578,0-4.677,2.098-4.677,4.676c0,2.578,2.099,4.676,4.677,4.676s4.676-2.098,4.676-4.676
		C683.784,138.327,681.688,136.229,679.108,136.229z"/>
</g>
<g opacity="0.08">
	<circle fill="#FFFFFF" cx="603.333" cy="191.837" r="5.176"/>
	<path fill="#FFFFFF" d="M603.333,197.513c-3.13,0-5.677-2.546-5.677-5.676s2.546-5.676,5.677-5.676c3.13,0,5.676,2.546,5.676,5.676
		S606.463,197.513,603.333,197.513z M603.333,187.161c-2.579,0-4.677,2.098-4.677,4.676s2.098,4.676,4.677,4.676
		c2.578,0,4.676-2.098,4.676-4.676C608.009,189.258,605.911,187.161,603.333,187.161z"/>
</g>
<g opacity="0.08">
	<circle fill="#FFFFFF" cx="608.302" cy="282.52" r="5.176"/>
	<path fill="#FFFFFF" d="M608.302,288.195c-3.13,0-5.676-2.546-5.676-5.676s2.546-5.676,5.676-5.676s5.677,2.546,5.677,5.676
		S611.432,288.195,608.302,288.195z M608.302,277.844c-2.579,0-4.676,2.098-4.676,4.676s2.098,4.676,4.676,4.676
		s4.677-2.098,4.677-4.676S610.88,277.844,608.302,277.844z"/>
</g>
<g opacity="0.08">
	<circle fill="#FFFFFF" cx="634.388" cy="231.588" r="5.176"/>
	<path fill="#FFFFFF" d="M634.389,237.264c-3.13,0-5.677-2.546-5.677-5.676s2.546-5.676,5.677-5.676c3.13,0,5.677,2.546,5.677,5.676
		S637.519,237.264,634.389,237.264z M634.389,226.912c-2.579,0-4.677,2.098-4.677,4.676c0,2.579,2.098,4.676,4.677,4.676
		c2.578,0,4.677-2.098,4.677-4.676C639.064,229.01,636.967,226.912,634.389,226.912z"/>
</g>
<g opacity="0.08">
	<circle fill="#FFFFFF" cx="754.885" cy="154.57" r="5.176"/>
	<path fill="#FFFFFF" d="M754.885,160.246c-3.13,0-5.676-2.546-5.676-5.676c0-3.13,2.546-5.676,5.676-5.676s5.676,2.546,5.676,5.676
		C760.561,157.7,758.015,160.246,754.885,160.246z M754.885,149.894c-2.579,0-4.676,2.098-4.676,4.676
		c0,2.578,2.098,4.676,4.676,4.676s4.676-2.098,4.676-4.676C759.561,151.992,757.463,149.894,754.885,149.894z"/>
</g>
<g opacity="0.08">
	<circle fill="#FFFFFF" cx="779.729" cy="181.899" r="5.176"/>
	<path fill="#FFFFFF" d="M779.729,187.575c-3.13,0-5.677-2.546-5.677-5.676s2.546-5.676,5.677-5.676s5.677,2.546,5.677,5.676
		S782.859,187.575,779.729,187.575z M779.729,177.223c-2.578,0-4.677,2.098-4.677,4.676c0,2.578,2.099,4.676,4.677,4.676
		s4.677-2.098,4.677-4.676C784.405,179.321,782.308,177.223,779.729,177.223z"/>
</g>
<g opacity="0.08">
	<circle fill="#FFFFFF" cx="728.798" cy="262.644" r="5.176"/>
	<path fill="#FFFFFF" d="M728.798,268.32c-3.13,0-5.677-2.546-5.677-5.676s2.546-5.676,5.677-5.676c3.129,0,5.675,2.546,5.675,5.676
		S731.928,268.32,728.798,268.32z M728.798,257.968c-2.579,0-4.677,2.098-4.677,4.676c0,2.579,2.098,4.676,4.677,4.676
		c2.578,0,4.675-2.098,4.675-4.676C733.474,260.065,731.376,257.968,728.798,257.968z"/>
</g>
<g opacity="0.08">
	<circle fill="#FFFFFF" cx="879.109" cy="262.644" r="5.176"/>
	<path fill="#FFFFFF" d="M879.109,268.32c-3.131,0-5.678-2.546-5.678-5.676s2.547-5.676,5.678-5.676
		c3.129,0,5.676,2.546,5.676,5.676S882.238,268.32,879.109,268.32z M879.109,257.968c-2.578,0-4.678,2.098-4.678,4.676
		c0,2.579,2.1,4.676,4.678,4.676s4.676-2.098,4.676-4.676C883.785,260.065,881.687,257.968,879.109,257.968z"/>
</g>
<g opacity="0.08">
	<circle fill="#FFFFFF" cx="825.692" cy="221.65" r="5.176"/>
	<path fill="#FFFFFF" d="M825.692,227.326c-3.13,0-5.677-2.546-5.677-5.676c0-3.129,2.547-5.675,5.677-5.675
		c3.129,0,5.676,2.546,5.676,5.675C831.369,224.78,828.822,227.326,825.692,227.326z M825.692,216.975
		c-2.578,0-4.677,2.097-4.677,4.675c0,2.579,2.099,4.676,4.677,4.676c2.579,0,4.676-2.098,4.676-4.676
		C830.369,219.072,828.271,216.975,825.692,216.975z"/>
</g>
<g opacity="0.08">
	<circle fill="#FFFFFF" cx="879.109" cy="135.936" r="5.176"/>
	<path fill="#FFFFFF" d="M879.109,141.612c-3.131,0-5.678-2.546-5.678-5.676s2.547-5.676,5.678-5.676
		c3.129,0,5.676,2.546,5.676,5.676S882.238,141.612,879.109,141.612z M879.109,131.26c-2.578,0-4.678,2.098-4.678,4.676
		c0,2.579,2.1,4.676,4.678,4.676s4.676-2.098,4.676-4.676S881.687,131.26,879.109,131.26z"/>
</g>
<g opacity="0.08">
	<circle fill="#FFFFFF" cx="949.916" cy="221.65" r="5.176"/>
	<path fill="#FFFFFF" d="M949.916,227.326c-3.129,0-5.676-2.546-5.676-5.676c0-3.129,2.547-5.675,5.676-5.675
		c3.131,0,5.676,2.546,5.676,5.675C955.591,224.78,953.044,227.326,949.916,227.326z M949.916,216.975
		c-2.578,0-4.676,2.097-4.676,4.675c0,2.579,2.098,4.676,4.676,4.676s4.676-2.098,4.676-4.676
		C954.591,219.072,952.494,216.975,949.916,216.975z"/>
</g>
<g opacity="0.08">
	<circle fill="#FFFFFF" cx="1128.796" cy="119.787" r="5.177"/>
	<path fill="#FFFFFF" d="M1128.794,125.463c-3.129,0-5.676-2.546-5.676-5.676c0-3.129,2.547-5.675,5.676-5.675
		c3.131,0,5.678,2.546,5.678,5.675C1134.472,122.917,1131.925,125.463,1128.794,125.463z M1128.794,115.112
		c-2.578,0-4.676,2.097-4.676,4.675c0,2.579,2.098,4.676,4.676,4.676c2.58,0,4.678-2.098,4.678-4.676
		S1131.375,115.112,1128.794,115.112z"/>
</g>
<g opacity="0.08">
	<circle fill="#FFFFFF" cx="1016.996" cy="30.347" r="5.176"/>
	<path fill="#FFFFFF" d="M1016.996,36.023c-3.129,0-5.676-2.546-5.676-5.676c0-3.13,2.547-5.676,5.676-5.676
		c3.131,0,5.676,2.546,5.676,5.676C1022.671,33.477,1020.125,36.023,1016.996,36.023z M1016.996,25.671
		c-2.578,0-4.676,2.098-4.676,4.676c0,2.579,2.098,4.676,4.676,4.676s4.676-2.098,4.676-4.676
		C1021.671,27.769,1019.574,25.671,1016.996,25.671z"/>
</g>
<g opacity="0.08">
	<circle fill="#FFFFFF" cx="1133.765" cy="37.8" r="5.176"/>
	<path fill="#FFFFFF" d="M1133.765,43.476c-3.131,0-5.676-2.546-5.676-5.676c0-3.129,2.545-5.675,5.676-5.675
		c3.129,0,5.676,2.546,5.676,5.675C1139.441,40.93,1136.894,43.476,1133.765,43.476z M1133.765,33.125
		c-2.578,0-4.676,2.097-4.676,4.675c0,2.579,2.098,4.676,4.676,4.676s4.676-2.098,4.676-4.676
		C1138.441,35.222,1136.343,33.125,1133.765,33.125z"/>
</g>
<g opacity="0.08">
	<circle fill="#FFFFFF" cx="1177.244" cy="140.905" r="5.176"/>
	<path fill="#FFFFFF" d="M1177.244,146.582c-3.131,0-5.676-2.546-5.676-5.676c0-3.13,2.545-5.676,5.676-5.676
		c3.129,0,5.676,2.546,5.676,5.676C1182.919,144.036,1180.373,146.582,1177.244,146.582z M1177.244,136.229
		c-2.578,0-4.676,2.098-4.676,4.676c0,2.578,2.098,4.676,4.676,4.676s4.676-2.098,4.676-4.676
		C1181.919,138.327,1179.822,136.229,1177.244,136.229z"/>
</g>
<g opacity="0.08">
	<circle fill="#FFFFFF" cx="1076.623" cy="206.743" r="5.176"/>
	<path fill="#FFFFFF" d="M1076.623,212.42c-3.129,0-5.676-2.546-5.676-5.677c0-3.13,2.547-5.676,5.676-5.676
		c3.131,0,5.676,2.546,5.676,5.676C1082.298,209.874,1079.751,212.42,1076.623,212.42z M1076.623,202.067
		c-2.578,0-4.676,2.098-4.676,4.676c0,2.579,2.098,4.677,4.676,4.677s4.676-2.098,4.676-4.677
		C1081.298,204.165,1079.201,202.067,1076.623,202.067z"/>
</g>
<g opacity="0.08">
	<circle fill="#FFFFFF" cx="578.488" cy="379.413" r="5.176"/>
	<path fill="#FFFFFF" d="M578.488,385.09c-3.13,0-5.677-2.547-5.677-5.677c0-3.129,2.547-5.675,5.677-5.675
		c3.129,0,5.675,2.546,5.675,5.675C584.164,382.543,581.618,385.09,578.488,385.09z M578.488,374.738
		c-2.579,0-4.677,2.097-4.677,4.675c0,2.579,2.099,4.677,4.677,4.677s4.675-2.098,4.675-4.677
		C583.164,376.835,581.066,374.738,578.488,374.738z"/>
</g>
<g opacity="0.08">
	<circle fill="#FFFFFF" cx="552.401" cy="404.258" r="5.176"/>
	<path fill="#FFFFFF" d="M552.401,409.934c-3.13,0-5.677-2.546-5.677-5.676c0-3.129,2.547-5.675,5.677-5.675
		s5.676,2.546,5.676,5.675C558.077,407.388,555.531,409.934,552.401,409.934z M552.401,399.583c-2.579,0-4.677,2.097-4.677,4.675
		s2.099,4.676,4.677,4.676c2.577,0,4.676-2.098,4.676-4.676S554.979,399.583,552.401,399.583z"/>
</g>
<g opacity="0.08">
	<circle fill="#FFFFFF" cx="660.475" cy="374.444" r="5.176"/>
	<path fill="#FFFFFF" d="M660.476,380.121c-3.13,0-5.676-2.547-5.676-5.678c0-3.129,2.546-5.676,5.676-5.676
		s5.676,2.547,5.676,5.676C666.151,377.574,663.605,380.121,660.476,380.121z M660.476,369.77c-2.578,0-4.676,2.098-4.676,4.676
		s2.099,4.677,4.676,4.677c2.578,0,4.676-2.099,4.676-4.677C665.151,371.866,663.054,369.77,660.476,369.77z"/>
</g>
<g opacity="0.08">
	<circle fill="#FFFFFF" cx="644.326" cy="389.351" r="5.176"/>
	<path fill="#FFFFFF" d="M644.327,395.027c-3.13,0-5.677-2.547-5.677-5.678c0-3.129,2.546-5.675,5.677-5.675
		c3.13,0,5.676,2.546,5.676,5.675C650.002,392.48,647.457,395.027,644.327,395.027z M644.327,384.676
		c-2.579,0-4.677,2.098-4.677,4.676s2.098,4.676,4.677,4.676c2.578,0,4.676-2.098,4.676-4.676
		C649.002,386.771,646.905,384.676,644.327,384.676z"/>
</g>
<g opacity="0.08">
	<circle fill="#FFFFFF" cx="649.295" cy="470.096" r="5.176"/>
	<path fill="#FFFFFF" d="M649.295,475.772c-3.13,0-5.676-2.548-5.676-5.678c0-3.129,2.546-5.675,5.676-5.675
		c3.129,0,5.675,2.546,5.675,5.675C654.971,473.226,652.425,475.772,649.295,475.772z M649.295,465.421
		c-2.579,0-4.676,2.097-4.676,4.675c0,2.579,2.098,4.678,4.676,4.678s4.675-2.099,4.675-4.678
		C653.971,467.518,651.874,465.421,649.295,465.421z"/>
</g>
<g opacity="0.08">
	<circle fill="#FFFFFF" cx="689.046" cy="563.264" r="5.176"/>
	<path fill="#FFFFFF" d="M689.046,568.939c-3.13,0-5.676-2.547-5.676-5.677c0-3.129,2.546-5.675,5.676-5.675
		s5.676,2.546,5.676,5.675C694.723,566.394,692.176,568.939,689.046,568.939z M689.046,558.589c-2.579,0-4.676,2.097-4.676,4.675
		s2.098,4.677,4.676,4.677s4.676-2.099,4.676-4.677S691.625,558.589,689.046,558.589z"/>
</g>
<g opacity="0.08">
	<circle fill="#FFFFFF" cx="679.109" cy="501.152" r="5.176"/>
	<path fill="#FFFFFF" d="M679.108,506.828c-3.131,0-5.677-2.546-5.677-5.676s2.546-5.677,5.677-5.677
		c3.13,0,5.676,2.547,5.676,5.677S682.238,506.828,679.108,506.828z M679.108,496.477c-2.578,0-4.677,2.099-4.677,4.677
		s2.099,4.676,4.677,4.676s4.676-2.098,4.676-4.676S681.688,496.477,679.108,496.477z"/>
</g>
<g opacity="0.08">
	<circle fill="#FFFFFF" cx="684.078" cy="432.829" r="5.176"/>
	<path fill="#FFFFFF" d="M684.078,438.505c-3.13,0-5.676-2.546-5.676-5.676s2.546-5.676,5.676-5.676s5.676,2.546,5.676,5.676
		S687.208,438.505,684.078,438.505z M684.078,428.153c-2.578,0-4.676,2.098-4.676,4.676s2.098,4.676,4.676,4.676
		s4.676-2.098,4.676-4.676S686.656,428.153,684.078,428.153z"/>
</g>
<g opacity="0.08">
	<circle fill="#FFFFFF" cx="701.469" cy="414.196" r="5.176"/>
	<path fill="#FFFFFF" d="M701.469,419.872c-3.13,0-5.677-2.546-5.677-5.676s2.546-5.678,5.677-5.678
		c3.129,0,5.675,2.548,5.675,5.678S704.599,419.872,701.469,419.872z M701.469,409.52c-2.579,0-4.677,2.099-4.677,4.678
		c0,2.578,2.098,4.676,4.677,4.676c2.578,0,4.675-2.098,4.675-4.676C706.145,411.617,704.047,409.52,701.469,409.52z"/>
</g>
<g opacity="0.08">
	<circle fill="#FFFFFF" cx="766.064" cy="384.382" r="5.176"/>
	<path fill="#FFFFFF" d="M766.065,390.059c-3.131,0-5.678-2.547-5.678-5.677c0-3.129,2.546-5.675,5.678-5.675
		c3.13,0,5.676,2.546,5.676,5.675C771.741,387.512,769.195,390.059,766.065,390.059z M766.065,379.707
		c-2.579,0-4.678,2.098-4.678,4.675c0,2.579,2.099,4.677,4.678,4.677c2.577,0,4.676-2.098,4.676-4.677
		C770.741,381.805,768.643,379.707,766.065,379.707z"/>
</g>
<g opacity="0.08">
	<circle fill="#FFFFFF" cx="766.064" cy="409.227" r="5.176"/>
	<path fill="#FFFFFF" d="M766.065,414.902c-3.131,0-5.678-2.546-5.678-5.677c0-3.129,2.546-5.675,5.678-5.675
		c3.13,0,5.676,2.546,5.676,5.675C771.741,412.356,769.195,414.902,766.065,414.902z M766.065,404.552
		c-2.579,0-4.678,2.098-4.678,4.675c0,2.578,2.099,4.677,4.678,4.677c2.577,0,4.676-2.099,4.676-4.677
		C770.741,406.649,768.643,404.552,766.065,404.552z"/>
</g>
<g opacity="0.08">
	<circle fill="#FFFFFF" cx="818.238" cy="379.413" r="5.176"/>
	<path fill="#FFFFFF" d="M818.239,385.09c-3.13,0-5.677-2.547-5.677-5.677c0-3.129,2.547-5.675,5.677-5.675
		c3.129,0,5.675,2.546,5.675,5.675C823.914,382.543,821.368,385.09,818.239,385.09z M818.239,374.738
		c-2.579,0-4.677,2.097-4.677,4.675c0,2.579,2.098,4.677,4.677,4.677c2.578,0,4.675-2.098,4.675-4.677
		C822.914,376.835,820.817,374.738,818.239,374.738z"/>
</g>
<g opacity="0.08">
	<circle fill="#FFFFFF" cx="843.083" cy="327.24" r="5.177"/>
	<path fill="#FFFFFF" d="M843.083,332.916c-3.131,0-5.678-2.546-5.678-5.676c0-3.13,2.547-5.675,5.678-5.675
		s5.676,2.546,5.676,5.675C848.759,330.369,846.214,332.916,843.083,332.916z M843.083,322.564c-2.58,0-4.678,2.097-4.678,4.675
		c0,2.578,2.098,4.676,4.678,4.676c2.578,0,4.676-2.098,4.676-4.676C847.759,324.661,845.662,322.564,843.083,322.564z"/>
</g>
<g opacity="0.08">
	<circle fill="#FFFFFF" cx="943.705" cy="306.122" r="5.176"/>
	<path fill="#FFFFFF" d="M943.705,311.798c-3.131,0-5.676-2.546-5.676-5.676c0-3.129,2.545-5.675,5.676-5.675
		c3.129,0,5.676,2.546,5.676,5.675C949.378,309.251,946.833,311.798,943.705,311.798z M943.705,301.447
		c-2.578,0-4.676,2.097-4.676,4.675c0,2.579,2.098,4.676,4.676,4.676s4.676-2.098,4.676-4.676
		C948.378,303.544,946.283,301.447,943.705,301.447z"/>
</g>
<g opacity="0.08">
	<circle fill="#FFFFFF" cx="836.873" cy="496.184" r="5.176"/>
	<path fill="#FFFFFF" d="M836.873,501.859c-3.129,0-5.676-2.546-5.676-5.677c0-3.13,2.545-5.677,5.676-5.677
		s5.676,2.547,5.676,5.677C842.548,499.313,840.001,501.859,836.873,501.859z M836.873,491.507c-2.578,0-4.676,2.099-4.676,4.677
		s2.098,4.677,4.676,4.677s4.676-2.099,4.676-4.677C841.548,493.604,839.451,491.507,836.873,491.507z"/>
</g>
<g opacity="0.08">
	<circle fill="#FFFFFF" cx="948.671" cy="427.86" r="5.177"/>
	<path fill="#FFFFFF" d="M948.673,433.536c-3.131,0-5.678-2.546-5.678-5.676s2.547-5.677,5.678-5.677
		c3.129,0,5.676,2.547,5.676,5.677S951.802,433.536,948.673,433.536z M948.673,423.185c-2.58,0-4.678,2.099-4.678,4.677
		s2.098,4.676,4.678,4.676c2.578,0,4.676-2.098,4.676-4.676S951.251,423.185,948.673,423.185z"/>
</g>
<g opacity="0.08">
	<circle fill="#FFFFFF" cx="948.671" cy="409.227" r="5.177"/>
	<path fill="#FFFFFF" d="M948.673,414.902c-3.131,0-5.678-2.546-5.678-5.677c0-3.129,2.547-5.675,5.678-5.675
		c3.129,0,5.676,2.546,5.676,5.675C954.349,412.356,951.802,414.902,948.673,414.902z M948.673,404.552
		c-2.58,0-4.678,2.098-4.678,4.675c0,2.578,2.098,4.677,4.678,4.677c2.578,0,4.676-2.099,4.676-4.677
		C953.349,406.649,951.251,404.552,948.673,404.552z"/>
</g>
<g opacity="0.08">
	<circle fill="#FFFFFF" cx="969.791" cy="419.165" r="5.176"/>
	<path fill="#FFFFFF" d="M969.791,424.841c-3.129,0-5.676-2.546-5.676-5.676s2.547-5.676,5.676-5.676
		c3.131,0,5.678,2.546,5.678,5.676S972.919,424.841,969.791,424.841z M969.791,414.489c-2.578,0-4.676,2.098-4.676,4.676
		s2.098,4.676,4.676,4.676c2.58,0,4.678-2.098,4.678-4.676S972.371,414.489,969.791,414.489z"/>
</g>
<g opacity="0.08">
	<circle fill="#FFFFFF" cx="1008.298" cy="404.258" r="5.177"/>
	<path fill="#FFFFFF" d="M1008.3,409.934c-3.131,0-5.678-2.546-5.678-5.676c0-3.129,2.547-5.675,5.678-5.675
		c3.129,0,5.676,2.546,5.676,5.675C1013.976,407.388,1011.429,409.934,1008.3,409.934z M1008.3,399.583
		c-2.58,0-4.678,2.097-4.678,4.675s2.098,4.676,4.678,4.676c2.578,0,4.676-2.098,4.676-4.676S1010.878,399.583,1008.3,399.583z"/>
</g>
<g opacity="0.08">
	<circle fill="#FFFFFF" cx="1003.332" cy="470.096" r="5.177"/>
	<path fill="#FFFFFF" d="M1003.332,475.772c-3.131,0-5.678-2.548-5.678-5.678c0-3.129,2.547-5.675,5.678-5.675
		c3.129,0,5.676,2.546,5.676,5.675C1009.007,473.226,1006.46,475.772,1003.332,475.772z M1003.332,465.421
		c-2.58,0-4.678,2.097-4.678,4.675c0,2.579,2.098,4.678,4.678,4.678c2.578,0,4.676-2.099,4.676-4.678
		C1008.007,467.518,1005.91,465.421,1003.332,465.421z"/>
</g>
<g opacity="0.08">
	<circle fill="#FFFFFF" cx="958.611" cy="553.325" r="5.176"/>
	<path fill="#FFFFFF" d="M958.611,559.002c-3.129,0-5.678-2.547-5.678-5.677c0-3.129,2.549-5.675,5.678-5.675
		c3.131,0,5.676,2.546,5.676,5.675C964.287,556.455,961.742,559.002,958.611,559.002z M958.611,548.65
		c-2.578,0-4.678,2.097-4.678,4.675c0,2.579,2.1,4.677,4.678,4.677s4.676-2.098,4.676-4.677
		C963.287,550.747,961.189,548.65,958.611,548.65z"/>
</g>
<g opacity="0.08">
	<circle fill="#FFFFFF" cx="884.078" cy="543.387" r="5.176"/>
	<path fill="#FFFFFF" d="M884.078,549.064c-3.131,0-5.676-2.548-5.676-5.679c0-3.129,2.545-5.675,5.676-5.675
		c3.129,0,5.676,2.546,5.676,5.675C889.751,546.518,887.207,549.064,884.078,549.064z M884.078,538.712
		c-2.578,0-4.676,2.097-4.676,4.675c0,2.579,2.098,4.678,4.676,4.678s4.676-2.099,4.676-4.678
		C888.751,540.809,886.656,538.712,884.078,538.712z"/>
</g>
<g opacity="0.08">
	<circle fill="#FFFFFF" cx="879.109" cy="563.264" r="5.176"/>
	<path fill="#FFFFFF" d="M879.109,568.939c-3.131,0-5.678-2.547-5.678-5.677c0-3.129,2.547-5.675,5.678-5.675
		c3.129,0,5.676,2.546,5.676,5.675C884.785,566.394,882.238,568.939,879.109,568.939z M879.109,558.589
		c-2.578,0-4.678,2.097-4.678,4.675s2.1,4.677,4.678,4.677s4.676-2.099,4.676-4.677S881.687,558.589,879.109,558.589z"/>
</g>
<g opacity="0.08">
	<circle fill="#FFFFFF" cx="974.759" cy="617.922" r="5.176"/>
	<path fill="#FFFFFF" d="M974.759,623.598c-3.131,0-5.676-2.546-5.676-5.676s2.545-5.676,5.676-5.676
		c3.129,0,5.676,2.546,5.676,5.676S977.888,623.598,974.759,623.598z M974.759,613.246c-2.578,0-4.676,2.098-4.676,4.676
		s2.098,4.676,4.676,4.676s4.676-2.098,4.676-4.676S977.337,613.246,974.759,613.246z"/>
</g>
<g opacity="0.08">
	<circle fill="#FFFFFF" cx="943.705" cy="617.922" r="5.176"/>
	<path fill="#FFFFFF" d="M943.705,623.598c-3.131,0-5.676-2.546-5.676-5.676s2.545-5.676,5.676-5.676
		c3.129,0,5.676,2.546,5.676,5.676S946.833,623.598,943.705,623.598z M943.705,613.246c-2.578,0-4.676,2.098-4.676,4.676
		s2.098,4.676,4.676,4.676s4.676-2.098,4.676-4.676S946.283,613.246,943.705,613.246z"/>
</g>
<g opacity="0.08">
	<circle fill="#FFFFFF" cx="861.716" cy="524.754" r="5.176"/>
	<path fill="#FFFFFF" d="M861.716,530.431c-3.131,0-5.676-2.547-5.676-5.677c0-3.129,2.545-5.675,5.676-5.675
		c3.129,0,5.676,2.546,5.676,5.675C867.392,527.884,864.845,530.431,861.716,530.431z M861.716,520.079
		c-2.578,0-4.676,2.097-4.676,4.675c0,2.579,2.098,4.677,4.676,4.677s4.676-2.098,4.676-4.677
		C866.392,522.176,864.294,520.079,861.716,520.079z"/>
</g>
<g opacity="0.08">
	<circle fill="#FFFFFF" cx="818.238" cy="553.325" r="5.176"/>
	<path fill="#FFFFFF" d="M818.239,559.002c-3.13,0-5.677-2.547-5.677-5.677c0-3.129,2.547-5.675,5.677-5.675
		c3.129,0,5.675,2.546,5.675,5.675C823.914,556.455,821.368,559.002,818.239,559.002z M818.239,548.65
		c-2.579,0-4.677,2.097-4.677,4.675c0,2.579,2.098,4.677,4.677,4.677c2.578,0,4.675-2.098,4.675-4.677
		C822.914,550.747,820.817,548.65,818.239,548.65z"/>
</g>
<g opacity="0.08">
	<circle fill="#FFFFFF" cx="771.034" cy="511.089" r="5.176"/>
	<path fill="#FFFFFF" d="M771.034,516.766c-3.13,0-5.676-2.547-5.676-5.677c0-3.129,2.546-5.675,5.676-5.675
		s5.676,2.546,5.676,5.675C776.71,514.219,774.164,516.766,771.034,516.766z M771.034,506.414c-2.579,0-4.676,2.097-4.676,4.675
		c0,2.579,2.098,4.677,4.676,4.677s4.676-2.098,4.676-4.677C775.71,508.511,773.612,506.414,771.034,506.414z"/>
</g>
<g opacity="0.08">
	<circle fill="#FFFFFF" cx="792.151" cy="595.562" r="5.176"/>
	<path fill="#FFFFFF" d="M792.152,601.237c-3.131,0-5.677-2.546-5.677-5.677c0-3.13,2.546-5.676,5.677-5.676
		c3.129,0,5.675,2.546,5.675,5.676C797.827,598.691,795.281,601.237,792.152,601.237z M792.152,590.886
		c-2.579,0-4.677,2.099-4.677,4.677c0,2.577,2.099,4.676,4.677,4.676s4.675-2.099,4.675-4.676
		C796.827,592.984,794.73,590.886,792.152,590.886z"/>
</g>
<g opacity="0.08">
	<circle fill="#FFFFFF" cx="818.238" cy="605.499" r="5.176"/>
	<path fill="#FFFFFF" d="M818.239,611.176c-3.13,0-5.677-2.547-5.677-5.677s2.547-5.676,5.677-5.676
		c3.129,0,5.675,2.546,5.675,5.676S821.368,611.176,818.239,611.176z M818.239,600.823c-2.579,0-4.677,2.098-4.677,4.676
		c0,2.579,2.098,4.677,4.677,4.677c2.578,0,4.675-2.098,4.675-4.677C822.914,602.921,820.817,600.823,818.239,600.823z"/>
</g>
<g opacity="0.08">
	<circle fill="#FFFFFF" cx="861.716" cy="673.822" r="5.176"/>
	<path fill="#FFFFFF" d="M861.716,679.498c-3.131,0-5.676-2.546-5.676-5.676s2.545-5.677,5.676-5.677
		c3.129,0,5.676,2.547,5.676,5.677S864.845,679.498,861.716,679.498z M861.716,669.146c-2.578,0-4.676,2.098-4.676,4.676
		s2.098,4.676,4.676,4.676s4.676-2.098,4.676-4.676S864.294,669.146,861.716,669.146z"/>
</g>
<g opacity="0.08">
	<circle fill="#FFFFFF" cx="891.531" cy="668.854" r="5.176"/>
	<path fill="#FFFFFF" d="M891.531,674.529c-3.131,0-5.678-2.546-5.678-5.677c0-3.13,2.547-5.677,5.678-5.677
		c3.129,0,5.676,2.547,5.676,5.677C897.207,671.983,894.66,674.529,891.531,674.529z M891.531,664.177
		c-2.578,0-4.678,2.099-4.678,4.677s2.1,4.677,4.678,4.677s4.676-2.099,4.676-4.677
		C896.207,666.274,894.109,664.177,891.531,664.177z"/>
</g>
<g opacity="0.08">
	<line fill="none" x1="474.141" y1="130.967" x2="538.737" y2="140.905"/>
	
		<rect x="473.771" y="134.957" transform="matrix(-0.9884 -0.1521 0.1521 -0.9884 986.3296 347.3589)" fill="#FFFFFF" width="65.358" height="2"/>
</g>
<g opacity="0.08">
	<line fill="none" x1="538.737" y1="140.905" x2="547.432" y2="159.539"/>
	
		<rect x="532.814" y="149.232" transform="matrix(-0.4229 -0.9062 0.9062 -0.4229 636.643 705.9035)" fill="#FFFFFF" width="20.563" height="2"/>
</g>
<g opacity="0.08">
	<line fill="none" x1="547.432" y1="159.539" x2="588.426" y2="140.905"/>
	
		<rect x="566.936" y="127.698" transform="matrix(-0.4138 -0.9104 0.9104 -0.4138 666.1882 729.4033)" fill="#FFFFFF" width="1.999" height="45.029"/>
</g>
<g opacity="0.08">
	<line fill="none" x1="588.426" y1="140.905" x2="598.364" y2="52.707"/>
	
		<rect x="592.381" y="52.412" transform="matrix(-0.9937 -0.1118 0.1118 -0.9937 1172.2166 259.3248)" fill="#FFFFFF" width="2" height="88.754"/>
</g>
<g opacity="0.08">
	<line fill="none" x1="598.367" y1="53" x2="598.367" y2="115"/>
	<rect x="597.367" y="53" fill="#FFFFFF" width="2" height="62"/>
</g>
<g opacity="0.08">
	<line fill="none" x1="597.846" y1="115.024" x2="588.426" y2="140.905"/>
	
		<rect x="592.114" y="114.19" transform="matrix(-0.9397 -0.3419 0.3419 -0.9397 1106.7349 450.9946)" fill="#FFFFFF" width="1.999" height="27.541"/>
</g>
<g opacity="0.08">
	<line fill="none" x1="588.426" y1="140.905" x2="616.998" y2="150.843"/>
	
		<rect x="587.591" y="144.862" transform="matrix(-0.9445 -0.3285 0.3285 -0.9445 1124.0684 481.6224)" fill="#FFFFFF" width="30.251" height="2"/>
</g>
<g opacity="0.08">
	<line fill="none" x1="616.998" y1="150.843" x2="603.333" y2="191.837"/>
	
		<rect x="609.14" y="149.745" transform="matrix(-0.9487 -0.3163 0.3163 -0.9487 1134.7557 526.8912)" fill="#FFFFFF" width="1.999" height="43.21"/>
</g>
<g opacity="0.08">
	<line fill="none" x1="603.333" y1="191.837" x2="608.302" y2="282.52"/>
	
		<rect x="560.402" y="236.174" transform="matrix(-0.0547 -0.9985 0.9985 -0.0547 402.1301 855.0522)" fill="#FFFFFF" width="90.819" height="2"/>
</g>
<g opacity="0.08">
	<line fill="none" x1="608.302" y1="282.52" x2="634.389" y2="231.588"/>
	
		<rect x="620.346" y="228.457" transform="matrix(-0.89 -0.456 0.456 -0.89 1057.1191 769.179)" fill="#FFFFFF" width="2" height="57.225"/>
</g>
<g opacity="0.08">
	<line fill="none" x1="634.389" y1="231.588" x2="603.333" y2="191.837"/>
	
		<rect x="593.617" y="210.689" transform="matrix(-0.6156 -0.788 0.788 -0.6156 832.9899 829.6779)" fill="#FFFFFF" width="50.441" height="1.999"/>
</g>
<g opacity="0.08">
	<line fill="none" x1="603.333" y1="191.837" x2="679.108" y2="140.905"/>
	
		<rect x="640.203" y="120.721" transform="matrix(-0.5576 -0.8301 0.8301 -0.5576 860.6513 791.4023)" fill="#FFFFFF" width="2" height="91.3"/>
</g>
<g opacity="0.08">
	<line fill="none" x1="679.108" y1="140.905" x2="616.998" y2="150.844"/>
	
		<rect x="647.041" y="114.419" transform="matrix(-0.1582 -0.9874 0.9874 -0.1582 606.5166 808.8256)" fill="#FFFFFF" width="2" height="62.9"/>
</g>
<g opacity="0.08">
	<line fill="none" x1="679.108" y1="140.905" x2="634.389" y2="231.588"/>
	
		<rect x="655.783" y="135.683" transform="matrix(-0.8969 -0.4423 0.4423 -0.8969 1163.4438 643.7778)" fill="#FFFFFF" width="1.999" height="101.113"/>
</g>
<g opacity="0.08">
	<line fill="none" x1="634.389" y1="231.588" x2="754.885" y2="154.57"/>
	
		<rect x="693.654" y="121.556" transform="matrix(-0.5386 -0.8426 0.8426 -0.5386 906.1284 882.328)" fill="#FFFFFF" width="2" height="143.004"/>
</g>
<g opacity="0.08">
	<line fill="none" x1="754.885" y1="154.57" x2="679.108" y2="140.905"/>
	
		<rect x="678.473" y="146.759" transform="matrix(-0.9841 -0.1775 0.1775 -0.9841 1396.3319 420.4318)" fill="#FFFFFF" width="76.998" height="1.999"/>
</g>
<g opacity="0.08">
	<line fill="none" x1="547.225" y1="159.094" x2="602.711" y2="191.837"/>
	
		<rect x="542.744" y="174.449" transform="matrix(-0.8612 -0.5082 0.5082 -0.8612 980.957 618.7552)" fill="#FFFFFF" width="64.425" height="2"/>
</g>
<g opacity="0.08">
	<line fill="none" x1="602.711" y1="191.837" x2="588.426" y2="141.112"/>
	
		<rect x="569.219" y="165.504" transform="matrix(-0.2711 -0.9626 0.9626 -0.2711 596.748 784.9094)" fill="#FFFFFF" width="52.7" height="2"/>
</g>
<g opacity="0.08">
	<line fill="none" x1="602.711" y1="191.837" x2="528.799" y2="231.588"/>
	
		<rect x="564.759" y="169.78" transform="matrix(-0.4737 -0.8807 0.8807 -0.4737 647.2642 810.3055)" fill="#FFFFFF" width="2" height="83.927"/>
</g>
<g opacity="0.08">
	<line fill="none" x1="528.799" y1="231.588" x2="547.225" y2="159.746"/>
	
		<rect x="536.996" y="158.575" transform="matrix(-0.9686 -0.2485 0.2485 -0.9686 1010.4947 518.8728)" fill="#FFFFFF" width="2" height="74.165"/>
</g>
<g opacity="0.08">
	<line fill="none" x1="547.225" y1="159.746" x2="474.141" y2="130.967"/>
	
		<rect x="471.43" y="144.363" transform="matrix(-0.9305 -0.3664 0.3664 -0.9305 932.6373 467.7322)" fill="#FFFFFF" width="78.549" height="2"/>
</g>
<g opacity="0.08">
	<line fill="none" x1="528.592" y1="231.588" x2="533.768" y2="272.582"/>
	
		<rect x="510.539" y="251.079" transform="matrix(-0.1253 -0.9921 0.9921 -0.1253 347.6731 810.6791)" fill="#FFFFFF" width="41.318" height="2"/>
</g>
<g opacity="0.08">
	<line fill="none" x1="533.768" y1="272.582" x2="552.401" y2="262.644"/>
	
		<rect x="542.09" y="257.057" transform="matrix(-0.4707 -0.8823 0.8823 -0.4707 562.5989 872.7483)" fill="#FFFFFF" width="2" height="21.118"/>
</g>
<g opacity="0.08">
	<line fill="none" x1="552.401" y1="262.644" x2="528.799" y2="233.228"/>
	
		<rect x="521.724" y="246.948" transform="matrix(-0.6258 -0.78 0.78 -0.6258 685.4763 824.7595)" fill="#FFFFFF" width="37.715" height="2"/>
</g>
<g opacity="0.08">
	<line fill="none" x1="528.799" y1="233.228" x2="608.302" y2="282.52"/>
	
		<rect x="521.789" y="256.851" transform="matrix(-0.8499 -0.5269 0.5269 -0.8499 915.9243 776.5839)" fill="#FFFFFF" width="93.541" height="2"/>
</g>
<g opacity="0.08">
	<line fill="none" x1="608.302" y1="282.52" x2="552.401" y2="262.644"/>
	
		<rect x="550.684" y="271.569" transform="matrix(-0.9422 -0.335 0.335 -0.9422 1035.8463 723.8114)" fill="#FFFFFF" width="59.328" height="2"/>
</g>
<g opacity="0.08">
	<line fill="none" x1="593.395" y1="306.122" x2="552.401" y2="262.644"/>
	
		<rect x="543.005" y="283.387" transform="matrix(-0.686 -0.7276 0.7276 -0.686 758.9618 896.3069)" fill="#FFFFFF" width="59.757" height="2"/>
</g>
<g opacity="0.08">
	<line fill="none" x1="552.401" y1="262.644" x2="567.308" y2="358.295"/>
	
		<rect x="511.447" y="309.488" transform="matrix(-0.154 -0.9881 0.9881 -0.154 339.2817 911.4755)" fill="#FFFFFF" width="96.81" height="1.999"/>
</g>
<g opacity="0.08">
	<line fill="none" x1="567.308" y1="358.295" x2="578.488" y2="379.413"/>
	
		<rect x="560.947" y="367.866" transform="matrix(-0.4679 -0.8838 0.8838 -0.4679 514.9518 1047.7712)" fill="#FFFFFF" width="23.896" height="2"/>
</g>
<g opacity="0.08">
	<line fill="none" x1="578.488" y1="379.413" x2="552.401" y2="404.258"/>
	
		<rect x="564.422" y="373.839" transform="matrix(-0.6893 -0.7245 0.7245 -0.6893 671.2938 1071.5878)" fill="#FFFFFF" width="2" height="36.026"/>
</g>
<g opacity="0.08">
	<line fill="none" x1="552.401" y1="404.258" x2="567.929" y2="359.468"/>
	
		<rect x="559.186" y="358.178" transform="matrix(-0.9449 -0.3273 0.3273 -0.9449 964.5503 926.0638)" fill="#FFFFFF" width="2.001" height="47.408"/>
</g>
<g opacity="0.08">
	<line fill="none" x1="578.271" y1="379.621" x2="593.136" y2="306.122"/>
	
		<rect x="584.668" y="305.378" transform="matrix(-0.9802 -0.1982 0.1982 -0.9802 1091.7703 795.0074)" fill="#FFFFFF" width="2.001" height="74.984"/>
</g>
<g opacity="0.08">
	<line fill="none" x1="593.136" y1="306.122" x2="568.55" y2="358.295"/>
	
		<rect x="579.824" y="303.363" transform="matrix(-0.9046 -0.4262 0.4262 -0.9046 964.6718 880.2647)" fill="#FFFFFF" width="2" height="57.675"/>
</g>
<g opacity="0.08">
	<line fill="none" x1="593.136" y1="306.122" x2="660.476" y2="374.443"/>
	
		<rect x="578.866" y="339.287" transform="matrix(-0.702 -0.7122 0.7122 -0.702 824.513 1025.5883)" fill="#FFFFFF" width="95.931" height="2.002"/>
</g>
<g opacity="0.08">
	<line fill="none" x1="608.509" y1="284.383" x2="728.798" y2="262.644"/>
	
		<rect x="667.667" y="212.42" transform="matrix(-0.1782 -0.984 0.984 -0.1782 518.66 980.2504)" fill="#FFFFFF" width="2" height="122.242"/>
</g>
<g opacity="0.08">
	<line fill="none" x1="728.798" y1="262.644" x2="634.389" y2="231.588"/>
	
		<rect x="631.876" y="246.127" transform="matrix(-0.9499 -0.3125 0.3125 -0.9499 1251.772 694.8713)" fill="#FFFFFF" width="99.384" height="2"/>
</g>
<g opacity="0.08">
	<line fill="none" x1="728.798" y1="262.644" x2="754.885" y2="154.57"/>
	
		<rect x="740.821" y="152.989" transform="matrix(-0.972 -0.2349 0.2349 -0.972 1413.874 585.5983)" fill="#FFFFFF" width="1.999" height="111.172"/>
</g>
<g opacity="0.08">
	<line fill="none" x1="754.885" y1="154.57" x2="779.729" y2="181.899"/>
	
		<rect x="748.867" y="167.209" transform="matrix(-0.6727 -0.7399 0.7399 -0.6727 1159.0663 849.1199)" fill="#FFFFFF" width="36.934" height="2"/>
</g>
<g opacity="0.08">
	<line fill="none" x1="779.729" y1="181.899" x2="728.798" y2="262.644"/>
	
		<rect x="753.27" y="174.555" transform="matrix(-0.8457 -0.5337 0.5337 -0.8457 1273.5144 812.8147)" fill="#FFFFFF" width="2" height="95.468"/>
</g>
<g opacity="0.08">
	<line fill="none" x1="608.302" y1="282.52" x2="595.569" y2="306.122"/>
	
		<rect x="600.932" y="280.881" transform="matrix(-0.8801 -0.4747 0.4747 -0.8801 991.9963 839.0618)" fill="#FFFFFF" width="1.999" height="26.817"/>
</g>
<g opacity="0.08">
	<line fill="none" x1="608.302" y1="282.52" x2="660.476" y2="374.443"/>
	
		<rect x="581.527" y="327.489" transform="matrix(-0.4936 -0.8697 0.8697 -0.4936 661.8164 1042.3418)" fill="#FFFFFF" width="105.7" height="1.999"/>
</g>
<g opacity="0.08">
	<line fill="none" x1="660.476" y1="374.443" x2="728.796" y2="262.644"/>
	
		<rect x="693.606" y="253.043" transform="matrix(-0.8532 -0.5216 0.5216 -0.8532 1121.087 952.6414)" fill="#FFFFFF" width="2" height="131.022"/>
</g>
<g opacity="0.08">
	<line fill="none" x1="728.796" y1="262.644" x2="766.065" y2="384.382"/>
	
		<rect x="683.75" y="322.507" transform="matrix(-0.2927 -0.9562 0.9562 -0.2927 656.8373 1132.8723)" fill="#FFFFFF" width="127.315" height="2"/>
</g>
<g opacity="0.08">
	<line fill="none" x1="766.065" y1="384.382" x2="660.476" y2="374.443"/>
	
		<rect x="660.241" y="378.414" transform="matrix(-0.9956 -0.0937 0.0937 -0.9956 1387.85 823.9902)" fill="#FFFFFF" width="106.056" height="1.999"/>
</g>
<g opacity="0.08">
	<line fill="none" x1="660.476" y1="374.443" x2="701.469" y2="414.196"/>
	
		<rect x="652.403" y="393.355" transform="matrix(-0.7179 -0.6962 0.6962 -0.7179 895.2481 1151.5188)" fill="#FFFFFF" width="57.106" height="2"/>
</g>
<g opacity="0.08">
	<line fill="none" x1="701.469" y1="414.196" x2="766.065" y2="384.59"/>
	
		<rect x="732.794" y="363.84" transform="matrix(-0.4165 -0.9091 0.9091 -0.4165 676.3285 1232.8215)" fill="#FFFFFF" width="2" height="71.055"/>
</g>
<g opacity="0.08">
	<line fill="none" x1="765.367" y1="385" x2="765.367" y2="409"/>
	<rect x="764.367" y="385" fill="#FFFFFF" width="2" height="24"/>
</g>
<g opacity="0.08">
	<line fill="none" x1="765.547" y1="409.433" x2="701.469" y2="414.196"/>
	
		<rect x="732.502" y="379.646" transform="matrix(-0.0742 -0.9972 0.9972 -0.0742 377.3155 1173.8162)" fill="#FFFFFF" width="2" height="64.251"/>
</g>
<g opacity="0.08">
	<line fill="none" x1="660.271" y1="374.238" x2="644.327" y2="389.352"/>
	
		<rect x="651.312" y="370.854" transform="matrix(-0.6878 -0.7259 0.7259 -0.6878 823.8086 1117.9785)" fill="#FFFFFF" width="2.001" height="21.97"/>
</g>
<g opacity="0.08">
	<line fill="none" x1="644.327" y1="389.352" x2="649.295" y2="470.096"/>
	
		<rect x="606.355" y="428.707" transform="matrix(-0.0614 -0.9981 0.9981 -0.0614 257.6266 1101.6772)" fill="#FFFFFF" width="80.897" height="2"/>
</g>
<g opacity="0.08">
	<line fill="none" x1="649.295" y1="470.096" x2="689.046" y2="563.264"/>
	
		<rect x="618.492" y="515.676" transform="matrix(-0.3924 -0.9198 0.9198 -0.3924 456.4744 1334.8899)" fill="#FFFFFF" width="101.294" height="2"/>
</g>
<g opacity="0.08">
	<line fill="none" x1="689.046" y1="563.264" x2="679.108" y2="501.152"/>
	
		<rect x="652.654" y="531.184" transform="matrix(-0.158 -0.9874 0.9874 -0.158 266.6987 1291.7832)" fill="#FFFFFF" width="62.899" height="2.001"/>
</g>
<g opacity="0.08">
	<line fill="none" x1="679.108" y1="501.152" x2="684.078" y2="432.829"/>
	
		<rect x="680.581" y="432.777" transform="matrix(-0.9974 -0.0723 0.0723 -0.9974 1327.6172 982.107)" fill="#FFFFFF" width="1.999" height="68.505"/>
</g>
<g opacity="0.08">
	<line fill="none" x1="684.078" y1="432.829" x2="701.256" y2="413.989"/>
	
		<rect x="691.638" y="410.656" transform="matrix(-0.7388 -0.6739 0.6739 -0.7388 919.0569 1202.9883)" fill="#FFFFFF" width="2" height="25.495"/>
</g>
<g opacity="0.08">
	<line fill="none" x1="766.065" y1="409.02" x2="818.239" y2="553.325"/>
	
		<rect x="715.43" y="480.149" transform="matrix(-0.34 -0.9404 0.9404 -0.34 609.0087 1389.7021)" fill="#FFFFFF" width="153.445" height="2"/>
</g>
<g opacity="0.08">
	<line fill="none" x1="817.367" y1="553" x2="817.367" y2="605"/>
	<rect x="816.367" y="553" fill="#FFFFFF" width="2" height="52"/>
</g>
<g opacity="0.08">
	<line fill="none" x1="817.721" y1="605.705" x2="891.531" y2="668.854"/>
	
		<rect x="806.021" y="636.248" transform="matrix(-0.7598 -0.6501 0.6501 -0.7598 1089.6368 1677.0337)" fill="#FFFFFF" width="97.131" height="1.999"/>
</g>
<g opacity="0.08">
	<line fill="none" x1="891.531" y1="668.854" x2="861.716" y2="673.822"/>
	
		<rect x="875.67" y="656.198" transform="matrix(-0.1641 -0.9864 0.9864 -0.1641 358.3046 1646.2466)" fill="#FFFFFF" width="2" height="30.222"/>
</g>
<g opacity="0.08">
	<line fill="none" x1="861.716" y1="673.822" x2="818.239" y2="605.705"/>
	
		<rect x="799.58" y="638.725" transform="matrix(-0.538 -0.8429 0.8429 -0.538 752.6569 1691.9575)" fill="#FFFFFF" width="80.807" height="2"/>
</g>
<g opacity="0.08">
	<line fill="none" x1="818.239" y1="605.705" x2="792.152" y2="595.562"/>
	
		<rect x="791.181" y="599.621" transform="matrix(-0.932 -0.3624 0.3624 -0.932 1337.9224 1452.2283)" fill="#FFFFFF" width="27.99" height="1.998"/>
</g>
<g opacity="0.08">
	<line fill="none" x1="792.152" y1="595.562" x2="861.716" y2="674.029"/>
	
		<rect x="774.506" y="633.823" transform="matrix(-0.6634 -0.7483 0.7483 -0.6634 900.5007 1674.7356)" fill="#FFFFFF" width="104.867" height="1.999"/>
</g>
<g opacity="0.08">
	<line fill="none" x1="792.152" y1="595.562" x2="817.721" y2="553.532"/>
	
		<rect x="803.974" y="549.96" transform="matrix(-0.8545 -0.5195 0.5195 -0.8545 1194.3032 1483.6899)" fill="#FFFFFF" width="2" height="49.196"/>
</g>
<g opacity="0.08">
	<line fill="none" x1="817.721" y1="553.532" x2="771.034" y2="511.089"/>
	
		<rect x="762.79" y="531.309" transform="matrix(-0.7399 -0.6727 0.6727 -0.7399 1023.988 1460.5254)" fill="#FFFFFF" width="63.095" height="2.001"/>
</g>
<g opacity="0.08">
	<line fill="none" x1="771.034" y1="511.089" x2="792.152" y2="595.562"/>
	
		<rect x="738.054" y="552.272" transform="matrix(-0.2425 -0.9701 0.9701 -0.2425 434.3788 1445.7053)" fill="#FFFFFF" width="87.068" height="2"/>
</g>
<g opacity="0.08">
	<line fill="none" x1="766.065" y1="409.02" x2="771.034" y2="511.089"/>
	
		<rect x="717.446" y="459.031" transform="matrix(-0.0486 -0.9988 0.9988 -0.0486 346.4004 1250.0176)" fill="#FFFFFF" width="102.188" height="1.999"/>
</g>
<g opacity="0.08">
	<line fill="none" x1="771.034" y1="511.089" x2="701.256" y2="413.989"/>
	
		<rect x="676.368" y="461.581" transform="matrix(-0.5836 -0.8121 0.8121 -0.5836 790.1168 1330.3335)" fill="#FFFFFF" width="119.577" height="2"/>
</g>
<g opacity="0.08">
	<line fill="none" x1="765.547" y1="384.589" x2="818.239" y2="379.413"/>
	
		<rect x="790.927" y="355.526" transform="matrix(-0.0977 -0.9952 0.9952 -0.0977 489.0995 1207.4481)" fill="#FFFFFF" width="2" height="52.946"/>
</g>
<g opacity="0.08">
	<line fill="none" x1="818.239" y1="379.413" x2="843.083" y2="327.24"/>
	
		<rect x="829.717" y="324.413" transform="matrix(-0.903 -0.4296 0.4296 -0.903 1429.1246 1029.1969)" fill="#FFFFFF" width="2.001" height="57.789"/>
</g>
<g opacity="0.08">
	<line fill="none" x1="843.083" y1="327.24" x2="943.705" y2="306.122"/>
	
		<rect x="892.413" y="265.245" transform="matrix(-0.2061 -0.9785 0.9785 -0.2061 767.6541 1256.1387)" fill="#FFFFFF" width="2" height="102.81"/>
</g>
<g opacity="0.08">
	<line fill="none" x1="943.705" y1="306.122" x2="879.109" y2="262.644"/>
	
		<rect x="872.483" y="283.404" transform="matrix(-0.8296 -0.5584 0.5584 -0.8296 1508.6937 1029.2676)" fill="#FFFFFF" width="77.866" height="1.999"/>
</g>
<g opacity="0.08">
	<line fill="none" x1="879.109" y1="262.644" x2="760.888" y2="384.382"/>
	
		<rect x="818.982" y="238.636" transform="matrix(-0.7173 -0.6968 0.6968 -0.7173 1182.7577 1126.8492)" fill="#FFFFFF" width="1.999" height="169.687"/>
</g>
<g opacity="0.08">
	<line fill="none" x1="728.367" y1="263" x2="879.367" y2="263"/>
	<rect x="728.367" y="262" fill="#FFFFFF" width="151" height="2"/>
</g>
<g opacity="0.08">
	<line fill="none" x1="878.589" y1="262.85" x2="825.692" y2="221.65"/>
	
		<rect x="818.576" y="241.264" transform="matrix(-0.7889 -0.6145 0.6145 -0.7889 1375.4644 957.0068)" fill="#FFFFFF" width="67.049" height="2.001"/>
</g>
<g opacity="0.08">
	<line fill="none" x1="825.692" y1="221.65" x2="728.28" y2="262.85"/>
	
		<rect x="775.996" y="189.407" transform="matrix(-0.3896 -0.921 0.921 -0.3896 856.5521 1052.2925)" fill="#FFFFFF" width="2" height="105.771"/>
</g>
<g opacity="0.08">
	<line fill="none" x1="779.729" y1="181.899" x2="825.691" y2="221.65"/>
	
		<rect x="772.35" y="200.817" transform="matrix(-0.7564 -0.6542 0.6542 -0.7564 1277.8644 879.5828)" fill="#FFFFFF" width="60.77" height="2"/>
</g>
<g opacity="0.08">
	<line fill="none" x1="843.083" y1="327.24" x2="879.109" y2="262.85"/>
	
		<rect x="860.146" y="258.136" transform="matrix(-0.8725 -0.4885 0.4885 -0.8725 1468.3937 973.1588)" fill="#FFFFFF" width="1.999" height="73.784"/>
</g>
<g opacity="0.08">
	<line fill="none" x1="843.083" y1="327.24" x2="765.547" y2="384.589"/>
	
		<rect x="803.273" y="307.721" transform="matrix(-0.5947 -0.8039 0.8039 -0.5947 996.4299 1214.2117)" fill="#FFFFFF" width="2" height="96.443"/>
</g>
<g opacity="0.08">
	<line fill="none" x1="765.547" y1="409.433" x2="818.239" y2="379.413"/>
	
		<rect x="790.908" y="364.105" transform="matrix(-0.4954 -0.8687 0.8687 -0.4954 841.5436 1277.733)" fill="#FFFFFF" width="2.001" height="60.645"/>
</g>
<g opacity="0.08">
	<line fill="none" x1="765.547" y1="409.433" x2="836.873" y2="496.184"/>
	
		<rect x="745.082" y="451.782" transform="matrix(-0.6351 -0.7724 0.7724 -0.6351 960.3774 1359.2386)" fill="#FFFFFF" width="112.306" height="2"/>
</g>
<g opacity="0.08">
	<line fill="none" x1="836.873" y1="496.184" x2="948.673" y2="427.86"/>
	
		<rect x="891.812" y="396.497" transform="matrix(-0.5214 -0.8533 0.8533 -0.5214 964.0523 1464.7501)" fill="#FFFFFF" width="2" height="131.025"/>
</g>
<g opacity="0.08">
	<line fill="none" x1="948.367" y1="428" x2="948.367" y2="409"/>
	<rect x="947.367" y="409" fill="#FFFFFF" width="2" height="19"/>
</g>
<g opacity="0.08">
	<line fill="none" x1="948.156" y1="409.433" x2="969.791" y2="419.165"/>
	
		<rect x="947.145" y="413.273" transform="matrix(-0.912 -0.4102 0.4102 -0.912 1663.6942 1185.4626)" fill="#FFFFFF" width="23.724" height="2"/>
</g>
<g opacity="0.08">
	<line fill="none" x1="969.791" y1="419.165" x2="1008.3" y2="404.258"/>
	
		<rect x="988.061" y="391.114" transform="matrix(-0.3613 -0.9325 0.9325 -0.3613 962.4249 1482.7799)" fill="#FFFFFF" width="2" height="41.295"/>
</g>
<g opacity="0.08">
	<line fill="none" x1="948.156" y1="428.066" x2="969.791" y2="419.165"/>
	
		<rect x="957.956" y="411.958" transform="matrix(-0.381 -0.9246 0.9246 -0.381 932.5827 1471.6948)" fill="#FFFFFF" width="1.999" height="23.397"/>
</g>
<g opacity="0.08">
	<line fill="none" x1="1008.3" y1="404.258" x2="943.705" y2="306.122"/>
	
		<rect x="917.237" y="354.199" transform="matrix(-0.5498 -0.8353 0.8353 -0.5498 1215.8673 1365.722)" fill="#FFFFFF" width="117.488" height="1.999"/>
</g>
<g opacity="0.08">
	<line fill="none" x1="843.083" y1="327.24" x2="948.156" y2="409.433"/>
	
		<rect x="828.902" y="367.29" transform="matrix(-0.7876 -0.6161 0.6161 -0.7876 1374.0873 1210.1808)" fill="#FFFFFF" width="133.392" height="1.999"/>
</g>
<g opacity="0.08">
	<line fill="none" x1="948.156" y1="409.433" x2="943.705" y2="306.122"/>
	
		<rect x="894.172" y="356.787" transform="matrix(-0.043 -0.9991 0.9991 -0.043 629.1001 1318.1752)" fill="#FFFFFF" width="103.408" height="2"/>
</g>
<g opacity="0.08">
	<line fill="none" x1="843.083" y1="327.24" x2="836.873" y2="496.184"/>
	
		<rect x="838.968" y="327.179" transform="matrix(-0.9993 -0.0371 0.0371 -0.9993 1664.0911 854.2787)" fill="#FFFFFF" width="2.001" height="169.055"/>
</g>
<g opacity="0.08">
	<line fill="none" x1="818.239" y1="379.621" x2="836.873" y2="496.184"/>
	
		<rect x="768.556" y="436.954" transform="matrix(-0.1579 -0.9875 0.9875 -0.1579 525.7903 1324.3032)" fill="#FFFFFF" width="118.047" height="2"/>
</g>
<g opacity="0.08">
	<line fill="none" x1="836.873" y1="496.184" x2="861.716" y2="524.754"/>
	
		<rect x="830.394" y="509.473" transform="matrix(-0.6562 -0.7546 0.7546 -0.6562 1021.4274 1486.3407)" fill="#FFFFFF" width="37.861" height="2.001"/>
</g>
<g opacity="0.08">
	<line fill="none" x1="861.716" y1="524.754" x2="948.673" y2="427.653"/>
	
		<rect x="904.19" y="411.065" transform="matrix(-0.7451 -0.667 0.667 -0.7451 1262.0001 1434.8121)" fill="#FFFFFF" width="2" height="130.351"/>
</g>
<g opacity="0.08">
	<line fill="none" x1="1008.507" y1="404.052" x2="1003.332" y2="470.096"/>
	
		<rect x="1004.88" y="403.917" transform="matrix(-0.9969 -0.0781 0.0781 -0.9969 1974.5479 951.3171)" fill="#FFFFFF" width="2" height="66.243"/>
</g>
<g opacity="0.08">
	<line fill="none" x1="1003.332" y1="470.096" x2="969.791" y2="419.165"/>
	
		<rect x="956.06" y="443.665" transform="matrix(-0.55 -0.8352 0.8352 -0.55 1157.7761 1513.1655)" fill="#FFFFFF" width="60.985" height="1.999"/>
</g>
<g opacity="0.08">
	<line fill="none" x1="958.611" y1="553.325" x2="1003.332" y2="470.096"/>
	
		<rect x="980.004" y="464.515" transform="matrix(-0.8808 -0.4736 0.4736 -0.8808 1602.6707 1427.0718)" fill="#FFFFFF" width="2" height="94.488"/>
</g>
<g opacity="0.08">
	<line fill="none" x1="958.611" y1="553.532" x2="884.078" y2="543.387"/>
	
		<rect x="883.75" y="547.502" transform="matrix(-0.9909 -0.1349 0.1349 -0.9909 1760.318 1216.2772)" fill="#FFFFFF" width="75.227" height="2.002"/>
</g>
<g opacity="0.08">
	<line fill="none" x1="884.078" y1="543.387" x2="879.109" y2="563.264"/>
	
		<rect x="880.597" y="543.076" transform="matrix(-0.9702 -0.2423 0.2423 -0.9702 1602.8481 1303.7673)" fill="#FFFFFF" width="1.999" height="20.49"/>
</g>
<g opacity="0.08">
	<line fill="none" x1="879.109" y1="563.264" x2="861.716" y2="524.754"/>
	
		<rect x="849.278" y="543.042" transform="matrix(-0.4116 -0.9114 0.9114 -0.4116 732.8431 1561.2266)" fill="#FFFFFF" width="42.256" height="2"/>
</g>
<g opacity="0.08">
	<line fill="none" x1="861.716" y1="524.754" x2="884.078" y2="543.387"/>
	
		<rect x="858.297" y="533.08" transform="matrix(-0.7682 -0.6402 0.6402 -0.7682 1201.4144 1503.1779)" fill="#FFFFFF" width="29.105" height="2"/>
</g>
<g opacity="0.08">
	<line fill="none" x1="974.759" y1="617.922" x2="879.109" y2="563.264"/>
	
		<rect x="871.838" y="589.53" transform="matrix(-0.8682 -0.4961 0.4961 -0.8682 1438.7305 1563.1311)" fill="#FFFFFF" width="110.161" height="2"/>
</g>
<g opacity="0.08">
	<line fill="none" x1="879.109" y1="563.264" x2="943.705" y2="617.922"/>
	
		<rect x="869.137" y="589.562" transform="matrix(-0.7634 -0.6459 0.6459 -0.7634 1225.8026 1630.1173)" fill="#FFFFFF" width="84.617" height="1.999"/>
</g>
<g opacity="0.08">
	<line fill="none" x1="943.367" y1="618" x2="973.367" y2="618"/>
	<rect x="943.367" y="617" fill="#FFFFFF" width="30" height="2"/>
</g>
<g opacity="0.08">
	<line fill="none" x1="779.729" y1="181.899" x2="879.109" y2="135.936"/>
	
		<rect x="828.448" y="104.186" transform="matrix(-0.4199 -0.9076 0.9076 -0.4199 1033.4561 978.4609)" fill="#FFFFFF" width="2" height="109.496"/>
</g>
<g opacity="0.08">
	<line fill="none" x1="879.109" y1="135.936" x2="825.691" y2="221.65"/>
	
		<rect x="851.384" y="128.329" transform="matrix(-0.8487 -0.5289 0.5289 -0.8487 1481.2363 781.3903)" fill="#FFFFFF" width="2" height="100.998"/>
</g>
<g opacity="0.08">
	<line fill="none" x1="825.367" y1="222" x2="949.367" y2="222"/>
	<rect x="825.367" y="221" fill="#FFFFFF" width="124" height="2"/>
</g>
<g opacity="0.08">
	<line fill="none" x1="949.396" y1="221.856" x2="878.589" y2="263.775"/>
	
		<rect x="912.954" y="201.641" transform="matrix(-0.5097 -0.8603 0.8603 -0.5097 1170.9691 1152.8361)" fill="#FFFFFF" width="2" height="82.282"/>
</g>
<g opacity="0.08">
	<line fill="none" x1="949.396" y1="221.856" x2="879.109" y2="135.936"/>
	
		<rect x="858.756" y="177.9" transform="matrix(-0.6332 -0.774 0.774 -0.6332 1354.7019 999.809)" fill="#FFFFFF" width="111.01" height="2.001"/>
</g>
<g opacity="0.08">
	<line fill="none" x1="879.109" y1="135.936" x2="1016.996" y2="30.347"/>
	
		<rect x="947.013" y="-3.737" transform="matrix(-0.6077 -0.7941 0.7941 -0.6077 1458.1801 886.4352)" fill="#FFFFFF" width="1.999" height="173.659"/>
</g>
<g opacity="0.08">
	<line fill="none" x1="1016.996" y1="30.347" x2="1128.794" y2="119.787"/>
	
		<rect x="1001.342" y="74.072" transform="matrix(-0.7809 -0.6247 0.6247 -0.7809 1863.8655 803.9347)" fill="#FFFFFF" width="143.178" height="2.001"/>
</g>
<g opacity="0.08">
	<line fill="none" x1="1128.794" y1="119.787" x2="1133.765" y2="37.8"/>
	
		<rect x="1130.316" y="37.778" transform="matrix(-0.9982 -0.0606 0.0606 -0.9982 2255.7812 226.0583)" fill="#FFFFFF" width="2" height="82.141"/>
</g>
<g opacity="0.08">
	<line fill="none" x1="1133.765" y1="37.8" x2="1016.996" y2="30.347"/>
	
		<rect x="1016.908" y="33.076" transform="matrix(-0.998 -0.0637 0.0637 -0.998 2146.4729 136.5825)" fill="#FFFFFF" width="117.011" height="2"/>
</g>
<g opacity="0.08">
	<line fill="none" x1="1131.281" y1="119.995" x2="1177.244" y2="140.905"/>
	
		<rect x="1128.987" y="129.432" transform="matrix(-0.9102 -0.4141 0.4141 -0.9102 2150.8394 727.128)" fill="#FFFFFF" width="50.494" height="2"/>
</g>
<g opacity="0.08">
	<line fill="none" x1="1177.244" y1="140.905" x2="1076.623" y2="206.743"/>
	
		<rect x="1125.932" y="113.726" transform="matrix(-0.5476 -0.8368 0.8368 -0.5476 1598.5532 1212.0093)" fill="#FFFFFF" width="2.001" height="120.248"/>
</g>
<g opacity="0.08">
	<line fill="none" x1="1076.623" y1="206.743" x2="1128.794" y2="119.787"/>
	
		<rect x="1101.708" y="112.518" transform="matrix(-0.8575 -0.5145 0.5145 -0.8575 1964.3245 870.4844)" fill="#FFFFFF" width="2" height="101.405"/>
</g>
<g opacity="0.08">
	<line fill="none" x1="1128.794" y1="119.787" x2="879.109" y2="135.936"/>
	
		<rect x="1002.91" y="2.733" transform="matrix(-0.0645 -0.9979 0.9979 -0.0645 941.0532 1137.8971)" fill="#FFFFFF" width="2" height="250.203"/>
</g>
<g opacity="0.08">
	<line fill="none" x1="879.109" y1="135.936" x2="1076.623" y2="206.743"/>
	
		<rect x="872.91" y="170.37" transform="matrix(-0.9413 -0.3375 0.3375 -0.9413 1840.4268 662.704)" fill="#FFFFFF" width="209.819" height="2"/>
</g>
<g opacity="0.08">
	<line fill="none" x1="1076.623" y1="206.743" x2="949.396" y2="221.856"/>
	
		<rect x="1011.963" y="150.234" transform="matrix(-0.1181 -0.993 0.993 -0.1181 919.846 1245.4806)" fill="#FFFFFF" width="2" height="128.119"/>
</g>
<g opacity="0.08">
	<line fill="none" x1="884.285" y1="543.415" x2="1003.332" y2="470.096"/>
	
		<rect x="942.831" y="436.872" transform="matrix(-0.5244 -0.8515 0.8515 -0.5244 1007.2287 1576.1826)" fill="#FFFFFF" width="2" height="139.816"/>
</g>
<g opacity="0.08">
	<line fill="none" x1="948.156" y1="428.066" x2="878.902" y2="543.387"/>
	
		<rect x="912.541" y="418.431" transform="matrix(-0.8576 -0.5143 0.5143 -0.8576 1447.2336 1372.0398)" fill="#FFFFFF" width="2" height="134.514"/>
</g>
<g opacity="0.08">
	<line fill="none" x1="948.156" y1="428.066" x2="1003.123" y2="470.482"/>
	
		<rect x="940.933" y="448.261" transform="matrix(-0.7917 -0.6109 0.6109 -0.7917 1473.6237 1400.9675)" fill="#FFFFFF" width="69.431" height="2.001"/>
</g>
</svg>
