<?xml version="1.0" encoding="UTF-8"?>
<svg width="388px" height="217px" viewBox="0 0 388 217" version="1.1" xmlns="http://www.w3.org/2000/svg" xmlns:xlink="http://www.w3.org/1999/xlink">
    <!-- Generator: Sketch 48.1 (47250) - http://www.bohemiancoding.com/sketch -->
    <title>Group 12</title>
    <desc>Created with Sketch.</desc>
    <defs>
        <linearGradient x1="21.8341645%" y1="88.7373096%" x2="78.7358047%" y2="28.4026015%" id="linearGradient-1">
            <stop stop-color="#5B29C7" offset="0%"></stop>
            <stop stop-color="#2D0674" offset="100%"></stop>
        </linearGradient>
        <path d="M177.368141,78 L211.737936,78 C222.478918,78 232.400334,83.742342 237.750842,93.0558141 L255.012906,123.103383 C260.386252,132.456608 260.324538,143.974536 254.851274,153.269645 L237.803135,182.222076 C232.411385,191.378751 222.578038,197 211.95186,197 L177.368141,197 C166.74131,197 156.90746,191.378065 151.515938,182.220499 L134.147797,152.720499 C128.617401,143.327054 128.617401,131.672946 134.147797,122.279501 L151.515938,92.7795011 C156.90746,83.6219346 166.74131,78 177.368141,78 Z" id="path-2"></path>
        <filter x="-9.3%" y="-10.1%" width="118.6%" height="120.2%" filterUnits="objectBoundingBox" id="filter-3">
            <feOffset dx="0" dy="0" in="SourceAlpha" result="shadowOffsetOuter1"></feOffset>
            <feGaussianBlur stdDeviation="4" in="shadowOffsetOuter1" result="shadowBlurOuter1"></feGaussianBlur>
            <feColorMatrix values="0 0 0 0 0.364705882   0 0 0 0 0.37254902   0 0 0 0 0.407843137  0 0 0 0.38 0" type="matrix" in="shadowBlurOuter1"></feColorMatrix>
        </filter>
        <filter x="-10.9%" y="-11.8%" width="121.7%" height="123.5%" filterUnits="objectBoundingBox" id="filter-4">
            <feGaussianBlur stdDeviation="5" in="SourceAlpha" result="shadowBlurInner1"></feGaussianBlur>
            <feOffset dx="2" dy="2" in="shadowBlurInner1" result="shadowOffsetInner1"></feOffset>
            <feComposite in="shadowOffsetInner1" in2="SourceAlpha" operator="arithmetic" k2="-1" k3="1" result="shadowInnerInner1"></feComposite>
            <feColorMatrix values="0 0 0 0 0   0 0 0 0 0   0 0 0 0 0  0 0 0 0.155485734 0" type="matrix" in="shadowInnerInner1"></feColorMatrix>
        </filter>
    </defs>
    <g id="Artboard-Copy-2" stroke="none" stroke-width="1" fill="none" fill-rule="evenodd" transform="translate(-1052.000000, -4278.000000)">
        <g id="Group-12" transform="translate(1052.000000, 4278.000000)">
            <g id="Group-4" opacity="0.713428442" fill="#F5F5FA" fill-rule="nonzero">
                <path d="M147.365385,216.239669 C148.059467,214.745977 148.768086,213.151963 149.523945,211.58396 C151.337281,207.816291 153.085206,204.011466 155.040266,200.321826 C156.090474,198.348817 156.166786,196.684206 155.091141,194.659176 C152.888973,190.53109 150.930279,186.261809 148.895273,182.040831 C148.353816,180.918705 147.892305,179.766854 147.419894,178.696747 C148.713576,177.102733 149.367686,178.024215 150.043599,179.072027 C152.645499,183.107223 155.461802,187.019802 157.823863,191.199907 C159.506377,194.176142 161.654036,195.409738 164.968189,195.439463 C169.445202,195.487766 173.914948,195.959654 178.38106,196.275484 C179.224134,196.334935 180.052673,196.505854 180.8158,196.621039 C181.357256,198.705518 180.052673,198.594049 178.947955,198.664646 C174.474575,198.947036 170.001195,199.444933 165.524181,199.43007 C161.937483,199.415208 159.513645,200.492746 157.700309,203.866556 C155.490874,207.976064 152.689106,211.758595 150.141715,215.686036 C149.516677,216.637242 148.93888,217.792809 147.365385,216.239669" id="Fill-49"></path>
                <path d="M134.807084,159.189189 C134.162781,158.283492 133.423296,157.311526 132.753368,156.302742 C130.037045,152.219745 127.291435,148.16252 124.684936,144.013253 C123.71116,142.466942 122.517735,141.782147 120.734919,141.686424 C115.364507,141.399251 109.990433,141.031082 104.623682,140.648186 C103.76339,140.585597 102.445498,140.96113 102.610234,138.932517 C103.294807,138.770523 104.059916,138.47967 104.846991,138.424444 C109.587744,138.100455 114.332158,137.702832 119.083892,137.5887 C121.964952,137.522429 123.945452,136.620414 125.461029,133.991686 C127.71975,130.078047 130.370179,126.396355 132.874175,122.629983 C133.481869,121.713243 134.184746,120.859089 134.796102,120.027027 C136.853479,120.582962 136.128638,121.680107 135.638088,122.681527 C133.423296,127.195282 131.307346,131.767944 128.913175,136.178612 C127.646534,138.505441 127.522066,140.416239 128.839959,142.801976 C131.267078,147.197917 133.353741,151.781623 135.572194,156.295378 C136.055421,157.278391 136.897408,158.357126 134.807084,159.189189" id="Fill-99"></path>
                <path d="M78.3225057,135.296116 C78.5388243,137.48731 77.2225791,137.135413 76.3536379,137.193458 C71.6056235,137.523588 66.8576101,137.937158 62.0949308,138.027853 C58.9014781,138.089526 56.7896201,139.196006 55.1763959,142.032951 C53.0938688,145.700662 50.5457077,149.107172 48.1808664,152.615259 C47.502579,153.609278 46.7619619,154.567019 46.1130052,155.459459 C44.048811,154.646831 44.8517566,153.587511 45.3393904,152.608004 C47.5649076,148.160315 49.6584336,143.647324 52.0856035,139.319352 C53.4018487,136.968533 53.2808565,135.082075 52.004942,132.789301 C49.6620996,128.555653 47.5942393,124.169635 45.4383837,119.827152 C44.9874147,118.90569 44.0341451,117.900787 46.2486633,116.297297 C46.6409697,117.030114 46.9709475,117.799209 47.4292504,118.488491 C50.1790651,122.631446 53.0865368,126.687333 55.6786955,130.920982 C57.0829342,133.213755 58.8244836,134.102567 61.4569731,134.160612 C66.0913282,134.265818 70.7183504,134.664877 75.3380396,134.965985 C76.3243061,135.02403 77.2995745,135.176398 78.3225057,135.296116" id="Fill-100"></path>
                <path d="M33.5113556,98.6145218 C32.2473602,100.259737 31.5843999,99.3387128 30.9032266,98.295135 C28.2987398,94.2693725 25.508479,90.3438827 23.1116223,86.1881377 C21.4323667,83.2653747 19.3888459,81.8875537 15.9829793,81.9506888 C12.0125027,82.0323917 8.02017091,81.538456 4.04605209,81.2562068 C2.70556162,81.1633618 1.36871336,80.9442477 0.0828618332,80.791982 C-0.332399284,78.7382488 0.891526965,78.7382488 2.00981754,78.667687 C6.98930397,78.3557269 11.961506,77.932354 16.9446356,77.8097982 C19.4398426,77.7615185 21.0571748,76.9407683 22.3867376,74.7124863 C25.0458634,70.2596366 27.9781877,65.9887635 30.8158029,61.6658973 C31.4350519,60.7225913 32.0105886,59.5044637 33.5769231,61.1942448 C32.6152668,63.2182671 31.6281122,65.3648452 30.5899599,67.496568 C28.9871984,70.7981386 27.4572909,74.1405611 25.7233945,77.3678555 C24.7835934,79.1170564 24.7471674,80.5654401 25.6723978,82.3369241 C27.8980494,86.6003695 29.9415703,90.9603742 32.0324447,95.2832404 C32.5751977,96.4010953 33.0450977,97.5560877 33.5113556,98.6145218" id="Fill-128"></path>
                <path d="M180.941108,80.8072137 C179.661173,80.9659292 178.351983,81.2021577 177.024509,81.2944341 C172.281438,81.6266296 167.53471,81.9883531 162.79164,82.1729069 C160.959505,82.239346 159.82585,82.9517201 158.853099,84.4798196 C155.605723,89.5587205 152.248639,94.5674908 148.997606,99.5135135 C146.982624,99.2994317 147.20204,98.2991536 147.79081,97.1069412 C149.915501,92.8142367 151.817118,88.3923446 154.21608,84.2620472 C156.018959,81.1652465 155.938506,78.625796 154.153912,75.5622159 C151.809803,71.54265 149.9411,67.2462539 147.915147,63.0421351 C147.468998,62.1119877 146.562074,60.923466 148.917153,60.3513514 C149.922815,61.8646863 151.023559,63.4924444 152.109674,65.134967 C154.395271,68.6045649 156.746693,72.0335611 158.933552,75.5732888 C159.906302,77.1456806 161.113097,77.7436326 162.908662,77.8211455 C168.032056,78.0278441 173.155451,78.3711134 178.267873,78.7217641 C179.394216,78.7955854 180.992305,78.3415845 180.941108,80.8072137" id="Fill-143"></path>
                <path d="M78.3461538,19.6130913 C77.2093938,21.8557768 75.8416724,21.5090455 74.7085216,21.5865074 C70.0207389,21.9221721 65.3365665,22.3684963 60.6487838,22.3980047 C58.1876081,22.4127595 56.8487572,23.4381984 55.6362134,25.4337457 C53.2255602,29.3990208 50.6236431,33.2462591 48.0866828,37.126696 C47.4731937,38.0599185 46.7983544,38.9415013 46.1632125,39.8378378 C44.3046998,39.4173339 44.6619673,38.4177162 45.2068903,37.2963725 C47.3071902,33.0064992 49.1729204,28.5838343 51.5330512,24.4525709 C53.2472131,21.4610932 53.1136884,19.0118444 51.4717018,16.0830738 C49.2090076,12.0440269 47.3468867,7.75415262 45.3187621,3.57493684 C44.817144,2.53843231 44.1423055,1.47979665 46.0874288,0.675675676 C46.7333967,1.60520989 47.4659761,2.58269649 48.1372052,3.60444629 C50.814907,7.69882288 53.5286959,11.763691 56.1017434,15.928152 C57.0688916,17.4884416 58.2164786,18.1081304 60.0064242,18.1782149 C64.694206,18.3589579 69.3819886,18.702 74.0625527,19.0302883 C75.3580988,19.1225039 76.6428179,19.3770185 78.3461538,19.6130913" id="Fill-153"></path>
                <path d="M134.78086,39.8378378 C130.894612,33.9881318 127.092292,28.2596826 123.392145,22.6818861 C116.433388,22.0866271 109.730066,21.5207631 103.030392,20.9181551 C102.899026,20.9108071 102.800501,20.5213158 102.596154,20.1171285 C103.249336,18.7833068 104.625031,19.0441923 105.759888,18.9596805 C110.244583,18.625306 114.740224,18.1219079 119.22127,18.1733498 C122.403249,18.2100947 124.209534,16.9350649 125.753086,14.2931434 C127.964417,10.5011229 130.526057,6.91487202 132.963629,3.25880528 C133.573022,2.34387082 134.273641,1.49140127 134.875736,0.675675676 C136.831632,1.39586545 136.127363,2.46145263 135.631092,3.4792719 C133.521935,7.76366659 131.580635,12.1399231 129.241587,16.292038 C127.730877,18.9817264 127.573967,21.1827147 129.161309,23.938544 C131.529548,28.0649379 133.459901,32.4558914 135.547162,36.7513101 C136.014242,37.6993145 136.941104,38.7649017 134.78086,39.8378378" id="Fill-154"></path>
                <path d="M341.864776,159.189189 C341.220473,158.283492 340.480989,157.311526 339.81106,156.302742 C337.094737,152.219745 334.349128,148.16252 331.742628,144.013253 C330.768852,142.466942 329.575427,141.782147 327.792612,141.686424 C322.422199,141.399251 317.048125,141.031082 311.681374,140.648186 C310.821083,140.585597 309.50319,140.96113 309.667926,138.932517 C310.352499,138.770523 311.117608,138.47967 311.904684,138.424444 C316.645437,138.100455 321.38985,137.702832 326.141584,137.5887 C329.022644,137.522429 331.003145,136.620414 332.518721,133.991686 C334.777443,130.078047 337.427871,126.396355 339.931867,122.629983 C340.539562,121.713243 341.242438,120.859089 341.853794,120.027027 C343.911171,120.582962 343.18633,121.680107 342.695781,122.681527 C340.480989,127.195282 338.365039,131.767944 335.970868,136.178612 C334.704226,138.505441 334.579759,140.416239 335.897651,142.801976 C338.324771,147.197917 340.411434,151.781623 342.629886,156.295378 C343.113114,157.278391 343.9551,158.357126 341.864776,159.189189" id="Fill-99"></path>
                <path d="M281.649429,135.296116 C281.865747,137.48731 280.549502,137.135413 279.680561,137.193458 C274.932547,137.523588 270.184533,137.937158 265.421854,138.027853 C262.228401,138.089526 260.116543,139.196006 258.503319,142.032951 C256.420792,145.700662 253.872631,149.107172 251.50779,152.615259 C250.829502,153.609278 250.088885,154.567019 249.439928,155.459459 C247.375734,154.646831 248.17868,153.587511 248.666313,152.608004 C250.891831,148.160315 252.985357,143.647324 255.412527,139.319352 C256.728772,136.968533 256.60778,135.082075 255.331865,132.789301 C252.989023,128.555653 250.921162,124.169635 248.765307,119.827152 C248.314338,118.90569 247.361068,117.900787 249.575586,116.297297 C249.967893,117.030114 250.297871,117.799209 250.756174,118.488491 C253.505988,122.631446 256.41346,126.687333 259.005619,130.920982 C260.409857,133.213755 262.151407,134.102567 264.783896,134.160612 C269.418251,134.265818 274.045273,134.664877 278.664963,134.965985 C279.651229,135.02403 280.626498,135.176398 281.649429,135.296116" id="Fill-100"></path>
                <path d="M240.569048,216.101008 C239.305053,217.746223 238.642092,216.825199 237.960919,215.781622 C235.356432,211.755859 232.566171,207.830369 230.169315,203.674624 C228.490059,200.751861 226.446538,199.37404 223.040672,199.437175 C219.070195,199.518878 215.077863,199.024943 211.103744,198.742693 C209.763254,198.649848 208.426406,198.430734 207.140554,198.278468 C206.725293,196.224735 207.949219,196.224735 209.06751,196.154173 C214.046996,195.842213 219.019198,195.41884 224.002328,195.296285 C226.497535,195.248005 228.114867,194.427255 229.44443,192.198973 C232.103556,187.746123 235.03588,183.47525 237.873495,179.152384 C238.492744,178.209078 239.068281,176.99095 240.634615,178.680731 C239.672959,180.704754 238.685804,182.851332 237.647652,184.983054 C236.044891,188.284625 234.514983,191.627048 232.781087,194.854342 C231.841286,196.603543 231.80486,198.051927 232.73009,199.823411 C234.955742,204.086856 236.999263,208.446861 239.090137,212.769727 C239.63289,213.887582 240.10279,215.042574 240.569048,216.101008" id="Fill-128"></path>
                <path d="M240.569048,98.6145218 C239.305053,100.259737 238.642092,99.3387128 237.960919,98.295135 C235.356432,94.2693725 232.566171,90.3438827 230.169315,86.1881377 C228.490059,83.2653747 226.446538,81.8875537 223.040672,81.9506888 C219.070195,82.0323917 215.077863,81.538456 211.103744,81.2562068 C209.763254,81.1633618 208.426406,80.9442477 207.140554,80.791982 C206.725293,78.7382488 207.949219,78.7382488 209.06751,78.667687 C214.046996,78.3557269 219.019198,77.932354 224.002328,77.8097982 C226.497535,77.7615185 228.114867,76.9407683 229.44443,74.7124863 C232.103556,70.2596366 235.03588,65.9887635 237.873495,61.6658973 C238.492744,60.7225913 239.068281,59.5044637 240.634615,61.1942448 C239.672959,63.2182671 238.685804,65.3648452 237.647652,67.496568 C236.044891,70.7981386 234.514983,74.1405611 232.781087,77.3678555 C231.841286,79.1170564 231.80486,80.5654401 232.73009,82.3369241 C234.955742,86.6003695 236.999263,90.9603742 239.090137,95.2832404 C239.63289,96.4010953 240.10279,97.5560877 240.569048,98.6145218" id="Fill-128"></path>
                <path d="M239.051456,99.5135135 C235.762616,94.5655861 232.411027,89.6730877 229.236613,84.6697314 C228.295363,83.18794 227.258142,82.3934628 225.711538,82.1274055 L225.711538,77.6044307 C227.280289,77.271859 228.402407,76.4108685 229.395335,74.8182192 C232.459011,69.885073 235.769999,65.1108211 238.925956,60.3513514 C240.491016,60.3698273 241.004089,60.9610658 240.369207,62.2580953 C238.918573,65.203203 237.419955,68.1298337 236.006234,71.0971113 C234.607277,74.0533044 232.26707,77.0279735 232.237541,80.0174228 C232.208012,82.8516726 234.607277,85.7265702 235.976705,88.5682106 C237.412573,91.5207079 238.87797,94.4621198 240.354442,97.3961412 C240.860133,98.4012458 240.745706,99.0811703 239.051456,99.5135135" id="Fill-141"></path>
                <path d="M387.9988,80.8072137 C386.718865,80.9659292 385.409676,81.2021577 384.082201,81.2944341 C379.33913,81.6266296 374.592402,81.9883531 369.849332,82.1729069 C368.017197,82.239346 366.883542,82.9517201 365.910791,84.4798196 C362.663416,89.5587205 359.306331,94.5674908 356.055298,99.5135135 C354.040316,99.2994317 354.259732,98.2991536 354.848503,97.1069412 C356.973193,92.8142367 358.87481,88.3923446 361.273773,84.2620472 C363.076651,81.1652465 362.996198,78.625796 361.211604,75.5622159 C358.867496,71.54265 356.998792,67.2462539 354.972839,63.0421351 C354.526691,62.1119877 353.619766,60.923466 355.974845,60.3513514 C356.980507,61.8646863 358.081251,63.4924444 359.167367,65.134967 C361.452964,68.6045649 363.804385,72.0335611 365.991244,75.5732888 C366.963994,77.1456806 368.17079,77.7436326 369.966354,77.8211455 C375.089749,78.0278441 380.213143,78.3711134 385.325566,78.7217641 C386.451908,78.7955854 388.049997,78.3415845 387.9988,80.8072137" id="Fill-143"></path>
                <path d="M281.673077,19.6130913 C280.536317,21.8557768 279.168595,21.5090455 278.035445,21.5865074 C273.347662,21.9221721 268.66349,22.3684963 263.975707,22.3980047 C261.514531,22.4127595 260.17568,23.4381984 258.963137,25.4337457 C256.552483,29.3990208 253.950566,33.2462591 251.413606,37.126696 C250.800117,38.0599185 250.125277,38.9415013 249.490136,39.8378378 C247.631623,39.4173339 247.98889,38.4177162 248.533813,37.2963725 C250.634113,33.0064992 252.499843,28.5838343 254.859974,24.4525709 C256.574136,21.4610932 256.440611,19.0118444 254.798625,16.0830738 C252.535931,12.0440269 250.67381,7.75415262 248.645685,3.57493684 C248.144067,2.53843231 247.469229,1.47979665 249.414352,0.675675676 C250.06032,1.60520989 250.792899,2.58269649 251.464128,3.60444629 C254.14183,7.69882288 256.855619,11.763691 259.428667,15.928152 C260.395815,17.4884416 261.543402,18.1081304 263.333347,18.1782149 C268.021129,18.3589579 272.708912,18.702 277.389476,19.0302883 C278.685022,19.1225039 279.969741,19.3770185 281.673077,19.6130913" id="Fill-153"></path>
                <path d="M341.838553,39.8378378 C337.952304,33.9881318 334.149984,28.2596826 330.449837,22.6818861 C323.49108,22.0866271 316.787758,21.5207631 310.088084,20.9181551 C309.956718,20.9108071 309.858194,20.5213158 309.653846,20.1171285 C310.307028,18.7833068 311.682723,19.0441923 312.817581,18.9596805 C317.302276,18.625306 321.797917,18.1219079 326.278962,18.1733498 C329.460942,18.2100947 331.267226,16.9350649 332.810778,14.2931434 C335.022109,10.5011229 337.583749,6.91487202 340.021321,3.25880528 C340.630714,2.34387082 341.331333,1.49140127 341.933429,0.675675676 C343.889324,1.39586545 343.185056,2.46145263 342.688784,3.4792719 C340.579627,7.76366659 338.638327,12.1399231 336.29928,16.292038 C334.788569,18.9817264 334.631659,21.1827147 336.219001,23.938544 C338.58724,28.0649379 340.517593,32.4558914 342.604855,36.7513101 C343.071935,37.6993145 343.998796,38.7649017 341.838553,39.8378378" id="Fill-154"></path>
            </g>
            <g id="Path-10">
                <use fill="black" fill-opacity="1" filter="url(#filter-3)" xlink:href="#path-2"></use>
                <use fill="url(#linearGradient-1)" fill-rule="evenodd" xlink:href="#path-2"></use>
                <use fill="black" fill-opacity="1" filter="url(#filter-4)" xlink:href="#path-2"></use>
            </g>
            <g id="Group" transform="translate(174.000000, 113.000000)" fill="#FFFFFF" fill-rule="nonzero">
                <path d="M13.0239737,30.2967 C14.1671184,30.9625556 15.8653816,31.4569111 17.6683026,31.6610778 L18.2498553,31.7204222 L18.2498553,33.8165333 C18.2498553,34.3637 18.6873684,34.8052444 19.2295395,34.8052444 L21.5875789,34.8052444 C22.1232763,34.8052444 22.5672632,34.3637 22.5672632,33.8165333 L22.5672632,31.5287778 L23.0571053,31.3970222 C27.0546053,30.3816333 28.4723421,27.6066 28.4723421,25.5431556 C28.4723421,21.7195222 25.2063684,20.1308333 22.0056711,19.0762444 C19.0008026,18.0744667 18.0405395,17.4679556 18.0405395,16.5712556 C18.0405395,15.7671111 18.9614211,14.9629667 21.0254474,14.9629667 C23.2987895,14.9629667 24.7224605,15.6157556 25.3299079,15.8988667 C25.4604605,15.9582111 25.5974868,15.9914222 25.7350526,15.9914222 C26.1137632,15.9914222 26.4601053,15.7671111 26.6235658,15.4246556 L27.5573947,13.4270889 C27.6685263,13.1962444 27.6814737,12.9196667 27.5903026,12.6757556 C27.5056053,12.4253111 27.3227237,12.2276778 27.0875132,12.1155222 C25.9637895,11.5814222 24.7424211,11.2389667 23.3640658,11.074 L22.7889868,11.0015889 L22.7889868,9.01708889 C22.7889868,8.47645556 22.3514737,8.03491111 21.8093026,8.03491111 L19.4906447,8.03491111 C18.9549474,8.03491111 18.5109605,8.47645556 18.5109605,9.01708889 L18.5109605,11.2253556 L18.0211184,11.3505778 C14.7945263,12.1743222 12.8675263,14.2644444 12.8675263,16.9338556 C12.8675263,20.4542333 16.3228553,22.0227778 19.7129079,23.0975111 C22.8418553,24.1259667 23.2664211,25.0155889 23.2664211,25.7544 C23.2664211,26.8950111 21.8033684,27.7252889 19.7916711,27.7252889 C18.0804605,27.7252889 16.2381579,27.2837444 14.8662763,26.5454778 C14.7227763,26.4665333 14.5657895,26.4267889 14.4023289,26.4267889 C14.2976711,26.4267889 14.1935526,26.4463889 14.0888947,26.4796 C13.8342632,26.5721556 13.6249474,26.7632556 13.5138158,27.0137 L12.6123553,29.0374 C12.4100526,29.5056222 12.5799868,30.0457111 13.0239737,30.2967 Z" id="Shape"></path>
                <path d="M20.5,48.9989111 C20.5005395,48.9994556 20.5021579,49 20.5037763,49 C20.7686579,49 32.2055,37.7773667 33.2035263,36.6541778 C37.3002895,32.0405556 40.6099605,26.6728778 40.6099605,20.2947111 C40.6099605,14.7272222 38.3873289,9.68512222 34.7901184,6.01828889 C31.1448947,2.303 26.0894868,0 20.5,0 C14.9105132,0 9.85510526,2.303 6.21042105,6.01828889 C2.61375,9.68512222 0.390578947,14.7272222 0.390578947,20.2947111 C0.390578947,32.6263778 12.6528158,41.0870444 20.5,48.9989111 Z M8.20215789,8.00823333 C11.4789211,4.66806667 15.8459605,2.82838889 20.5,2.82838889 C25.1535,2.82838889 29.5210789,4.66806667 32.7978421,8.00823333 C36.0276711,11.3010333 37.8068553,15.6642111 37.8068553,20.2941667 C37.8068553,25.0270222 35.6807895,29.6254 31.1163026,34.7660444 C30.4015,35.5712778 23.8258553,42.0430889 20.5771447,45.1366222 C19.6195789,44.2252222 18.6253289,43.3072889 17.5970921,42.3577778 C10.5154211,35.8184556 3.19368421,29.0564556 3.19368421,20.2947111 C3.19368421,15.6642111 4.97232895,11.3010333 8.20215789,8.00823333 Z" id="Shape"></path>
            </g>
        </g>
    </g>
</svg>