<?xml version="1.0" encoding="utf-8"?>
<!-- Generator: Adobe Illustrator 16.0.4, SVG Export Plug-In . SVG Version: 6.00 Build 0)  -->
<!DOCTYPE svg PUBLIC "-//W3C//DTD SVG 1.1//EN" "http://www.w3.org/Graphics/SVG/1.1/DTD/svg11.dtd">
<svg version="1.1" id="Layer_1" xmlns="http://www.w3.org/2000/svg" xmlns:xlink="http://www.w3.org/1999/xlink" x="0px" y="0px"
	 width="1415.324px" height="248.842px" viewBox="0 0 1415.324 248.842" enable-background="new 0 0 1415.324 248.842"
	 xml:space="preserve">
<image overflow="visible" enable-background="new    " width="229" height="162" xlink:href="../../Screen Shot 2017-07-04 at 1.20.49 PM.png"  transform="matrix(6.1804 0 0 1.5361 0.0015 9.765625e-04)">
</image>
<path fill="#FFFFFF" d="M446.118,168.909c0,45.621-32.541,78.822-76.956,78.822c-44.105,0-76.66-33.148-76.66-78.822
	c0-45.34,32.521-78.489,76.66-78.489C413.567,90.42,446.118,123.576,446.118,168.909z M410.529,168.909
	c0-30.723-19.467-46.556-41.367-46.556c-21.598,0-41.371,15.833-41.371,46.556c0,30.727,19.773,47.154,41.371,47.154
	C391.056,216.063,410.529,199.937,410.529,168.909z"/>
<path fill="#FFFFFF" d="M521.525,247.524c-45.431,0-65.046-26.297-65.046-59.145V94.974h35.253v85.634
	c0,18.248,8.53,33.777,29.817,33.777c20.386,0,31.032-13.686,31.032-33.146V94.973h35.29l-0.169,93.645
	C587.711,221.663,569.36,247.524,521.525,247.524z"/>
<path fill="#FFFFFF" d="M797.228,94.974h30.731v31.335h-30.731l-0.231,72.176c0,7.07,5.422,14.205,14.519,14.205
	c6.479,0,3.533,0,11.684,0.113v32.109c-5.492,0.414-14.918,0-27.682,0c-16.848,0-33.248-12.768-33.248-32.529l-0.043-86.1h-27.38
	V94.947h7.632c15.82,0,22.834-10.034,22.834-23.116V49.641h31.928L797.228,94.974L797.228,94.974z"/>
<path fill="#FFFFFF" d="M854.678,19.828c12.749,0,23.124,10.351,23.124,23.127c0,12.774-10.375,22.817-23.124,22.817
	c-12.5,0-22.836-10.023-22.836-22.817C831.857,30.172,842.197,19.828,854.678,19.828z M837.337,243.144V94.974h35.014v148.169
	H837.337z"/>
<path fill="#FFFFFF" d="M1024.728,200.854c-7.894,25.846-31.332,46.832-66.931,46.832c-40.158,0-75.753-29.186-75.753-79.408
	c0-46.832,34.65-77.878,72.098-77.878c45.639,0,72.405,30.123,72.405,76.957c0,5.787-0.606,10.631-0.912,11.262H917.329
	c0.946,22.518,18.589,38.625,40.493,38.625c21.312,0,32.264-11.264,37.127-25.852L1024.728,200.854z M990.958,152.782
	c-0.612-17.352-12.171-32.871-36.521-32.871c-22.205,0-35.018,17.041-36.201,32.871H990.958z"/>
<path fill="#FFFFFF" d="M1065.794,191.362c1.204,13.375,11.302,28.389,30.188,28.389c14.603,0,22.205-7.908,22.205-17.041
	c0-7.908-5.476-13.996-17.347-16.438l-21.903-4.869c-26.177-5.793-39.867-22.844-39.867-43.197c0-25.89,23.699-47.785,54.426-47.785
	c41.361,0,52.111,22.743,52.205,41.273v9.994l-30.157-0.109c-0.276-13.576-2.271-23.467-22.047-23.467
	c-12.472,0-21.292,7.899-21.292,17.032c0,7.895,5.787,13.691,14.902,15.506l22.498,4.537c27.99,6.088,42.609,23.117,42.609,45.021
	c0,22.516-18.225,47.469-55.98,47.469c-42.885,0-59.576-30.111-61.386-46.861L1065.794,191.362z"/>
<g>
	
		<linearGradient id="SVGID_1_" gradientUnits="userSpaceOnUse" x1="1970.3276" y1="-2851.4775" x2="1970.3276" y2="-2770.2205" gradientTransform="matrix(1 0 0 -1 -954 -2755.7324)">
		<stop  offset="0" style="stop-color:#FFD500"/>
		<stop  offset="0.984" style="stop-color:#FFD500"/>
	</linearGradient>
	<path fill="url(#SVGID_1_)" d="M1016.267,57.499c4.1,0,7.459,3.356,7.459,7.437c0,4.09-3.334,7.351-7.459,7.351
		c-4.084,0-7.34-3.267-7.34-7.351C1008.922,60.855,1012.193,57.499,1016.267,57.499z"/>
	
		<linearGradient id="SVGID_2_" gradientUnits="userSpaceOnUse" x1="2006.3081" y1="-2851.4746" x2="2006.3081" y2="-2770.2029" gradientTransform="matrix(1 0 0 -1 -954 -2755.7324)">
		<stop  offset="0" style="stop-color:#FFD500"/>
		<stop  offset="0.984" style="stop-color:#FFD500"/>
	</linearGradient>
	<path fill="url(#SVGID_2_)" d="M1073.296,59.127c-2.357,7.701-9.339,13.962-19.915,13.962c-11.968,0-22.606-8.702-22.606-23.665
		c0-13.962,10.332-23.207,21.485-23.207c13.597,0,21.579,8.969,21.579,22.938c0,1.729-0.18,3.179-0.287,3.346h-32.303
		c0.306,6.71,5.535,11.517,12.087,11.517c6.349,0,9.586-3.354,11.056-7.696L1073.296,59.127z M1063.223,44.804
		c-0.151-5.164-3.622-9.791-10.839-9.791c-6.631,0-10.423,5.086-10.798,9.791H1063.223L1063.223,44.804z"/>
	
		<linearGradient id="SVGID_3_" gradientUnits="userSpaceOnUse" x1="2043.2319" y1="-2851.4697" x2="2043.2319" y2="-2770.2102" gradientTransform="matrix(1 0 0 -1 -954 -2755.7324)">
		<stop  offset="0" style="stop-color:#FFD500"/>
		<stop  offset="0.984" style="stop-color:#FFD500"/>
	</linearGradient>
	<path fill="url(#SVGID_3_)" d="M1093.879,27.579h9.151v9.344h-9.151v20.492c0,3.898,1.722,5.537,5.604,5.537
		c1.445,0,3.176-0.277,3.641-0.355v8.701c-0.633,0.276-2.635,0.998-6.434,0.998c-8.131,0-13.207-4.904-13.207-13.152V36.932h-8.146
		v-9.344h2.251c4.731,0,6.813-2.995,6.813-6.888v-6.625h9.521L1093.879,27.579L1093.879,27.579z"/>
	
		<linearGradient id="SVGID_4_" gradientUnits="userSpaceOnUse" x1="2082.8247" y1="-2851.4736" x2="2082.8247" y2="-2770.2244" gradientTransform="matrix(1 0 0 -1 -954 -2755.7324)">
		<stop  offset="0" style="stop-color:#FFD500"/>
		<stop  offset="0.984" style="stop-color:#FFD500"/>
	</linearGradient>
	<path fill="url(#SVGID_4_)" d="M1119.716,71.722h-10.498V6.093h10.498v25.752c3.008-3.893,7.98-5.54,12.6-5.54
		c10.849,0,16.113,7.8,16.113,17.499v27.918h-10.52V45.614c0-5.431-2.422-9.787-9.066-9.787c-5.792,0-8.949,4.353-9.156,9.977
		L1119.716,71.722L1119.716,71.722z"/>
</g>
<path fill="#FFFFFF" d="M663.895,86.714c45.431,0,65.041,26.297,65.041,59.148v93.387h-35.263V153.63
	c0-18.242-8.525-33.776-29.798-33.776c-20.384,0-31.045,13.694-31.045,33.151v86.234h-35.289l0.182-93.645
	C597.692,112.585,616.054,86.714,663.895,86.714z"/>
<path fill="#FFFFFF" d="M199.631,9.073c45.89,0,66.3,31.904,66.3,58.033c0,25.229-16.118,43.056-16.118,43.056
	c15.26,11.969,35.255,31.103,35.255,62.044c0,40.443-31.046,76.637-72.604,76.637c-27.258-0.525-77.973,0-77.973,0
	c-0.182-17.17-0.108-8.91,0.809-239.77H199.631L199.631,9.073z M192.65,103.02h8.328c18.713,0,28.076-19.442,28.076-32.685
	c0-12.142-10.627-28.407-28.392-28.407h-31.485v61.092v0.812v28.668c0,0,0,77.299,0,87.145c0-0.01,21.455,0.207,38.949,0
	c18.652-0.537,41.051-21.141,40.725-44.711c-0.311-23.184-20.262-42.236-40.148-42.236l-16.048-0.102V103.02H192.65L192.65,103.02z"
	/>
<g>
	<polygon fill="#060405" points="1302.341,114.818 1269.273,134.657 1271.98,142.772 	"/>
	<polygon fill="#19170B" points="1292.121,151.187 1274.329,140.606 1302.341,114.818 	"/>
	<polygon fill="#0C0C04" points="1305.648,151.187 1292.121,151.04 1302.341,114.671 	"/>
	<polygon fill="#1D190D" points="1310.759,139.767 1305.648,151.187 1301.963,110.347 	"/>
	<polygon fill="#0C0C04" points="1320.828,114.513 1303.078,114.513 1301.828,110.451 	"/>
	<polygon fill="#19170B" points="1320.828,114.513 1307.937,111.758 1315.416,108.433 	"/>
	<polygon fill="#19170B" points="1316.466,129.544 1303.078,114.513 1320.828,114.513 	"/>
	<polygon fill="#0C0C04" points="1303.078,114.041 1316.466,129.071 1310.759,139.767 	"/>
	<polygon fill="#F7D43C" points="1302.341,114.818 1279.945,93.477 1269.273,134.657 	"/>
	<polygon fill="#C89C00" points="1279.945,93.477 1269.273,134.657 1250.126,110.89 	"/>
	<polygon fill="#794B02" points="1271.199,103.486 1249.339,102.607 1250.126,110.89 	"/>
	<polygon fill="#653503" points="1279.945,93.477 1249.339,102.607 1271.199,103.486 	"/>
	<polygon fill="#441B01" points="1279.945,93.477 1249.339,102.607 1291.838,70.652 	"/>
	<polygon fill="#703901" points="1279.945,93.477 1299.56,76.909 1291.838,70.652 	"/>
	<polygon fill="#0B0800" points="1269.65,58.041 1249.339,102.607 1291.838,70.652 	"/>
	<polygon fill="#0B0800" points="1225.908,62.144 1249.339,102.607 1267.66,62.715 	"/>
	<polygon fill="#0B0800" points="1225.908,62.144 1269.344,64.666 1259.726,51.773 	"/>
	<polyline fill="#EDC839" points="1303.078,98.483 1279.945,93.477 1302.341,114.818 	"/>
	<polygon fill="#D79C02" points="1279.945,93.477 1299.56,76.909 1303.078,98.483 	"/>
	<polyline fill="#C9AF40" points="1301.963,110.536 1315.416,108.433 1307.937,111.758 	"/>
	<polyline fill="#FCE271" points="1301.963,110.536 1320.828,107.529 1299.56,76.909 	"/>
	<polygon fill="#0B0800" points="1225.908,62.144 1249.339,102.607 1200.431,80.498 	"/>
	<polygon fill="#0B0800" points="1231.093,110.524 1249.339,102.607 1200.431,80.498 	"/>
	<polygon fill="#0B0800" points="1249.841,138.565 1250.126,110.89 1230.808,110.524 	"/>
	<polygon fill="#0B0800" points="1264.641,151.187 1250.126,110.89 1249.734,138.565 	"/>
	<polygon fill="#0B0800" points="1265.064,151.187 1250.55,138.565 1257.187,162.911 	"/>
	<polygon fill="#0B0800" points="1265.619,170.425 1265.064,151.187 1257.187,162.911 	"/>
	<polygon fill="#0B0800" points="1284.003,184.853 1265.619,170.425 1277.992,186.354 	"/>
	<polygon fill="#0B0800" points="1286.256,149.083 1282.199,154.796 1277.966,142.772 	"/>
	<polygon fill="#0B0800" points="1287.312,159.753 1282.199,154.796 1284.003,152.257 	"/>
	<polygon fill="#0B0800" points="1301.588,170.425 1287.312,159.753 1284.003,152.257 	"/>
	<polygon fill="#0B0800" points="1214.113,104.509 1231.093,110.524 1218.797,98.483 	"/>
	<polyline fill="#0B0800" points="1216.967,126.991 1231.093,110.524 1214.113,104.509 	"/>
	<polyline fill="#0B0800" points="1224.181,144.124 1225.908,116.57 1216.967,126.991 	"/>
	<polyline fill="#0B0800" points="1233.05,156.003 1224.665,136.405 1224.181,144.124 	"/>
	<polyline fill="#0B0800" points="1229.894,151.187 1227.939,156.747 1224.181,144.124 	"/>
	<polygon fill="#0B0800" points="1226.541,61.95 1200.431,80.498 1211.105,58.384 	"/>
	<polygon fill="#0B0800" points="1259.726,51.773 1199.209,66.103 1246.785,35.768 	"/>
	<polygon fill="#0B0800" points="1259.726,51.773 1211.105,58.384 1225.908,62.144 	"/>
	<polygon fill="#AA7C05" points="1250.572,40.45 1267.66,62.715 1272.26,56.207 	"/>
	<polygon fill="#2F1F05" points="1269.65,58.513 1300.963,79.027 1306.937,58.513 	"/>
	<polygon fill="#473703" points="1269.65,58.513 1291.144,50.396 1306.937,58.513 	"/>
	<polygon fill="#5E3C00" points="1269.65,58.513 1291.144,50.513 1273.244,50.513 	"/>
	<polygon fill="#2C1B0A" points="1250.572,40.45 1271.029,55.61 1282.351,30.658 	"/>
	<polygon fill="#2C2306" points="1339.353,50.513 1273.341,50.513 1282.351,30.658 	"/>
	<polygon fill="#2B1B01" points="1339.353,50.513 1291.144,50.513 1302.152,56.485 	"/>
	<polygon fill="#251601" points="1339.353,50.513 1354.911,25.624 1282.351,30.658 	"/>
	<polygon fill="#56412F" points="1339.353,50.041 1354.547,25.624 1368.941,31.292 	"/>
	<polygon fill="#56412F" points="1282.351,30.658 1322.329,0 1354.911,25.624 	"/>
	<polygon fill="#846C5A" points="1356,1.802 1322.329,0 1354.911,25.624 	"/>
	<polygon fill="#FFDD05" points="1246.785,35.768 1211.105,58.384 1225.326,31.541 	"/>
	<polygon fill="#F8BD00" points="1225.326,31.541 1203.642,73.845 1203.287,47.489 	"/>
	<polygon fill="#FDE140" points="1225.326,31.541 1206.896,34.472 1203.287,47.489 	"/>
	<polygon fill="#2A1900" points="1197.425,31.541 1206.896,34.472 1203.287,47.489 	"/>
	<polyline fill="#131709" points="1203.287,47.489 1197.425,31.541 1181.249,58.384 	"/>
	<polyline fill="#0B0800" points="1203.287,47.489 1203.642,73.845 1181.249,58.384 	"/>
	<polyline fill="#191200" points="1186.605,38.248 1197.425,31.541 1181.249,58.384 	"/>
	<polygon fill="#D2C2AB" points="1198.902,35.555 1202.836,40.22 1190.605,42.192 	"/>
	<polyline fill="#191200" points="1201.619,6.513 1201.619,29.568 1197.425,31.541 	"/>
	<polyline fill="#191200" points="1154.025,23.706 1186.605,38.811 1184.462,35.428 	"/>
	<polyline fill="#0B0800" points="1200.431,80.498 1203.642,73.845 1181.249,58.384 	"/>
	<polyline fill="#0B0800" points="1182.478,70.229 1189.336,66.99 1181.249,58.384 	"/>
	<polyline fill="#0B0800" points="1190.605,91.335 1200.431,80.498 1188.908,67.193 	"/>
	<polyline fill="#0B0800" points="1195.228,101.142 1199.847,81.141 1190.605,91.335 	"/>
	<polyline fill="#0B0800" points="1195.228,101.142 1186.492,109.708 1193.521,92.666 	"/>
	<polyline fill="#0B0800" points="1205.09,91.14 1199.079,84.476 1198.334,87.695 	"/>
	<polygon fill="#0B0800" points="1230.808,110.524 1250.126,110.89 1249.339,102.607 	"/>
</g>
</svg>
