<?xml version="1.0" encoding="utf-8"?>
<!-- Generator: Adobe Illustrator 16.0.4, SVG Export Plug-In . SVG Version: 6.00 Build 0)  -->
<!DOCTYPE svg PUBLIC "-//W3C//DTD SVG 1.1//EN" "http://www.w3.org/Graphics/SVG/1.1/DTD/svg11.dtd">
<svg version="1.1" id="Layer_1" xmlns="http://www.w3.org/2000/svg" xmlns:xlink="http://www.w3.org/1999/xlink" x="0px" y="0px"
	 width="1415.323px" height="248.842px" viewBox="-1085.637 402.013 1415.323 248.842"
	 enable-background="new -1085.637 402.013 1415.323 248.842" xml:space="preserve">
<image overflow="visible" width="229" height="162" xlink:href="../../Screen Shot 2017-07-04 at 1.20.49 PM.png"  transform="matrix(1.5436 0 0 0.5679 -162.637 -150.4736)">
</image>
<path fill="#FFFFFF" d="M-37.433-90.735c0,9.03-6.441,15.603-15.233,15.603c-8.73,0-15.175-6.562-15.175-15.603
	c0-8.976,6.438-15.538,15.175-15.538C-43.877-106.273-37.433-99.709-37.433-90.735z M-44.478-90.735
	c0-6.082-3.854-9.216-8.188-9.216c-4.275,0-8.189,3.134-8.189,9.216s3.914,9.334,8.189,9.334
	C-48.333-81.401-44.478-84.594-44.478-90.735z"/>
<path fill="#FFFFFF" d="M-22.507-75.174c-8.993,0-12.876-5.205-12.876-11.707v-18.49h6.979v16.951c0,3.612,1.688,6.687,5.902,6.687
	c4.035,0,6.143-2.709,6.143-6.562v-17.076h6.985l-0.033,18.537C-9.405-80.293-13.038-75.174-22.507-75.174z"/>
<path fill="#FFFFFF" d="M32.069-105.371h6.083v6.203h-6.083l-0.046,14.287c0,1.399,1.073,2.812,2.874,2.812
	c1.282,0-0.301,0,1.312,0.022v6.356c-1.087,0.082-1.953,0-4.479,0c-3.335,0-6.581-2.527-6.581-6.439L25.14-99.173h-5.42v-6.203
	h1.511c3.132,0,4.52-1.986,4.52-4.576v-4.393h6.32L32.069-105.371L32.069-105.371z"/>
<path fill="#FFFFFF" d="M43.441-120.246c2.523,0,4.577,2.049,4.577,4.578c0,2.529-2.054,4.516-4.577,4.516
	c-2.475,0-4.521-1.984-4.521-4.516C38.923-118.198,40.97-120.246,43.441-120.246z M40.008-76.041v-29.33h6.931v29.33H40.008z"/>
<path fill="#FFFFFF" d="M77.102-84.412c-1.562,5.116-6.202,9.271-13.249,9.271c-7.949,0-14.995-5.777-14.995-15.719
	c0-9.271,6.859-15.417,14.271-15.417c9.034,0,14.333,5.963,14.333,15.234c0,1.146-0.12,2.104-0.181,2.229H55.842
	c0.188,4.457,3.68,7.646,8.016,7.646c4.219,0,6.387-2.229,7.35-5.117L77.102-84.412z M70.417-93.928
	c-0.121-3.435-2.409-6.506-7.229-6.506c-4.396,0-6.932,3.373-7.166,6.506H70.417z"/>
<path fill="#FFFFFF" d="M85.231-86.291c0.238,2.647,2.237,5.619,5.976,5.619c2.891,0,4.396-1.565,4.396-3.373
	c0-1.565-1.084-2.771-3.434-3.254l-4.336-0.964c-5.182-1.146-7.892-4.521-7.892-8.551c0-5.125,4.691-9.458,10.773-9.458
	c8.188,0,10.315,4.502,10.334,8.169v1.979l-5.97-0.021c-0.055-2.688-0.449-4.646-4.364-4.646c-2.469,0-4.215,1.563-4.215,3.371
	c0,1.563,1.146,2.711,2.95,3.069l4.453,0.898c5.541,1.205,8.435,4.576,8.435,8.912c0,4.457-3.607,9.396-11.081,9.396
	c-8.489,0-11.793-5.961-12.151-9.276L85.231-86.291z"/>
<g>
	
		<linearGradient id="SVGID_1_" gradientUnits="userSpaceOnUse" x1="1083.4377" y1="2864.3535" x2="1083.4377" y2="2848.2749" gradientTransform="matrix(1 0 0 1 -1008 -2969.5742)">
		<stop  offset="0" style="stop-color:#FFD500"/>
		<stop  offset="0.984" style="stop-color:#FFD500"/>
	</linearGradient>
	<path fill="url(#SVGID_1_)" d="M75.427-112.789c0.812,0,1.477,0.664,1.477,1.472c0,0.809-0.66,1.454-1.477,1.454
		c-0.809,0-1.453-0.646-1.453-1.454C73.973-112.125,74.62-112.789,75.427-112.789z"/>
	
		<linearGradient id="SVGID_2_" gradientUnits="userSpaceOnUse" x1="1090.5598" y1="2864.3555" x2="1090.5598" y2="2848.2681" gradientTransform="matrix(1 0 0 1 -1008 -2969.5742)">
		<stop  offset="0" style="stop-color:#FFD500"/>
		<stop  offset="0.984" style="stop-color:#FFD500"/>
	</linearGradient>
	<path fill="url(#SVGID_2_)" d="M86.716-112.467c-0.467,1.525-1.849,2.764-3.942,2.764c-2.369,0-4.475-1.723-4.475-4.684
		c0-2.764,2.045-4.594,4.253-4.594c2.691,0,4.271,1.775,4.271,4.54c0,0.342-0.035,0.629-0.057,0.663h-6.395
		c0.061,1.328,1.096,2.279,2.393,2.279c1.257,0,1.897-0.664,2.188-1.524L86.716-112.467z M84.722-115.302
		c-0.03-1.022-0.717-1.938-2.146-1.938c-1.312,0-2.063,1.007-2.138,1.938H84.722z"/>
	
		<linearGradient id="SVGID_3_" gradientUnits="userSpaceOnUse" x1="1097.8694" y1="2864.3555" x2="1097.8694" y2="2848.2705" gradientTransform="matrix(1 0 0 1 -1008 -2969.5742)">
		<stop  offset="0" style="stop-color:#FFD500"/>
		<stop  offset="0.984" style="stop-color:#FFD500"/>
	</linearGradient>
	<path fill="url(#SVGID_3_)" d="M90.79-118.712h1.812v1.849H90.79v4.058c0,0.771,0.341,1.095,1.109,1.095
		c0.286,0,0.629-0.055,0.721-0.07v1.723c-0.125,0.054-0.521,0.197-1.273,0.197c-1.609,0-2.614-0.971-2.614-2.604v-4.397H87.12
		v-1.849h0.445c0.937,0,1.349-0.593,1.349-1.363v-1.312h1.885L90.79-118.712L90.79-118.712z"/>
	
		<linearGradient id="SVGID_4_" gradientUnits="userSpaceOnUse" x1="1105.7063" y1="2864.3564" x2="1105.7063" y2="2848.2732" gradientTransform="matrix(1 0 0 1 -1008 -2969.5742)">
		<stop  offset="0" style="stop-color:#FFD500"/>
		<stop  offset="0.984" style="stop-color:#FFD500"/>
	</linearGradient>
	<path fill="url(#SVGID_4_)" d="M95.905-109.973h-2.078v-12.992h2.078v5.098c0.596-0.771,1.58-1.097,2.494-1.097
		c2.147,0,3.189,1.544,3.189,3.464v5.527h-2.082v-5.168c0-1.076-0.479-1.938-1.795-1.938c-1.146,0-1.771,0.861-1.812,1.974
		L95.905-109.973L95.905-109.973z"/>
</g>
<path fill="#FFFFFF" d="M5.675-107.006c8.993,0,12.875,5.205,12.875,11.708v18.486h-6.98V-93.76c0-3.611-1.688-6.686-5.898-6.686
	c-4.035,0-6.146,2.71-6.146,6.562v17.07H-7.46l0.036-18.537C-7.429-101.885-3.795-107.006,5.675-107.006z"/>
<path fill="#FFFFFF" d="M-86.225-122.375c9.084,0,13.124,6.316,13.124,11.487c0,4.995-3.19,8.524-3.19,8.524
	c3.021,2.369,6.979,6.156,6.979,12.281c0,8.006-6.146,15.17-14.372,15.17c-5.396-0.104-15.435,0-15.435,0
	c-0.036-3.398-0.021-1.764,0.16-47.462H-86.225L-86.225-122.375z M-87.607-103.779h1.648c3.704,0,5.558-3.848,5.558-6.469
	c0-2.404-2.104-5.623-5.62-5.623h-6.232v12.092v0.162v5.675c0,0,0,15.301,0,17.25c0-0.002,4.247,0.041,7.71,0
	c3.692-0.106,8.126-4.185,8.062-8.851c-0.062-4.589-4.011-8.36-7.947-8.36l-3.177-0.021L-87.607-103.779L-87.607-103.779z"/>
<g>
	<polygon fill="#FFFFFF" points="141.348,-117.859 143.511,-116.381 142.175,-112.915 135.397,-112.157 129.348,-112.466 
		131.656,-110.88 132.736,-109.431 135.543,-104.762 135.956,-103.134 135.3,-100.234 133.416,-96.448 130.87,-96.585 
		130.373,-96.907 130.344,-96.448 133.734,-92.556 129.257,-96.13 128.497,-97.993 128.228,-98.159 127.67,-97.534 127.179,-99.25 
		125.996,-99.951 127.011,-97.112 126.737,-94.419 130.416,-91.224 128.396,-90.589 126.203,-93.54 124.887,-94.823 
		123.967,-98.689 121.088,-103.124 120.35,-103.955 119.931,-103.564 119.769,-100.597 121.543,-95.917 120.288,-96.907 
		119.87,-95.646 117.504,-101.93 117.028,-105.943 117.371,-106.41 116.35,-106.913 115.99,-105.161 113.28,-102.9 114.49,-106.41 
		114.128,-107.17 114.056,-110.319 113.059,-109.81 112.7,-112.696 113.506,-115.565 105.699,-119.562 114.57,-117.248 
		114.626,-116.904 115.219,-117.393 116.55,-123.968 117.036,-117.438 116.83,-117.302 118.195,-116.893 120.249,-117.426 
		125.583,-116.223 129.381,-116.956 135.266,-122.946 139.842,-123.221 141.932,-120.959 	"/>
	
		<linearGradient id="SVGID_5_" gradientUnits="userSpaceOnUse" x1="-234.2107" y1="-102.647" x2="-227.0327" y2="-116.71" gradientTransform="matrix(-1.0093 0 0 1 -111.1144 0)">
		<stop  offset="0" style="stop-color:#FF8E00"/>
		<stop  offset="0.2217" style="stop-color:#FE9D14"/>
		<stop  offset="0.6735" style="stop-color:#FDC348"/>
		<stop  offset="1" style="stop-color:#FCE271"/>
	</linearGradient>
	<polygon fill="url(#SVGID_5_)" points="123.615,-116.174 120.823,-109.771 117.21,-107.978 116.883,-114.219 118.082,-116.453 
		120.237,-116.956 	"/>
	
		<linearGradient id="SVGID_6_" gradientUnits="userSpaceOnUse" x1="-240.323" y1="-100.7119" x2="-236.697" y2="-107.8159" gradientTransform="matrix(-1.0093 0 0 1 -111.1144 0)">
		<stop  offset="0" style="stop-color:#FF8E00"/>
		<stop  offset="0.9995" style="stop-color:#FFD500"/>
	</linearGradient>
	<polygon fill="url(#SVGID_6_)" points="131.422,-110.198 124.571,-104.903 124.648,-103.868 125.81,-100.596 126.713,-100.037 
		132.127,-103.456 131.868,-104.565 133.321,-104.076 135.08,-104.687 132.279,-109.118 	"/>
	<g>
		<polygon fill="#333333" points="117.597,-107.616 121.124,-109.32 124.1,-115.781 131.041,-110.505 124.17,-105.161 
			124.316,-103.631 125.281,-100.878 121.282,-103.659 		"/>
		<polygon fill="#333333" points="127.456,-99.718 127.846,-98.229 128.13,-98.564 128.733,-98.229 129.478,-96.33 131.416,-94.763 
			129.956,-96.368 129.992,-97.075 129.484,-97.862 131.038,-96.963 133.166,-96.851 134.905,-100.426 135.543,-103.144 
			134.881,-103.955 133.486,-103.441 132.634,-103.665 132.741,-102.995 		"/>
	</g>
	<polygon fill="#333333" points="141.189,-117.426 142.96,-116.164 141.857,-113.301 135.431,-112.668 128.772,-112.985 	"/>
	<polygon fill="#333333" points="140.825,-117.787 128.234,-113.314 127.368,-113.965 135.435,-122.484 139.656,-122.764 
		141.411,-120.81 	"/>
	<polygon fill="#333333" points="126.991,-114.256 125.114,-115.587 129.062,-116.425 	"/>
	<polygon fill="#333333" points="125.444,-100.23 126.574,-97.002 126.33,-94.235 129.554,-91.417 128.65,-91.138 126.482,-93.815 
		125.272,-95.048 124.43,-98.947 121.919,-102.678 	"/>
	<polygon fill="#333333" points="119.99,-104.355 119.511,-103.818 119.298,-100.495 120.602,-97.255 120.096,-97.813 
		119.83,-97.088 117.994,-102.115 117.595,-105.8 118.074,-106.41 	"/>
	<polygon fill="#333333" points="117.675,-116.668 116.434,-114.275 116.803,-108.309 116.363,-108.814 116.363,-108.144 
		116.947,-107.138 116.068,-107.669 115.575,-105.463 114.185,-104.15 115.032,-106.488 114.686,-107.223 114.498,-111.132 
		113.459,-110.629 113.22,-112.696 114.124,-115.851 108.885,-118.42 114.153,-116.8 114.258,-116.019 115.721,-117.136 
		116.36,-121.241 116.52,-117.526 116.031,-117.136 	"/>
	<polygon fill="#E6E6E6" points="115.656,-116.069 116.349,-115.627 114.858,-114.798 	"/>
</g>
<path fill="#FFFFFF" d="M-593.137,570.923c0,45.62-32.541,78.822-76.956,78.822c-44.105,0-76.66-33.148-76.66-78.822
	c0-45.341,32.521-78.489,76.66-78.489C-625.688,492.434-593.137,525.589-593.137,570.923z M-628.726,570.923
	c0-30.724-19.467-46.557-41.367-46.557c-21.598,0-41.371,15.833-41.371,46.557c0,30.726,19.773,47.153,41.371,47.153
	C-648.199,618.076-628.726,601.949-628.726,570.923z"/>
<path fill="#FFFFFF" d="M-517.73,649.537c-45.431,0-65.046-26.296-65.046-59.143v-93.407h35.253v85.634
	c0,18.249,8.53,33.777,29.817,33.777c20.386,0,31.032-13.684,31.032-33.146v-86.266h35.29l-0.169,93.645
	C-451.544,623.676-469.895,649.537-517.73,649.537z"/>
<path fill="#FFFFFF" d="M-242.027,496.987h30.731v31.335h-30.731l-0.232,72.177c0,7.069,5.422,14.204,14.519,14.204
	c6.479,0,3.533,0,11.683,0.113v32.11c-5.492,0.415-14.918,0-27.681,0c-16.848,0-33.248-12.767-33.248-32.53l-0.044-86.098h-27.379
	v-31.338h7.632c15.82,0,22.833-10.034,22.833-23.116v-22.19h31.928L-242.027,496.987L-242.027,496.987z"/>
<path fill="#FFFFFF" d="M-184.577,421.841c12.749,0,23.124,10.35,23.124,23.127c0,12.774-10.375,22.817-23.124,22.817
	c-12.5,0-22.836-10.023-22.836-22.817C-207.398,432.186-197.058,421.841-184.577,421.841z M-201.918,645.156V496.987h35.013v148.169
	H-201.918z"/>
<path fill="#FFFFFF" d="M-14.528,602.868c-7.893,25.846-31.331,46.831-66.93,46.831c-40.158,0-75.753-29.184-75.753-79.408
	c0-46.831,34.651-77.878,72.097-77.878c45.639,0,72.406,30.123,72.406,76.957c0,5.787-0.606,10.63-0.912,11.261h-108.307
	c0.946,22.517,18.589,38.625,40.493,38.625c21.312,0,32.264-11.264,37.128-25.851L-14.528,602.868z M-48.297,554.795
	c-0.612-17.351-12.171-32.87-36.521-32.87c-22.206,0-35.018,17.04-36.201,32.87H-48.297z"/>
<path fill="#FFFFFF" d="M26.539,593.375c1.204,13.375,11.302,28.389,30.188,28.389c14.602,0,22.204-7.909,22.204-17.041
	c0-7.909-5.475-13.996-17.346-16.438l-21.904-4.869c-26.176-5.792-39.866-22.843-39.866-43.196
	c0-25.891,23.699-47.785,54.425-47.785c41.362,0,52.112,22.743,52.205,41.272v9.994l-30.157-0.109
	c-0.277-13.575-2.27-23.467-22.047-23.467c-12.472,0-21.292,7.898-21.292,17.031c0,7.896,5.787,13.693,14.902,15.506l22.498,4.538
	c27.991,6.087,42.61,23.117,42.61,45.022c0,22.515-18.225,47.468-55.98,47.468c-42.885,0-59.576-30.112-61.386-46.861
	L26.539,593.375z"/>
<g>
	
		<linearGradient id="SVGID_7_" gradientUnits="userSpaceOnUse" x1="985.0715" y1="3467.332" x2="985.0715" y2="3386.075" gradientTransform="matrix(1 0 0 1 -1008 -2969.5742)">
		<stop  offset="0" style="stop-color:#FFD500"/>
		<stop  offset="0.984" style="stop-color:#FFD500"/>
	</linearGradient>
	<path fill="url(#SVGID_7_)" d="M-22.988,459.512c4.099,0,7.459,3.356,7.459,7.436c0,4.09-3.335,7.351-7.459,7.351
		c-4.084,0-7.34-3.267-7.34-7.351C-30.333,462.868-27.063,459.512-22.988,459.512z"/>
	
		<linearGradient id="SVGID_8_" gradientUnits="userSpaceOnUse" x1="1021.053" y1="3467.3291" x2="1021.053" y2="3386.0574" gradientTransform="matrix(1 0 0 1 -1008 -2969.5742)">
		<stop  offset="0" style="stop-color:#FFD500"/>
		<stop  offset="0.984" style="stop-color:#FFD500"/>
	</linearGradient>
	<path fill="url(#SVGID_8_)" d="M34.041,461.141c-2.357,7.701-9.339,13.962-19.915,13.962c-11.968,0-22.606-8.703-22.606-23.666
		c0-13.961,10.331-23.207,21.485-23.207c13.596,0,21.579,8.969,21.579,22.939c0,1.728-0.179,3.179-0.287,3.346H1.994
		c0.306,6.71,5.535,11.516,12.087,11.516c6.349,0,9.586-3.354,11.055-7.696L34.041,461.141z M23.968,446.817
		c-0.152-5.164-3.622-9.791-10.839-9.791c-6.631,0-10.423,5.086-10.798,9.791H23.968z"/>
	
		<linearGradient id="SVGID_9_" gradientUnits="userSpaceOnUse" x1="1057.9768" y1="3467.3242" x2="1057.9768" y2="3386.0647" gradientTransform="matrix(1 0 0 1 -1008 -2969.5742)">
		<stop  offset="0" style="stop-color:#FFD500"/>
		<stop  offset="0.984" style="stop-color:#FFD500"/>
	</linearGradient>
	<path fill="url(#SVGID_9_)" d="M54.624,429.592h9.152v9.344h-9.152v20.492c0,3.898,1.721,5.537,5.604,5.537
		c1.446,0,3.176-0.277,3.641-0.356v8.702c-0.632,0.276-2.634,0.998-6.434,0.998c-8.131,0-13.207-4.905-13.207-13.153v-22.211h-8.146
		v-9.343h2.251c4.731,0,6.813-2.996,6.813-6.888v-6.625h9.521L54.624,429.592L54.624,429.592z"/>
	
		<linearGradient id="SVGID_10_" gradientUnits="userSpaceOnUse" x1="1097.5686" y1="3467.3281" x2="1097.5686" y2="3386.0789" gradientTransform="matrix(1 0 0 1 -1008 -2969.5742)">
		<stop  offset="0" style="stop-color:#FFD500"/>
		<stop  offset="0.984" style="stop-color:#FFD500"/>
	</linearGradient>
	<path fill="url(#SVGID_10_)" d="M80.461,473.735H69.963v-65.629h10.498v25.752c3.008-3.892,7.981-5.54,12.6-5.54
		c10.848,0,16.113,7.8,16.113,17.499v27.918H98.655v-26.108c0-5.431-2.422-9.787-9.067-9.787c-5.792,0-8.949,4.352-9.157,9.976
		L80.461,473.735L80.461,473.735z"/>
</g>
<path fill="#FFFFFF" d="M-375.361,488.728c45.431,0,65.041,26.296,65.041,59.147v93.388h-35.263v-85.619
	c0-18.244-8.525-33.777-29.798-33.777c-20.384,0-31.045,13.694-31.045,33.151v86.235h-35.289l0.182-93.645
	C-441.563,514.599-423.201,488.728-375.361,488.728z"/>
<path fill="#FFFFFF" d="M-839.624,411.086c45.89,0,66.3,31.904,66.3,58.033c0,25.229-16.118,43.056-16.118,43.056
	c15.26,11.969,35.255,31.102,35.255,62.044c0,40.444-31.046,76.636-72.604,76.636c-27.258-0.524-77.973,0-77.973,0
	c-0.182-17.169-0.108-8.909,0.809-239.769H-839.624L-839.624,411.086z M-846.605,505.033h8.328
	c18.713,0,28.076-19.442,28.076-32.684c0-12.142-10.627-28.408-28.392-28.408h-31.485v61.092v0.813v28.668c0,0,0,77.298,0,87.145
	c0-0.011,21.455,0.206,38.949,0c18.652-0.537,41.051-21.141,40.725-44.712c-0.311-23.183-20.262-42.236-40.148-42.236l-16.048-0.102
	v-29.576H-846.605z"/>
<g id="UbIxbr_2_">
	
		<image overflow="visible" width="800" height="531" id="UbIxbr_3_" xlink:href="4EC5251C19E72E8A.jpg"  transform="matrix(-0.2423 0 0 0.2417 183.6418 68.3525)">
	</image>
</g>
<g>
	<polygon fill="#060405" points="227.582,53.873 218.704,59.198 219.431,61.377 	"/>
	<polygon fill="#19170B" points="224.837,63.636 220.061,60.796 227.582,53.873 	"/>
	<polygon fill="#0C0C04" points="228.47,63.636 224.837,63.596 227.582,53.834 	"/>
	<polygon fill="#1D190D" points="229.842,60.569 228.47,63.636 227.48,52.673 	"/>
	<polygon fill="#0C0C04" points="232.544,53.526 227.779,53.526 227.48,52.534 	"/>
	<polygon fill="#19170B" points="232.544,53.711 229.083,53.034 231.09,52.158 	"/>
	<polygon fill="#19170B" points="231.372,57.561 227.779,53.526 232.544,53.526 	"/>
	<polygon fill="#0C0C04" points="227.779,53.665 231.372,57.7 229.842,60.569 	"/>
	<polygon fill="#F7D43C" points="227.582,53.873 221.569,48.146 218.704,59.198 	"/>
	<polygon fill="#C89C00" points="221.569,48.146 218.704,59.198 213.567,52.818 	"/>
	<polygon fill="#794B02" points="219.222,50.832 213.355,50.595 213.567,52.818 	"/>
	<polygon fill="#653503" points="221.569,48.146 213.355,50.595 219.222,50.832 	"/>
	<polygon fill="#441B01" points="221.569,48.146 213.355,50.595 224.763,42.017 	"/>
	<polygon fill="#703901" points="221.569,48.146 226.835,43.697 224.763,42.017 	"/>
	<polygon fill="#0B0800" points="218.806,38.632 213.355,50.595 224.763,42.017 	"/>
	<polygon fill="#0B0800" points="207.066,39.733 213.355,50.595 218.272,39.889 	"/>
	<polygon fill="#0B0800" points="207.066,39.733 218.724,40.409 216.142,36.95 	"/>
	<polyline fill="#EDC839" points="227.779,49.488 221.569,48.146 227.582,53.873 	"/>
	<polygon fill="#D79C02" points="221.569,48.146 226.835,43.697 227.779,49.488 	"/>
	<polyline fill="#C9AF40" points="227.48,52.724 231.09,52.158 229.083,53.034 	"/>
	<polyline fill="#FCE271" points="227.48,52.724 232.544,51.916 226.835,43.697 	"/>
	<polygon fill="#0B0800" points="207.066,39.733 213.355,50.595 200.226,44.66 	"/>
	<polygon fill="#0B0800" points="208.455,52.721 213.355,50.595 200.226,44.66 	"/>
	<polygon fill="#0B0800" points="213.489,60.246 213.567,52.818 208.379,52.721 	"/>
	<polygon fill="#0B0800" points="217.461,63.636 213.567,52.818 213.46,60.246 	"/>
	<polygon fill="#0B0800" points="217.575,63.636 213.679,60.246 215.46,66.782 	"/>
	<polygon fill="#0B0800" points="217.363,68.801 217.363,63.636 215.137,66.782 	"/>
	<polygon fill="#0B0800" points="222.658,72.673 217.575,68.801 221.044,73.075 	"/>
	<polygon fill="#0B0800" points="223.264,63.071 222.175,64.604 221.039,61.377 	"/>
	<polygon fill="#0B0800" points="223.547,65.934 222.175,64.604 222.658,63.922 	"/>
	<polygon fill="#0B0800" points="227.38,68.801 223.547,65.934 222.658,63.922 	"/>
	<polygon fill="#0B0800" points="203.898,51.106 208.455,52.721 205.156,49.488 	"/>
	<polyline fill="#0B0800" points="204.665,57.14 208.455,52.721 203.898,51.106 	"/>
	<polyline fill="#0B0800" points="206.601,61.739 207.066,54.344 204.665,57.14 	"/>
	<polyline fill="#0B0800" points="208.982,64.928 206.79,59.803 206.601,61.739 	"/>
	<polyline fill="#0B0800" points="208.135,63.636 207.61,65.127 206.601,61.739 	"/>
	<polygon fill="#0B0800" points="207.235,39.683 200.226,44.66 203.09,38.726 	"/>
	<polygon fill="#0B0800" points="216.142,36.95 199.898,40.797 212.668,32.654 	"/>
	<polygon fill="#0B0800" points="216.142,36.95 203.09,38.726 207.066,39.733 	"/>
	<polygon fill="#AA7C05" points="213.685,33.911 218.272,39.889 219.507,38.141 	"/>
	<polygon fill="#2F1F05" points="218.806,38.526 227.212,44.031 228.815,38.526 	"/>
	<polygon fill="#473703" points="218.806,38.526 224.575,36.346 228.815,38.526 	"/>
	<polygon fill="#5E3C00" points="218.806,38.705 224.575,36.526 219.875,36.526 	"/>
	<polygon fill="#2C1B0A" points="213.685,33.911 219.222,37.994 222.216,31.281 	"/>
	<polygon fill="#2C2306" points="237.516,36.526 219.875,36.526 222.216,31.282 	"/>
	<polygon fill="#2B1B01" points="237.516,36.526 224.575,36.526 227.531,38.13 	"/>
	<polygon fill="#251601" points="237.516,36.484 241.694,29.932 222.216,31.281 	"/>
	<polygon fill="#56412F" points="237.516,36.484 241.596,29.932 245.458,31.452 	"/>
	<polygon fill="#56412F" points="222.216,31.281 232.948,23.053 241.694,29.932 	"/>
	<polygon fill="#846C5A" points="241.985,23.535 232.948,23.053 241.694,29.932 	"/>
	<polygon fill="#FFDD05" points="212.668,32.654 203.09,38.726 206.907,31.519 	"/>
	<polygon fill="#F8BD00" points="206.907,31.519 201.087,42.875 200.991,35.801 	"/>
	<polygon fill="#FDE140" points="206.907,31.519 201.962,32.306 200.991,35.801 	"/>
	<polygon fill="#2A1900" points="199.419,31.519 201.962,32.306 200.991,35.801 	"/>
	<polyline fill="#131709" points="200.991,35.801 199.419,31.519 195.076,38.726 	"/>
	<polyline fill="#0B0800" points="200.991,35.801 201.087,42.875 195.076,38.726 	"/>
	<polyline fill="#191200" points="196.515,33.318 199.419,31.519 195.076,38.726 	"/>
	<polygon fill="#D2C2AB" points="199.857,32.562 200.87,33.848 197.588,34.379 	"/>
	<polyline fill="#191200" points="200.363,24.526 200.363,30.988 199.347,31.512 	"/>
	<polyline fill="#191200" points="187.769,29.415 196.515,33.471 195.939,32.562 	"/>
	<polyline fill="#0B0800" points="200.226,44.66 201.087,42.875 195.076,38.726 	"/>
	<polyline fill="#0B0800" points="195.407,41.904 197.247,41.034 195.076,38.726 	"/>
	<polyline fill="#0B0800" points="197.588,47.569 200.226,44.66 197.132,41.09 	"/>
	<polyline fill="#0B0800" points="198.828,50.201 200.07,44.834 197.588,47.569 	"/>
	<polyline fill="#0B0800" points="198.828,50.201 196.484,52.501 198.37,47.927 	"/>
	<polyline fill="#0B0800" points="201.477,47.518 199.863,45.729 199.663,46.593 	"/>
	<polygon fill="#0B0800" points="208.379,52.721 213.567,52.818 213.355,50.595 	"/>
</g>
<g>
	<polygon fill="#060405" points="263.086,516.831 230.018,536.67 232.724,544.785 	"/>
	<polygon fill="#19170B" points="252.865,553.2 235.073,542.62 263.086,516.831 	"/>
	<polygon fill="#0C0C04" points="266.392,553.2 252.865,553.054 263.086,516.685 	"/>
	<polygon fill="#1D190D" points="271.504,541.779 266.392,553.2 262.708,512.36 	"/>
	<polygon fill="#0C0C04" points="281.572,516.526 263.822,516.526 262.572,512.464 	"/>
	<polygon fill="#19170B" points="281.572,516.526 268.682,513.771 276.16,510.446 	"/>
	<polygon fill="#19170B" points="277.211,531.557 263.822,516.526 281.572,516.526 	"/>
	<polygon fill="#0C0C04" points="263.822,516.054 277.211,531.084 271.504,541.779 	"/>
	<polygon fill="#F7D43C" points="263.086,516.831 240.69,495.49 230.018,536.67 	"/>
	<polygon fill="#C89C00" points="240.69,495.49 230.018,536.67 210.871,512.903 	"/>
	<polygon fill="#794B02" points="231.943,505.499 210.084,504.62 210.871,512.903 	"/>
	<polygon fill="#653503" points="240.69,495.49 210.084,504.62 231.943,505.499 	"/>
	<polygon fill="#441B01" points="240.69,495.49 210.084,504.62 252.583,472.665 	"/>
	<polygon fill="#703901" points="240.69,495.49 260.304,478.922 252.583,472.665 	"/>
	<polygon fill="#0B0800" points="230.394,460.054 210.084,504.62 252.583,472.665 	"/>
	<polygon fill="#0B0800" points="186.653,464.157 210.084,504.62 228.405,464.729 	"/>
	<polygon fill="#0B0800" points="186.653,464.157 230.089,466.679 220.471,453.786 	"/>
	<polyline fill="#EDC839" points="263.822,500.496 240.69,495.49 263.086,516.831 	"/>
	<polygon fill="#D79C02" points="240.69,495.49 260.304,478.922 263.822,500.496 	"/>
	<polyline fill="#C9AF40" points="262.708,512.549 276.16,510.446 268.682,513.771 	"/>
	<polyline fill="#FCE271" points="262.708,512.549 281.572,509.542 260.304,478.922 	"/>
	<polygon fill="#0B0800" points="186.653,464.157 210.084,504.62 161.176,482.511 	"/>
	<polygon fill="#0B0800" points="191.838,512.537 210.084,504.62 161.176,482.511 	"/>
	<polygon fill="#0B0800" points="210.586,540.578 210.871,512.903 191.553,512.537 	"/>
	<polygon fill="#0B0800" points="225.386,553.2 210.871,512.903 210.478,540.578 	"/>
	<polygon fill="#0B0800" points="225.808,553.2 211.295,540.578 217.931,564.925 	"/>
	<polygon fill="#0B0800" points="226.363,572.438 225.808,553.2 217.931,564.925 	"/>
	<polygon fill="#0B0800" points="244.748,586.865 226.363,572.438 238.736,588.368 	"/>
	<polygon fill="#0B0800" points="247.001,551.097 242.944,556.809 238.711,544.785 	"/>
	<polygon fill="#0B0800" points="248.057,561.767 242.944,556.809 244.748,554.27 	"/>
	<polygon fill="#0B0800" points="262.333,572.438 248.057,561.767 244.748,554.27 	"/>
	<polygon fill="#0B0800" points="174.857,506.522 191.838,512.537 179.542,500.496 	"/>
	<polyline fill="#0B0800" points="177.712,529.005 191.838,512.537 174.857,506.522 	"/>
	<polyline fill="#0B0800" points="184.926,546.137 186.653,518.583 177.712,529.005 	"/>
	<polyline fill="#0B0800" points="193.795,558.017 185.409,538.419 184.926,546.137 	"/>
	<polyline fill="#0B0800" points="190.639,553.2 188.684,558.761 184.926,546.137 	"/>
	<polygon fill="#0B0800" points="187.285,463.963 161.176,482.511 171.85,460.397 	"/>
	<polygon fill="#0B0800" points="220.471,453.786 159.954,468.116 207.53,437.781 	"/>
	<polygon fill="#0B0800" points="220.471,453.786 171.85,460.397 186.653,464.157 	"/>
	<polygon fill="#AA7C05" points="211.317,442.463 228.405,464.729 233.005,458.22 	"/>
	<polygon fill="#2F1F05" points="230.394,460.526 261.708,481.04 267.682,460.526 	"/>
	<polygon fill="#473703" points="230.394,460.526 251.888,452.409 267.682,460.526 	"/>
	<polygon fill="#5E3C00" points="230.394,460.526 251.888,452.526 233.988,452.526 	"/>
	<polygon fill="#2C1B0A" points="211.317,442.463 231.774,457.623 243.096,432.671 	"/>
	<polygon fill="#2C2306" points="300.098,452.526 234.086,452.526 243.096,432.671 	"/>
	<polygon fill="#2B1B01" points="300.098,452.526 251.888,452.526 262.897,458.498 	"/>
	<polygon fill="#251601" points="300.098,452.526 315.655,427.637 243.096,432.671 	"/>
	<polygon fill="#56412F" points="300.098,452.054 315.292,427.637 329.686,433.305 	"/>
	<polygon fill="#56412F" points="243.096,432.671 283.073,402.013 315.655,427.637 	"/>
	<polygon fill="#846C5A" points="316.744,403.815 283.073,402.013 315.655,427.637 	"/>
	<polygon fill="#FFDD05" points="207.53,437.781 171.85,460.397 186.071,433.554 	"/>
	<polygon fill="#F8BD00" points="186.071,433.554 164.387,475.858 164.031,449.502 	"/>
	<polygon fill="#FDE140" points="186.071,433.554 167.641,436.485 164.031,449.502 	"/>
	<polygon fill="#2A1900" points="158.17,433.554 167.641,436.485 164.031,449.502 	"/>
	<polyline fill="#131709" points="164.031,449.502 158.17,433.554 141.993,460.397 	"/>
	<polyline fill="#0B0800" points="164.031,449.502 164.387,475.858 141.993,460.397 	"/>
	<polyline fill="#191200" points="147.349,440.261 158.17,433.554 141.993,460.397 	"/>
	<polygon fill="#D2C2AB" points="159.646,437.568 163.581,442.233 151.35,444.205 	"/>
	<polyline fill="#191200" points="162.363,408.526 162.363,431.581 158.17,433.554 	"/>
	<polyline fill="#191200" points="114.769,425.719 147.349,440.824 145.207,437.441 	"/>
	<polyline fill="#0B0800" points="161.176,482.511 164.387,475.858 141.993,460.397 	"/>
	<polyline fill="#0B0800" points="143.223,472.242 150.081,469.003 141.993,460.397 	"/>
	<polyline fill="#0B0800" points="151.35,493.349 161.176,482.511 149.652,469.206 	"/>
	<polyline fill="#0B0800" points="155.972,503.155 160.592,483.154 151.35,493.349 	"/>
	<polyline fill="#0B0800" points="155.972,503.155 147.236,511.722 154.266,494.679 	"/>
	<polyline fill="#0B0800" points="165.835,493.153 159.823,486.489 159.079,489.708 	"/>
	<polygon fill="#0B0800" points="191.553,512.537 210.871,512.903 210.084,504.62 	"/>
</g>
</svg>
