<?xml version="1.0" encoding="utf-8"?>
<!-- Generator: Adobe Illustrator 16.0.4, SVG Export Plug-In . SVG Version: 6.00 Build 0)  -->
<!DOCTYPE svg PUBLIC "-//W3C//DTD SVG 1.1//EN" "http://www.w3.org/Graphics/SVG/1.1/DTD/svg11.dtd">
<svg version="1.1" id="Layer_1" xmlns="http://www.w3.org/2000/svg" xmlns:xlink="http://www.w3.org/1999/xlink" x="0px" y="0px"
	 width="215.725px" height="48.053px" viewBox="0 0 215.725 48.053" enable-background="new 0 0 215.725 48.053"
	 xml:space="preserve">
<path fill="#FFFFFF" d="M68.567,32.265c0,9.03-6.442,15.602-15.234,15.602c-8.73,0-15.175-6.562-15.175-15.602
	c0-8.976,6.438-15.538,15.175-15.538C62.123,16.727,68.567,23.291,68.567,32.265z M61.522,32.265c0-6.082-3.854-9.216-8.189-9.216
	c-4.275,0-8.189,3.134-8.189,9.216s3.914,9.334,8.189,9.334C57.667,41.599,61.522,38.406,61.522,32.265z"/>
<path fill="#FFFFFF" d="M83.493,47.826c-8.993,0-12.876-5.205-12.876-11.707v-18.49h6.979V34.58c0,3.612,1.688,6.687,5.902,6.687
	c4.035,0,6.143-2.709,6.143-6.562V17.629h6.985l-0.033,18.537C96.595,42.707,92.962,47.826,83.493,47.826z"/>
<path fill="#FFFFFF" d="M138.069,17.629h6.083v6.203h-6.083l-0.046,14.287c0,1.399,1.073,2.812,2.874,2.812
	c1.282,0-0.301,0,1.312,0.022v6.356c-1.087,0.082-1.953,0-4.479,0c-3.335,0-6.581-2.527-6.581-6.439l-0.009-17.043h-5.42v-6.203
	h1.511c3.132,0,4.519-1.986,4.519-4.576V8.655h6.321L138.069,17.629L138.069,17.629z"/>
<path fill="#FFFFFF" d="M149.441,2.754c2.523,0,4.577,2.049,4.577,4.578c0,2.529-2.054,4.516-4.577,4.516
	c-2.475,0-4.521-1.984-4.521-4.516C144.923,4.802,146.97,2.754,149.441,2.754z M146.008,46.959v-29.33h6.931v29.33H146.008z"/>
<path fill="#FFFFFF" d="M183.102,38.588c-1.563,5.116-6.202,9.271-13.249,9.271c-7.949,0-14.995-5.778-14.995-15.719
	c0-9.271,6.859-15.417,14.271-15.417c9.034,0,14.333,5.963,14.333,15.234c0,1.146-0.12,2.104-0.181,2.229h-21.439
	c0.188,4.457,3.68,7.646,8.016,7.646c4.218,0,6.386-2.229,7.349-5.117L183.102,38.588z M176.417,29.072
	c-0.121-3.435-2.409-6.506-7.229-6.506c-4.396,0-6.932,3.373-7.166,6.506H176.417z"/>
<path fill="#FFFFFF" d="M191.231,36.709c0.238,2.647,2.237,5.619,5.975,5.619c2.891,0,4.396-1.565,4.396-3.373
	c0-1.565-1.084-2.771-3.434-3.254l-4.336-0.964c-5.181-1.146-7.891-4.521-7.891-8.551c0-5.124,4.691-9.458,10.773-9.458
	c8.188,0,10.316,4.502,10.334,8.169v1.979l-5.97-0.021c-0.054-2.688-0.449-4.646-4.364-4.646c-2.469,0-4.215,1.563-4.215,3.371
	c0,1.563,1.146,2.711,2.95,3.069l4.454,0.899c5.541,1.205,8.434,4.576,8.434,8.912c0,4.457-3.607,9.396-11.081,9.396
	c-8.489,0-11.793-5.961-12.151-9.276L191.231,36.709z"/>
<g>
	
		<linearGradient id="SVGID_1_" gradientUnits="userSpaceOnUse" x1="1063.4397" y1="-2411.3555" x2="1063.4397" y2="-2395.2715" gradientTransform="matrix(1 0 0 -1 -882 -2393.5742)">
		<stop  offset="0" style="stop-color:#FFD500"/>
		<stop  offset="0.984" style="stop-color:#FFD500"/>
	</linearGradient>
	<path fill="url(#SVGID_1_)" d="M181.427,10.211c0.812,0,1.477,0.664,1.477,1.472c0,0.809-0.661,1.454-1.477,1.454
		c-0.809,0-1.453-0.646-1.453-1.454C179.973,10.875,180.62,10.211,181.427,10.211z"/>
	
		<linearGradient id="SVGID_2_" gradientUnits="userSpaceOnUse" x1="1070.5618" y1="-2411.3545" x2="1070.5618" y2="-2395.2688" gradientTransform="matrix(1 0 0 -1 -882 -2393.5742)">
		<stop  offset="0" style="stop-color:#FFD500"/>
		<stop  offset="0.984" style="stop-color:#FFD500"/>
	</linearGradient>
	<path fill="url(#SVGID_2_)" d="M192.716,10.533c-0.467,1.525-1.849,2.764-3.942,2.764c-2.369,0-4.475-1.723-4.475-4.684
		c0-2.764,2.045-4.594,4.253-4.594c2.691,0,4.271,1.775,4.271,4.54c0,0.342-0.035,0.629-0.056,0.663h-6.395
		c0.061,1.328,1.096,2.279,2.393,2.279c1.257,0,1.897-0.664,2.188-1.524L192.716,10.533z M190.722,7.698
		c-0.03-1.022-0.717-1.938-2.146-1.938c-1.312,0-2.063,1.007-2.137,1.938H190.722z"/>
	
		<linearGradient id="SVGID_3_" gradientUnits="userSpaceOnUse" x1="1077.8704" y1="-2411.3555" x2="1077.8704" y2="-2395.269" gradientTransform="matrix(1 0 0 -1 -882 -2393.5742)">
		<stop  offset="0" style="stop-color:#FFD500"/>
		<stop  offset="0.984" style="stop-color:#FFD500"/>
	</linearGradient>
	<path fill="url(#SVGID_3_)" d="M196.79,4.288h1.812v1.849h-1.812v4.058c0,0.771,0.341,1.095,1.11,1.095
		c0.286,0,0.629-0.055,0.72-0.07v1.723c-0.125,0.054-0.521,0.197-1.273,0.197c-1.609,0-2.614-0.971-2.614-2.604V6.139h-1.613V4.29
		h0.446c0.936,0,1.348-0.593,1.348-1.363V1.615h1.885L196.79,4.288L196.79,4.288z"/>
	
		<linearGradient id="SVGID_4_" gradientUnits="userSpaceOnUse" x1="1085.7083" y1="-2411.3564" x2="1085.7083" y2="-2395.272" gradientTransform="matrix(1 0 0 -1 -882 -2393.5742)">
		<stop  offset="0" style="stop-color:#FFD500"/>
		<stop  offset="0.984" style="stop-color:#FFD500"/>
	</linearGradient>
	<path fill="url(#SVGID_4_)" d="M201.905,13.027h-2.079V0.035h2.079v5.098c0.595-0.771,1.58-1.097,2.494-1.097
		c2.147,0,3.189,1.544,3.189,3.464v5.527h-2.082V7.859c0-1.076-0.479-1.938-1.795-1.938c-1.146,0-1.771,0.861-1.812,1.974
		L201.905,13.027L201.905,13.027z"/>
</g>
<path fill="#FFFFFF" d="M111.675,15.994c8.993,0,12.875,5.205,12.875,11.708v18.486h-6.98V29.24c0-3.611-1.688-6.686-5.899-6.686
	c-4.035,0-6.145,2.71-6.145,6.562v17.07H98.54l0.036-18.537C98.571,21.115,102.205,15.994,111.675,15.994z"/>
<path fill="#FFFFFF" d="M19.775,0.625c9.084,0,13.124,6.316,13.124,11.487c0,4.995-3.191,8.524-3.191,8.524
	c3.021,2.369,6.979,6.156,6.979,12.281c0,8.006-6.146,15.17-14.372,15.17c-5.396-0.104-15.435,0-15.435,0
	c-0.036-3.398-0.021-1.764,0.16-47.462H19.775L19.775,0.625z M18.393,19.221h1.648c3.704,0,5.558-3.848,5.558-6.469
	c0-2.404-2.104-5.623-5.62-5.623h-6.233v12.092v0.162v5.675c0,0,0,15.301,0,17.25c0-0.002,4.247,0.041,7.71,0
	c3.693-0.107,8.126-4.185,8.062-8.851c-0.062-4.589-4.011-8.36-7.947-8.36l-3.177-0.021V19.221z"/>
</svg>
