<?xml version="1.0" encoding="utf-8"?>
<!-- Generator: Adobe Illustrator 16.0.4, SVG Export Plug-In . SVG Version: 6.00 Build 0)  -->
<!DOCTYPE svg PUBLIC "-//W3C//DTD SVG 1.1//EN" "http://www.w3.org/Graphics/SVG/1.1/DTD/svg11.dtd">
<svg version="1.1" id="Layer_1" xmlns="http://www.w3.org/2000/svg" xmlns:xlink="http://www.w3.org/1999/xlink" x="0px" y="0px"
	 width="1415.324px" height="248.842px" viewBox="0 0 1415.324 248.842" enable-background="new 0 0 1415.324 248.842"
	 xml:space="preserve">
<path fill="#FFFFFF" d="M446.118,168.909c0,45.621-32.541,78.822-76.956,78.822c-44.105,0-76.66-33.148-76.66-78.822
	c0-45.34,32.521-78.489,76.66-78.489C413.567,90.42,446.118,123.576,446.118,168.909z M410.529,168.909
	c0-30.723-19.468-46.556-41.367-46.556c-21.598,0-41.371,15.833-41.371,46.556c0,30.727,19.773,47.154,41.371,47.154
	C391.056,216.063,410.529,199.937,410.529,168.909z"/>
<path fill="#FFFFFF" d="M521.525,247.524c-45.432,0-65.046-26.297-65.046-59.146V94.974h35.253v85.634
	c0,18.248,8.529,33.776,29.816,33.776c20.386,0,31.032-13.686,31.032-33.146V94.973h35.29l-0.169,93.645
	C587.711,221.663,569.36,247.524,521.525,247.524z"/>
<path fill="#FFFFFF" d="M797.229,94.974h30.73v31.335h-30.73l-0.231,72.176c0,7.07,5.422,14.205,14.519,14.205
	c6.479,0,3.533,0,11.685,0.112v32.109c-5.492,0.414-14.918,0-27.683,0c-16.848,0-33.248-12.769-33.248-32.529l-0.043-86.1h-27.38
	V94.947h7.632c15.82,0,22.834-10.034,22.834-23.116v-22.19h31.929L797.229,94.974L797.229,94.974z"/>
<path fill="#FFFFFF" d="M854.678,19.828c12.749,0,23.124,10.351,23.124,23.127c0,12.774-10.375,22.817-23.124,22.817
	c-12.5,0-22.836-10.023-22.836-22.817C831.857,30.172,842.197,19.828,854.678,19.828z M837.337,243.144V94.974h35.014v148.169
	H837.337L837.337,243.144z"/>
<path fill="#FFFFFF" d="M1024.729,200.854c-7.895,25.846-31.332,46.832-66.932,46.832c-40.158,0-75.753-29.187-75.753-79.408
	c0-46.832,34.65-77.878,72.098-77.878c45.64,0,72.405,30.123,72.405,76.957c0,5.787-0.605,10.632-0.912,11.263H917.329
	c0.946,22.519,18.589,38.625,40.493,38.625c21.312,0,32.264-11.265,37.127-25.853L1024.729,200.854z M990.958,152.782
	c-0.612-17.352-12.171-32.871-36.521-32.871c-22.205,0-35.019,17.041-36.201,32.871H990.958z"/>
<path fill="#FFFFFF" d="M1065.794,191.362c1.204,13.375,11.302,28.389,30.188,28.389c14.603,0,22.204-7.908,22.204-17.041
	c0-7.908-5.476-13.996-17.347-16.438l-21.903-4.869c-26.177-5.793-39.866-22.844-39.866-43.197c0-25.89,23.698-47.785,54.426-47.785
	c41.361,0,52.111,22.743,52.205,41.273v9.994l-30.157-0.109c-0.276-13.576-2.271-23.467-22.047-23.467
	c-12.472,0-21.292,7.899-21.292,17.032c0,7.896,5.787,13.691,14.902,15.506l22.498,4.537c27.989,6.088,42.608,23.117,42.608,45.021
	c0,22.516-18.225,47.469-55.979,47.469c-42.886,0-59.576-30.111-61.387-46.861L1065.794,191.362z"/>
<path fill="#FFFFFF" d="M663.895,86.714c45.432,0,65.041,26.297,65.041,59.148v93.387h-35.263V153.63
	c0-18.242-8.524-33.776-29.798-33.776c-20.384,0-31.045,13.694-31.045,33.151v86.234h-35.289l0.182-93.646
	C597.692,112.585,616.054,86.714,663.895,86.714z"/>
<path fill="#FFFFFF" d="M199.631,9.073c45.89,0,66.3,31.904,66.3,58.033c0,25.229-16.118,43.056-16.118,43.056
	c15.26,11.969,35.255,31.103,35.255,62.044c0,40.443-31.046,76.637-72.604,76.637c-27.258-0.525-77.973,0-77.973,0
	c-0.182-17.17-0.108-8.91,0.809-239.77H199.631L199.631,9.073z M192.65,103.02h8.328c18.713,0,28.076-19.442,28.076-32.685
	c0-12.142-10.627-28.407-28.392-28.407h-31.485v61.092v0.812V132.5c0,0,0,77.299,0,87.146c0-0.011,21.455,0.207,38.949,0
	c18.652-0.537,41.051-21.142,40.725-44.711c-0.311-23.185-20.262-42.236-40.148-42.236l-16.048-0.102V103.02H192.65L192.65,103.02z"
	/>
<g>
	<polygon fill="#060405" points="1305.498,164.413 1272.431,184.253 1275.138,192.368 	"/>
	<polygon fill="#19170B" points="1295.278,200.782 1277.486,190.202 1305.498,164.413 	"/>
	<polygon fill="#0C0C04" points="1308.806,200.782 1295.278,200.636 1305.498,164.267 	"/>
	<polygon fill="#1D190D" points="1313.916,189.362 1308.806,200.782 1305.12,159.942 	"/>
	<polygon fill="#0C0C04" points="1323.985,164.108 1306.235,164.108 1304.985,160.046 	"/>
	<polygon fill="#19170B" points="1323.985,164.108 1311.095,161.353 1318.573,158.028 	"/>
	<polygon fill="#19170B" points="1319.623,179.14 1306.235,164.108 1323.985,164.108 	"/>
	<polygon fill="#0C0C04" points="1306.235,163.636 1319.623,178.667 1313.916,189.362 	"/>
	<polygon fill="#F7D43C" points="1305.498,164.413 1283.103,143.072 1272.431,184.253 	"/>
	<polygon fill="#C89C00" points="1283.103,143.072 1272.431,184.253 1253.283,160.485 	"/>
	<polygon fill="#794B02" points="1274.356,153.081 1252.496,152.202 1253.283,160.485 	"/>
	<polygon fill="#653503" points="1283.103,143.072 1252.496,152.202 1274.356,153.081 	"/>
	<polygon fill="#441B01" points="1283.103,143.072 1252.496,152.202 1294.995,120.247 	"/>
	<polygon fill="#703901" points="1283.103,143.072 1302.718,126.505 1294.995,120.247 	"/>
	<polygon fill="#0B0800" points="1272.808,107.636 1252.496,152.202 1294.995,120.247 	"/>
	<polygon fill="#0B0800" points="1229.065,111.739 1252.496,152.202 1270.817,112.31 	"/>
	<polygon fill="#0B0800" points="1229.065,111.739 1272.501,114.261 1262.883,101.368 	"/>
	<polyline fill="#EDC839" points="1306.235,148.078 1283.103,143.072 1305.498,164.413 	"/>
	<polygon fill="#D79C02" points="1283.103,143.072 1302.718,126.505 1306.235,148.078 	"/>
	<polyline fill="#C9AF40" points="1305.12,160.132 1318.573,158.028 1311.095,161.353 	"/>
	<polyline fill="#FCE271" points="1305.12,160.132 1323.985,157.124 1302.718,126.505 	"/>
	<polygon fill="#0B0800" points="1229.065,111.739 1252.496,152.202 1203.588,130.093 	"/>
	<polygon fill="#0B0800" points="1234.25,160.119 1252.496,152.202 1203.588,130.093 	"/>
	<polygon fill="#0B0800" points="1252.998,188.161 1253.283,160.485 1233.965,160.119 	"/>
	<polygon fill="#0B0800" points="1267.798,200.782 1253.283,160.485 1252.892,188.161 	"/>
	<polygon fill="#0B0800" points="1268.222,200.782 1253.707,188.161 1260.345,212.507 	"/>
	<polygon fill="#0B0800" points="1268.776,220.021 1268.222,200.782 1260.345,212.507 	"/>
	<polygon fill="#0B0800" points="1287.16,234.448 1268.776,220.021 1281.149,235.95 	"/>
	<polygon fill="#0B0800" points="1289.413,198.679 1285.356,204.392 1281.123,192.368 	"/>
	<polygon fill="#0B0800" points="1290.47,209.349 1285.356,204.392 1287.16,201.853 	"/>
	<polygon fill="#0B0800" points="1304.745,220.021 1290.47,209.349 1287.16,201.853 	"/>
	<polygon fill="#0B0800" points="1217.271,154.104 1234.25,160.119 1221.954,148.078 	"/>
	<polyline fill="#0B0800" points="1220.124,176.587 1234.25,160.119 1217.271,154.104 	"/>
	<polyline fill="#0B0800" points="1227.338,193.72 1229.065,166.165 1220.124,176.587 	"/>
	<polyline fill="#0B0800" points="1236.207,205.599 1227.822,186.001 1227.338,193.72 	"/>
	<polyline fill="#0B0800" points="1233.052,200.782 1231.097,206.343 1227.338,193.72 	"/>
	<polygon fill="#0B0800" points="1229.698,111.545 1203.588,130.093 1214.263,107.979 	"/>
	<polygon fill="#0B0800" points="1262.883,101.368 1202.366,115.698 1249.942,85.363 	"/>
	<polygon fill="#0B0800" points="1262.883,101.368 1214.263,107.979 1229.065,111.739 	"/>
	<polygon fill="#AA7C05" points="1253.729,90.045 1270.817,112.31 1275.417,105.802 	"/>
	<polygon fill="#2F1F05" points="1272.808,108.108 1304.12,128.622 1310.095,108.108 	"/>
	<polygon fill="#473703" points="1272.808,108.108 1294.302,99.991 1310.095,108.108 	"/>
	<polygon fill="#5E3C00" points="1272.808,108.108 1294.302,100.108 1276.401,100.108 	"/>
	<polygon fill="#2C1B0A" points="1253.729,90.045 1274.187,105.205 1285.508,80.253 	"/>
	<polygon fill="#2C2306" points="1342.511,100.108 1276.498,100.108 1285.508,80.253 	"/>
	<polygon fill="#2B1B01" points="1342.511,100.108 1294.302,100.108 1305.31,106.08 	"/>
	<polygon fill="#251601" points="1342.511,100.108 1358.068,75.219 1285.508,80.253 	"/>
	<polygon fill="#56412F" points="1342.511,99.636 1357.704,75.219 1372.099,80.887 	"/>
	<polygon fill="#56412F" points="1285.508,80.253 1325.486,49.595 1358.068,75.219 	"/>
	<polygon fill="#846C5A" points="1359.157,51.397 1325.486,49.595 1358.068,75.219 	"/>
	<polygon fill="#FFDD05" points="1249.942,85.363 1214.263,107.979 1228.483,81.136 	"/>
	<polygon fill="#F8BD00" points="1228.483,81.136 1206.799,123.44 1206.444,97.084 	"/>
	<polygon fill="#FDE140" points="1228.483,81.136 1210.054,84.067 1206.444,97.084 	"/>
	<polygon fill="#2A1900" points="1200.582,81.136 1210.054,84.067 1206.444,97.084 	"/>
	<polyline fill="#131709" points="1206.444,97.084 1200.582,81.136 1184.406,107.979 	"/>
	<polyline fill="#0B0800" points="1206.444,97.084 1206.799,123.44 1184.406,107.979 	"/>
	<polyline fill="#191200" points="1189.763,87.843 1200.582,81.136 1184.406,107.979 	"/>
	<polygon fill="#D2C2AB" points="1202.06,85.15 1205.993,89.815 1193.763,91.787 	"/>
	<polyline fill="#191200" points="1204.776,56.108 1204.776,79.163 1200.582,81.136 	"/>
	<polyline fill="#191200" points="1157.183,73.301 1189.763,88.406 1187.619,85.023 	"/>
	<polyline fill="#0B0800" points="1203.588,130.093 1206.799,123.44 1184.406,107.979 	"/>
	<polyline fill="#0B0800" points="1185.636,119.824 1192.493,116.585 1184.406,107.979 	"/>
	<polyline fill="#0B0800" points="1193.763,140.931 1203.588,130.093 1192.065,116.788 	"/>
	<polyline fill="#0B0800" points="1198.386,150.737 1203.004,130.736 1193.763,140.931 	"/>
	<polyline fill="#0B0800" points="1198.386,150.737 1189.649,159.304 1196.679,142.261 	"/>
	<polyline fill="#0B0800" points="1208.247,140.735 1202.236,134.071 1201.491,137.29 	"/>
	<polygon fill="#0B0800" points="1233.965,160.119 1253.283,160.485 1252.496,152.202 	"/>
</g>
<g>
	<linearGradient id="SVGID_1_" gradientUnits="userSpaceOnUse" x1="945.5186" y1="35.749" x2="976.6982" y2="35.749">
		<stop  offset="0" style="stop-color:#FFD500"/>
		<stop  offset="0.984" style="stop-color:#FFD500"/>
	</linearGradient>
	<path fill="url(#SVGID_1_)" d="M954.754,53.283h-9.235V19.117h8.958v4.236c2.083-3.542,6.181-5.139,9.86-5.139
		c8.473,0,12.361,6.042,12.361,13.541v21.527h-9.236v-19.93c0-3.819-1.875-6.805-6.319-6.805c-4.027,0-6.389,3.125-6.389,7.083
		V53.283z"/>
	<linearGradient id="SVGID_2_" gradientUnits="userSpaceOnUse" x1="980.5176" y1="36.2002" x2="1014.1973" y2="36.2002">
		<stop  offset="0" style="stop-color:#FFD500"/>
		<stop  offset="0.984" style="stop-color:#FFD500"/>
	</linearGradient>
	<path fill="url(#SVGID_2_)" d="M1013.711,43.492c-1.736,5.903-7.152,10.833-15.555,10.833c-9.375,0-17.639-6.736-17.639-18.263
		c0-10.903,8.055-17.986,16.805-17.986c10.556,0,16.875,6.736,16.875,17.708c0,1.319-0.139,2.708-0.139,2.847h-24.444
		c0.208,4.514,4.027,7.777,8.611,7.777c4.305,0,6.666-2.152,7.777-5.208L1013.711,43.492z M1005.1,32.312
		c-0.139-3.403-2.36-6.736-7.639-6.736c-4.791,0-7.43,3.611-7.639,6.736H1005.1z"/>
	<linearGradient id="SVGID_3_" gradientUnits="userSpaceOnUse" x1="1014.5439" y1="31.3394" x2="1036.7656" y2="31.3394">
		<stop  offset="0" style="stop-color:#FFD500"/>
		<stop  offset="0.984" style="stop-color:#FFD500"/>
	</linearGradient>
	<path fill="url(#SVGID_3_)" d="M1029.891,19.117h6.875v8.194h-6.875v14.305c0,2.986,1.389,3.958,4.027,3.958
		c1.111,0,2.361-0.139,2.848-0.278v7.639c-0.834,0.347-2.5,0.833-5.209,0.833c-6.666,0-10.833-3.958-10.833-10.556V27.312h-6.18
		v-8.194h1.735c3.611,0,5.278-2.361,5.278-5.417V8.909h8.333V19.117z"/>
	<linearGradient id="SVGID_4_" gradientUnits="userSpaceOnUse" x1="1037.5967" y1="36.2002" x2="1093.6377" y2="36.2002">
		<stop  offset="0" style="stop-color:#FFD500"/>
		<stop  offset="0.984" style="stop-color:#FFD500"/>
	</linearGradient>
	<path fill="url(#SVGID_4_)" d="M1070.791,19.117l7.36,22.014l6.319-22.014h9.167l-10.694,34.166h-9.236l-7.985-23.333
		l-7.848,23.333h-9.375l-10.902-34.166h9.723l6.319,21.944l7.43-21.944H1070.791z"/>
	<linearGradient id="SVGID_5_" gradientUnits="userSpaceOnUse" x1="1092.9434" y1="36.2002" x2="1128.7754" y2="36.2002">
		<stop  offset="0" style="stop-color:#FFD500"/>
		<stop  offset="0.984" style="stop-color:#FFD500"/>
	</linearGradient>
	<path fill="url(#SVGID_5_)" d="M1128.775,36.2c0,10.486-7.708,18.125-17.916,18.125s-17.916-7.639-17.916-18.125
		c0-10.555,7.708-18.125,17.916-18.125S1128.775,25.645,1128.775,36.2z M1119.54,36.2c0-6.458-4.167-9.722-8.681-9.722
		s-8.681,3.264-8.681,9.722c0,6.389,4.167,9.722,8.681,9.722S1119.54,42.659,1119.54,36.2z"/>
	<linearGradient id="SVGID_6_" gradientUnits="userSpaceOnUse" x1="1133.0811" y1="36.0615" x2="1153.9141" y2="36.0615">
		<stop  offset="0" style="stop-color:#FFD500"/>
		<stop  offset="0.984" style="stop-color:#FFD500"/>
	</linearGradient>
	<path fill="url(#SVGID_6_)" d="M1153.914,28.284c-1.042-0.208-1.944-0.278-2.778-0.278c-4.722,0-8.819,2.292-8.819,9.653v15.625
		h-9.235V19.117h8.958v5.069c2.083-4.514,6.806-5.347,9.722-5.347c0.764,0,1.458,0.069,2.153,0.139V28.284z"/>
	<linearGradient id="SVGID_7_" gradientUnits="userSpaceOnUse" x1="1157.4541" y1="28.145" x2="1190.8555" y2="28.145">
		<stop  offset="0" style="stop-color:#FFD500"/>
		<stop  offset="0.984" style="stop-color:#FFD500"/>
	</linearGradient>
	<path fill="url(#SVGID_7_)" d="M1176.897,33.492l13.958,19.791h-11.318l-9.028-13.055l-3.819,4.028v9.027h-9.235V3.007h9.235
		v28.818l11.806-12.708h12.083L1176.897,33.492z"/>
</g>
</svg>
