<?xml version="1.0" encoding="utf-8"?>
<!-- Generator: Adobe Illustrator 16.0.4, SVG Export Plug-In . SVG Version: 6.00 Build 0)  -->
<!DOCTYPE svg PUBLIC "-//W3C//DTD SVG 1.1//EN" "http://www.w3.org/Graphics/SVG/1.1/DTD/svg11.dtd">
<svg version="1.1" id="Layer_1" xmlns="http://www.w3.org/2000/svg" xmlns:xlink="http://www.w3.org/1999/xlink" x="0px" y="0px"
	 width="1180.785px" height="248.842px" viewBox="21.787 0 1180.785 248.842" enable-background="new 21.787 0 1180.785 248.842"
	 xml:space="preserve">
<path fill="#FFFFFF" d="M441.676,120.61c0,34.039-24.277,58.81-57.416,58.81c-32.903,0-57.193-24.734-57.193-58.81
	c0-33.825,24.264-58.557,57.193-58.557C417.393,62.053,441.676,86.789,441.676,120.61z M415.125,120.61
	c0-22.92-14.525-34.731-30.863-34.731c-16.113,0-30.866,11.811-30.866,34.731c0,22.926,14.752,35.18,30.866,35.18
	C400.595,155.79,415.125,143.759,415.125,120.61z"/>
<path fill="#FFFFFF" d="M496.443,179.263c-33.896,0-48.53-19.619-48.53-44.127V65.451h26.302v63.887
	c0,13.616,6.365,25.2,22.246,25.2c15.207,0,23.15-10.211,23.15-24.729V65.451h26.329l-0.127,69.864
	C545.821,159.968,532.13,179.263,496.443,179.263z"/>
<path fill="#FFFFFF" d="M702.882,65.451h22.926V88.83h-22.926l-0.173,53.845c0,5.278,4.047,10.599,10.833,10.599
	c4.832,0,2.638,0,8.717,0.082v23.957c-4.096,0.31-11.129,0-20.652,0c-12.571,0-24.806-9.524-24.806-24.268l-0.03-64.236h-20.428
	V65.43h5.694c11.803,0,17.037-7.485,17.037-17.245V31.63h23.817L702.882,65.451L702.882,65.451z"/>
<path fill="#FFFFFF" d="M745.743,9.386c9.511,0,17.256,7.723,17.256,17.255c0,9.53-7.744,17.022-17.256,17.022
	c-9.326,0-17.035-7.477-17.035-17.022C728.717,17.105,736.433,9.386,745.743,9.386z M732.807,175.994V65.451h26.124v110.543H732.807
	L732.807,175.994z"/>
<path fill="#FFFFFF" d="M872.611,144.443c-5.889,19.283-23.374,34.94-49.934,34.94c-29.961,0-56.518-21.775-56.518-59.243
	c0-34.938,25.853-58.102,53.792-58.102c34.051,0,54.017,22.474,54.017,57.414c0,4.318-0.45,7.934-0.679,8.403h-80.805
	c0.708,16.802,13.867,28.817,30.211,28.817c15.899,0,24.068-8.407,27.699-19.288L872.611,144.443z M847.42,108.579
	c-0.458-12.945-9.082-24.521-27.248-24.521c-16.566,0-26.13,12.713-27.01,24.521H847.42z"/>
<path fill="#FFFFFF" d="M940.438,97.729c-1.039-5.381-5.741-16.192-20.496-16.192c-9.306,0-17.129,7.069-17.129,13.884
	c0,5.892,4.318,10.213,11.117,11.566l16.785,3.386c20.878,4.542,31.786,17.246,31.786,33.589c0,16.796-13.598,35.415-41.765,35.415
	c-31.996,0-44.446-22.462-45.798-34.961l23.09-7.056c0.898,9.979,8.431,21.181,22.521,21.181c10.895,0,16.562-5.898,16.562-12.713
	c0-5.899-4.082-10.442-12.938-12.264l-16.344-3.63c-19.526-4.326-29.739-17.046-29.739-32.229c0-19.318,17.679-35.651,40.603-35.651
	c35.562,0,40.296,25.319,41.523,29.654"/>
<path fill="#FFFFFF" d="M603.406,59.289c33.896,0,48.525,19.619,48.525,44.127v71.912h-26.309v-66.115
	c0-13.612-6.357-25.197-22.231-25.197c-15.207,0-23.162,10.214-23.162,24.729v66.577H553.9l0.136-72.104
	C554.014,78.591,567.715,59.289,603.406,59.289z"/>
<path fill="#FFFFFF" d="M257.778,1.362c34.238,0,49.465,23.802,49.465,43.296c0,18.822-12.025,32.122-12.025,32.122
	c11.386,8.931,26.303,23.205,26.303,46.29c0,30.17-23.163,57.174-54.166,57.174c-20.336-0.391-58.174,0-58.174,0
	c-0.136-12.809-0.082-6.646,0.603-178.883L257.778,1.362L257.778,1.362z M252.572,71.455h6.212c13.96,0,20.947-14.507,20.947-24.387
	c0-9.059-7.93-21.193-21.183-21.193h-23.492v45.58v0.606v21.387c0,0,0,57.671,0,65.017c0-0.007,16.007,0.154,29.059,0
	c13.916-0.398,30.626-15.773,30.385-33.356c-0.232-17.296-15.117-31.51-29.954-31.51l-20.926-0.078V71.455H252.572L252.572,71.455z"
	/>
<path fill="#FFFFFF" d="M940.438,97.729"/>
<g>
	<polygon fill="#0B0800" points="1003.453,95.682 1025.703,118.064 1019.918,124.625 1023.258,151.505 1036.378,185.979 
		1036.378,177.493 1042.171,185.209 1032.392,162.567 1033.938,139.285 1039.724,132.213 1063.52,166.173 1070.727,194.086 
		1095.422,221.227 1105.199,220.584 1080.261,198.072 1080.261,179.81 1062.363,132.344 1061.592,122.693 1100.896,80.231 
		1082.381,67.404 1067.589,53.423 1058.76,43.843 1017.472,69.827 1007.54,88.136 1007.182,57.606 1011.555,42.3 1002.165,39.084 
		1005.122,31.105 1005.122,9.243 1000.362,38.825 988.399,45.645 984.536,40.775 962.486,35.987 987.501,46.801 981.199,70.213 
		982.869,84.49 990.072,81.019 992.259,109.06 994.577,114.077 987.758,130.798 998.048,120.636 1001.521,104.943 1011.684,110.861 
		1002.551,101.084 	"/>
	<polygon fill="#0B0800" points="1085.262,160.512 1090.403,168.101 1095.294,170.548 1100.312,184.31 1123.592,202.96 
		1132.725,202.527 1102.37,183.493 1102.242,176.464 1111.888,179.677 1127.837,180.065 1140.83,154.211 1145.976,136.844 
		1144.816,128.484 1131.566,133.37 1124.365,131.827 1124.235,138.389 	"/>
	<polygon fill="#F7BC2C" points="1007.54,88.136 1017.472,69.827 1033.164,38.825 1007.182,57.606 	"/>
	<polygon fill="#FEDC33" points="1033.164,38.825 1058.76,43.843 1017.472,69.827 	"/>
	<polygon fill="#FEDC33" points="1007.182,57.606 1033.164,38.825 1011.555,42.3 	"/>
	<polygon fill="#EACA42" points="1122.562,95.039 1144.816,128.484 1131.566,133.37 1124.365,131.827 	"/>
	<polygon fill="#FBE179" points="1122.562,95.039 1124.365,131.827 1088.733,103.014 	"/>
	<polygon fill="#F6D34C" points="1088.733,103.014 1085.262,160.512 1124.235,138.389 1124.365,131.827 	"/>
	<polygon fill="#C79B22" points="1088.733,103.014 1085.262,160.512 1062.363,132.344 1079.472,121.795 	"/>
	<polygon fill="#64350B" points="1122.562,95.039 1088.733,103.014 1079.472,121.795 1062.363,132.344 1061.592,122.693 
		1100.896,80.231 	"/>
	<polygon opacity="0.9" fill="#554130" enable-background="new    " points="1100.563,37.799 1067.589,53.423 1082.381,67.404 	"/>
	<polygon opacity="0.9" fill="#826C5B" enable-background="new    " points="1124.365,68.107 1082.381,67.404 1100.896,80.231 	"/>
	<polygon opacity="0.5" fill="#554130" enable-background="new    " points="1124.365,68.107 1082.381,67.404 1100.563,37.799 
		1185.978,31.882 1167.713,61.465 	"/>
	<polygon opacity="0.5" fill="#554130" enable-background="new    " points="1167.713,61.465 1185.978,31.882 1202.571,38.825 	"/>
	<polygon opacity="0.5" fill="#826C5B" enable-background="new    " points="1100.563,37.799 1147.648,1.651 1187.265,3.838 
		1185.978,31.882 	"/>
	<polygon opacity="0.5" fill="#826C5B" enable-background="new    " points="1124.365,68.107 1082.381,67.404 1100.563,37.799 
		1185.978,31.882 1167.713,61.465 	"/>
	<polygon fill="#D2C2AB" points="998.69,44.035 1001.521,47.332 992.544,47.332 	"/>
</g>
<g>
	
		<linearGradient id="SVGID_1_" gradientUnits="userSpaceOnUse" x1="163.3564" y1="31.9272" x2="163.3564" y2="-44.2489" gradientTransform="matrix(1 0 0 -1 54 213.8418)">
		<stop  offset="0" style="stop-color:#FFBE12"/>
		<stop  offset="0.3876" style="stop-color:#FFB21B"/>
		<stop  offset="0.4631" style="stop-color:#FFAD1F"/>
		<stop  offset="0.7237" style="stop-color:#FFA127"/>
		<stop  offset="0.984" style="stop-color:#FF9D2A"/>
	</linearGradient>
	<path fill="url(#SVGID_1_)" d="M217.313,232.411c4.412,0,7.96,3.551,7.96,7.879c0,4.324-3.55,7.874-7.96,7.874
		c-4.329,0-7.875-3.55-7.875-7.874C209.438,235.962,212.983,232.411,217.313,232.411z"/>
	
		<linearGradient id="SVGID_2_" gradientUnits="userSpaceOnUse" x1="251.4561" y1="31.9111" x2="251.4561" y2="-44.2441" gradientTransform="matrix(1 0 0 -1 54 213.8418)">
		<stop  offset="0" style="stop-color:#FFBE12"/>
		<stop  offset="0.3876" style="stop-color:#FFB21B"/>
		<stop  offset="0.4631" style="stop-color:#FFAD1F"/>
		<stop  offset="0.7237" style="stop-color:#FFA127"/>
		<stop  offset="0.984" style="stop-color:#FF9D2A"/>
	</linearGradient>
	<path fill="url(#SVGID_2_)" d="M319.086,247.559l-27.866-43.53v43.53h-11.943v-61.356h14.885l25.529,40.586v-40.586h11.943v61.356
		H319.086z"/>
	
		<linearGradient id="SVGID_3_" gradientUnits="userSpaceOnUse" x1="352.3237" y1="31.9111" x2="352.3237" y2="-44.2453" gradientTransform="matrix(1 0 0 -1 54 213.8418)">
		<stop  offset="0" style="stop-color:#FFBE12"/>
		<stop  offset="0.3876" style="stop-color:#FFB21B"/>
		<stop  offset="0.4631" style="stop-color:#FFAD1F"/>
		<stop  offset="0.7237" style="stop-color:#FFA127"/>
		<stop  offset="0.984" style="stop-color:#FF9D2A"/>
	</linearGradient>
	<path fill="url(#SVGID_3_)" d="M387.111,247.559v-61.356h38.424v11.25h-26.481v14.018h23.971v10.646h-23.971v14.193h26.481v11.25
		L387.111,247.559L387.111,247.559z"/>
	
		<linearGradient id="SVGID_4_" gradientUnits="userSpaceOnUse" x1="445.7437" y1="31.9111" x2="445.7437" y2="-44.2441" gradientTransform="matrix(1 0 0 -1 54 213.8418)">
		<stop  offset="0" style="stop-color:#FFBE12"/>
		<stop  offset="0.3876" style="stop-color:#FFB21B"/>
		<stop  offset="0.4631" style="stop-color:#FFAD1F"/>
		<stop  offset="0.7237" style="stop-color:#FFA127"/>
		<stop  offset="0.984" style="stop-color:#FF9D2A"/>
	</linearGradient>
	<path fill="url(#SVGID_4_)" d="M505.759,197.539v50.02H493.73v-50.02h-19.386v-11.337h50.798v11.337H505.759z"/>
	
		<linearGradient id="SVGID_5_" gradientUnits="userSpaceOnUse" x1="560.1519" y1="31.9111" x2="560.1519" y2="-44.2441" gradientTransform="matrix(1 0 0 -1 54 213.8418)">
		<stop  offset="0" style="stop-color:#FFBE12"/>
		<stop  offset="0.3876" style="stop-color:#FFB21B"/>
		<stop  offset="0.4631" style="stop-color:#FFAD1F"/>
		<stop  offset="0.7237" style="stop-color:#FFA127"/>
		<stop  offset="0.984" style="stop-color:#FF9D2A"/>
	</linearGradient>
	<path fill="url(#SVGID_5_)" d="M645.353,186.202h12.201l-16.962,61.356H628.3l-14.021-43.704l-14.02,43.704h-12.46l-17.05-61.356
		h12.634l11.252,42.23l13.586-42.23h12.374l13.676,42.404L645.353,186.202z"/>
	
		<linearGradient id="SVGID_6_" gradientUnits="userSpaceOnUse" x1="678.978" y1="31.9141" x2="678.978" y2="-44.2447" gradientTransform="matrix(1 0 0 -1 54 213.8418)">
		<stop  offset="0" style="stop-color:#FFBE12"/>
		<stop  offset="0.3876" style="stop-color:#FFB21B"/>
		<stop  offset="0.4631" style="stop-color:#FFAD1F"/>
		<stop  offset="0.7237" style="stop-color:#FFA127"/>
		<stop  offset="0.984" style="stop-color:#FF9D2A"/>
	</linearGradient>
	<path fill="url(#SVGID_6_)" d="M732.935,184.9c16.704,0,31.588,12.204,31.588,32.021c0,19.73-14.884,31.935-31.588,31.935
		c-16.613,0-31.5-12.204-31.5-31.935C701.434,197.104,716.321,184.9,732.935,184.9z M732.935,237.26
		c9.522,0,19.214-6.58,19.214-20.425c0-13.846-9.691-20.425-19.214-20.425c-9.432,0-19.124,6.579-19.124,20.425
		C713.811,230.682,723.503,237.26,732.935,237.26z"/>
	
		<linearGradient id="SVGID_7_" gradientUnits="userSpaceOnUse" x1="784.1719" y1="31.9111" x2="784.1719" y2="-44.2441" gradientTransform="matrix(1 0 0 -1 54 213.8418)">
		<stop  offset="0" style="stop-color:#FFBE12"/>
		<stop  offset="0.3876" style="stop-color:#FFB21B"/>
		<stop  offset="0.4631" style="stop-color:#FFAD1F"/>
		<stop  offset="0.7237" style="stop-color:#FFA127"/>
		<stop  offset="0.984" style="stop-color:#FF9D2A"/>
	</linearGradient>
	<path fill="url(#SVGID_7_)" d="M834.624,223.933h-6.23v23.626h-12.029v-61.356h23.975c11.941,0,19.556,8.222,19.556,18.864
		c0,8.567-5.017,15.058-13.067,17.396l13.153,25.097h-13.326L834.624,223.933z M838.086,213.634c6.058,0,9.608-3.459,9.608-8.482
		c0-5.188-3.551-8.563-9.608-8.563h-9.692v17.046H838.086z"/>
	
		<linearGradient id="SVGID_8_" gradientUnits="userSpaceOnUse" x1="884.085" y1="31.9111" x2="884.085" y2="-44.2441" gradientTransform="matrix(1 0 0 -1 54 213.8418)">
		<stop  offset="0" style="stop-color:#FFBE12"/>
		<stop  offset="0.3876" style="stop-color:#FFB21B"/>
		<stop  offset="0.4631" style="stop-color:#FFAD1F"/>
		<stop  offset="0.7237" style="stop-color:#FFA127"/>
		<stop  offset="0.984" style="stop-color:#FF9D2A"/>
	</linearGradient>
	<path fill="url(#SVGID_8_)" d="M931.468,222.113l-7.617,8.396v17.049h-11.943v-61.356h11.943v27.777l24.578-27.777h15.663
		l-24.316,26.739l24.489,34.617h-14.97L931.468,222.113z"/>
</g>
</svg>
