<?xml version="1.0" encoding="utf-8"?>
<!-- Generator: Adobe Illustrator 16.0.4, SVG Export Plug-In . SVG Version: 6.00 Build 0)  -->
<!DOCTYPE svg PUBLIC "-//W3C//DTD SVG 1.1//EN" "http://www.w3.org/Graphics/SVG/1.1/DTD/svg11.dtd">
<svg version="1.1" id="Layer_1" xmlns="http://www.w3.org/2000/svg" xmlns:xlink="http://www.w3.org/1999/xlink" x="0px" y="0px"
	 width="344.833px" height="265px" viewBox="0 0 344.833 265" enable-background="new 0 0 344.833 265" xml:space="preserve">
<polygon fill="#CCCCCC" points="10,60.25 10,93.25 46,74.984 46,42 "/>
<linearGradient id="SVGID_1_" gradientUnits="userSpaceOnUse" x1="-24.4209" y1="-476.4204" x2="-37.6358" y2="-450.1571" gradientTransform="matrix(1 0 0 -1 72 -386)">
	<stop  offset="0" style="stop-color:#FFFFFF;stop-opacity:0"/>
	<stop  offset="0.4471" style="stop-color:#C9C9C9;stop-opacity:0.4471"/>
	<stop  offset="0.8089" style="stop-color:#A4A4A4;stop-opacity:0.8089"/>
	<stop  offset="1" style="stop-color:#969696"/>
</linearGradient>
<polygon fill="url(#SVGID_1_)" points="87.25,91.75 46,74.984 10,93.25 49,114.209 "/>
<polyline fill="#F2F2F2" points="4,56.834 91,104.25 130,84 39,38 "/>
<linearGradient id="SVGID_2_" gradientUnits="userSpaceOnUse" x1="179.7603" y1="-605.4536" x2="151.2603" y2="-535.4536" gradientTransform="matrix(1 0 0 -1 72 -386)">
	<stop  offset="0" style="stop-color:#FFFFFF;stop-opacity:0"/>
	<stop  offset="0.0087" style="stop-color:#FDFDFD;stop-opacity:0.0087"/>
	<stop  offset="0.2106" style="stop-color:#D8D8D8;stop-opacity:0.2106"/>
	<stop  offset="0.4127" style="stop-color:#BBBBBB;stop-opacity:0.4127"/>
	<stop  offset="0.6127" style="stop-color:#A7A7A7;stop-opacity:0.6127"/>
	<stop  offset="0.8096" style="stop-color:#9A9A9A;stop-opacity:0.8096"/>
	<stop  offset="1" style="stop-color:#969696"/>
</linearGradient>
<polygon fill="url(#SVGID_2_)" points="339,219.5 263,178.5 167,225.5 243,264.209 "/>
<polygon fill="#E6E6E6" points="91,104.25 91,112.25 10,68.089 10,93.25 4,90.25 4,56.834 "/>
<path fill="#FFFFFF" stroke="#000000" stroke-miterlimit="10" d="M199.5,166.5"/>
<line fill="none" stroke="#D6D6D6" stroke-width="0.25" stroke-miterlimit="10" x1="96.193" y1="69.84" x2="64.516" y2="86.288"/>
<line fill="none" stroke="#D6D6D6" stroke-width="0.25" stroke-miterlimit="10" x1="80.193" y1="61.84" x2="48.516" y2="78.288"/>
<line fill="none" stroke="#D6D6D6" stroke-width="0.25" stroke-miterlimit="10" x1="65.193" y1="53.84" x2="33.516" y2="70.288"/>
<linearGradient id="SVGID_3_" gradientUnits="userSpaceOnUse" x1="256.6157" y1="-628.4922" x2="243.4497" y2="-602.3262" gradientTransform="matrix(1 0 0 -1 72 -386)">
	<stop  offset="0" style="stop-color:#FFFFFF;stop-opacity:0"/>
	<stop  offset="0.8543" style="stop-color:#969696"/>
</linearGradient>
<polygon fill="url(#SVGID_3_)" points="368.25,243.75 330,225.984 291,245.25 330,266.209 "/>
<ellipse fill="#F7BC2C" cx="57.915" cy="60.035" rx="5.554" ry="7.368"/>
<ellipse fill="#F7BC2C" cx="37.915" cy="49.035" rx="5.554" ry="7.368"/>
<ellipse fill="#FEDC33" cx="36.554" cy="49.715" rx="5.554" ry="7.369"/>
<ellipse fill="#F7BC2C" cx="79.915" cy="72.035" rx="5.554" ry="7.368"/>
<ellipse fill="#FEDC33" cx="78.554" cy="72.715" rx="5.554" ry="7.369"/>
<ellipse fill="#FEDC33" cx="56.554" cy="60.715" rx="5.554" ry="7.369"/>
<polygon fill="#E6E6E6" points="75,54 75,176 167,225.5 167,101.208 "/>
<polygon fill="#CCCCCC" points="263,56.5 263,178.5 167,225.5 167,101.208 "/>
<polygon fill="#F2F2F2" points="263,56.5 167,101.208 75,54 167.5,7 "/>
<path fill="#333333" d="M204,168.834l36.461-18.095c-0.729-12.673-1.068-35.415-21.586-23.864C204,135.25,204,146.837,204,168.834z"
	/>
<polyline fill="#F2F2F2" points="204,168.834 291,216.25 330,196 240.461,150.739 "/>
<polygon fill="#CCCCCC" points="291,216.25 291,245.25 330,225.984 330,196 "/>
<polygon fill="#E6E6E6" points="291,216.25 291,245.25 284.043,242.209 284.083,220.479 204,176.818 204,168.834 "/>
<linearGradient id="Shape_25_" gradientUnits="userSpaceOnUse" x1="-336.3481" y1="198.7061" x2="-336.1714" y2="198.7061" gradientTransform="matrix(-64.4134 0 0 -54.0788 -21550.9551 10907.3516)">
	<stop  offset="0" style="stop-color:#2D0874"/>
	<stop  offset="0.3667" style="stop-color:#2D08B5"/>
	<stop  offset="0.9662" style="stop-color:#2D64B5"/>
</linearGradient>
<path id="Shape" fill="url(#Shape_25_)" d="M106.663,166.364c-0.63,0.436-2.003,0.379-2.75,0.348l-0.867-0.146
	c-0.09,0-0.09-0.116-0.029-0.116c1.345-0.578,6.694-3.452,7.83-5.425c0.24-0.437-0.688-3.396-0.688-3.396l4.186-1.246
	c0,0-1.524,4.148-2.152,4.99C111.265,162.65,108.336,165.232,106.663,166.364z"/>
<linearGradient id="Shape_26_" gradientUnits="userSpaceOnUse" x1="-334.5132" y1="203.3516" x2="-333.4976" y2="203.7412" gradientTransform="matrix(-86.1583 0 0 -104.0395 -28649.3809 21293.4258)">
	<stop  offset="0.3051" style="stop-color:#2D0874"/>
	<stop  offset="0.8079" style="stop-color:#2D08B5"/>
	<stop  offset="0.9662" style="stop-color:#2D64B5"/>
</linearGradient>
<path id="Shape_1_" fill="url(#Shape_26_)" d="M136.939,121.586c0.479-0.493,2.004-1.016,2.721-0.929
	c0.029-0.581,0.15-1.625,0.329-2.061c0.389-1.16,2.003-3.801,2.72-4.904c0.03-0.088,0.15,0,0.119,0.087l-2.51,6.994
	c0.985,0.202,2.062,0.609,3.078,1.886c-0.029-0.028-0.09-0.086-0.09-0.115c0.149,0.145,0.24,0.232,0.24,0.232
	s0.745-1.161,1.104-1.393c1.165-0.697,4.692-1.161,6.008-1.307c0.09,0,0.119,0.115,0.03,0.115l-6.875,2.902
	c0,0,0.03,0.116,0.09,0.262c-0.03-0.088-0.09-0.116-0.12-0.203c-0.089-0.116-0.149-0.232-0.237-0.348
	c0.089,0.115,0.148,0.231,0.237,0.348c1.345,2.089,3.707,8.852,1.555,10.186c-2.87,1.742-9.805-6.965-9.805-6.965
	S136.043,122.515,136.939,121.586z"/>
<linearGradient id="Shape_27_" gradientUnits="userSpaceOnUse" x1="-335.4976" y1="206.9561" x2="-335.3218" y2="206.9561" gradientTransform="matrix(-110.8808 0 0 -148.7227 -37070.1133 30936.457)">
	<stop  offset="0.3051" style="stop-color:#2D0874"/>
	<stop  offset="0.5442" style="stop-color:#2D08B5"/>
	<stop  offset="0.9662" style="stop-color:#2D64B5"/>
</linearGradient>
<path id="Shape_2_" fill="url(#Shape_27_)" d="M110.728,171.561c0.986-0.668,6.276-4.295,7.172-6.297c0.509-1.191-0.21-3.34,0-5.227
	c0.03-0.607,1.106-3.945,1.106-3.945s2.839-7.283,4.274-9.432c2.002-2.932,3.975-3.744,5.918-3.25
	c2.031,0.551,0.598,3.047,0.598,3.047s-5.68,6.994-6.965,9.664c-0.867,1.855-1.165,6.123-2.121,7.98
	c-0.867,1.711-4.304,5.021-6.127,6.703c-0.717,0.668-1.675,1.016-2.661,0.928l-1.104-0.086
	C110.728,171.675,110.667,171.589,110.728,171.561z"/>
<linearGradient id="Shape_28_" gradientUnits="userSpaceOnUse" x1="-333.7715" y1="203.4277" x2="-333.7715" y2="203.1058" gradientTransform="matrix(-49.6682 0 0 -95.6681 -16439.9648 19581.5527)">
	<stop  offset="0" style="stop-color:#2D0874"/>
	<stop  offset="0.6643" style="stop-color:#2D08B5"/>
	<stop  offset="0.9662" style="stop-color:#2D64B5"/>
</linearGradient>
<path id="Shape_3_" fill="url(#Shape_28_)" d="M136.791,126.926c1.883-0.726,2.631-1.712,2.959,2.409
	c0.149,1.887,1.913,7.051,1.404,8.909c-0.119,0.379-0.716,1.422-0.746,1.828c-0.03,1.045,1.314,3.57,1.822,4.441
	c0.029,0.086-0.03,0.114-0.119,0.086c-0.688-0.552-2.302-1.943-2.749-2.67c-0.03-0.029-0.091-0.115-0.091-0.203
	c-0.239-0.377-0.598-1.131-0.688-2.205c-0.09-0.728,0.029-1.74-0.628-2.642c-0.328-0.377-4.513,0.695-4.513,0.695
	s4.543-1.652,4.424-2.293c-0.27-1.246-0.598-2.35-0.928-3.016C136.939,132.324,134.281,127.942,136.791,126.926z"/>
<linearGradient id="Shape_29_" gradientUnits="userSpaceOnUse" x1="-336.5713" y1="195.2373" x2="-336.5713" y2="195.6148" gradientTransform="matrix(-114.1236 0 0 -53.5578 -38318.6602 10594.3105)">
	<stop  offset="0.0547" style="stop-color:#91FFFF"/>
	<stop  offset="0.506" style="stop-color:#6D7FFF"/>
	<stop  offset="0.7303" style="stop-color:#80C3FF"/>
</linearGradient>
<path id="Shape_4_" fill="url(#Shape_29_)" d="M86.875,117.843c0.567-0.088,1.167-0.146,1.795-0.232
	c1.701,3.221,4.093,6.238,5.977,7.342c2.062,1.248,4.782,2.205,7.472,2.902c-3.077-0.494-5.499-1.016-6.964-1.394
	c-3.735-1.016-13.42-2.873-13.182-6.646C82.035,118.54,85.561,118.075,86.875,117.843z"/>
<linearGradient id="Shape_30_" gradientUnits="userSpaceOnUse" x1="-336.0337" y1="153.4424" x2="-335.6855" y2="153.4424" gradientTransform="matrix(-90.4224 0 0 -14.5516 -30266.8105 2361.4009)">
	<stop  offset="0.0017" style="stop-color:#3C7ADE"/>
	<stop  offset="0.7921" style="stop-color:#91FFFF"/>
</linearGradient>
<path id="Shape_5_" fill="url(#Shape_30_)" d="M117.811,127.275l0.09-0.088c0.119,0.203,0.149,0.32,0.149,0.32l-3.378,2.466
	c0,0-6.396-0.464-12.583-2.089C108.994,128.029,117.811,127.275,117.811,127.275z"/>
<linearGradient id="Shape_31_" gradientUnits="userSpaceOnUse" x1="-335.6973" y1="189.3906" x2="-335.6432" y2="189.228" gradientTransform="matrix(-46.4513 0 0 -38.6022 -15475.7617 7432.707)">
	<stop  offset="0" style="stop-color:#6DE5FF"/>
	<stop  offset="0.0078" style="stop-color:#6CE2FE"/>
	<stop  offset="0.0791" style="stop-color:#62C7F3"/>
	<stop  offset="0.16" style="stop-color:#5AB1EA"/>
	<stop  offset="0.2556" style="stop-color:#54A0E3"/>
	<stop  offset="0.3738" style="stop-color:#4F95DE"/>
	<stop  offset="0.5396" style="stop-color:#4D8EDB"/>
	<stop  offset="1" style="stop-color:#4C8CDA"/>
</linearGradient>
<path id="Shape_6_" fill="url(#Shape_31_)" d="M121.667,124.43l-3.707,3.338c-0.628-1.161-2.868-5.108-4.513-7.4
	C116.555,121.586,121.667,124.43,121.667,124.43z"/>
<linearGradient id="Shape_32_" gradientUnits="userSpaceOnUse" x1="-336.0967" y1="203.9014" x2="-335.9201" y2="203.9014" gradientTransform="matrix(-100.8107 0 0 -95.089 -33765.7852 19539.668)">
	<stop  offset="0.3051" style="stop-color:#2D0874"/>
	<stop  offset="0.8079" style="stop-color:#2D08B5"/>
	<stop  offset="0.9662" style="stop-color:#2D64B5"/>
</linearGradient>
<path id="Shape_7_" fill="url(#Shape_32_)" d="M116.407,154.525c0,0-0.568,1.016-1.465,1.77c-0.27,0.262-3.377,3.482-6.338,3.686
	c-5.888,0.377-8.248-5.225-9.024-7.168c-0.48-1.188-0.869-3.801-0.958-5.078c-0.029-0.608,0.358-2.409,0.358-2.409l2.78-1.043
	l2.152-2.525l2.659,5.658L116.407,154.525z"/>
<linearGradient id="Shape_33_" gradientUnits="userSpaceOnUse" x1="-338.397" y1="205.3789" x2="-323.1978" y2="209.0142" gradientTransform="matrix(-70.8626 0 0 -137.2864 -23580.1191 28467.3945)">
	<stop  offset="0.3051" style="stop-color:#2D0874"/>
	<stop  offset="0.5818" style="stop-color:#2D08B5"/>
	<stop  offset="0.9662" style="stop-color:#2D64B5"/>
</linearGradient>
<path id="Shape_8_" fill="url(#Shape_33_)" d="M138.225,135.574c0,0,2.003-0.783-3.437,3.803c-2.9,2.438,0.807,4.295,0.956,6.238
	c0.149,2.061-1.286,6.471-1.913,8.445c-0.627,2.002-3.139,7.776-3.139,7.776c0.029-0.494-0.03-0.812-0.149-0.959
	c-0.119-0.146-0.238-0.203-0.389-0.203c-0.329,0.029-0.717,0.349-0.956,0.668l-0.209,0.263c0,0,0.028-0.117,0.148-0.32
	c0.569-1.072,2.422-4.789,3.14-6.238c0.089-0.146,0.119-0.32,0.149-0.494c0.118-0.262,0.239-0.494,0.327-0.695
	c0.51-1.248,0.21-4.5-0.566-5.66c-0.958-1.424-2.481-1.77-2.481-1.77c-0.718-0.494-2.361-0.959-2.869-1.713
	c-0.091-0.115-0.808-1.393-0.808-1.51C125.642,140.508,138.225,135.574,138.225,135.574z"/>
<linearGradient id="Shape_34_" gradientUnits="userSpaceOnUse" x1="-293.7285" y1="-230.0156" x2="-279.506" y2="-222.6627" gradientTransform="matrix(-0.9019 0 0 -1.6169 -132.319 -207.2491)">
	<stop  offset="0.2791" style="stop-color:#1D1147"/>
	<stop  offset="0.7318" style="stop-color:#2D0874"/>
	<stop  offset="0.9965" style="stop-color:#5700BB"/>
</linearGradient>
<path id="Shape_9_" fill="url(#Shape_34_)" d="M129.199,161.287c-0.09,0.201-0.149,0.318-0.149,0.318
	S129.109,161.488,129.199,161.287z"/>
<linearGradient id="Shape_35_" gradientUnits="userSpaceOnUse" x1="-332.1177" y1="194.9336" x2="-330.9003" y2="194.9336" gradientTransform="matrix(-23.2257 0 0 -50.1222 -7574.4473 9899.5615)">
	<stop  offset="0" style="stop-color:#0021C1"/>
	<stop  offset="1" style="stop-color:#783D96"/>
</linearGradient>
<path id="Shape_10_" fill="url(#Shape_35_)" d="M139.211,133.891c0,0-1.674-5.918-4.095-9.604
	C138.076,127.275,139.062,131.222,139.211,133.891z"/>
<linearGradient id="Shape_36_" gradientUnits="userSpaceOnUse" x1="-342.1953" y1="73.873" x2="-339.3463" y2="73.873" gradientTransform="matrix(-9.9216 0 0 -6.0632 -3256.0012 579.684)">
	<stop  offset="0" style="stop-color:#0021C1"/>
	<stop  offset="1" style="stop-color:#783D96"/>
</linearGradient>
<path id="Shape_11_" fill="url(#Shape_36_)" d="M110.877,132.353c0,0,0.716-0.464,1.763-1.16l-1.524,1.045
	C110.965,132.324,110.877,132.353,110.877,132.353z"/>
<linearGradient id="Shape_37_" gradientUnits="userSpaceOnUse" x1="-334.1787" y1="4.5566" x2="-332.8359" y2="4.5566" gradientTransform="matrix(-13.755 0 0 -4.2442 -4461.6279 140.8956)">
	<stop  offset="0" style="stop-color:#0021C1"/>
	<stop  offset="1" style="stop-color:#783D96"/>
</linearGradient>
<path id="Shape_12_" fill="url(#Shape_37_)" d="M125.253,121.644c0.598-0.202,1.195-0.376,1.883-0.492
	c-0.836,0.203-1.644,0.492-2.421,0.812"/>
<linearGradient id="Shape_38_" gradientUnits="userSpaceOnUse" x1="-332.9419" y1="191.166" x2="-332.3059" y2="191.3229" gradientTransform="matrix(-18.7159 0 0 -35.1663 -6097.6289 6881.8027)">
	<stop  offset="0.2791" style="stop-color:#1D1147"/>
	<stop  offset="0.7318" style="stop-color:#2D0874"/>
	<stop  offset="0.9965" style="stop-color:#5700BB"/>
</linearGradient>
<path id="Shape_13_" fill="url(#Shape_38_)" d="M129.199,161.287c0.509-1.047,2.361-4.672,3.317-6.732
	c-0.03,0.201-0.119,0.346-0.149,0.492C131.649,156.469,129.738,160.213,129.199,161.287z"/>
<linearGradient id="Shape_39_" gradientUnits="userSpaceOnUse" x1="-339.0791" y1="57.0566" x2="-337.8606" y2="57.0566" gradientTransform="matrix(-14.657 0 0 -4.6485 -4853.4556 424.7344)">
	<stop  offset="0.3051" style="stop-color:#2D0874"/>
	<stop  offset="1" style="stop-color:#2D08B5"/>
</linearGradient>
<path id="Shape_14_" fill="url(#Shape_39_)" d="M108.842,159.951l2.603-0.898C111.445,159.08,109.71,159.75,108.842,159.951z"/>
<linearGradient id="Shape_40_" gradientUnits="userSpaceOnUse" x1="-335.8208" y1="204.6943" x2="-335.644" y2="204.6943" gradientTransform="matrix(-139.2009 0 0 -109.5455 -46623.3984 22567.6172)">
	<stop  offset="0" style="stop-color:#F498B4"/>
	<stop  offset="0.4502" style="stop-color:#F98060"/>
	<stop  offset="0.8846" style="stop-color:#FFA433"/>
</linearGradient>
<path id="Shape_15_" fill="url(#Shape_40_)" d="M105.137,136.27c0.089-0.145,0.209-0.26,0.328-0.375
	c0.988-0.899,4.812-2.09,4.812-2.09l5.382,3.627l3.256,4.381l4.215,4.703c0,0-3.258,7.226-6.874,8.096
	c-5.051,1.189-9.982-4.875-10.879-6.588c-0.81-1.508-1.047-4.032-1.316-4.178c-0.569-0.318-1.464,1.623-2.301,1.885
	c-0.988,0.351-1.228-0.145-2.632,0.117C96.531,146.371,103.494,138.127,105.137,136.27z"/>
<linearGradient id="Shape_41_" gradientUnits="userSpaceOnUse" x1="-334.8521" y1="200.0703" x2="-334.6689" y2="200.0703" gradientTransform="matrix(-82.7555 0 0 -72.5283 -27571.084 14638.3574)">
	<stop  offset="0" style="stop-color:#783D96"/>
	<stop  offset="1" style="stop-color:#3A2EAC"/>
</linearGradient>
<path id="Shape_16_" fill="url(#Shape_41_)" d="M139.301,134.529c-0.119-1.886-0.449-3.801-1.047-5.6
	c-0.597-1.829-1.434-3.629-2.72-5.138c-0.627-0.784-1.404-1.421-2.271-1.974c-0.867-0.492-1.823-0.898-2.84-1.044
	c-2.032-0.348-4.064,0.145-5.768,1.073c1.822-0.58,3.824-0.842,5.648-0.436c0.925,0.204,1.764,0.58,2.54,1.074
	c0.747,0.494,1.465,1.132,2.062,1.828c0.598,0.695,1.105,1.48,1.554,2.293c0.448,0.812,0.837,1.653,1.196,2.554
	C138.315,130.844,138.823,132.672,139.301,134.529z"/>
<linearGradient id="Shape_42_" gradientUnits="userSpaceOnUse" x1="-335.7676" y1="203.5107" x2="-335.5919" y2="203.5107" gradientTransform="matrix(-100.7081 0 0 -96.0389 -33691.0938 19685.1758)">
	<stop  offset="0" style="stop-color:#A250A4"/>
	<stop  offset="1" style="stop-color:#FF801F"/>
</linearGradient>
<path id="Shape_17_" fill="url(#Shape_42_)" d="M105.765,135.488c-0.507,0.957,3.257-3.106,8.758,1.711
	c4.184,3.629,5.798,11.492,6.485,12.102c0.747,0.668,1.585-1.537,2.242-2.67c0.598-1.016,0.09-5.369-0.837-7.631
	c-3.975-9.985-5.977-7.895-9.324-7.575C112.222,131.541,106.781,133.658,105.765,135.488z"/>
<linearGradient id="Shape_43_" gradientUnits="userSpaceOnUse" x1="-326.7544" y1="51.5234" x2="-326.5761" y2="51.5234" gradientTransform="matrix(-11.2002 0 0 -5.4464 -3517.4326 403.7194)">
	<stop  offset="0" style="stop-color:#6DBDFF"/>
	<stop  offset="1" style="stop-color:#3C63FF"/>
</linearGradient>
<path id="Shape_18_" opacity="0.81" fill="url(#Shape_43_)" enable-background="new    " d="M141.125,122.602
	c-0.329,0.029-1.075,0.464-0.717,0.696c0.448,0.262,1.584,0.581,1.883,0C142.41,122.98,141.602,122.486,141.125,122.602z"/>
<linearGradient id="Shape_44_" gradientUnits="userSpaceOnUse" x1="-160.8765" y1="-1976.5996" x2="-143.8064" y2="-1967.7745" gradientTransform="matrix(-0.451 0 0 -0.4043 69.6673 -676.3767)">
	<stop  offset="0.2791" style="stop-color:#1D1147"/>
	<stop  offset="0.7318" style="stop-color:#2D0874"/>
	<stop  offset="0.9965" style="stop-color:#5700BB"/>
</linearGradient>
<path id="Shape_19_" fill="url(#Shape_44_)" d="M138.015,120.832l0.091-0.028c0,0.028-0.03,0.028-0.03,0.087L138.015,120.832z"/>
<linearGradient id="Shape_45_" gradientUnits="userSpaceOnUse" x1="-330.6411" y1="118.812" x2="-329.8993" y2="119.4893" gradientTransform="matrix(-18.7159 0 0 -9.499 -6036.7539 1254.6946)">
	<stop  offset="0.2791" style="stop-color:#1D159B"/>
	<stop  offset="0.5591" style="stop-color:#2D0874"/>
	<stop  offset="0.9965" style="stop-color:#5700BB"/>
</linearGradient>
<path id="Shape_20_" fill="url(#Shape_45_)" d="M139.989,120.861l-0.03-0.116c1.076,0.146,2.183,0.552,3.318,1.829
	c-0.269-0.262-0.809-0.726-1.405-1.161C141.214,120.949,139.989,120.861,139.989,120.861z"/>
<linearGradient id="Shape_46_" gradientUnits="userSpaceOnUse" x1="-334.668" y1="201.5439" x2="-334.4915" y2="201.5439" gradientTransform="matrix(-74.1604 0 0 -82.9338 -24678.959 16842.2793)">
	<stop  offset="0" style="stop-color:#A250A4"/>
	<stop  offset="0.5056" style="stop-color:#FF8B00"/>
</linearGradient>
<path id="Shape_21_" fill="url(#Shape_46_)" d="M127.196,121.123c0.39-1.074,3.109-1.945,6.518-1.48
	c1.194,0.145,2.719,0.784,3.705,1.741c1.704,1.653,2.54,4.382,2.72,6.993c0.209,3.338-1.404,6.995-1.404,6.995
	s0.448-1.828,0.357-2.205c0.031,0.231,0.031,0.349,0.031,0.349s-0.031-0.261-0.121-0.698c-0.149-0.696-0.358-2.583-0.567-3.511
	c-0.508-2.119-2.123-4.498-4.633-6.355C128.84,118.8,126.449,123.183,127.196,121.123z"/>
<linearGradient id="Shape_47_" gradientUnits="userSpaceOnUse" x1="-336.1587" y1="199.1953" x2="-335.9513" y2="199.1953" gradientTransform="matrix(-151.8742 0 0 -72.342 -50935.7383 14523.3594)">
	<stop  offset="0.0236" style="stop-color:#4C8CDA"/>
	<stop  offset="0.7524" style="stop-color:#6DFFFF"/>
</linearGradient>
<path id="Shape_22_" fill="url(#Shape_47_)" d="M88.669,117.64c-1.884-3.57-2.87-7.343-1.347-9.2
	c1.585-1.944,4.035-3.163,8.968-1.363c7.293,2.669,12.731,8.097,17.126,12.972c-0.566-0.232-1.075-0.377-1.463-0.493
	C106.363,118.162,95.275,117.06,88.669,117.64z"/>
<linearGradient id="Shape_48_" gradientUnits="userSpaceOnUse" x1="-335.9722" y1="195.7881" x2="-335.7814" y2="195.7881" gradientTransform="matrix(-168.217 0 0 -54.469 -56397.707 10787.0469)">
	<stop  offset="0.0035" style="stop-color:#0079B3"/>
	<stop  offset="1" style="stop-color:#3CACFF"/>
</linearGradient>
<path id="Shape_23_" fill="url(#Shape_48_)" d="M88.669,117.64c6.605-0.58,17.724,0.493,23.253,1.887
	c0.389,0.115,0.928,0.26,1.465,0.492c1.644,2.207,3.856,6.037,4.514,7.168l0.479,0.203c0,0-9.386,0.609-16.29,0.494
	c-2.749-0.726-5.441-1.654-7.473-2.901C92.764,123.849,90.342,120.861,88.669,117.64z"/>
<linearGradient id="Shape_49_" gradientUnits="userSpaceOnUse" x1="-335.3423" y1="205.8926" x2="-335.2242" y2="206.0919" gradientTransform="matrix(-165.2341 0 0 -140.7286 -55273.4023 29121.6797)">
	<stop  offset="0.3051" style="stop-color:#2D0874"/>
	<stop  offset="0.8079" style="stop-color:#2D08B5"/>
	<stop  offset="0.9662" style="stop-color:#2D64B5"/>
</linearGradient>
<path id="Shape_24_" fill="url(#Shape_49_)" d="M139.929,131.396c-0.09,2.118-0.747,3.917-1.315,4.672
	c-1.046,1.508-3.824,2.699-7.113,4.178c-4.902,2.178-8.787,7.516-8.787,7.516s2.031-8.211-3.198-13.318
	c-4.454-4.324-8.608-2.119-8.669-2.292c-0.807-1.422,5.53-3.396,7.322-4.73c1.883-1.393,4.454-4.527,7.085-5.804
	c1.792-0.842,4.215-1.364,7.562,0.087C137.119,123.56,140.019,128.376,139.929,131.396z"/>
<polygon fill="#CCCCCC" points="291,222.25 291,245.25 330,225.984 330,203 "/>
<line fill="none" stroke="#D6D6D6" stroke-width="0.25" stroke-miterlimit="10" x1="312.194" y1="189.84" x2="280.516" y2="206.288"/>
<line fill="none" stroke="#D6D6D6" stroke-width="0.25" stroke-miterlimit="10" x1="297.193" y1="181.84" x2="265.516" y2="198.288"/>
<line fill="none" stroke="#D6D6D6" stroke-width="0.25" stroke-miterlimit="10" x1="281.193" y1="173.84" x2="249.516" y2="190.288"/>
<line fill="none" stroke="#D6D6D6" stroke-width="0.25" stroke-miterlimit="10" x1="266.193" y1="165.84" x2="234.516" y2="182.288"/>
<path fill="#CCCCCC" stroke="#B3B3B3" stroke-width="0.25" stroke-miterlimit="10" d="M234.516,182.288"/>
<path fill="#CCCCCC" stroke="#B3B3B3" stroke-width="0.25" stroke-miterlimit="10" d="M266.193,165.84"/>
<line fill="none" stroke="#D6D6D6" stroke-width="0.25" stroke-miterlimit="10" x1="251.193" y1="157.84" x2="219.516" y2="174.288"/>
<line fill="none" stroke="#D6D6D6" stroke-width="0.25" stroke-miterlimit="10" x1="50.193" y1="45.84" x2="18.516" y2="62.288"/>
<linearGradient id="SVGID_4_" gradientUnits="userSpaceOnUse" x1="266.0005" y1="-24.1836" x2="286.0005" y2="-24.1836" gradientTransform="matrix(1 0 0 -1 -36 140)">
	<stop  offset="0" style="stop-color:#2D0874"/>
	<stop  offset="1" style="stop-color:#2D08B5"/>
</linearGradient>
<polygon fill="url(#SVGID_4_)" points="230,157.95 230,170.146 240,175.5 250,170.438 250,158.242 240,152.867 "/>
<linearGradient id="SVGID_5_" gradientUnits="userSpaceOnUse" x1="292.9585" y1="-38.1426" x2="312.9585" y2="-38.1426" gradientTransform="matrix(1 0 0 -1 -36 140)">
	<stop  offset="0" style="stop-color:#2D0874"/>
	<stop  offset="1" style="stop-color:#2D08B5"/>
</linearGradient>
<polygon fill="url(#SVGID_5_)" points="256.958,171.909 256.958,184.105 266.958,189.459 276.958,184.397 276.958,172.201 
	266.958,166.826 "/>
<linearGradient id="SVGID_6_" gradientUnits="userSpaceOnUse" x1="320.0005" y1="-53.1836" x2="340.0005" y2="-53.1836" gradientTransform="matrix(1 0 0 -1 -36 140)">
	<stop  offset="0" style="stop-color:#2D0874"/>
	<stop  offset="1" style="stop-color:#2D08B5"/>
</linearGradient>
<polygon fill="url(#SVGID_6_)" points="284,186.95 284,199.146 294,204.5 304,199.438 304,187.242 294,181.867 "/>
<g>
	
		<linearGradient id="SVGID_7_" gradientUnits="userSpaceOnUse" x1="271.0015" y1="-35.4995" x2="271.0015" y2="-17.9497" gradientTransform="matrix(1 0 0 -1 -36 140)">
		<stop  offset="0" style="stop-color:#2D089A"/>
		<stop  offset="1" style="stop-color:#2D3BB5"/>
	</linearGradient>
	<polygon fill="url(#SVGID_7_)" points="230,157.95 230,170.146 240,175.5 240,163.057 	"/>
	
		<linearGradient id="SVGID_8_" gradientUnits="userSpaceOnUse" x1="285.9995" y1="-26.8599" x2="275.9995" y2="-26.8599" gradientTransform="matrix(1 0 0 -1 -36 140)">
		<stop  offset="0" style="stop-color:#2D0874"/>
		<stop  offset="1" style="stop-color:#2D08B5"/>
	</linearGradient>
	<polygon fill="url(#SVGID_8_)" points="250,158.221 250,170.416 240,175.5 240,163.057 	"/>
	
		<linearGradient id="SVGID_9_" gradientUnits="userSpaceOnUse" x1="282.647" y1="-13.4292" x2="269.351" y2="-22.7392" gradientTransform="matrix(1 0 0 -1 -36 140)">
		<stop  offset="0" style="stop-color:#2D08B5"/>
		<stop  offset="0.9662" style="stop-color:#2D64B5"/>
	</linearGradient>
	<polygon fill="url(#SVGID_9_)" points="250,158.221 240,163.057 229.997,157.95 240,152.867 	"/>
</g>
<g>
	
		<linearGradient id="SVGID_10_" gradientUnits="userSpaceOnUse" x1="298.0015" y1="-49.4995" x2="298.0015" y2="-31.9497" gradientTransform="matrix(1 0 0 -1 -36 140)">
		<stop  offset="0" style="stop-color:#2D089A"/>
		<stop  offset="1" style="stop-color:#2D3BB5"/>
	</linearGradient>
	<polygon fill="url(#SVGID_10_)" points="257,171.95 257,184.146 267,189.5 267,177.057 	"/>
	
		<linearGradient id="SVGID_11_" gradientUnits="userSpaceOnUse" x1="312.9995" y1="-40.8599" x2="302.9995" y2="-40.8599" gradientTransform="matrix(1 0 0 -1 -36 140)">
		<stop  offset="0" style="stop-color:#2D0874"/>
		<stop  offset="1" style="stop-color:#2D08B5"/>
	</linearGradient>
	<polygon fill="url(#SVGID_11_)" points="277,172.221 277,184.416 267,189.5 267,177.057 	"/>
	
		<linearGradient id="SVGID_12_" gradientUnits="userSpaceOnUse" x1="309.645" y1="-27.4307" x2="296.3498" y2="-36.74" gradientTransform="matrix(1 0 0 -1 -36 140)">
		<stop  offset="0" style="stop-color:#2D08B5"/>
		<stop  offset="0.9662" style="stop-color:#2D64B5"/>
	</linearGradient>
	<polygon fill="url(#SVGID_12_)" points="277,172.221 267,177.057 256.997,171.95 267,166.867 	"/>
</g>
<g>
	
		<linearGradient id="SVGID_13_" gradientUnits="userSpaceOnUse" x1="325.0015" y1="-64.4995" x2="325.0015" y2="-46.9497" gradientTransform="matrix(1 0 0 -1 -36 140)">
		<stop  offset="0" style="stop-color:#2D089A"/>
		<stop  offset="1" style="stop-color:#2D3BB5"/>
	</linearGradient>
	<polygon fill="url(#SVGID_13_)" points="284,186.95 284,199.146 294,204.5 294,192.057 	"/>
	
		<linearGradient id="SVGID_14_" gradientUnits="userSpaceOnUse" x1="339.9995" y1="-55.8599" x2="329.9995" y2="-55.8599" gradientTransform="matrix(1 0 0 -1 -36 140)">
		<stop  offset="0" style="stop-color:#2D0874"/>
		<stop  offset="1" style="stop-color:#2D08B5"/>
	</linearGradient>
	<polygon fill="url(#SVGID_14_)" points="304,187.221 304,199.416 294,204.5 294,192.057 	"/>
	
		<linearGradient id="SVGID_15_" gradientUnits="userSpaceOnUse" x1="336.646" y1="-42.4312" x2="323.3507" y2="-51.7405" gradientTransform="matrix(1 0 0 -1 -36 140)">
		<stop  offset="0" style="stop-color:#2D08B5"/>
		<stop  offset="0.9662" style="stop-color:#2D64B5"/>
	</linearGradient>
	<polygon fill="url(#SVGID_15_)" points="304,187.221 294,192.057 283.997,186.95 294,181.867 	"/>
</g>
<g>
	<g>
		<path fill="#FFFFFF" d="M236.598,164.65l-0.18-0.137c-0.021-0.021-0.047-0.027-0.078-0.023c-0.029,0.002-0.055,0.016-0.074,0.039
			l-2.885,3.515c-0.021,0.022-0.025,0.05-0.021,0.08c0.002,0.03,0.018,0.054,0.041,0.075l0.178,0.136
			c0.023,0.021,0.049,0.026,0.08,0.024c0.029-0.004,0.055-0.019,0.074-0.041l2.885-3.514c0.019-0.023,0.025-0.053,0.021-0.08
			C236.635,164.695,236.622,164.671,236.598,164.65z"/>
		<path fill="#FFFFFF" d="M234.471,164.684c0.012-0.026,0.01-0.056-0.004-0.086l-0.094-0.225c-0.016-0.029-0.033-0.049-0.062-0.062
			c-0.027-0.011-0.059-0.011-0.088,0.002l-2.104,0.821c-0.031,0.011-0.053,0.031-0.062,0.058c-0.016,0.027-0.014,0.059,0,0.086
			l0.893,2.078c0.014,0.03,0.031,0.053,0.061,0.062c0.029,0.014,0.059,0.014,0.088,0.001l0.227-0.088
			c0.031-0.015,0.051-0.031,0.062-0.06c0.013-0.025,0.011-0.057-0.002-0.084l-0.752-1.752l1.775-0.693
			C234.438,164.729,234.459,164.708,234.471,164.684z"/>
		<path fill="#FFFFFF" d="M237.941,167.573l-0.894-2.078c-0.012-0.03-0.032-0.052-0.062-0.062c-0.026-0.015-0.06-0.015-0.088,0
			l-0.228,0.088c-0.028,0.013-0.051,0.028-0.062,0.059c-0.012,0.027-0.012,0.055,0.002,0.085l0.753,1.752l-1.777,0.694
			c-0.028,0.011-0.051,0.029-0.062,0.057c-0.012,0.027-0.01,0.057,0.002,0.086l0.095,0.223c0.015,0.029,0.033,0.051,0.062,0.062
			c0.027,0.011,0.059,0.011,0.088,0l2.105-0.823c0.029-0.011,0.051-0.03,0.062-0.058
			C237.954,167.631,237.954,167.604,237.941,167.573z"/>
	</g>
</g>
<g>
	<g>
		<path fill="#FFFFFF" d="M265.893,180.152c-0.25,0.011-0.504-0.014-0.756-0.078c0.303-0.053,0.582-0.213,0.779-0.457
			c-0.285,0.048-0.578,0.048-0.871-0.004c-0.127-0.316-0.381-0.581-0.727-0.715c-0.654-0.254-1.396,0.068-1.65,0.729
			c-0.035,0.096-0.062,0.188-0.072,0.283c-0.975-0.436-1.666-1.249-1.975-2.197c-0.172,0.137-0.312,0.316-0.396,0.535
			c-0.16,0.413-0.094,0.859,0.146,1.197c-0.192-0.081-0.354-0.206-0.481-0.358l-0.007,0.017c-0.223,0.576,0,1.22,0.502,1.539
			c-0.108-0.014-0.221-0.037-0.327-0.08c-0.078-0.027-0.149-0.064-0.218-0.107c-0.032,0.531,0.273,1.048,0.793,1.26
			c-0.532,0.161-1.12,0.151-1.68-0.064c-0.097-0.037-0.188-0.08-0.277-0.127c0.396,0.545,0.945,0.982,1.619,1.246
			c2.19,0.852,4.095-0.5,4.705-2.074l0.058-0.155C265.357,180.459,265.641,180.328,265.893,180.152z"/>
	</g>
</g>
<g>
	<g>
		<g>
			<path fill="#FFFFFF" d="M289.391,196.37L289.391,196.37l-0.455-0.906l0.014-0.005c0.643-0.359,1.18-0.848,1.59-1.414l0.787,0.268
				l0.18-0.539l-1.877-0.638l0.186-0.536l-0.539-0.183l-0.184,0.537l-1.881-0.638l-0.18,0.533l2.998,1.018
				c-0.355,0.457-0.807,0.852-1.34,1.15c-0.154-0.363-0.26-0.733-0.314-1.11l-0.535-0.183c0.049,0.504,0.178,1.01,0.385,1.494
				l-1.822,0.887l0.25,0.51l1.801-0.885l0.551,1.117L289.391,196.37z"/>
			<path fill="#FFFFFF" d="M291.361,195.521l-0.536-0.186l-2.302,2.812l0.537,0.182l0.575-0.702l1.273,0.437l0.028,0.904
				l0.537,0.187L291.361,195.521z M290.021,197.161l0.83-1.017l0.041,1.312L290.021,197.161z"/>
		</g>
	</g>
</g>
</svg>
