<?xml version="1.0" encoding="utf-8"?>
<!-- Generator: Adobe Illustrator 16.0.4, SVG Export Plug-In . SVG Version: 6.00 Build 0)  -->
<!DOCTYPE svg PUBLIC "-//W3C//DTD SVG 1.1//EN" "http://www.w3.org/Graphics/SVG/1.1/DTD/svg11.dtd">
<svg version="1.1" id="Layer_1" xmlns="http://www.w3.org/2000/svg" xmlns:xlink="http://www.w3.org/1999/xlink" x="0px" y="0px"
	 width="165.5px" height="125.5px" viewBox="0 0 165.5 125.5" enable-background="new 0 0 165.5 125.5" xml:space="preserve">
<polygon fill="#CCCCCC" points="347.5,-56.75 347.5,-23.75 383.5,-42.016 383.5,-75 "/>
<ellipse transform="matrix(0.8382 -0.5453 0.5453 0.8382 -24.9097 49.6805)" fill="none" stroke="#808080" stroke-miterlimit="10" cx="71.282" cy="66.826" rx="76.367" ry="37.249"/>
<linearGradient id="SVGID_1_" gradientUnits="userSpaceOnUse" x1="385.0781" y1="-26.5801" x2="371.8635" y2="-52.8427">
	<stop  offset="0" style="stop-color:#FFFFFF;stop-opacity:0"/>
	<stop  offset="0.4471" style="stop-color:#C9C9C9;stop-opacity:0.4471"/>
	<stop  offset="0.8089" style="stop-color:#A4A4A4;stop-opacity:0.8089"/>
	<stop  offset="1" style="stop-color:#969696"/>
</linearGradient>
<polygon fill="url(#SVGID_1_)" points="424.75,-25.25 383.5,-42.016 347.5,-23.75 386.5,-2.791 "/>
<polyline fill="#F2F2F2" points="341.5,-60.166 428.5,-12.75 467.5,-33 376.5,-79 "/>
<ellipse transform="matrix(1 -0.0043 0.0043 1 -0.2805 0.3327)" fill="none" stroke="#808080" stroke-miterlimit="10" cx="77.355" cy="65.5" rx="76.367" ry="37.25"/>
<linearGradient id="SVGID_2_" gradientUnits="userSpaceOnUse" x1="589.2588" y1="102.4517" x2="560.7588" y2="32.4517">
	<stop  offset="0" style="stop-color:#FFFFFF;stop-opacity:0"/>
	<stop  offset="0.0087" style="stop-color:#FDFDFD;stop-opacity:0.0087"/>
	<stop  offset="0.2106" style="stop-color:#D8D8D8;stop-opacity:0.2106"/>
	<stop  offset="0.4127" style="stop-color:#BBBBBB;stop-opacity:0.4127"/>
	<stop  offset="0.6127" style="stop-color:#A7A7A7;stop-opacity:0.6127"/>
	<stop  offset="0.8096" style="stop-color:#9A9A9A;stop-opacity:0.8096"/>
	<stop  offset="1" style="stop-color:#969696"/>
</linearGradient>
<polygon fill="url(#SVGID_2_)" points="676.5,102.5 600.5,61.5 504.5,108.5 580.5,147.209 "/>
<polygon fill="#E6E6E6" points="428.5,-12.75 428.5,-4.75 347.5,-48.911 347.5,-23.75 341.5,-26.75 341.5,-60.166 "/>
<path fill="#FFFFFF" stroke="#000000" stroke-miterlimit="10" d="M537,49.5"/>
<line fill="#CCCCCC" stroke="#D6D6D6" stroke-width="0.25" stroke-miterlimit="10" x1="433.693" y1="-47.16" x2="402.016" y2="-30.712"/>
<radialGradient id="SVGID_3_" cx="91.8335" cy="43" r="78.0461" gradientUnits="userSpaceOnUse">
	<stop  offset="0" style="stop-color:#FFFFFF"/>
	<stop  offset="1" style="stop-color:#93B1BD"/>
</radialGradient>
<circle fill="url(#SVGID_3_)" cx="74.167" cy="64.333" r="51.667"/>
<line fill="#CCCCCC" stroke="#D6D6D6" stroke-width="0.25" stroke-miterlimit="10" x1="417.693" y1="-55.16" x2="386.016" y2="-38.712"/>
<line fill="#CCCCCC" stroke="#D6D6D6" stroke-width="0.25" stroke-miterlimit="10" x1="402.693" y1="-63.16" x2="371.016" y2="-46.712"/>
<linearGradient id="SVGID_4_" gradientUnits="userSpaceOnUse" x1="666.1143" y1="125.4922" x2="652.9486" y2="99.3269">
	<stop  offset="0" style="stop-color:#FFFFFF;stop-opacity:0"/>
	<stop  offset="0.8543" style="stop-color:#969696"/>
</linearGradient>
<polygon fill="url(#SVGID_4_)" points="705.75,126.75 667.5,108.984 628.5,128.25 667.5,149.209 "/>
<line fill="#CCCCCC" stroke="#D6D6D6" stroke-width="0.25" stroke-miterlimit="10" x1="649.693" y1="72.84" x2="618.016" y2="89.288"/>
<line fill="#CCCCCC" stroke="#D6D6D6" stroke-width="0.25" stroke-miterlimit="10" x1="634.693" y1="64.84" x2="603.016" y2="81.288"/>
<line fill="#CCCCCC" stroke="#D6D6D6" stroke-width="0.25" stroke-miterlimit="10" x1="618.693" y1="56.84" x2="587.016" y2="73.288"/>
<line fill="#CCCCCC" stroke="#D6D6D6" stroke-width="0.25" stroke-miterlimit="10" x1="603.693" y1="48.84" x2="572.016" y2="65.288"/>
<path fill="#CCCCCC" stroke="#B3B3B3" stroke-width="0.25" stroke-miterlimit="10" d="M572.016,65.288"/>
<path fill="#CCCCCC" stroke="#B3B3B3" stroke-width="0.25" stroke-miterlimit="10" d="M603.693,48.84"/>
<line fill="#CCCCCC" stroke="#D6D6D6" stroke-width="0.25" stroke-miterlimit="10" x1="588.693" y1="40.84" x2="557.016" y2="57.288"/>
<line fill="#CCCCCC" stroke="#D6D6D6" stroke-width="0.25" stroke-miterlimit="10" x1="387.693" y1="-71.16" x2="356.016" y2="-54.712"/>
<radialGradient id="SVGID_5_" cx="91.8335" cy="43" r="78.0461" gradientUnits="userSpaceOnUse">
	<stop  offset="0" style="stop-color:#FFFFFF"/>
	<stop  offset="1" style="stop-color:#93B1BD"/>
</radialGradient>
<circle opacity="0.29" fill="url(#SVGID_5_)" cx="74.167" cy="64.333" r="51.667"/>
<g>
	<polygon fill="#0B0800" points="57.469,60.212 62.42,67.008 60.631,68.501 60.423,75.715 62.48,85.322 62.825,83.087 
		64.037,85.353 62.379,78.996 63.729,72.929 65.54,71.3 70.429,81.205 71.195,88.847 76.598,96.992 79.199,97.22 73.545,90.284 
		74.285,85.474 71.494,72.253 71.682,69.681 83.751,60.093 79.395,55.965 76.066,51.685 74.131,48.806 62.207,53.975 58.852,58.392 
		59.993,50.34 61.765,46.488 59.423,45.26 60.524,43.279 61.41,37.523 58.959,45.119 55.533,46.43 54.713,44.992 49.102,42.837 
		55.25,46.699 52.642,52.606 52.503,56.433 54.54,55.812 53.98,63.283 54.387,64.697 51.915,68.823 55.035,66.564 56.585,62.574 
		59.021,64.544 57.013,61.6 	"/>
	<polygon fill="#0B0800" points="76.382,80.596 77.43,82.802 78.617,83.645 79.381,87.47 84.754,93.326 87.178,93.582 
		79.956,87.341 80.207,85.483 82.616,86.72 86.801,87.468 91.268,81.187 93.326,76.824 93.36,74.576 89.673,75.327 87.839,74.628 
		87.541,76.351 	"/>
	<polygon fill="#F7BC2C" points="58.852,58.392 62.207,53.975 67.595,46.447 59.993,50.34 	"/>
	<polygon fill="#FEDC33" points="67.595,46.447 74.131,48.806 62.207,53.975 	"/>
	<polygon fill="#FEDC33" points="59.993,50.34 67.595,46.447 61.765,46.488 	"/>
	<polygon fill="#EACA42" points="88.855,64.869 93.36,74.576 89.673,75.327 87.839,74.628 	"/>
	<polygon fill="#FBE179" points="88.855,64.869 87.839,74.628 79.625,65.598 	"/>
	<polygon fill="#F6D34C" points="79.625,65.598 76.382,80.596 87.541,76.351 87.839,74.628 	"/>
	<polygon fill="#C79B22" points="79.625,65.598 76.382,80.596 71.494,72.253 76.427,70.167 	"/>
	<polygon fill="#64350B" points="88.855,64.869 79.625,65.598 76.427,70.167 71.494,72.253 71.682,69.681 83.751,60.093 	"/>
	<polygon opacity="0.9" fill="#554130" enable-background="new    " points="85.382,48.908 76.066,51.685 79.395,55.965 	"/>
	<polygon opacity="0.9" fill="#826C5B" enable-background="new    " points="90.421,57.851 79.395,55.965 83.751,60.093 	"/>
	<polygon opacity="0.5" fill="#554130" enable-background="new    " points="90.421,57.851 79.395,55.965 85.382,48.908 
		108.11,50.81 102.104,57.859 	"/>
	<polygon opacity="0.5" fill="#554130" enable-background="new    " points="102.104,57.859 108.11,50.81 112.198,53.31 	"/>
	<polygon opacity="0.5" fill="#826C5B" enable-background="new    " points="85.382,48.908 99.244,41.298 109.586,43.478 
		108.11,50.81 	"/>
	<polygon opacity="0.5" fill="#826C5B" enable-background="new    " points="90.421,57.851 79.395,55.965 85.382,48.908 
		108.11,50.81 102.104,57.859 	"/>
	<polygon fill="#D2C2AB" points="58.307,46.423 58.92,47.406 56.556,47.042 	"/>
</g>
<radialGradient id="SVGID_6_" cx="91.8335" cy="43" r="78.0461" gradientUnits="userSpaceOnUse">
	<stop  offset="0" style="stop-color:#FFFFFF"/>
	<stop  offset="1" style="stop-color:#93B1BD"/>
</radialGradient>
<circle opacity="0.18" fill="url(#SVGID_6_)" cx="74.167" cy="64.333" r="51.667"/>
<ellipse fill="#F7BC2C" cx="375.415" cy="-67.965" rx="5.554" ry="7.368"/>
<ellipse fill="#FEDC33" cx="374.055" cy="-67.285" rx="5.555" ry="7.369"/>
<ellipse fill="#F7BC2C" cx="417.415" cy="-44.965" rx="5.554" ry="7.368"/>
<ellipse fill="#FEDC33" cx="416.055" cy="-44.285" rx="5.555" ry="7.369"/>
<g>
	<ellipse fill="#F7BC2C" cx="7.219" cy="52.035" rx="6.25" ry="7.368"/>
	<ellipse fill="#FEDC33" cx="8.75" cy="52.715" rx="6.25" ry="7.369"/>
</g>
<polygon fill="#E6E6E6" points="412.5,-63 412.5,59 504.5,108.5 504.5,-15.792 "/>
<polygon fill="#CCCCCC" points="600.5,-60.5 600.5,61.5 504.5,108.5 504.5,-15.792 "/>
<path fill="#333333" d="M541.5,51.834l36.462-18.095c-0.727-12.672-1.07-35.415-21.587-23.864
	C541.5,18.25,541.5,29.837,541.5,51.834z"/>
<polyline fill="#F2F2F2" points="541.5,51.834 628.5,99.25 667.5,79 577.962,33.739 "/>
<polygon fill="#CCCCCC" points="628.5,99.25 628.5,128.25 667.5,108.984 667.5,79 "/>
<polygon fill="#E6E6E6" points="628.5,99.25 628.5,128.25 621.543,125.209 621.582,103.479 541.5,59.818 541.5,51.834 "/>
<path fill="none" stroke="#808080" stroke-miterlimit="10" d="M135.297,25.183c11.218,17.245-8.349,49.868-43.702,72.867
	c-35.354,22.999-73.108,27.664-84.326,10.419"/>
<g>
	<ellipse fill="#F7BC2C" cx="21.219" cy="116.035" rx="6.25" ry="7.368"/>
	<ellipse fill="#FEDC33" cx="22.75" cy="116.715" rx="6.25" ry="7.369"/>
</g>
<polygon fill="#CCCCCC" points="628.5,105.25 628.5,128.25 667.5,108.984 667.5,86 "/>
<path fill="none" stroke="#808080" stroke-miterlimit="10" d="M151.168,74.848c-8.656,15.925-38.329,27.75-73.652,27.902
	C35.34,102.93,1.078,86.399,0.989,65.828"/>
<g>
	<g>
		<polygon fill="#2F4E66" points="135.5,10.95 135.5,23.146 125.5,28.5 125.5,16.057 		"/>
		<polygon fill="#1D3246" points="115.5,11.221 115.5,23.416 125.5,28.5 125.5,16.057 		"/>
		<polygon fill="#385C75" points="115.5,11.221 125.5,16.057 135.496,10.95 125.662,5.867 		"/>
	</g>
	<g>
		<g>
			<g>
				<path fill="#FFFFFF" d="M130.903,19.87L130.903,19.87l0.446-0.906l-0.012-0.005c-0.631-0.36-1.159-0.847-1.563-1.414
					l-0.772,0.267l-0.178-0.538l1.845-0.638l-0.18-0.536l0.529-0.183l0.179,0.537l1.849-0.638l0.177,0.534l-2.948,1.017
					c0.352,0.457,0.794,0.852,1.317,1.151c0.152-0.364,0.255-0.734,0.31-1.111l0.527-0.182c-0.047,0.504-0.173,1.01-0.377,1.496
					l1.791,0.885l-0.246,0.509l-1.767-0.885l-0.543,1.118L130.903,19.87z"/>
				<path fill="#FFFFFF" d="M128.964,19.021l0.527-0.183l2.262,2.812l-0.528,0.181l-0.565-0.702l-1.252,0.435l-0.03,0.906
					l-0.527,0.184L128.964,19.021z M130.283,20.661l-0.816-1.016l-0.041,1.312L130.283,20.661z"/>
			</g>
		</g>
	</g>
</g>
<g>
	<g>
		<polygon fill="#2F4E66" points="163.5,63.95 163.5,76.146 153.5,81.5 153.5,69.057 		"/>
		<polygon fill="#1D3246" points="143.5,64.221 143.5,76.416 153.5,81.5 153.5,69.057 		"/>
		<polygon fill="#385C75" points="143.5,64.221 153.5,69.057 163.5,63.95 153.329,58.867 		"/>
	</g>
	<g>
		<g>
			<path fill="#FFFFFF" d="M156.675,70.65l0.175-0.137c0.021-0.019,0.047-0.026,0.076-0.023c0.029,0.002,0.055,0.016,0.074,0.039
				l2.834,3.515c0.021,0.023,0.027,0.05,0.023,0.08c-0.003,0.03-0.018,0.054-0.042,0.075l-0.174,0.136
				c-0.022,0.02-0.049,0.027-0.078,0.024c-0.03-0.003-0.055-0.016-0.073-0.04l-2.835-3.515c-0.019-0.023-0.026-0.05-0.022-0.08
				C156.636,70.695,156.65,70.671,156.675,70.65z"/>
			<path fill="#FFFFFF" d="M158.766,70.683c-0.013-0.028-0.011-0.055,0.002-0.085l0.094-0.225c0.013-0.029,0.032-0.049,0.06-0.062
				c0.027-0.011,0.056-0.011,0.086,0.001l2.07,0.822c0.029,0.011,0.05,0.031,0.06,0.058c0.013,0.027,0.011,0.056-0.001,0.085
				l-0.876,2.078c-0.013,0.031-0.032,0.051-0.06,0.062c-0.028,0.013-0.057,0.013-0.086,0.001l-0.222-0.088
				c-0.031-0.013-0.051-0.031-0.062-0.058c-0.012-0.027-0.011-0.056,0.002-0.085l0.739-1.752l-1.745-0.694
				C158.797,70.729,158.776,70.708,158.766,70.683z"/>
			<path fill="#FFFFFF" d="M155.354,73.573l0.877-2.078c0.013-0.03,0.031-0.051,0.059-0.061c0.028-0.013,0.058-0.013,0.086-0.001
				l0.223,0.089c0.03,0.012,0.05,0.03,0.061,0.058c0.012,0.027,0.012,0.055-0.002,0.085l-0.738,1.752l1.746,0.694
				c0.03,0.011,0.05,0.03,0.061,0.057c0.011,0.028,0.01,0.056-0.002,0.086l-0.094,0.222c-0.013,0.03-0.032,0.051-0.061,0.063
				c-0.026,0.011-0.056,0.011-0.085,0l-2.07-0.823c-0.03-0.011-0.051-0.031-0.061-0.058
				C155.341,73.631,155.342,73.603,155.354,73.573z"/>
		</g>
	</g>
</g>
<g>
	<g>
		<polygon fill="#2F4E66" points="31.5,82.95 31.5,95.146 21.5,100.5 21.5,88.057 		"/>
		<polygon fill="#1D3246" points="11.5,83.221 11.5,95.416 21.5,100.5 21.5,88.057 		"/>
		<polygon fill="#385C75" points="11.523,83.221 21.508,88.057 31.496,82.95 21.507,77.867 		"/>
	</g>
	<g>
		<g>
			<path fill="#FFFFFF" d="M29.756,90.057c-0.207,0.099-0.433,0.168-0.675,0.201c0.231-0.155,0.396-0.397,0.454-0.684
				c-0.221,0.144-0.467,0.247-0.739,0.306c-0.251-0.235-0.586-0.38-0.937-0.376c-0.67,0.007-1.149,0.56-1.068,1.233
				c0.012,0.097,0.034,0.189,0.066,0.278c-1.02-0.039-1.975-0.517-2.665-1.248c-0.083,0.181-0.119,0.392-0.09,0.614
				c0.051,0.424,0.311,0.796,0.666,1.012c-0.202-0.004-0.396-0.057-0.571-0.147l0.002,0.015c0.071,0.592,0.552,1.082,1.121,1.188
				c-0.098,0.027-0.204,0.045-0.314,0.045c-0.079,0.002-0.156-0.005-0.231-0.019c0.212,0.483,0.706,0.832,1.239,0.835
				c-0.376,0.333-0.878,0.533-1.449,0.539c-0.098,0.002-0.196-0.004-0.292-0.014c0.582,0.343,1.245,0.537,1.932,0.529
				c2.241-0.024,3.238-1.897,3.042-3.514l-0.022-0.159C29.442,90.519,29.622,90.303,29.756,90.057z"/>
		</g>
	</g>
</g>
<g>
	<ellipse fill="#F7BC2C" cx="128.219" cy="61.035" rx="6.25" ry="7.368"/>
	<ellipse fill="#FEDC33" cx="129.75" cy="61.715" rx="6.25" ry="7.369"/>
</g>
</svg>
