<?xml version="1.0" encoding="utf-8"?>
<!-- Generator: Adobe Illustrator 16.0.4, SVG Export Plug-In . SVG Version: 6.00 Build 0)  -->
<!DOCTYPE svg PUBLIC "-//W3C//DTD SVG 1.1//EN" "http://www.w3.org/Graphics/SVG/1.1/DTD/svg11.dtd">
<svg version="1.1" id="Layer_1" xmlns="http://www.w3.org/2000/svg" xmlns:xlink="http://www.w3.org/1999/xlink" x="0px" y="0px"
	 width="344.833px" height="265px" viewBox="3.167 0 344.833 265" enable-background="new 3.167 0 344.833 265"
	 xml:space="preserve">
<polygon fill="#CCCCCC" points="10,60.25 10,93.25 46,74.984 46,42 "/>
<linearGradient id="SVGID_1_" gradientUnits="userSpaceOnUse" x1="-6.4214" y1="139.5801" x2="-19.6363" y2="165.8434" gradientTransform="matrix(1 0 0 -1 54 230)">
	<stop  offset="0" style="stop-color:#FFFFFF;stop-opacity:0"/>
	<stop  offset="0.4471" style="stop-color:#C9C9C9;stop-opacity:0.4471"/>
	<stop  offset="0.8089" style="stop-color:#A4A4A4;stop-opacity:0.8089"/>
	<stop  offset="1" style="stop-color:#969696"/>
</linearGradient>
<polygon fill="url(#SVGID_1_)" points="87.25,91.75 46,74.984 10,93.25 49,114.209 "/>
<polyline fill="#F2F2F2" points="4,56.834 91,104.25 130,84 39,38 "/>
<linearGradient id="SVGID_2_" gradientUnits="userSpaceOnUse" x1="197.7588" y1="10.5483" x2="169.2588" y2="80.5483" gradientTransform="matrix(1 0 0 -1 54 230)">
	<stop  offset="0" style="stop-color:#FFFFFF;stop-opacity:0"/>
	<stop  offset="0.0087" style="stop-color:#FDFDFD;stop-opacity:0.0087"/>
	<stop  offset="0.2106" style="stop-color:#D8D8D8;stop-opacity:0.2106"/>
	<stop  offset="0.4127" style="stop-color:#BBBBBB;stop-opacity:0.4127"/>
	<stop  offset="0.6127" style="stop-color:#A7A7A7;stop-opacity:0.6127"/>
	<stop  offset="0.8096" style="stop-color:#9A9A9A;stop-opacity:0.8096"/>
	<stop  offset="1" style="stop-color:#969696"/>
</linearGradient>
<polygon fill="url(#SVGID_2_)" points="339,219.5 263,178.5 167,225.5 243,264.209 "/>
<polygon fill="#E6E6E6" points="91,104.25 91,112.25 10,68.089 10,93.25 4,90.25 4,56.834 "/>
<path fill="#FFFFFF" stroke="#000000" stroke-miterlimit="10" d="M199.5,166.5"/>
<line fill="none" stroke="#D6D6D6" stroke-width="0.25" stroke-miterlimit="10" x1="96.193" y1="69.84" x2="64.516" y2="86.288"/>
<line fill="none" stroke="#D6D6D6" stroke-width="0.25" stroke-miterlimit="10" x1="80.193" y1="61.84" x2="48.516" y2="78.288"/>
<line fill="none" stroke="#D6D6D6" stroke-width="0.25" stroke-miterlimit="10" x1="65.193" y1="53.84" x2="33.516" y2="70.288"/>
<linearGradient id="SVGID_3_" gradientUnits="userSpaceOnUse" x1="274.6152" y1="-12.4922" x2="261.4492" y2="13.6738" gradientTransform="matrix(1 0 0 -1 54 230)">
	<stop  offset="0" style="stop-color:#FFFFFF;stop-opacity:0"/>
	<stop  offset="0.8543" style="stop-color:#969696"/>
</linearGradient>
<polygon fill="url(#SVGID_3_)" points="368.25,243.75 330,225.984 291,245.25 330,266.209 "/>
<ellipse fill="#F7BC2C" cx="57.915" cy="60.035" rx="5.554" ry="7.368"/>
<ellipse fill="#F7BC2C" cx="37.915" cy="49.035" rx="5.554" ry="7.368"/>
<ellipse fill="#FEDC33" cx="36.554" cy="49.715" rx="5.554" ry="7.369"/>
<ellipse fill="#F7BC2C" cx="79.915" cy="72.035" rx="5.554" ry="7.368"/>
<ellipse fill="#FEDC33" cx="78.554" cy="72.715" rx="5.554" ry="7.369"/>
<ellipse fill="#FEDC33" cx="56.554" cy="60.715" rx="5.554" ry="7.369"/>
<polygon fill="#E6E6E6" points="75,54 75,176 167,225.5 167,101.208 "/>
<polygon fill="#CCCCCC" points="263,56.5 263,178.5 167,225.5 167,101.208 "/>
<polygon fill="#F2F2F2" points="263,56.5 167,101.208 75,54 167.5,7 "/>
<path fill="#333333" d="M204,168.834l36.462-18.095c-0.728-12.673-1.069-35.415-21.587-23.864C204,135.25,204,146.837,204,168.834z"
	/>
<polyline fill="#F2F2F2" points="204,168.834 291,216.25 330,196 240.462,150.739 "/>
<polygon fill="#CCCCCC" points="291,216.25 291,245.25 330,225.984 330,196 "/>
<polygon fill="#E6E6E6" points="291,216.25 291,245.25 284.043,242.209 284.082,220.479 204,176.818 204,168.834 "/>
<g>
	<polygon fill="#0B0800" points="139.674,136.595 133.276,141.871 134.532,143.769 132.794,150.773 128.319,159.501 128.599,157.26 
		126.872,159.132 130.106,153.433 130.481,147.24 129.241,145.205 122.068,153.493 119.316,160.659 112.138,167.12 109.671,166.671 
		116.757,161.439 117.36,156.615 123.479,144.593 123.994,142.067 115.396,129.729 120.53,126.87 124.754,123.602 127.315,121.324 
		136.961,129.369 138.882,134.486 139.981,126.435 139.373,122.267 141.869,121.687 141.38,119.495 142.101,113.72 142.335,121.669 
		145.153,123.813 146.296,122.637 152.063,122.003 145.343,124.144 146.174,130.506 145.279,134.229 143.561,133.107 142.08,140.45 
		141.325,141.708 142.507,146.318 140.226,143.34 139.86,139.098 137.08,140.369 139.724,138.05 	"/>
	<polygon fill="#0B0800" points="116.726,151.378 115.166,153.233 113.842,153.741 112.113,157.229 105.576,161.491 
		103.265,161.115 111.614,156.958 111.881,155.102 109.32,155.676 105.25,155.321 102.798,148.122 102.062,143.389 102.632,141.215 
		105.843,142.885 107.725,142.684 107.54,144.42 	"/>
	<polygon fill="#F7BC2C" points="138.882,134.486 136.961,129.369 133.991,120.731 139.981,126.435 	"/>
	<polygon fill="#FEDC33" points="133.991,120.731 127.315,121.324 136.961,129.369 	"/>
	<polygon fill="#FEDC33" points="139.981,126.435 133.991,120.731 139.373,122.267 	"/>
	<polygon fill="#EACA42" points="109.398,133.019 102.632,141.215 105.843,142.885 107.725,142.684 	"/>
	<polygon fill="#FBE179" points="109.398,133.019 107.725,142.684 117.74,136.094 	"/>
	<polygon fill="#F6D34C" points="117.74,136.094 116.726,151.378 107.54,144.42 107.725,142.684 	"/>
	<polygon fill="#C79B22" points="117.74,136.094 116.726,151.378 123.479,144.593 119.476,141.317 	"/>
	<polygon fill="#64350B" points="109.398,133.019 117.74,136.094 119.476,141.317 123.479,144.593 123.994,142.067 115.396,129.729 
			"/>
	<polygon opacity="0.9" fill="#554130" enable-background="new    " points="116.881,118.533 124.754,123.602 120.53,126.87 	"/>
	<polygon opacity="0.9" fill="#826C5B" enable-background="new    " points="109.827,125.855 120.53,126.87 115.396,129.729 	"/>
	<polygon opacity="0.5" fill="#554130" enable-background="new    " points="109.827,125.855 120.53,126.87 116.881,118.533 
		95.35,114.527 99.019,122.86 	"/>
	<polygon opacity="0.5" fill="#554130" enable-background="new    " points="99.019,122.86 95.35,114.527 90.899,115.885 	"/>
	<polygon opacity="0.5" fill="#826C5B" enable-background="new    " points="116.881,118.533 106.096,107.638 95.946,107.083 
		95.35,114.527 	"/>
	<polygon opacity="0.5" fill="#826C5B" enable-background="new    " points="109.827,125.855 120.53,126.87 116.881,118.533 
		95.35,114.527 99.019,122.86 	"/>
	<polygon fill="#D2C2AB" points="142.589,123.094 141.759,123.883 144.043,124.139 	"/>
</g>
<polygon fill="#CCCCCC" points="291,222.25 291,245.25 330,225.984 330,203 "/>
<line fill="none" stroke="#D6D6D6" stroke-width="0.25" stroke-miterlimit="10" x1="312.193" y1="189.84" x2="280.516" y2="206.288"/>
<line fill="none" stroke="#D6D6D6" stroke-width="0.25" stroke-miterlimit="10" x1="297.193" y1="181.84" x2="265.516" y2="198.288"/>
<line fill="none" stroke="#D6D6D6" stroke-width="0.25" stroke-miterlimit="10" x1="281.193" y1="173.84" x2="249.516" y2="190.288"/>
<line fill="none" stroke="#D6D6D6" stroke-width="0.25" stroke-miterlimit="10" x1="266.193" y1="165.84" x2="234.516" y2="182.288"/>
<path fill="#CCCCCC" stroke="#B3B3B3" stroke-width="0.25" stroke-miterlimit="10" d="M234.516,182.288"/>
<path fill="#CCCCCC" stroke="#B3B3B3" stroke-width="0.25" stroke-miterlimit="10" d="M266.193,165.84"/>
<line fill="none" stroke="#D6D6D6" stroke-width="0.25" stroke-miterlimit="10" x1="251.193" y1="157.84" x2="219.516" y2="174.288"/>
<line fill="none" stroke="#D6D6D6" stroke-width="0.25" stroke-miterlimit="10" x1="50.193" y1="45.84" x2="18.516" y2="62.288"/>
<g>
	<polygon fill="#2F4E66" points="230,157.95 230,170.146 240,175.5 240,163.057 	"/>
	<polygon fill="#1D3246" points="250,158.221 250,170.416 240,175.5 240,163.057 	"/>
	<polygon fill="#385C75" points="250,158.221 240,163.057 229.996,157.95 240.001,152.867 	"/>
</g>
<g>
	<polygon fill="#2F4E66" points="257,171.95 257,184.146 267,189.5 267,177.057 	"/>
	<polygon fill="#1D3246" points="277,172.221 277,184.416 267,189.5 267,177.057 	"/>
	<polygon fill="#385C75" points="277,172.221 267,177.057 256.996,171.95 267.001,166.867 	"/>
</g>
<g>
	<polygon fill="#2F4E66" points="284,186.95 284,199.146 294,204.5 294,192.057 	"/>
	<polygon fill="#1D3246" points="304,187.221 304,199.416 294,204.5 294,192.057 	"/>
	<polygon fill="#385C75" points="304,187.221 294,192.057 283.996,186.95 294.001,181.867 	"/>
</g>
<g>
	<g>
		<path fill="#FFFFFF" d="M236.598,164.65l-0.179-0.137c-0.021-0.02-0.048-0.027-0.078-0.023c-0.03,0.002-0.055,0.016-0.075,0.039
			l-2.884,3.515c-0.021,0.022-0.026,0.05-0.022,0.08c0.002,0.03,0.018,0.054,0.041,0.075l0.178,0.136
			c0.023,0.021,0.049,0.026,0.08,0.024c0.029-0.004,0.055-0.017,0.074-0.041l2.884-3.514c0.019-0.023,0.026-0.051,0.022-0.08
			C236.636,164.695,236.622,164.671,236.598,164.65z"/>
		<path fill="#FFFFFF" d="M234.471,164.684c0.012-0.028,0.01-0.056-0.003-0.086l-0.095-0.225c-0.014-0.029-0.033-0.049-0.061-0.062
			c-0.028-0.011-0.058-0.011-0.088,0.002l-2.105,0.821c-0.03,0.011-0.051,0.031-0.061,0.058c-0.014,0.027-0.012,0.057,0,0.086
			l0.891,2.078c0.014,0.03,0.033,0.051,0.062,0.062c0.028,0.013,0.058,0.013,0.087,0.001l0.227-0.088
			c0.031-0.014,0.051-0.031,0.062-0.059c0.013-0.026,0.011-0.056-0.002-0.084l-0.752-1.752l1.775-0.694
			C234.438,164.729,234.459,164.708,234.471,164.684z"/>
		<path fill="#FFFFFF" d="M237.941,167.573l-0.893-2.078c-0.013-0.03-0.033-0.052-0.061-0.062c-0.028-0.013-0.059-0.013-0.088,0
			l-0.226,0.088c-0.03,0.013-0.051,0.03-0.062,0.059c-0.012,0.027-0.012,0.055,0.002,0.085l0.752,1.752l-1.776,0.694
			c-0.03,0.011-0.051,0.029-0.062,0.057c-0.012,0.027-0.01,0.057,0.002,0.086l0.095,0.223c0.013,0.029,0.033,0.051,0.062,0.062
			c0.027,0.011,0.058,0.011,0.088,0l2.105-0.823c0.03-0.011,0.051-0.03,0.062-0.058
			C237.954,167.631,237.953,167.604,237.941,167.573z"/>
	</g>
</g>
<g>
	<g>
		<path fill="#FFFFFF" d="M265.893,180.152c-0.25,0.011-0.504-0.014-0.756-0.078c0.303-0.053,0.582-0.213,0.779-0.457
			c-0.285,0.048-0.577,0.048-0.87-0.004c-0.128-0.316-0.381-0.581-0.726-0.715c-0.655-0.254-1.396,0.07-1.652,0.729
			c-0.035,0.095-0.061,0.188-0.072,0.283c-0.974-0.435-1.666-1.249-1.975-2.197c-0.171,0.136-0.311,0.317-0.395,0.535
			c-0.16,0.413-0.092,0.86,0.146,1.198c-0.193-0.082-0.355-0.207-0.482-0.359l-0.006,0.016c-0.224,0.576,0,1.219,0.502,1.539
			c-0.109-0.013-0.221-0.037-0.328-0.08c-0.078-0.028-0.149-0.065-0.217-0.108c-0.033,0.532,0.273,1.048,0.792,1.26
			c-0.532,0.161-1.12,0.151-1.679-0.065c-0.096-0.037-0.188-0.08-0.277-0.127c0.396,0.545,0.945,0.983,1.618,1.246
			c2.192,0.851,4.095-0.5,4.706-2.074l0.057-0.156C265.357,180.459,265.641,180.328,265.893,180.152z"/>
	</g>
</g>
<g>
	<g>
		<g>
			<path fill="#FFFFFF" d="M289.391,196.37L289.391,196.37l-0.455-0.906l0.013-0.005c0.643-0.359,1.18-0.848,1.591-1.414
				l0.786,0.268l0.181-0.539l-1.877-0.638l0.184-0.536l-0.539-0.183l-0.182,0.537l-1.881-0.638l-0.18,0.533l2.998,1.018
				c-0.356,0.457-0.807,0.852-1.34,1.15c-0.154-0.363-0.26-0.733-0.314-1.11l-0.536-0.183c0.048,0.504,0.177,1.01,0.384,1.496
				l-1.822,0.885l0.25,0.51l1.799-0.885l0.552,1.117L289.391,196.37z"/>
			<path fill="#FFFFFF" d="M291.361,195.521l-0.536-0.184l-2.302,2.812l0.537,0.181l0.576-0.702l1.273,0.436l0.029,0.905
				l0.537,0.185L291.361,195.521z M290.021,197.161l0.83-1.017l0.041,1.312L290.021,197.161z"/>
		</g>
	</g>
</g>
</svg>
