<?xml version="1.0" encoding="utf-8"?>
<!-- Generator: Adobe Illustrator 16.0.4, SVG Export Plug-In . SVG Version: 6.00 Build 0)  -->
<!DOCTYPE svg PUBLIC "-//W3C//DTD SVG 1.1//EN" "http://www.w3.org/Graphics/SVG/1.1/DTD/svg11.dtd">
<svg version="1.1" id="Layer_1" xmlns="http://www.w3.org/2000/svg" xmlns:xlink="http://www.w3.org/1999/xlink" x="0px" y="0px"
	 width="661px" height="141.698px" viewBox="-60 0 661 141.698" enable-background="new -60 0 661 141.698" xml:space="preserve">
<path fill="#FFFFFF" d="M168.681,67.754c0,19.34-13.794,33.414-32.622,33.414c-18.693,0-32.494-14.053-32.494-33.414
	c0-19.218,13.784-33.271,32.494-33.271C154.884,34.483,168.681,48.538,168.681,67.754z M153.596,67.754
	c0-13.022-8.253-19.733-17.535-19.733c-9.156,0-17.538,6.711-17.538,19.733c0,13.025,8.382,19.988,17.538,19.988
	C145.34,87.742,153.596,80.906,153.596,67.754z"/>
<path fill="#FFFFFF" d="M199.798,101.078c-19.259,0-27.573-11.147-27.573-25.072V36.415h14.944v36.298
	c0,7.736,3.616,14.317,12.64,14.317c8.641,0,13.152-5.802,13.152-14.05V36.415h14.96l-0.072,39.694
	C227.853,90.115,220.074,101.078,199.798,101.078z"/>
<path fill="#FFFFFF" d="M317.092,36.415h13.025v13.282h-13.025l-0.099,30.593c0,3,2.299,6.023,6.154,6.023
	c2.746,0,1.5,0,4.954,0.046v13.611c-2.328,0.178-6.323,0-11.734,0c-7.143,0-14.094-5.411-14.094-13.787l-0.018-36.498H290.65V36.402
	h3.235c6.705,0,9.68-4.253,9.68-9.798v-9.406h13.532L317.092,36.415L317.092,36.415z"/>
<path fill="#FFFFFF" d="M341.443,4.56c5.403,0,9.805,4.388,9.805,9.804c0,5.415-4.399,9.671-9.805,9.671
	c-5.3,0-9.679-4.248-9.679-9.671C331.769,8.945,336.153,4.56,341.443,4.56z M334.093,99.223V36.415h14.843v62.808H334.093
	L334.093,99.223z"/>
<path fill="#FFFFFF" d="M413.526,81.295c-3.347,10.956-13.28,19.853-28.371,19.853c-17.022,0-32.112-12.372-32.112-33.661
	c0-19.851,14.688-33.012,30.562-33.012c19.348,0,30.691,12.77,30.691,32.621c0,2.453-0.256,4.508-0.386,4.774h-45.912
	c0.403,9.546,7.88,16.374,17.167,16.374c9.033,0,13.674-4.778,15.737-10.96L413.526,81.295z M399.213,60.918
	c-0.26-7.355-5.16-13.932-15.481-13.932c-9.412,0-14.847,7.223-15.347,13.932H399.213z"/>
<path fill="#FFFFFF" d="M452.063,54.754c-0.591-3.058-3.262-9.199-11.646-9.199c-5.287,0-9.731,4.016-9.731,7.888
	c0,3.348,2.453,5.802,6.315,6.571l9.537,1.925c11.862,2.58,18.061,9.798,18.061,19.083c0,9.544-7.726,20.123-23.73,20.123
	c-18.179,0-25.253-12.764-26.021-19.864l13.119-4.009c0.509,5.669,4.789,12.034,12.795,12.034c6.19,0,9.41-3.351,9.41-7.223
	c0-3.354-2.319-5.934-7.351-6.97l-9.286-2.062c-11.095-2.457-16.897-9.684-16.897-18.311c0-10.977,10.045-20.256,23.07-20.256
	c20.205,0,22.895,14.385,23.592,16.848"/>
<path fill="#FFFFFF" d="M260.571,32.914c19.258,0,27.571,11.146,27.571,25.071v40.858h-14.949V61.278
	c0-7.733-3.612-14.315-12.631-14.315c-8.641,0-13.16,5.803-13.16,14.05V98.84h-14.959l0.078-40.968
	C232.508,43.88,240.293,32.914,260.571,32.914z"/>
<path fill="#FFFFFF" d="M64.194,0.001c19.454,0,28.105,13.523,28.105,24.6c0,10.694-6.832,18.25-6.832,18.25
	c6.469,5.075,14.944,13.185,14.944,26.3c0,17.143-13.16,32.486-30.774,32.486c-11.556-0.225-33.054,0-33.054,0
	C36.506,94.357,36.537,97.86,36.926,0L64.194,0.001L64.194,0.001z M61.237,39.826h3.529c7.932,0,11.901-8.243,11.901-13.857
	c0-5.147-4.505-12.041-12.035-12.041H51.285v25.897v0.344v12.151c0,0,0,32.767,0,36.941c0-0.005,9.095,0.087,16.511,0
	c7.906-0.226,17.4-8.963,17.264-18.952c-0.132-9.827-8.59-17.903-17.019-17.903l-11.89-0.045V39.826H61.237L61.237,39.826z"/>
<path fill="#FFFFFF" d="M452.063,54.754"/>
<g>
	<polygon fill="#0B0800" points="487.867,53.591 500.508,66.308 497.223,70.036 499.119,85.307 506.574,104.895 506.574,100.073 
		509.864,104.458 504.309,91.593 505.187,78.365 508.474,74.348 521.994,93.642 526.089,109.502 540.121,124.922 545.676,124.557 
		531.508,111.766 531.508,101.39 521.338,74.421 520.899,68.938 543.231,44.812 532.712,37.523 524.308,29.58 519.29,24.137 
		495.832,38.9 490.189,49.303 489.985,31.957 492.47,23.26 487.136,21.433 488.815,16.9 488.815,4.478 486.11,21.286 
		479.312,25.161 477.119,22.394 464.591,19.673 478.803,25.818 475.223,39.12 476.171,47.232 480.265,45.26 481.506,61.191 
		482.823,64.042 478.949,73.543 484.796,67.769 486.77,58.852 492.543,62.214 487.354,56.66 	"/>
	<polygon fill="#0B0800" points="534.348,90.426 537.27,94.737 540.048,96.127 542.899,103.946 556.126,114.542 561.315,114.296 
		544.068,103.482 543.996,99.488 549.477,101.314 558.538,101.534 565.921,86.845 568.844,76.978 568.185,72.228 560.657,75.004 
		556.565,74.127 556.492,77.855 	"/>
	<polygon fill="#F7BC2C" points="490.189,49.303 495.832,38.9 504.747,21.286 489.985,31.957 	"/>
	<polygon fill="#FEDC33" points="504.747,21.286 519.29,24.137 495.832,38.9 	"/>
	<polygon fill="#FEDC33" points="489.985,31.957 504.747,21.286 492.47,23.26 	"/>
	<polygon fill="#EACA42" points="555.542,53.226 568.185,72.228 560.657,75.004 556.565,74.127 	"/>
	<polygon fill="#FBE179" points="555.542,53.226 556.565,74.127 536.32,57.757 	"/>
	<polygon fill="#F6D34C" points="536.32,57.757 534.348,90.426 556.492,77.855 556.565,74.127 	"/>
	<polygon fill="#C79B22" points="536.32,57.757 534.348,90.426 521.338,74.421 531.059,68.427 	"/>
	<polygon fill="#64350B" points="555.542,53.226 536.32,57.757 531.059,68.427 521.338,74.421 520.899,68.938 543.231,44.812 	"/>
	<polygon opacity="0.9" fill="#554130" enable-background="new    " points="543.041,20.703 524.308,29.58 532.712,37.523 	"/>
	<polygon opacity="0.9" fill="#826C5B" enable-background="new    " points="556.565,37.923 532.712,37.523 543.231,44.812 	"/>
	<polygon opacity="0.5" fill="#554130" enable-background="new    " points="556.565,37.923 532.712,37.523 543.041,20.703 
		591.572,17.341 581.194,34.15 	"/>
	<polygon opacity="0.5" fill="#554130" enable-background="new    " points="581.194,34.15 591.572,17.341 601,21.286 	"/>
	<polygon opacity="0.5" fill="#826C5B" enable-background="new    " points="543.041,20.703 569.794,0.165 592.304,1.407 
		591.572,17.341 	"/>
	<polygon opacity="0.5" fill="#826C5B" enable-background="new    " points="556.565,37.923 532.712,37.523 543.041,20.703 
		591.572,17.341 581.194,34.15 	"/>
	<polygon fill="#D2C2AB" points="485.16,24.247 486.77,26.12 481.668,26.12 	"/>
</g>
<g>
	
		<linearGradient id="SVGID_1_" gradientUnits="userSpaceOnUse" x1="-66.7715" y1="644.7471" x2="-66.7715" y2="688.0247" gradientTransform="matrix(1 0 0 1 108 -542.1582)">
		<stop  offset="0" style="stop-color:#FFBE12"/>
		<stop  offset="0.3876" style="stop-color:#FFB21B"/>
		<stop  offset="0.4631" style="stop-color:#FFAD1F"/>
		<stop  offset="0.7237" style="stop-color:#FFA127"/>
		<stop  offset="0.984" style="stop-color:#FF9D2A"/>
	</linearGradient>
	<path fill="url(#SVGID_1_)" d="M41.205,131.276c2.506,0,4.523,2.018,4.523,4.477c0,2.456-2.018,4.474-4.523,4.474
		c-2.46,0-4.475-2.018-4.475-4.474C36.73,133.294,38.744,131.276,41.205,131.276z"/>
	
		<linearGradient id="SVGID_2_" gradientUnits="userSpaceOnUse" x1="-16.7163" y1="644.752" x2="-16.7163" y2="688.0223" gradientTransform="matrix(1 0 0 1 108 -542.1582)">
		<stop  offset="0" style="stop-color:#FFBE12"/>
		<stop  offset="0.3876" style="stop-color:#FFB21B"/>
		<stop  offset="0.4631" style="stop-color:#FFAD1F"/>
		<stop  offset="0.7237" style="stop-color:#FFA127"/>
		<stop  offset="0.984" style="stop-color:#FF9D2A"/>
	</linearGradient>
	<path fill="url(#SVGID_2_)" d="M99.028,139.883l-15.832-24.734v24.734h-6.785v-34.861h8.456l14.505,23.061v-23.061h6.785v34.861
		H99.028z"/>
	
		<linearGradient id="SVGID_3_" gradientUnits="userSpaceOnUse" x1="40.5933" y1="644.752" x2="40.5933" y2="688.0223" gradientTransform="matrix(1 0 0 1 108 -542.1582)">
		<stop  offset="0" style="stop-color:#FFBE12"/>
		<stop  offset="0.3876" style="stop-color:#FFB21B"/>
		<stop  offset="0.4631" style="stop-color:#FFAD1F"/>
		<stop  offset="0.7237" style="stop-color:#FFA127"/>
		<stop  offset="0.984" style="stop-color:#FF9D2A"/>
	</linearGradient>
	<path fill="url(#SVGID_3_)" d="M137.678,139.883v-34.861h21.832v6.394h-15.045v7.964h13.619v6.049h-13.619v8.063h15.045v6.392
		H137.678L137.678,139.883z"/>
	
		<linearGradient id="SVGID_4_" gradientUnits="userSpaceOnUse" x1="93.6719" y1="644.7529" x2="93.6719" y2="688.0219" gradientTransform="matrix(1 0 0 1 108 -542.1582)">
		<stop  offset="0" style="stop-color:#FFBE12"/>
		<stop  offset="0.3876" style="stop-color:#FFB21B"/>
		<stop  offset="0.4631" style="stop-color:#FFAD1F"/>
		<stop  offset="0.7237" style="stop-color:#FFA127"/>
		<stop  offset="0.984" style="stop-color:#FF9D2A"/>
	</linearGradient>
	<path fill="url(#SVGID_4_)" d="M205.091,111.463v28.42h-6.834v-28.42h-11.016v-6.441h28.862v6.441H205.091z"/>
	
		<linearGradient id="SVGID_5_" gradientUnits="userSpaceOnUse" x1="158.6768" y1="644.7539" x2="158.6768" y2="688.0211" gradientTransform="matrix(1 0 0 1 108 -542.1582)">
		<stop  offset="0" style="stop-color:#FFBE12"/>
		<stop  offset="0.3876" style="stop-color:#FFB21B"/>
		<stop  offset="0.4631" style="stop-color:#FFAD1F"/>
		<stop  offset="0.7237" style="stop-color:#FFA127"/>
		<stop  offset="0.984" style="stop-color:#FF9D2A"/>
	</linearGradient>
	<path fill="url(#SVGID_5_)" d="M284.405,105.021h6.932l-9.638,34.859h-6.984l-7.966-24.829l-7.967,24.829h-7.078l-9.688-34.859
		h7.178l6.393,23.995l7.72-23.995h7.03l7.771,24.092L284.405,105.021z"/>
	
		<linearGradient id="SVGID_6_" gradientUnits="userSpaceOnUse" x1="226.1904" y1="644.751" x2="226.1904" y2="688.0221" gradientTransform="matrix(1 0 0 1 108 -542.1582)">
		<stop  offset="0" style="stop-color:#FFBE12"/>
		<stop  offset="0.3876" style="stop-color:#FFB21B"/>
		<stop  offset="0.4631" style="stop-color:#FFAD1F"/>
		<stop  offset="0.7237" style="stop-color:#FFA127"/>
		<stop  offset="0.984" style="stop-color:#FF9D2A"/>
	</linearGradient>
	<path fill="url(#SVGID_6_)" d="M334.166,104.281c9.491,0,17.947,6.934,17.947,18.193c0,11.21-8.456,18.145-17.947,18.145
		c-9.438,0-17.898-6.935-17.898-18.145C316.268,111.215,324.728,104.281,334.166,104.281z M334.166,134.031
		c5.41,0,10.917-3.738,10.917-11.605s-5.506-11.604-10.917-11.604c-5.359,0-10.866,3.737-10.866,11.604
		C323.3,130.294,328.807,134.031,334.166,134.031z"/>
	
		<linearGradient id="SVGID_7_" gradientUnits="userSpaceOnUse" x1="285.959" y1="644.752" x2="285.959" y2="688.0216" gradientTransform="matrix(1 0 0 1 108 -542.1582)">
		<stop  offset="0" style="stop-color:#FFBE12"/>
		<stop  offset="0.3876" style="stop-color:#FFB21B"/>
		<stop  offset="0.4631" style="stop-color:#FFAD1F"/>
		<stop  offset="0.7237" style="stop-color:#FFA127"/>
		<stop  offset="0.984" style="stop-color:#FF9D2A"/>
	</linearGradient>
	<path fill="url(#SVGID_7_)" d="M391.943,126.458h-3.539v13.425h-6.836v-34.861h13.622c6.784,0,11.112,4.672,11.112,10.718
		c0,4.868-2.853,8.557-7.425,9.885l7.473,14.259h-7.571L391.943,126.458z M393.909,120.607c3.442,0,5.46-1.966,5.46-4.819
		c0-2.947-2.018-4.865-5.46-4.865h-5.507v9.686L393.909,120.607L393.909,120.607z"/>
	
		<linearGradient id="SVGID_8_" gradientUnits="userSpaceOnUse" x1="342.7275" y1="644.7539" x2="342.7275" y2="688.0211" gradientTransform="matrix(1 0 0 1 108 -542.1582)">
		<stop  offset="0" style="stop-color:#FFBE12"/>
		<stop  offset="0.3876" style="stop-color:#FFB21B"/>
		<stop  offset="0.4631" style="stop-color:#FFAD1F"/>
		<stop  offset="0.7237" style="stop-color:#FFA127"/>
		<stop  offset="0.984" style="stop-color:#FF9D2A"/>
	</linearGradient>
	<path fill="url(#SVGID_8_)" d="M446.967,125.425l-4.328,4.771v9.686h-6.785v-34.859h6.785v15.782l13.965-15.782h8.899
		l-13.816,15.191l13.915,19.668h-8.507L446.967,125.425z"/>
</g>
</svg>
