<?xml version="1.0" encoding="utf-8"?>
<!-- Generator: Adobe Illustrator 16.0.4, SVG Export Plug-In . SVG Version: 6.00 Build 0)  -->
<!DOCTYPE svg PUBLIC "-//W3C//DTD SVG 1.1//EN" "http://www.w3.org/Graphics/SVG/1.1/DTD/svg11.dtd">
<svg version="1.1" id="Layer_1" xmlns="http://www.w3.org/2000/svg" xmlns:xlink="http://www.w3.org/1999/xlink" x="0px" y="0px"
	 width="661px" height="141.699px" viewBox="0 0 661 141.699" enable-background="new 0 0 661 141.699" xml:space="preserve">
<path fill="#FFFFFF" d="M200.681,67.754c0,19.339-13.794,33.414-32.622,33.414c-18.693,0-32.494-14.053-32.494-33.414
	c0-19.218,13.784-33.271,32.494-33.271C186.884,34.483,200.681,48.538,200.681,67.754z M185.596,67.754
	c0-13.022-8.253-19.733-17.535-19.733c-9.156,0-17.538,6.711-17.538,19.733c0,13.025,8.382,19.988,17.538,19.988
	C177.34,87.742,185.596,80.906,185.596,67.754z"/>
<path fill="#FFFFFF" d="M231.798,101.078c-19.259,0-27.573-11.146-27.573-25.072v-39.59h14.944v36.297
	c0,7.736,3.616,14.318,12.64,14.318c8.641,0,13.152-5.803,13.152-14.051V36.415h14.96l-0.072,39.694
	C259.853,90.115,252.074,101.078,231.798,101.078z"/>
<path fill="#FFFFFF" d="M349.092,36.415h13.025v13.282h-13.025l-0.099,30.593c0,3,2.299,6.022,6.154,6.022
	c2.744,0,1.5,0,4.952,0.045V99.97c-2.326,0.179-6.321,0-11.732,0c-7.145,0-14.094-5.411-14.094-13.786l-0.019-36.499H322.65V36.402
	h3.235c6.705,0,9.68-4.253,9.68-9.798v-9.406h13.532L349.092,36.415L349.092,36.415z"/>
<path fill="#FFFFFF" d="M373.443,4.56c5.401,0,9.805,4.388,9.805,9.804c0,5.415-4.399,9.671-9.805,9.671
	c-5.302,0-9.681-4.248-9.681-9.671C363.769,8.945,368.153,4.56,373.443,4.56z M366.093,99.223V36.415h14.843v62.808H366.093
	L366.093,99.223z"/>
<path fill="#FFFFFF" d="M445.526,81.294c-3.349,10.957-13.28,19.854-28.371,19.854c-17.022,0-32.112-12.373-32.112-33.662
	c0-19.851,14.688-33.012,30.562-33.012c19.348,0,30.689,12.77,30.689,32.621c0,2.453-0.256,4.507-0.386,4.774h-45.912
	c0.403,9.545,7.88,16.373,17.167,16.373c9.033,0,13.674-4.777,15.737-10.959L445.526,81.294z M431.213,60.918
	c-0.26-7.355-5.16-13.932-15.479-13.932c-9.412,0-14.849,7.223-15.349,13.932H431.213z"/>
<path fill="#FFFFFF" d="M484.062,54.754c-0.592-3.058-3.263-9.199-11.646-9.199c-5.287,0-9.731,4.016-9.731,7.888
	c0,3.348,2.453,5.802,6.315,6.571l9.537,1.925c11.862,2.58,18.061,9.797,18.061,19.083c0,9.545-7.726,20.123-23.729,20.123
	c-18.179,0-25.253-12.765-26.021-19.863l13.119-4.01c0.509,5.67,4.789,12.035,12.795,12.035c6.19,0,9.41-3.353,9.41-7.224
	c0-3.354-2.318-5.935-7.351-6.972l-9.286-2.062c-11.095-2.457-16.897-9.683-16.897-18.31c0-10.977,10.045-20.256,23.07-20.256
	c20.205,0,22.896,14.385,23.592,16.848"/>
<path fill="#FFFFFF" d="M292.571,32.914c19.258,0,27.571,11.146,27.571,25.071v40.858h-14.949V61.278
	c0-7.733-3.612-14.315-12.631-14.315c-8.641,0-13.16,5.803-13.16,14.05v37.826h-14.959l0.078-40.967
	C264.508,43.88,272.293,32.914,292.571,32.914z"/>
<path fill="#FFFFFF" d="M96.194,0.001c19.454,0,28.105,13.523,28.105,24.6c0,10.694-6.832,18.25-6.832,18.25
	c6.469,5.075,14.944,13.185,14.944,26.3c0,17.144-13.16,32.486-30.774,32.486c-11.556-0.226-33.054,0-33.054,0
	C68.506,94.357,68.537,97.859,68.926,0L96.194,0.001L96.194,0.001z M93.237,39.826h3.529c7.932,0,11.901-8.243,11.901-13.857
	c0-5.146-4.505-12.041-12.035-12.041H83.285v25.897v0.344V52.32c0,0,0,32.768,0,36.941c0-0.006,9.095,0.087,16.511,0
	c7.906-0.227,17.4-8.963,17.264-18.952c-0.132-9.827-8.59-17.903-17.019-17.903l-11.89-0.045V39.826H93.237L93.237,39.826z"/>
<path fill="#FFFFFF" d="M484.062,54.754"/>
<g>
	<polygon fill="#0B0800" points="519.867,53.591 532.508,66.308 529.223,70.036 531.119,85.307 538.574,104.895 538.574,100.074 
		541.864,104.458 536.309,91.593 537.188,78.365 540.474,74.348 553.994,93.643 558.089,109.501 572.121,124.921 577.676,124.557 
		563.508,111.766 563.508,101.391 553.338,74.421 552.899,68.938 575.231,44.812 564.712,37.523 556.308,29.58 551.29,24.137 
		527.832,38.9 522.189,49.303 521.985,31.957 524.47,23.26 519.136,21.433 520.815,16.9 520.815,4.478 518.11,21.286 
		511.312,25.161 509.119,22.394 496.591,19.673 510.803,25.818 507.223,39.12 508.171,47.232 512.265,45.26 513.506,61.191 
		514.823,64.042 510.949,73.542 516.796,67.769 518.77,58.852 524.543,62.214 519.354,56.66 	"/>
	<polygon fill="#0B0800" points="566.348,90.425 569.27,94.736 572.048,96.126 574.899,103.945 588.126,114.542 593.315,114.296 
		576.068,103.482 575.996,99.488 581.477,101.314 590.538,101.535 597.921,86.845 600.844,76.979 600.185,72.229 592.657,75.003 
		588.565,74.126 588.492,77.855 	"/>
	<polygon fill="#FEDC33" points="536.747,21.286 551.29,24.137 527.832,38.9 522.189,49.303 521.985,31.957 524.47,23.26 	"/>
	<polygon fill="#F7BC2C" points="522.189,49.303 527.832,38.9 536.747,21.286 521.985,31.957 	"/>
	<polygon fill="#FEDC33" points="521.985,31.957 536.747,21.286 524.47,23.26 	"/>
	<polygon fill="#EACA42" points="587.542,53.226 600.185,72.229 592.657,75.003 588.565,74.126 588.492,77.855 566.348,90.425 
		553.338,74.421 563.059,68.427 568.32,57.757 	"/>
	<polygon fill="#FBE179" points="587.542,53.226 588.565,74.126 568.32,57.757 	"/>
	<polygon fill="#F6D34C" points="568.32,57.757 566.348,90.425 588.492,77.855 588.565,74.126 	"/>
	<polygon fill="#C79B22" points="568.32,57.757 566.348,90.425 553.338,74.421 563.059,68.427 	"/>
	<polygon fill="#64350B" points="587.542,53.226 568.32,57.757 563.059,68.427 553.338,74.421 552.899,68.938 575.231,44.812 	"/>
	<polygon opacity="0.9" fill="#554130" enable-background="new    " points="575.041,20.703 556.308,29.58 564.712,37.523 	"/>
	<polygon opacity="0.9" fill="#826C5B" enable-background="new    " points="588.565,37.923 564.712,37.523 575.231,44.812 	"/>
	<polygon opacity="0.5" fill="#554130" enable-background="new    " points="588.565,37.923 564.712,37.523 575.041,20.703 
		623.572,17.341 613.194,34.15 	"/>
	<polygon opacity="0.5" fill="#554130" enable-background="new    " points="613.194,34.15 623.572,17.341 633,21.286 	"/>
	<polygon opacity="0.5" fill="#826C5B" enable-background="new    " points="575.041,20.703 601.794,0.165 624.304,1.407 
		623.572,17.341 	"/>
	<polygon opacity="0.5" fill="#826C5B" enable-background="new    " points="588.565,37.923 564.712,37.523 575.041,20.703 
		623.572,17.341 613.194,34.15 	"/>
	<polygon fill="#D2C2AB" points="517.16,24.247 518.77,26.12 513.668,26.12 	"/>
</g>
<g>
	
		<linearGradient id="SVGID_1_" gradientUnits="userSpaceOnUse" x1="-142.771" y1="1294.0459" x2="-142.771" y2="1337.3284" gradientTransform="matrix(1 0 0 1 216 -1191.46)">
		<stop  offset="0" style="stop-color:#FFBE12"/>
		<stop  offset="0.3876" style="stop-color:#FFB21B"/>
		<stop  offset="0.4631" style="stop-color:#FFAD1F"/>
		<stop  offset="0.7237" style="stop-color:#FFA127"/>
		<stop  offset="0.984" style="stop-color:#FF9D2A"/>
	</linearGradient>
	<path fill="url(#SVGID_1_)" d="M73.205,131.275c2.506,0,4.523,2.02,4.523,4.479c0,2.455-2.018,4.475-4.523,4.475
		c-2.46,0-4.475-2.02-4.475-4.475C68.73,133.294,70.744,131.275,73.205,131.275z"/>
	
		<linearGradient id="SVGID_2_" gradientUnits="userSpaceOnUse" x1="-92.7158" y1="1294.0547" x2="-92.7158" y2="1337.3245" gradientTransform="matrix(1 0 0 1 216 -1191.46)">
		<stop  offset="0" style="stop-color:#FFBE12"/>
		<stop  offset="0.3876" style="stop-color:#FFB21B"/>
		<stop  offset="0.4631" style="stop-color:#FFAD1F"/>
		<stop  offset="0.7237" style="stop-color:#FFA127"/>
		<stop  offset="0.984" style="stop-color:#FF9D2A"/>
	</linearGradient>
	<path fill="url(#SVGID_2_)" d="M131.028,139.882l-15.832-24.733v24.733h-6.785v-34.86h8.456l14.505,23.062v-23.062h6.785v34.86
		H131.028z"/>
	
		<linearGradient id="SVGID_3_" gradientUnits="userSpaceOnUse" x1="-35.4058" y1="1294.0547" x2="-35.4058" y2="1337.3268" gradientTransform="matrix(1 0 0 1 216 -1191.46)">
		<stop  offset="0" style="stop-color:#FFBE12"/>
		<stop  offset="0.3876" style="stop-color:#FFB21B"/>
		<stop  offset="0.4631" style="stop-color:#FFAD1F"/>
		<stop  offset="0.7237" style="stop-color:#FFA127"/>
		<stop  offset="0.984" style="stop-color:#FF9D2A"/>
	</linearGradient>
	<path fill="url(#SVGID_3_)" d="M169.678,139.882v-34.86h21.832v6.395h-15.045v7.965h13.619v6.049h-13.619v8.062h15.045v6.393
		h-21.832V139.882z"/>
	
		<linearGradient id="SVGID_4_" gradientUnits="userSpaceOnUse" x1="17.6724" y1="1294.0547" x2="17.6724" y2="1337.323" gradientTransform="matrix(1 0 0 1 216 -1191.46)">
		<stop  offset="0" style="stop-color:#FFBE12"/>
		<stop  offset="0.3876" style="stop-color:#FFB21B"/>
		<stop  offset="0.4631" style="stop-color:#FFAD1F"/>
		<stop  offset="0.7237" style="stop-color:#FFA127"/>
		<stop  offset="0.984" style="stop-color:#FF9D2A"/>
	</linearGradient>
	<path fill="url(#SVGID_4_)" d="M237.091,111.462v28.42h-6.834v-28.42h-11.016v-6.44h28.862v6.44H237.091L237.091,111.462z"/>
	
		<linearGradient id="SVGID_5_" gradientUnits="userSpaceOnUse" x1="82.6763" y1="1294.0576" x2="82.6763" y2="1337.3242" gradientTransform="matrix(1 0 0 1 216 -1191.46)">
		<stop  offset="0" style="stop-color:#FFBE12"/>
		<stop  offset="0.3876" style="stop-color:#FFB21B"/>
		<stop  offset="0.4631" style="stop-color:#FFAD1F"/>
		<stop  offset="0.7237" style="stop-color:#FFA127"/>
		<stop  offset="0.984" style="stop-color:#FF9D2A"/>
	</linearGradient>
	<path fill="url(#SVGID_5_)" d="M316.405,105.021h6.932l-9.638,34.858h-6.984l-7.966-24.83l-7.967,24.83h-7.078l-9.688-34.858h7.178
		l6.393,23.994l7.72-23.994h7.03l7.771,24.092L316.405,105.021z"/>
	
		<linearGradient id="SVGID_6_" gradientUnits="userSpaceOnUse" x1="150.1899" y1="1294.0537" x2="150.1899" y2="1337.325" gradientTransform="matrix(1 0 0 1 216 -1191.46)">
		<stop  offset="0" style="stop-color:#FFBE12"/>
		<stop  offset="0.3876" style="stop-color:#FFB21B"/>
		<stop  offset="0.4631" style="stop-color:#FFAD1F"/>
		<stop  offset="0.7237" style="stop-color:#FFA127"/>
		<stop  offset="0.984" style="stop-color:#FF9D2A"/>
	</linearGradient>
	<path fill="url(#SVGID_6_)" d="M366.166,104.281c9.491,0,17.947,6.934,17.947,18.193c0,11.209-8.456,18.145-17.947,18.145
		c-9.438,0-17.898-6.936-17.898-18.145C348.268,111.214,356.728,104.281,366.166,104.281z M366.166,134.031
		c5.41,0,10.917-3.738,10.917-11.605c0-7.865-5.506-11.604-10.917-11.604c-5.359,0-10.866,3.736-10.866,11.604
		C355.3,130.294,360.807,134.031,366.166,134.031z"/>
	
		<linearGradient id="SVGID_7_" gradientUnits="userSpaceOnUse" x1="209.958" y1="1294.0547" x2="209.958" y2="1337.326" gradientTransform="matrix(1 0 0 1 216 -1191.46)">
		<stop  offset="0" style="stop-color:#FFBE12"/>
		<stop  offset="0.3876" style="stop-color:#FFB21B"/>
		<stop  offset="0.4631" style="stop-color:#FFAD1F"/>
		<stop  offset="0.7237" style="stop-color:#FFA127"/>
		<stop  offset="0.984" style="stop-color:#FF9D2A"/>
	</linearGradient>
	<path fill="url(#SVGID_7_)" d="M423.943,126.458h-3.539v13.424h-6.836v-34.86h13.622c6.782,0,11.11,4.672,11.11,10.719
		c0,4.867-2.853,8.557-7.425,9.885l7.473,14.26h-7.569L423.943,126.458z M425.909,120.607c3.44,0,5.46-1.967,5.46-4.818
		c0-2.947-2.02-4.865-5.46-4.865h-5.507v9.686L425.909,120.607L425.909,120.607z"/>
	
		<linearGradient id="SVGID_8_" gradientUnits="userSpaceOnUse" x1="266.7271" y1="1294.0566" x2="266.7271" y2="1337.3256" gradientTransform="matrix(1 0 0 1 216 -1191.46)">
		<stop  offset="0" style="stop-color:#FFBE12"/>
		<stop  offset="0.3876" style="stop-color:#FFB21B"/>
		<stop  offset="0.4631" style="stop-color:#FFAD1F"/>
		<stop  offset="0.7237" style="stop-color:#FFA127"/>
		<stop  offset="0.984" style="stop-color:#FF9D2A"/>
	</linearGradient>
	<path fill="url(#SVGID_8_)" d="M478.967,125.425l-4.328,4.771v9.688h-6.785v-34.859h6.785v15.783l13.965-15.783h8.899
		l-13.816,15.191l13.915,19.668h-8.507L478.967,125.425z"/>
</g>
</svg>
