<?xml version="1.0" encoding="utf-8"?>
<!-- Generator: Adobe Illustrator 16.0.4, SVG Export Plug-In . SVG Version: 6.00 Build 0)  -->
<!DOCTYPE svg PUBLIC "-//W3C//DTD SVG 1.1//EN" "http://www.w3.org/Graphics/SVG/1.1/DTD/svg11.dtd">
<svg version="1.1" id="Layer_1" xmlns="http://www.w3.org/2000/svg" xmlns:xlink="http://www.w3.org/1999/xlink" x="0px" y="0px"
	 width="360px" height="116px" viewBox="0 0 360 116" enable-background="new 0 0 360 116" xml:space="preserve">
<linearGradient id="SVGID_1_" gradientUnits="userSpaceOnUse" x1="0" y1="26.75" x2="360" y2="26.75">
	<stop  offset="0.0198" style="stop-color:#FF8E00"/>
	<stop  offset="0.3544" style="stop-color:#FF8E00"/>
</linearGradient>
<polygon opacity="0.3" fill="url(#SVGID_1_)" points="0,0 0,6.805 0,40.844 45,22.493 78,35.351 113,16.539 186,22.436 
	217.5,38.543 261,13.798 311.5,53.5 323,33.078 360,38.042 360,0 "/>
<linearGradient id="SVGID_2_" gradientUnits="userSpaceOnUse" x1="0" y1="14.5391" x2="360" y2="14.5391">
	<stop  offset="0.0198" style="stop-color:#FF8E00"/>
	<stop  offset="0.3544" style="stop-color:#FF8E00"/>
</linearGradient>
<polygon fill="url(#SVGID_2_)" points="0,-4 0,6.805 45,22.493 59.5,0 113,16.539 198,1.134 186,22.493 241.5,0.945 261,13.798 
	293,0.945 323,33.078 360,21.359 360,-4 "/>
</svg>
