<?xml version="1.0" encoding="utf-8"?>
<!-- Generator: Adobe Illustrator 16.0.4, SVG Export Plug-In . SVG Version: 6.00 Build 0)  -->
<!DOCTYPE svg PUBLIC "-//W3C//DTD SVG 1.1//EN" "http://www.w3.org/Graphics/SVG/1.1/DTD/svg11.dtd">
<svg version="1.1" id="Layer_1" xmlns="http://www.w3.org/2000/svg" xmlns:xlink="http://www.w3.org/1999/xlink" x="0px" y="0px"
	 width="535px" height="151px" viewBox="0 0 535 151" enable-background="new 0 0 535 151" xml:space="preserve">
<g opacity="0.5">
	<path fill="#0D0D0D" d="M95.557,99.581h7.02v0.561c0,1.276-0.15,2.406-0.451,3.389c-0.293,0.91-0.789,1.761-1.486,2.554
		c-1.577,1.775-3.583,2.661-6.019,2.661c-2.376,0-4.413-0.856-6.106-2.573c-1.695-1.725-2.542-3.793-2.542-6.206
		c0-2.466,0.862-4.557,2.586-6.272c1.724-1.724,3.822-2.586,6.294-2.586c1.328,0,2.567,0.271,3.719,0.811
		c1.1,0.541,2.182,1.419,3.247,2.634l-1.827,1.749c-1.394-1.855-3.092-2.783-5.095-2.783c-1.797,0-3.305,0.619-4.522,1.859
		c-1.218,1.218-1.827,2.743-1.827,4.577c0,1.894,0.679,3.451,2.036,4.677c1.269,1.138,2.644,1.706,4.126,1.706
		c1.261,0,2.394-0.425,3.4-1.273c1.005-0.856,1.566-1.881,1.684-3.074h-4.236V99.581z"/>
	<rect x="111.66" y="91.438" fill="#0D0D0D" width="2.564" height="16.989"/>
	<polygon fill="#0D0D0D" points="128.853,93.848 128.853,108.428 126.289,108.428 126.289,93.848 122.383,93.848 122.383,91.438 
		132.748,91.438 132.748,93.848 	"/>
	<path fill="#0D0D0D" d="M152.846,92.345v3.032c-1.481-1.24-3.015-1.859-4.599-1.859c-1.746,0-3.217,0.626-4.413,1.881
		c-1.203,1.248-1.804,2.773-1.804,4.578c0,1.782,0.601,3.286,1.804,4.512c1.203,1.225,2.678,1.838,4.423,1.838
		c0.903,0,1.669-0.147,2.3-0.441c0.352-0.146,0.717-0.344,1.095-0.594c0.378-0.249,0.776-0.551,1.194-0.902v3.098
		c-1.467,0.833-3.007,1.25-4.621,1.25c-2.428,0-4.5-0.848-6.218-2.543c-1.708-1.709-2.563-3.771-2.563-6.184
		c0-2.165,0.714-4.094,2.146-5.788c1.761-2.076,4.038-3.114,6.833-3.114C149.948,91.107,151.423,91.52,152.846,92.345"/>
	<path fill="#8C8C8C" d="M162.515,97.147c0-2.391,0.876-4.444,2.63-6.162c1.746-1.716,3.844-2.573,6.294-2.573
		c2.42,0,4.497,0.864,6.228,2.597c1.739,1.73,2.608,3.81,2.608,6.238c0,2.442-0.873,4.515-2.619,6.217
		c-1.753,1.71-3.87,2.564-6.35,2.564c-2.193,0-4.163-0.76-5.908-2.278C163.476,102.07,162.515,99.87,162.515,97.147 M165.101,97.176
		c0,1.876,0.63,3.419,1.893,4.629c1.254,1.208,2.703,1.812,4.346,1.812c1.783,0,3.286-0.615,4.512-1.846
		c1.225-1.246,1.837-2.764,1.837-4.552c0-1.811-0.605-3.328-1.816-4.552c-1.203-1.231-2.692-1.848-4.467-1.848
		c-1.768,0-3.261,0.616-4.479,1.848C165.71,93.885,165.101,95.388,165.101,97.176"/>
	<rect x="187.826" y="91.438" fill="#0D0D0D" width="2.564" height="16.989"/>
	<polygon fill="#0D0D0D" points="200.332,108.428 200.332,90.283 212.722,103.245 212.722,91.438 215.285,91.438 215.285,109.461 
		202.896,96.532 202.896,108.428 	"/>
	<path fill="#0D0D0D" d="M112.922,119.058h0.524c0.81,0,1.573,0.211,1.573,1.18c0,0.313-0.17,0.677-0.461,0.814v0.011
		c0.507,0.092,0.861,0.588,0.861,1.089c0,0.861-0.735,1.202-1.493,1.202h-1.003V119.058z M113.458,120.96h0.136
		c0.507,0,0.923-0.103,0.923-0.718c0-0.604-0.41-0.706-0.912-0.706h-0.147V120.96z M113.458,122.875h0.41
		c0.496,0,1.014-0.147,1.014-0.758c0-0.604-0.615-0.729-1.094-0.729h-0.33V122.875z"/>
	<path fill="#0D0D0D" d="M117.959,119.058v2.535c0,0.701,0.211,1.352,1.037,1.352s1.038-0.65,1.038-1.352v-2.535h0.535v2.718
		c0,0.945-0.587,1.669-1.573,1.669s-1.573-0.724-1.573-1.669v-2.718H117.959z"/>
	<rect x="122.774" y="119.058" fill="#0D0D0D" width="0.535" height="4.296"/>
	<polygon fill="#0D0D0D" points="126.13,122.864 127.435,122.864 127.435,123.354 125.595,123.354 125.595,119.058 126.13,119.058 	
		"/>
	<path fill="#0D0D0D" d="M129.225,119.058h0.888c1.317,0,2.411,0.694,2.411,2.126c0,1.464-1.071,2.17-2.427,2.17h-0.872V119.058z
		 M129.76,122.864h0.188c1.094,0,2.04-0.411,2.04-1.658c0-1.254-0.946-1.659-2.04-1.659h-0.188V122.864z"/>
	<polygon fill="#0D0D0D" points="137.224,119.058 137.839,119.058 138.894,120.892 139.948,119.058 140.564,119.058 
		139.161,121.484 139.161,123.354 138.626,123.354 138.626,121.484 	"/>
	<path fill="#0D0D0D" d="M146.615,121.206c0,1.275-1.009,2.238-2.251,2.238c-1.242,0-2.25-0.963-2.25-2.238
		c0-1.231,1.02-2.24,2.25-2.24C145.595,118.966,146.615,119.975,146.615,121.206 M146.08,121.206c0-0.946-0.707-1.738-1.716-1.738
		c-1.008,0-1.715,0.792-1.715,1.738c0,0.979,0.787,1.738,1.715,1.738C145.292,122.944,146.08,122.186,146.08,121.206"/>
	<path fill="#0D0D0D" d="M149.077,119.058v2.535c0,0.701,0.21,1.352,1.037,1.352s1.037-0.65,1.037-1.352v-2.535h0.536v2.718
		c0,0.945-0.587,1.669-1.573,1.669s-1.573-0.724-1.573-1.669v-2.718H149.077z"/>
	<path fill="#0D0D0D" d="M156.581,123.354h-0.65l-1.265-1.817h-0.223v1.817h-0.535v-4.296h0.65c0.381,0,0.792,0.005,1.133,0.198
		c0.359,0.212,0.564,0.616,0.564,1.026c0,0.615-0.411,1.129-1.031,1.202L156.581,123.354z M154.443,121.092h0.172
		c0.547,0,1.139-0.103,1.139-0.786c0-0.673-0.638-0.77-1.168-0.77h-0.143V121.092z"/>
	<path fill="#0D0D0D" d="M161.566,119.058h0.524c0.809,0,1.573,0.211,1.573,1.18c0,0.313-0.171,0.677-0.462,0.814v0.011
		c0.507,0.092,0.86,0.588,0.86,1.089c0,0.861-0.735,1.202-1.493,1.202h-1.002V119.058z M162.102,120.96h0.137
		c0.507,0,0.923-0.103,0.923-0.718c0-0.604-0.41-0.706-0.912-0.706h-0.148V120.96z M162.102,122.875h0.411
		c0.496,0,1.014-0.147,1.014-0.758c0-0.604-0.616-0.729-1.094-0.729h-0.331V122.875z"/>
	<path fill="#8C8C8C" d="M170.54,120.017c0,1.276-1.009,2.24-2.251,2.24s-2.251-0.964-2.251-2.24c0-1.23,1.02-2.24,2.251-2.24
		C169.519,117.776,170.54,118.786,170.54,120.017 M170.004,120.017c0-0.945-0.707-1.738-1.715-1.738s-1.715,0.793-1.715,1.738
		c0,0.98,0.787,1.738,1.715,1.738C169.218,121.755,170.004,120.997,170.004,120.017"/>
	<path fill="#0D0D0D" d="M172.803,119.058v2.535c0,0.701,0.21,1.352,1.037,1.352c0.826,0,1.037-0.65,1.037-1.352v-2.535h0.535v2.718
		c0,0.945-0.586,1.669-1.572,1.669c-0.986,0-1.573-0.724-1.573-1.669v-2.718H172.803z"/>
	<polygon fill="#0D0D0D" points="177.583,118.853 180.809,122.23 180.809,119.058 181.344,119.058 181.344,123.53 178.119,120.151 
		178.119,123.354 177.583,123.354 	"/>
	<polygon fill="#0D0D0D" points="184.746,123.354 184.209,123.354 184.209,119.547 183.19,119.547 183.19,119.058 185.766,119.058 
		185.766,119.547 184.746,119.547 	"/>
	<polygon fill="#0D0D0D" points="187.224,119.058 187.839,119.058 188.894,120.892 189.948,119.058 190.563,119.058 
		189.162,121.484 189.162,123.354 188.626,123.354 188.626,121.484 	"/>
	<polygon fill="#FFFFFF" points="157.175,50.593 159.939,56.04 157.842,64.948 152.846,60.867 153.721,54.333 	"/>
	<path fill="#0D0D0D" d="M149.795,48.768c-0.575,0-1.042-0.466-1.042-1.041V39.52c0-0.575,0.467-1.042,1.042-1.042
		c0.575,0,1.041,0.467,1.041,1.042v8.208C150.836,48.302,150.37,48.768,149.795,48.768"/>
	<line fill="#FFFFFF" x1="148.247" y1="47.727" x2="151.465" y2="47.727"/>
	<path fill="#0D0D0D" d="M151.465,48.768h-3.218c-0.575,0-1.042-0.466-1.042-1.041c0-0.575,0.466-1.042,1.042-1.042h3.218
		c0.575,0,1.042,0.466,1.042,1.042C152.506,48.302,152.04,48.768,151.465,48.768"/>
	<path fill="#FFFFFF" d="M157.175,50.593l3.422-3.225c-2.618-2.618-6.236-4.237-10.231-4.237c-7.991,0-14.469,6.478-14.469,14.469
		c0,7.992,6.478,14.469,14.469,14.469c2.979,0,5.598,1.088,7.899-0.455l2.863,0.396l-0.082-4.649l-8.201-6.494l1.763-8.304
		L157.175,50.593"/>
	<path fill="#0D0D0D" d="M150.365,73.488c-8.761,0-15.889-7.128-15.889-15.889s7.128-15.889,15.889-15.889
		c4.245,0,8.234,1.653,11.235,4.653l1.035,1.035l-4.486,4.229l-1.948-2.067l2.298-2.166c-2.303-1.843-5.142-2.844-8.134-2.844
		c-7.195,0-13.049,5.854-13.049,13.049c0,7.194,5.854,13.049,13.049,13.049"/>
	<path fill="#8C8C8C" d="M158.341,65.326l-2.04-1.976c1.501-1.549,2.329-3.592,2.329-5.75c0-2.253-0.89-4.358-2.507-5.929
		l-1.064-1.034l1.141-1.076l0.972,1.03l0.93-0.957c2.172,2.109,3.368,4.938,3.368,7.966C161.47,60.5,160.358,63.244,158.341,65.326"
		/>
	<path fill="#F2F2F2" d="M147.099,57.6c0-1.805,1.462-3.267,3.267-3.267s3.267,1.462,3.267,3.267c0,1.804-1.463,3.267-3.267,3.267
		S147.099,59.403,147.099,57.6"/>
	<path fill="#0D0D0D" d="M150.365,62.286c-2.584,0-4.687-2.103-4.687-4.687s2.103-4.688,4.687-4.688
		c2.584,0,4.688,2.104,4.688,4.688S152.95,62.286,150.365,62.286 M150.365,55.753c-1.019,0-1.847,0.829-1.847,1.847
		s0.828,1.847,1.847,1.847s1.847-0.829,1.847-1.847S151.384,55.753,150.365,55.753"/>
	<line fill="#0D0D0D" x1="160.597" y1="47.368" x2="152.34" y2="54.997"/>
	
		<rect x="155.048" y="45.562" transform="matrix(0.6786 0.7345 -0.7345 0.6786 87.8799 -98.4756)" fill="#0D0D0D" width="2.84" height="11.241"/>
	<polyline fill="#FFFFFF" points="151.907,60.48 157.842,64.948 161.046,67.36 161.046,73.488 154.609,73.178 	"/>
	<polygon fill="#0D0D0D" points="162.466,73.488 150.107,73.488 150.107,70.649 159.627,70.649 159.627,68.068 151.053,61.615 
		152.761,59.346 162.466,66.652 	"/>
	
		<rect x="163.807" y="39.496" transform="matrix(0.7071 -0.7071 0.7071 0.7071 19.7169 128.2023)" fill="#A5A5A5" width="1.61" height="1.61"/>
	
		<rect x="158.741" y="34.429" transform="matrix(0.7068 -0.7074 0.7074 0.7068 22.0294 122.7769)" fill="#A5A5A5" width="0.77" height="0.77"/>
	<path fill="#A5A5A5" d="M165.322,30.036c0-0.453-0.368-0.82-0.82-0.82c-0.453,0-0.82,0.367-0.82,0.82c0,0.453,0.367,0.82,0.82,0.82
		C164.954,30.856,165.322,30.489,165.322,30.036"/>
	<path fill="#0D0D0D" d="M144.865,51.635c-0.575,0-1.041-0.467-1.041-1.042V39.52c0-0.575,0.466-1.042,1.041-1.042
		c0.575,0,1.042,0.467,1.042,1.042v11.074C145.907,51.168,145.44,51.635,144.865,51.635"/>
</g>
<path id="Bounties" opacity="0.5" fill="#212121" d="M341.501,108.618c0.604,0,1.098-0.082,1.51-0.22
	c0.384-0.137,0.714-0.328,0.933-0.576c0.22-0.247,0.412-0.521,0.495-0.851c0.083-0.33,0.137-0.631,0.137-0.988
	s-0.055-0.714-0.165-0.988c-0.109-0.302-0.274-0.55-0.521-0.741c-0.247-0.22-0.549-0.357-0.96-0.467
	c-0.384-0.109-0.878-0.164-1.455-0.164h-3.211v5.023h3.239V108.618L341.501,108.618z M338.263,96.073v4.941h2.498
	c0.521,0,0.988-0.055,1.428-0.137c0.412-0.083,0.768-0.22,1.043-0.411c0.274-0.193,0.494-0.44,0.631-0.77
	c0.137-0.33,0.219-0.687,0.219-1.153c0-0.466-0.055-0.851-0.192-1.152c-0.138-0.302-0.302-0.576-0.549-0.769
	c-0.247-0.192-0.577-0.329-0.961-0.412c-0.384-0.081-0.851-0.137-1.373-0.137L338.263,96.073L338.263,96.073z M340.98,93.219
	c1.235,0,2.278,0.11,3.157,0.357c0.878,0.22,1.592,0.548,2.141,0.988c0.549,0.411,0.96,0.933,1.208,1.536
	c0.246,0.604,0.384,1.291,0.384,2.032c0,0.411-0.056,0.823-0.192,1.208c-0.109,0.385-0.302,0.741-0.576,1.098
	c-0.248,0.329-0.577,0.659-0.989,0.933c-0.412,0.275-0.878,0.522-1.427,0.714c1.235,0.302,2.168,0.769,2.773,1.428
	c0.604,0.658,0.905,1.537,0.905,2.58c0,0.769-0.138,1.482-0.439,2.169c-0.302,0.659-0.741,1.234-1.317,1.729
	c-0.577,0.494-1.29,0.879-2.114,1.151c-0.824,0.276-1.812,0.413-2.882,0.413h-7.11v-18.31h6.479V93.219L340.98,93.219z
	 M356.627,98.297c0.988,0,1.867,0.165,2.662,0.467c0.797,0.302,1.482,0.769,2.059,1.345c0.577,0.576,1.016,1.291,1.318,2.113
	c0.302,0.824,0.467,1.758,0.467,2.801c0,1.044-0.165,1.977-0.467,2.801c-0.303,0.823-0.741,1.536-1.318,2.113
	c-0.576,0.577-1.262,1.016-2.059,1.345c-0.795,0.303-1.674,0.467-2.662,0.467s-1.867-0.164-2.689-0.467
	c-0.797-0.302-1.482-0.768-2.06-1.345s-1.016-1.29-1.345-2.113c-0.33-0.824-0.467-1.757-0.467-2.801
	c0-1.043,0.164-1.977,0.467-2.801c0.329-0.822,0.768-1.536,1.345-2.113c0.577-0.576,1.263-1.015,2.06-1.345
	C354.732,98.435,355.639,98.297,356.627,98.297z M356.627,109.112c0.988,0,1.729-0.329,2.224-1.015
	c0.466-0.688,0.714-1.702,0.714-3.075c0-1.345-0.248-2.36-0.714-3.047c-0.468-0.687-1.208-1.016-2.224-1.016
	s-1.758,0.329-2.251,1.016c-0.467,0.687-0.714,1.702-0.714,3.047c0,1.346,0.247,2.388,0.714,3.075
	C354.869,108.756,355.611,109.112,356.627,109.112z M376.775,98.517v13.013h-2.141c-0.439,0-0.741-0.193-0.852-0.604l-0.219-0.906
	c-0.275,0.247-0.521,0.495-0.797,0.687c-0.274,0.22-0.576,0.384-0.879,0.549c-0.302,0.165-0.658,0.273-1.016,0.357
	c-0.356,0.082-0.768,0.137-1.18,0.137c-0.714,0-1.345-0.11-1.895-0.356c-0.549-0.247-1.015-0.577-1.371-1.016
	c-0.357-0.439-0.66-0.962-0.852-1.565c-0.192-0.604-0.303-1.262-0.303-2.003v-8.264h3.486v8.264c0,0.713,0.165,1.29,0.494,1.674
	c0.33,0.411,0.824,0.604,1.482,0.604c0.495,0,0.961-0.11,1.373-0.33c0.439-0.22,0.851-0.494,1.235-0.878v-9.36L376.775,98.517
	L376.775,98.517z M382.869,100.026c0.275-0.247,0.521-0.494,0.824-0.686c0.302-0.192,0.576-0.385,0.906-0.55
	c0.328-0.164,0.658-0.274,1.015-0.356c0.357-0.083,0.769-0.138,1.181-0.138c0.714,0,1.346,0.11,1.895,0.357s1.015,0.576,1.371,1.016
	c0.385,0.438,0.66,0.961,0.852,1.564c0.192,0.604,0.275,1.264,0.275,2.004v8.289h-3.486v-8.262c0-0.714-0.166-1.29-0.494-1.675
	c-0.33-0.411-0.824-0.604-1.482-0.604c-0.494,0-0.961,0.11-1.373,0.302c-0.439,0.22-0.852,0.494-1.236,0.879v9.359h-3.486V98.517
	h2.143c0.439,0,0.741,0.192,0.878,0.604L382.869,100.026z M407.521,111.529h-3.46v-10.515h-5.764v6.78
	c0,0.356,0.082,0.659,0.246,0.852c0.165,0.219,0.413,0.328,0.741,0.328c0.165,0,0.303-0.026,0.439-0.055
	c0.11-0.027,0.22-0.082,0.302-0.137c0.083-0.056,0.165-0.082,0.247-0.138c0.082-0.027,0.138-0.056,0.221-0.056
	c0.108,0,0.191,0.028,0.247,0.083c0.055,0.055,0.137,0.137,0.191,0.247l1.044,1.674c-0.468,0.385-1.016,0.659-1.62,0.851
	c-0.604,0.193-1.234,0.303-1.895,0.303c-0.576,0-1.098-0.082-1.564-0.246c-0.467-0.166-0.851-0.413-1.153-0.742
	c-0.302-0.329-0.549-0.714-0.712-1.153c-0.166-0.438-0.248-0.96-0.248-1.536v-7.028h-1.234c-0.193,0-0.33-0.055-0.468-0.164
	c-0.137-0.11-0.192-0.303-0.192-0.521v-1.372l2.087-0.385l0.713-3.377c0.083-0.385,0.357-0.576,0.77-0.576h1.812v3.953h9.251
	V111.529L407.521,111.529z M408.068,94.783c0,0.275-0.055,0.549-0.164,0.823c-0.109,0.248-0.275,0.467-0.467,0.659
	s-0.439,0.33-0.687,0.467c-0.246,0.138-0.549,0.165-0.852,0.165c-0.273,0-0.548-0.056-0.822-0.165s-0.495-0.274-0.687-0.467
	s-0.357-0.411-0.466-0.659c-0.11-0.247-0.165-0.521-0.165-0.823s0.055-0.576,0.165-0.823c0.108-0.247,0.274-0.494,0.466-0.686
	c0.191-0.192,0.412-0.358,0.687-0.467c0.274-0.109,0.521-0.164,0.822-0.164c0.303,0,0.578,0.055,0.852,0.164
	c0.274,0.108,0.495,0.274,0.687,0.467c0.191,0.191,0.357,0.411,0.467,0.686C408.014,94.207,408.068,94.481,408.068,94.783z
	 M418.774,103.485c0-0.357-0.055-0.714-0.138-1.043c-0.108-0.329-0.246-0.632-0.466-0.88c-0.221-0.247-0.467-0.438-0.796-0.603
	c-0.33-0.138-0.715-0.221-1.153-0.221c-0.823,0-1.482,0.248-1.949,0.714c-0.467,0.468-0.769,1.153-0.934,2.031L418.774,103.485
	L418.774,103.485L418.774,103.485z M413.285,105.544c0.108,1.208,0.466,2.115,1.043,2.69c0.576,0.576,1.344,0.851,2.278,0.851
	c0.466,0,0.905-0.056,1.235-0.164c0.356-0.11,0.658-0.248,0.933-0.385c0.274-0.138,0.494-0.274,0.714-0.385
	c0.22-0.109,0.439-0.164,0.631-0.164c0.274,0,0.467,0.109,0.631,0.301l1.017,1.265c-0.357,0.438-0.77,0.796-1.236,1.069
	c-0.466,0.274-0.905,0.494-1.399,0.659c-0.467,0.165-0.961,0.274-1.455,0.33c-0.493,0.055-0.96,0.082-1.427,0.082
	c-0.905,0-1.757-0.138-2.554-0.439c-0.796-0.302-1.481-0.742-2.058-1.317c-0.578-0.577-1.044-1.317-1.373-2.169
	c-0.33-0.879-0.494-1.867-0.494-3.02c0-0.879,0.138-1.729,0.438-2.498c0.303-0.796,0.714-1.455,1.264-2.06
	c0.549-0.575,1.208-1.042,2.004-1.372c0.796-0.329,1.674-0.521,2.662-0.521c0.824,0,1.592,0.138,2.307,0.385
	c0.713,0.247,1.317,0.659,1.811,1.152c0.494,0.494,0.906,1.126,1.181,1.866c0.274,0.742,0.412,1.565,0.412,2.526
	c0,0.274,0,0.467-0.027,0.631s-0.055,0.303-0.138,0.411c-0.056,0.109-0.137,0.166-0.247,0.22c-0.108,0.028-0.219,0.055-0.384,0.055
	L413.285,105.544L413.285,105.544z M432.144,101.18c-0.083,0.137-0.192,0.246-0.275,0.301c-0.082,0.056-0.219,0.084-0.385,0.084
	c-0.164,0-0.328-0.056-0.521-0.139c-0.165-0.081-0.385-0.164-0.604-0.274c-0.221-0.109-0.468-0.191-0.741-0.274
	c-0.275-0.082-0.604-0.138-0.989-0.138c-0.577,0-0.988,0.11-1.317,0.357c-0.302,0.219-0.467,0.549-0.467,0.906
	c0,0.274,0.083,0.467,0.274,0.659c0.165,0.164,0.412,0.329,0.714,0.466c0.303,0.138,0.631,0.247,0.988,0.357
	c0.357,0.109,0.741,0.247,1.153,0.384c0.385,0.138,0.768,0.302,1.152,0.467c0.356,0.165,0.715,0.385,0.987,0.659
	c0.303,0.274,0.522,0.576,0.715,0.961c0.164,0.385,0.274,0.823,0.274,1.345c0,0.631-0.109,1.208-0.357,1.757
	c-0.219,0.521-0.576,0.987-1.015,1.372c-0.439,0.385-0.989,0.687-1.675,0.906c-0.659,0.22-1.428,0.33-2.306,0.33
	c-0.439,0-0.879-0.028-1.317-0.11c-0.439-0.082-0.851-0.192-1.263-0.329c-0.385-0.138-0.77-0.33-1.099-0.521
	c-0.357-0.193-0.631-0.411-0.905-0.632l0.796-1.29c0.082-0.164,0.22-0.274,0.356-0.356c0.138-0.083,0.33-0.139,0.549-0.139
	c0.221,0,0.413,0.056,0.577,0.166s0.384,0.219,0.604,0.329c0.22,0.109,0.467,0.246,0.769,0.329c0.303,0.109,0.659,0.165,1.126,0.165
	c0.329,0,0.631-0.028,0.878-0.109c0.247-0.083,0.44-0.193,0.604-0.303c0.165-0.138,0.274-0.274,0.329-0.438
	c0.083-0.165,0.109-0.33,0.109-0.521c0-0.275-0.082-0.522-0.274-0.714c-0.192-0.192-0.411-0.33-0.713-0.467
	c-0.303-0.137-0.631-0.247-1.016-0.357c-0.385-0.109-0.77-0.22-1.153-0.357c-0.384-0.137-0.769-0.301-1.152-0.467
	c-0.385-0.191-0.714-0.41-0.988-0.713c-0.303-0.274-0.522-0.631-0.714-1.043c-0.192-0.411-0.275-0.906-0.275-1.51
	c0-0.549,0.11-1.043,0.302-1.538c0.221-0.493,0.522-0.905,0.962-1.289c0.411-0.357,0.933-0.659,1.565-0.879
	c0.631-0.22,1.344-0.328,2.168-0.328c0.933,0,1.757,0.163,2.525,0.465c0.769,0.303,1.372,0.687,1.867,1.182L432.144,101.18z"/>
<path id="Network" opacity="0.5" fill="#B0B0B0" d="M335.161,114.959c0.055,0,0.11,0,0.164,0c0.056,0,0.083,0.028,0.11,0.028
	c0.028,0.027,0.055,0.027,0.11,0.055c0.027,0.027,0.055,0.082,0.11,0.11l3.952,5.05c-0.027-0.108-0.027-0.246-0.027-0.356
	s0-0.22,0-0.329v-4.584h1.235v7.576h-0.713c-0.11,0-0.192-0.027-0.274-0.055c-0.083-0.028-0.138-0.109-0.22-0.192l-3.952-5.024
	c0,0.11,0.027,0.22,0.027,0.33c0,0.109,0,0.22,0,0.301v4.641h-1.235v-7.55H335.161z M354.76,114.959v1.126h-3.349v2.087h2.636v1.07
	h-2.636v2.141h3.349v1.126h-4.748v-7.55H354.76L354.76,114.959z M368.979,114.959v1.154h-2.278v6.396h-1.399v-6.396h-2.278v-1.154
	H368.979z M376.857,114.959h1.182c0.107,0,0.219,0.028,0.301,0.083s0.139,0.138,0.165,0.22l1.29,4.502
	c0.027,0.109,0.055,0.22,0.082,0.356c0.027,0.138,0.055,0.274,0.083,0.412c0.026-0.138,0.054-0.275,0.082-0.412
	c0.026-0.137,0.082-0.247,0.11-0.356l1.48-4.502c0.028-0.082,0.084-0.165,0.166-0.22s0.192-0.109,0.301-0.109h0.413
	c0.108,0,0.22,0.026,0.302,0.082c0.082,0.055,0.137,0.138,0.164,0.22l1.482,4.501c0.083,0.221,0.137,0.467,0.193,0.742
	c0.026-0.138,0.055-0.275,0.082-0.384c0.027-0.11,0.055-0.248,0.082-0.358l1.29-4.501c0.028-0.082,0.082-0.165,0.165-0.22
	c0.082-0.056,0.191-0.082,0.302-0.082h1.098l-2.333,7.549h-1.264l-1.646-5.16c-0.027-0.056-0.056-0.138-0.056-0.221
	c-0.026-0.082-0.055-0.164-0.055-0.246c-0.027,0.082-0.056,0.164-0.056,0.246c0,0.083-0.055,0.139-0.055,0.221l-1.674,5.16h-1.346
	L376.857,114.959z M403.402,118.748c0,0.549-0.082,1.069-0.274,1.537c-0.192,0.467-0.439,0.878-0.769,1.235
	c-0.329,0.356-0.741,0.604-1.208,0.795c-0.467,0.193-0.988,0.303-1.564,0.303s-1.099-0.109-1.564-0.303
	c-0.468-0.191-0.879-0.466-1.208-0.795c-0.33-0.357-0.605-0.742-0.77-1.235c-0.191-0.468-0.274-0.988-0.274-1.537
	s0.083-1.071,0.274-1.537c0.193-0.467,0.439-0.879,0.77-1.235c0.329-0.357,0.74-0.604,1.208-0.796
	c0.466-0.192,0.988-0.303,1.564-0.303s1.098,0.11,1.564,0.303s0.879,0.467,1.208,0.796s0.604,0.741,0.769,1.208
	C403.292,117.677,403.402,118.171,403.402,118.748z M401.947,118.748c0-0.411-0.055-0.796-0.165-1.126
	c-0.109-0.329-0.274-0.604-0.466-0.823c-0.192-0.22-0.467-0.412-0.741-0.521c-0.303-0.109-0.632-0.192-0.988-0.192
	c-0.358,0-0.713,0.055-0.989,0.192c-0.301,0.109-0.548,0.302-0.741,0.521c-0.219,0.22-0.356,0.522-0.465,0.823
	c-0.11,0.33-0.166,0.687-0.166,1.126c0,0.438,0.056,0.796,0.166,1.125c0.108,0.329,0.273,0.604,0.465,0.824
	c0.221,0.22,0.467,0.411,0.741,0.521c0.303,0.11,0.631,0.193,0.989,0.193c0.356,0,0.686-0.055,0.988-0.193
	c0.302-0.108,0.549-0.301,0.741-0.521c0.191-0.22,0.356-0.495,0.466-0.824C401.893,119.517,401.947,119.159,401.947,118.748z
	 M413.642,119.571v2.938h-1.4v-7.55h2.306c0.522,0,0.962,0.056,1.318,0.165s0.658,0.248,0.905,0.439
	c0.247,0.192,0.412,0.411,0.521,0.687c0.11,0.274,0.165,0.549,0.165,0.879c0,0.246-0.027,0.493-0.109,0.713
	c-0.083,0.22-0.193,0.439-0.33,0.604c-0.137,0.165-0.301,0.358-0.521,0.495c-0.22,0.138-0.439,0.246-0.714,0.329
	c0.165,0.109,0.33,0.247,0.468,0.439l1.894,2.772h-1.263c-0.11,0-0.221-0.027-0.303-0.082s-0.164-0.11-0.219-0.22l-1.592-2.416
	c-0.055-0.082-0.139-0.164-0.193-0.192c-0.082-0.027-0.164-0.055-0.302-0.055h-0.631V119.571L413.642,119.571z M413.642,118.556
	h0.879c0.273,0,0.493-0.027,0.686-0.11c0.192-0.055,0.357-0.164,0.494-0.274s0.22-0.247,0.275-0.411
	c0.055-0.164,0.082-0.329,0.082-0.522c0-0.383-0.138-0.686-0.384-0.878c-0.247-0.192-0.632-0.302-1.153-0.302h-0.905v2.498H413.642
	L413.642,118.556z M428.163,118.116h0.329c0.137,0,0.246-0.027,0.329-0.056c0.082-0.026,0.164-0.082,0.22-0.164l2.086-2.635
	c0.082-0.109,0.165-0.192,0.275-0.22c0.081-0.055,0.219-0.055,0.355-0.055h1.208l-2.552,3.129c-0.083,0.109-0.165,0.192-0.221,0.247
	c-0.082,0.055-0.164,0.109-0.247,0.164c0.11,0.056,0.221,0.109,0.303,0.164c0.082,0.056,0.191,0.166,0.274,0.303l2.608,3.542h-1.235
	c-0.165,0-0.303-0.028-0.385-0.083c-0.082-0.056-0.138-0.109-0.22-0.22l-2.141-2.772c-0.083-0.083-0.138-0.165-0.246-0.192
	c-0.084-0.027-0.221-0.055-0.358-0.055h-0.439v3.294h-1.399v-7.549h1.399v3.158L428.163,118.116L428.163,118.116z"/>
<path id="The" opacity="0.5" fill="#B0B0B0" d="M378.807,87.976v0.796h-1.537v4.365h-0.961v-4.365h-1.565v-0.796H378.807z
	 M384.982,93.136h-0.961v-2.25h-2.415v2.25h-0.96v-5.16h0.96V90.2h2.415v-2.225h0.961V93.136z M390.445,87.976v0.769h-2.277v1.427
	h1.812v0.741h-1.812v1.456h2.277v0.768h-3.267v-5.16H390.445L390.445,87.976z"/>
<g id="bee" opacity="0.5">
	
		<radialGradient id="Oval_1_" cx="94.7129" cy="229.2402" r="0.0906" gradientTransform="matrix(750.2699 0 0 -750.2696 -70677.5 172040.1875)" gradientUnits="userSpaceOnUse">
		<stop  offset="0" style="stop-color:#292929;stop-opacity:0.7"/>
		<stop  offset="0.2735" style="stop-color:#717171;stop-opacity:0.51"/>
		<stop  offset="0.7425" style="stop-color:#FFFFFF;stop-opacity:0"/>
	</radialGradient>
	
		<ellipse id="Oval" opacity="0.6" fill="url(#Oval_1_)" enable-background="new    " cx="382.61" cy="47.651" rx="67.94" ry="67.995"/>
	
		<linearGradient id="Shape_25_" gradientUnits="userSpaceOnUse" x1="96.4062" y1="228.041" x2="96.588" y2="228.041" gradientTransform="matrix(57.6764 0 0 -54.0788 -5173.25 12405.5)">
		<stop  offset="0" style="stop-color:#1F1F1F"/>
		<stop  offset="0.3667" style="stop-color:#262626"/>
		<stop  offset="0.9662" style="stop-color:#5C5C5C"/>
	</linearGradient>
	<path id="Shape" fill="url(#Shape_25_)" d="M394.195,77.874c0.576,0.412,1.839,0.357,2.524,0.329l0.797-0.137
		c0.082,0,0.082-0.11,0.027-0.11c-1.235-0.548-6.149-3.267-7.192-5.133c-0.219-0.412,0.632-3.212,0.632-3.212l-3.844-1.181
		c0,0,1.399,3.926,1.977,4.722C389.968,74.36,392.657,76.804,394.195,77.874z"/>
	
		<linearGradient id="Shape_26_" gradientUnits="userSpaceOnUse" x1="97.5029" y1="227.0518" x2="98.559" y2="227.457" gradientTransform="matrix(77.147 0 0 -104.0395 -7188 23673.4297)">
		<stop  offset="0.3051" style="stop-color:#1F1F1F"/>
		<stop  offset="0.8079" style="stop-color:#262626"/>
		<stop  offset="0.9662" style="stop-color:#5C5C5C"/>
	</linearGradient>
	<path id="Shape_1_" fill="url(#Shape_26_)" d="M366.388,35.518c-0.439-0.466-1.839-0.96-2.498-0.878
		c-0.027-0.549-0.138-1.537-0.302-1.949c-0.357-1.099-1.839-3.596-2.498-4.639c-0.027-0.083-0.137,0-0.11,0.082l2.306,6.617
		c-0.905,0.192-1.893,0.576-2.826,1.784c0.027-0.027,0.082-0.083,0.082-0.11c-0.137,0.137-0.22,0.219-0.22,0.219
		s-0.687-1.098-1.016-1.318c-1.07-0.658-4.31-1.098-5.518-1.235c-0.082,0-0.11,0.11-0.026,0.11l6.312,2.745
		c0,0-0.027,0.109-0.082,0.247c0.027-0.083,0.082-0.11,0.109-0.192c0.082-0.11,0.137-0.22,0.22-0.33
		c-0.083,0.11-0.138,0.22-0.22,0.33c-1.234,1.976-3.404,8.372-1.428,9.635c2.637,1.647,9.005-6.588,9.005-6.588
		S367.211,36.396,366.388,35.518z"/>
	
		<linearGradient id="Shape_27_" gradientUnits="userSpaceOnUse" x1="96.064" y1="228.8525" x2="96.2446" y2="228.8525" gradientTransform="matrix(99.2838 0 0 -148.7227 -9165.0625 34105.0117)">
		<stop  offset="0.3051" style="stop-color:#1F1F1F"/>
		<stop  offset="0.5442" style="stop-color:#262626"/>
		<stop  offset="0.9662" style="stop-color:#5C5C5C"/>
	</linearGradient>
	<path id="Shape_2_" fill="url(#Shape_27_)" d="M390.461,82.788c-0.906-0.632-5.764-4.062-6.587-5.958
		c-0.467-1.125,0.192-3.156,0-4.94c-0.028-0.576-1.017-3.733-1.017-3.733s-2.607-6.89-3.926-8.922
		c-1.838-2.772-3.649-3.54-5.435-3.074c-1.866,0.522-0.549,2.883-0.549,2.883s5.216,6.615,6.396,9.141
		c0.797,1.758,1.07,5.792,1.95,7.55c0.796,1.619,3.952,4.748,5.627,6.341c0.659,0.631,1.538,0.961,2.442,0.879l1.016-0.082
		C390.461,82.897,390.518,82.814,390.461,82.788z"/>
	
		<linearGradient id="Shape_28_" gradientUnits="userSpaceOnUse" x1="99.8145" y1="227.6592" x2="99.8145" y2="227.3562" gradientTransform="matrix(44.4734 0 0 -95.6681 -4073.5312 21813.7852)">
		<stop  offset="0" style="stop-color:#1F1F1F"/>
		<stop  offset="0.6643" style="stop-color:#262626"/>
		<stop  offset="0.9662" style="stop-color:#5C5C5C"/>
	</linearGradient>
	<path id="Shape_3_" fill="url(#Shape_28_)" d="M366.525,40.569c-1.729-0.688-2.416-1.62-2.718,2.277
		c-0.138,1.785-1.757,6.671-1.29,8.428c0.109,0.357,0.658,1.346,0.686,1.729c0.027,0.988-1.208,3.376-1.674,4.2
		c-0.027,0.082,0.027,0.11,0.109,0.082c0.631-0.521,2.113-1.839,2.525-2.525c0.027-0.027,0.082-0.109,0.082-0.191
		c0.22-0.357,0.55-1.071,0.631-2.087c0.083-0.687-0.026-1.646,0.578-2.498c0.301-0.356,4.145,0.659,4.145,0.659
		s-4.173-1.565-4.062-2.169c0.246-1.181,0.549-2.224,0.851-2.854C366.388,45.675,368.83,41.53,366.525,40.569z"/>
	
		<linearGradient id="Shape_29_" gradientUnits="userSpaceOnUse" x1="94.9517" y1="224.6621" x2="94.9517" y2="225.0182" gradientTransform="matrix(102.1874 0 0 -53.5578 -9295.25 12083.2764)">
		<stop  offset="0.0547" style="stop-color:#DEDEDE"/>
		<stop  offset="0.506" style="stop-color:#888888"/>
		<stop  offset="0.7303" style="stop-color:#B5B5B5"/>
	</linearGradient>
	<path id="Shape_4_" fill="url(#Shape_29_)" d="M412.366,31.977c-0.521-0.083-1.069-0.138-1.646-0.22
		c-1.565,3.047-3.762,5.902-5.49,6.945c-1.894,1.181-4.392,2.087-6.863,2.745c2.828-0.467,5.052-0.961,6.396-1.317
		c3.433-0.96,12.326-2.718,12.105-6.286C416.813,32.636,413.575,32.196,412.366,31.977z"/>
	
		<linearGradient id="Shape_30_" gradientUnits="userSpaceOnUse" x1="95.9038" y1="214.3926" x2="96.2615" y2="214.3926" gradientTransform="matrix(80.9651 0 0 -14.5516 -7381.1875 3161.8857)">
		<stop  offset="0.0017" style="stop-color:#727272"/>
		<stop  offset="0.7921" style="stop-color:#DEDEDE"/>
	</linearGradient>
	<path id="Shape_5_" fill="url(#Shape_30_)" d="M383.956,40.897l-0.082-0.081c-0.11,0.191-0.138,0.301-0.138,0.301l3.103,2.334
		c0,0,5.874-0.439,11.556-1.977C392.055,41.612,383.956,40.897,383.956,40.897z"/>
	
		<linearGradient id="Shape_31_" gradientUnits="userSpaceOnUse" x1="98.1543" y1="223.3545" x2="98.2047" y2="223.203" gradientTransform="matrix(41.593 0 0 -38.6022 -3698.5312 8657.6914)">
		<stop  offset="0" style="stop-color:#C4C4C4"/>
		<stop  offset="0.0078" style="stop-color:#C2C2C2"/>
		<stop  offset="0.0791" style="stop-color:#AEAEAE"/>
		<stop  offset="0.16" style="stop-color:#9D9D9D"/>
		<stop  offset="0.2556" style="stop-color:#919191"/>
		<stop  offset="0.3738" style="stop-color:#888888"/>
		<stop  offset="0.5396" style="stop-color:#838383"/>
		<stop  offset="1" style="stop-color:#818181"/>
	</linearGradient>
	<path id="Shape_6_" fill="url(#Shape_31_)" d="M380.414,38.208l3.404,3.156c0.576-1.098,2.636-4.831,4.146-6.999
		C385.109,35.518,380.414,38.208,380.414,38.208z"/>
	
		<linearGradient id="Shape_32_" gradientUnits="userSpaceOnUse" x1="95.6333" y1="228.1904" x2="95.8148" y2="228.1904" gradientTransform="matrix(90.2669 0 0 -95.089 -8247.3125 21761.625)">
		<stop  offset="0.3051" style="stop-color:#1F1F1F"/>
		<stop  offset="0.8079" style="stop-color:#262626"/>
		<stop  offset="0.9662" style="stop-color:#5C5C5C"/>
	</linearGradient>
	<path id="Shape_7_" fill="url(#Shape_32_)" d="M385.246,66.674c0,0,0.521,0.961,1.346,1.675c0.247,0.246,3.102,3.294,5.819,3.486
		c5.407,0.357,7.576-4.941,8.29-6.78c0.438-1.125,0.795-3.596,0.879-4.804c0.026-0.577-0.33-2.278-0.33-2.278l-2.553-0.988
		l-1.977-2.388l-2.443,5.353L385.246,66.674z"/>
	
		<linearGradient id="Shape_33_" gradientUnits="userSpaceOnUse" x1="94.0151" y1="227.6074" x2="109.5374" y2="231.32" gradientTransform="matrix(63.4511 0 0 -137.2864 -5839 31434.2754)">
		<stop  offset="0.3051" style="stop-color:#1F1F1F"/>
		<stop  offset="0.5818" style="stop-color:#262626"/>
		<stop  offset="0.9662" style="stop-color:#5C5C5C"/>
	</linearGradient>
	<path id="Shape_8_" fill="url(#Shape_33_)" d="M365.207,48.749c0,0-1.839-0.741,3.156,3.597c2.663,2.305-0.74,4.062-0.878,5.901
		c-0.138,1.949,1.181,6.121,1.758,7.988c0.575,1.894,2.881,7.356,2.881,7.356c-0.026-0.467,0.028-0.769,0.138-0.906
		c0.109-0.137,0.219-0.192,0.357-0.192c0.303,0.027,0.658,0.329,0.879,0.631l0.191,0.248c0,0-0.027-0.109-0.137-0.303
		c-0.522-1.015-2.224-4.529-2.883-5.901c-0.082-0.138-0.11-0.302-0.137-0.467c-0.109-0.247-0.221-0.467-0.303-0.659
		c-0.467-1.181-0.191-4.255,0.521-5.353c0.879-1.345,2.278-1.675,2.278-1.675c0.659-0.467,2.169-0.906,2.636-1.619
		c0.082-0.109,0.742-1.318,0.742-1.428C376.764,53.415,365.207,48.749,365.207,48.749z"/>
	
		<linearGradient id="Shape_34_" gradientUnits="userSpaceOnUse" x1="337.6919" y1="178.0342" x2="354.7397" y2="186.8479" gradientTransform="matrix(0.8076 0 0 -1.6169 97.1245 364.9395)">
		<stop  offset="0.2791" style="stop-color:#1B1B1B"/>
		<stop  offset="0.7318" style="stop-color:#1F1F1F"/>
		<stop  offset="0.9965" style="stop-color:#2F2F2F"/>
	</linearGradient>
	<path id="Shape_9_" fill="url(#Shape_34_)" d="M373.497,73.07c0.083,0.192,0.138,0.302,0.138,0.302S373.58,73.263,373.497,73.07z"
		/>
	
		<linearGradient id="Shape_35_" gradientUnits="userSpaceOnUse" x1="105.6426" y1="225.1562" x2="106.8938" y2="225.1562" gradientTransform="matrix(20.7965 0 0 -50.1222 -1832.7031 11327.9141)">
		<stop  offset="0" style="stop-color:#292929"/>
		<stop  offset="1" style="stop-color:#585858"/>
	</linearGradient>
	<path id="Shape_10_" fill="url(#Shape_35_)" d="M364.301,47.157c0,0,1.539-5.6,3.762-9.086
		C365.345,40.897,364.438,44.632,364.301,47.157z"/>
	
		<linearGradient id="Shape_36_" gradientUnits="userSpaceOnUse" x1="106.0752" y1="195.4727" x2="109.0037" y2="195.4727" gradientTransform="matrix(8.8839 0 0 -6.0632 -578.0391 1230.3457)">
		<stop  offset="0" style="stop-color:#292929"/>
		<stop  offset="1" style="stop-color:#585858"/>
	</linearGradient>
	<path id="Shape_11_" fill="url(#Shape_36_)" d="M390.324,45.702c0,0-0.658-0.438-1.619-1.099l1.399,0.988
		C390.242,45.675,390.324,45.702,390.324,45.702z"/>
	
		<linearGradient id="Shape_37_" gradientUnits="userSpaceOnUse" x1="108.9893" y1="170.5781" x2="110.3688" y2="170.5781" gradientTransform="matrix(12.3164 0 0 -4.2442 -974.1953 759.4554)">
		<stop  offset="0" style="stop-color:#292929"/>
		<stop  offset="1" style="stop-color:#585858"/>
	</linearGradient>
	<path id="Shape_12_" fill="url(#Shape_37_)" d="M377.121,35.573c-0.549-0.192-1.098-0.356-1.73-0.466
		c0.77,0.192,1.512,0.466,2.225,0.769"/>
	
		<linearGradient id="Shape_38_" gradientUnits="userSpaceOnUse" x1="106.7139" y1="226.7783" x2="107.3818" y2="226.9431" gradientTransform="matrix(16.7584 0 0 -35.1663 -1419.0156 8046.1689)">
		<stop  offset="0.2791" style="stop-color:#1B1B1B"/>
		<stop  offset="0.7318" style="stop-color:#1F1F1F"/>
		<stop  offset="0.9965" style="stop-color:#2F2F2F"/>
	</linearGradient>
	<path id="Shape_13_" fill="url(#Shape_38_)" d="M373.497,73.07c-0.467-0.988-2.169-4.42-3.048-6.369
		c0.029,0.192,0.11,0.329,0.139,0.467C371.246,68.514,373.004,72.055,373.497,73.07z"/>
	
		<linearGradient id="Shape_39_" gradientUnits="userSpaceOnUse" x1="103.3071" y1="210.6172" x2="104.5552" y2="210.6172" gradientTransform="matrix(13.124 0 0 -4.6485 -970.5703 1050.4357)">
		<stop  offset="0.3051" style="stop-color:#1F1F1F"/>
		<stop  offset="1" style="stop-color:#262626"/>
	</linearGradient>
	<path id="Shape_14_" fill="url(#Shape_39_)" d="M392.191,71.808l-2.389-0.851C389.803,70.984,391.395,71.615,392.191,71.808z"/>
	
		<linearGradient id="Shape_40_" gradientUnits="userSpaceOnUse" x1="95.4072" y1="228.1055" x2="95.5884" y2="228.1055" gradientTransform="matrix(124.6419 0 0 -109.5455 -11512.6875 25044.8125)">
		<stop  offset="0" style="stop-color:#B7B7B7"/>
		<stop  offset="0.4502" style="stop-color:#A1A1A1"/>
		<stop  offset="0.8846" style="stop-color:#B3B3B3"/>
	</linearGradient>
	<path id="Shape_15_" fill="url(#Shape_40_)" d="M395.596,49.408c-0.083-0.138-0.192-0.247-0.303-0.357
		c-0.906-0.851-4.419-1.977-4.419-1.977l-4.941,3.432l-2.991,4.145l-3.871,4.447c0,0,2.991,6.835,6.312,7.659
		c4.64,1.125,9.169-4.611,9.993-6.231c0.741-1.428,0.961-3.815,1.208-3.953c0.521-0.302,1.345,1.537,2.113,1.784
		c0.905,0.33,1.126-0.137,2.416,0.11C403.501,58.961,397.104,51.164,395.596,49.408z"/>
	
		<linearGradient id="Shape_41_" gradientUnits="userSpaceOnUse" x1="97.2671" y1="226.4072" x2="97.4554" y2="226.4072" gradientTransform="matrix(74.1001 0 0 -72.5283 -6843.625 16462.1465)">
		<stop  offset="0" style="stop-color:#585858"/>
		<stop  offset="1" style="stop-color:#3F3F3F"/>
	</linearGradient>
	<path id="Shape_16_" fill="url(#Shape_41_)" d="M364.219,47.761c0.109-1.784,0.412-3.596,0.961-5.298
		c0.549-1.729,1.316-3.431,2.498-4.858c0.576-0.741,1.289-1.346,2.086-1.867c0.796-0.467,1.675-0.851,2.607-0.987
		c1.867-0.33,3.734,0.137,5.299,1.015c-1.675-0.549-3.514-0.796-5.189-0.411c-0.85,0.191-1.618,0.549-2.332,1.016
		c-0.688,0.467-1.345,1.071-1.895,1.729c-0.549,0.659-1.016,1.4-1.427,2.168c-0.412,0.769-0.77,1.564-1.099,2.416
		C365.125,44.275,364.658,46.005,364.219,47.761z"/>
	
		<linearGradient id="Shape_42_" gradientUnits="userSpaceOnUse" x1="95.9619" y1="227.7305" x2="96.1431" y2="227.7305" gradientTransform="matrix(90.1751 0 0 -96.0389 -8274.5625 21923.9844)">
		<stop  offset="0" style="stop-color:#727272"/>
		<stop  offset="1" style="stop-color:#9B9B9B"/>
	</linearGradient>
	<path id="Shape_17_" fill="url(#Shape_42_)" d="M395.02,48.667c0.465,0.905-2.993-2.938-8.043,1.619
		c-3.844,3.432-5.326,10.87-5.958,11.447c-0.687,0.631-1.454-1.454-2.059-2.525c-0.55-0.961-0.082-5.078,0.769-7.22
		c3.65-9.442,5.49-7.466,8.564-7.164C389.09,44.934,394.086,46.938,395.02,48.667z"/>
	
		<linearGradient id="Shape_43_" gradientUnits="userSpaceOnUse" x1="119.4189" y1="184.8086" x2="119.6018" y2="184.8086" gradientTransform="matrix(10.0288 0 0 -5.4464 -836.1562 1043.4976)">
		<stop  offset="0" style="stop-color:#ACACAC"/>
		<stop  offset="1" style="stop-color:#686868"/>
	</linearGradient>
	<path id="Shape_18_" opacity="0.81" fill="url(#Shape_43_)" enable-background="new    " d="M362.545,36.479
		c0.301,0.027,0.988,0.439,0.658,0.659c-0.411,0.247-1.455,0.548-1.729,0C361.363,36.836,362.105,36.369,362.545,36.479z"/>
	
		<linearGradient id="Shape_44_" gradientUnits="userSpaceOnUse" x1="673.2549" y1="-401.3828" x2="689.8918" y2="-392.7816" gradientTransform="matrix(0.4038 0 0 -0.4043 89.8542 -125.5899)">
		<stop  offset="0.2791" style="stop-color:#1B1B1B"/>
		<stop  offset="0.7318" style="stop-color:#1F1F1F"/>
		<stop  offset="0.9965" style="stop-color:#2F2F2F"/>
	</linearGradient>
	<path id="Shape_19_" fill="url(#Shape_44_)" d="M365.4,34.804l-0.084-0.028c0,0.028,0.028,0.028,0.028,0.083L365.4,34.804z"/>
	
		<linearGradient id="Shape_45_" gradientUnits="userSpaceOnUse" x1="109.0112" y1="202.7627" x2="109.7419" y2="203.4298" gradientTransform="matrix(16.7584 0 0 -9.499 -1473.5156 1965.9983)">
		<stop  offset="0.2791" style="stop-color:#262626"/>
		<stop  offset="0.5591" style="stop-color:#1F1F1F"/>
		<stop  offset="0.9965" style="stop-color:#2F2F2F"/>
	</linearGradient>
	<path id="Shape_20_" fill="url(#Shape_45_)" d="M363.588,34.832l0.027-0.109c-0.988,0.137-2.004,0.521-3.047,1.729
		c0.246-0.247,0.741-0.687,1.289-1.098C362.462,34.914,363.588,34.832,363.588,34.832z"/>
	
		<linearGradient id="Shape_46_" gradientUnits="userSpaceOnUse" x1="97.7046" y1="226.791" x2="97.8854" y2="226.791" gradientTransform="matrix(66.404 0 0 -82.9338 -6124.5312 18849.7148)">
		<stop  offset="0" style="stop-color:#727272"/>
		<stop  offset="0.5056" style="stop-color:#9F9F9F"/>
	</linearGradient>
	<path id="Shape_21_" fill="url(#Shape_46_)" d="M375.336,35.079c-0.356-1.016-2.855-1.839-5.984-1.4
		c-1.098,0.137-2.498,0.741-3.403,1.647c-1.565,1.565-2.333,4.146-2.498,6.616c-0.191,3.156,1.29,6.615,1.29,6.615
		s-0.411-1.729-0.328-2.086c-0.029,0.22-0.029,0.33-0.029,0.33s0.029-0.247,0.111-0.659c0.137-0.659,0.329-2.443,0.521-3.321
		c0.466-2.004,1.948-4.255,4.254-6.012C373.827,32.883,376.023,37.027,375.336,35.079z"/>
	
		<linearGradient id="Shape_47_" gradientUnits="userSpaceOnUse" x1="94.96" y1="225.5449" x2="95.1726" y2="225.5449" gradientTransform="matrix(135.9897 0 0 -72.342 -12529.875 16343.8477)">
		<stop  offset="0.0236" style="stop-color:#818181"/>
		<stop  offset="0.7524" style="stop-color:#D3D3D3"/>
	</linearGradient>
	<path id="Shape_22_" fill="url(#Shape_47_)" d="M410.721,31.785c1.729-3.377,2.635-6.945,1.235-8.702
		c-1.455-1.839-3.706-2.992-8.236-1.291c-6.698,2.525-11.693,7.659-15.729,12.271c0.521-0.219,0.987-0.356,1.346-0.467
		C394.47,32.279,404.654,31.236,410.721,31.785z"/>
	
		<linearGradient id="Shape_48_" gradientUnits="userSpaceOnUse" x1="95.0303" y1="225.001" x2="95.2257" y2="225.001" gradientTransform="matrix(150.6232 0 0 -54.469 -13930.5 12292.0703)">
		<stop  offset="0.0035" style="stop-color:#5B5B5B"/>
		<stop  offset="1" style="stop-color:#949494"/>
	</linearGradient>
	<path id="Shape_23_" fill="url(#Shape_48_)" d="M410.721,31.785c-6.066-0.549-16.279,0.466-21.357,1.785
		c-0.356,0.109-0.851,0.246-1.345,0.466c-1.51,2.086-3.542,5.709-4.146,6.78l-0.439,0.191c0,0,8.62,0.577,14.961,0.467
		c2.525-0.686,4.996-1.564,6.862-2.744C406.959,37.66,409.184,34.832,410.721,31.785z"/>
	
		<linearGradient id="Shape_49_" gradientUnits="userSpaceOnUse" x1="95.6826" y1="228.0273" x2="95.7945" y2="228.2162" gradientTransform="matrix(147.9523 0 0 -140.7286 -13788.875 32149.2188)">
		<stop  offset="0.3051" style="stop-color:#1F1F1F"/>
		<stop  offset="0.8079" style="stop-color:#262626"/>
		<stop  offset="0.9662" style="stop-color:#5C5C5C"/>
	</linearGradient>
	<path id="Shape_24_" fill="url(#Shape_49_)" d="M363.643,44.797c0.082,2.003,0.686,3.705,1.208,4.419
		c0.96,1.428,3.513,2.553,6.532,3.952c4.502,2.06,8.071,7.11,8.071,7.11s-1.867-7.769,2.938-12.6
		c4.091-4.091,7.905-2.004,7.96-2.169c0.74-1.345-5.078-3.212-6.727-4.475c-1.729-1.317-4.089-4.282-6.504-5.49
		c-1.648-0.796-3.871-1.29-6.946,0.083C366.223,37.385,363.561,41.941,363.643,44.797z"/>
</g>
</svg>
