<svg width="238" height="51" viewBox="0 0 238 51" fill="none" xmlns="http://www.w3.org/2000/svg">
<path d="M2.394 6.321C2.8 5.761 3.353 5.306 4.053 4.956C4.767 4.592 5.558 4.41 6.426 4.41C7.448 4.41 8.372 4.655 9.198 5.145C10.024 5.635 10.675 6.335 11.151 7.245C11.627 8.141 11.865 9.17 11.865 10.332C11.865 11.494 11.627 12.537 11.151 13.461C10.675 14.371 10.017 15.085 9.177 15.603C8.351 16.107 7.434 16.359 6.426 16.359C5.53 16.359 4.732 16.184 4.032 15.834C3.346 15.484 2.8 15.036 2.394 14.49V16.17H0V0.630001H2.394V6.321ZM9.429 10.332C9.429 9.534 9.261 8.848 8.925 8.274C8.603 7.686 8.169 7.245 7.623 6.951C7.091 6.643 6.517 6.489 5.901 6.489C5.299 6.489 4.725 6.643 4.179 6.951C3.647 7.259 3.213 7.707 2.877 8.295C2.555 8.883 2.394 9.576 2.394 10.374C2.394 11.172 2.555 11.872 2.877 12.474C3.213 13.062 3.647 13.51 4.179 13.818C4.725 14.126 5.299 14.28 5.901 14.28C6.517 14.28 7.091 14.126 7.623 13.818C8.169 13.496 8.603 13.034 8.925 12.432C9.261 11.83 9.429 11.13 9.429 10.332Z" transform="translate(56.5752 18.83)" fill="#5A28C6"/>
<path d="M19.2514 16.359C18.1594 16.359 17.1724 16.114 16.2904 15.624C15.4084 15.12 14.7154 14.42 14.2114 13.524C13.7074 12.614 13.4554 11.564 13.4554 10.374C13.4554 9.198 13.7144 8.155 14.2324 7.245C14.7504 6.335 15.4574 5.635 16.3534 5.145C17.2494 4.655 18.2504 4.41 19.3564 4.41C20.4624 4.41 21.4634 4.655 22.3594 5.145C23.2554 5.635 23.9624 6.335 24.4804 7.245C24.9984 8.155 25.2574 9.198 25.2574 10.374C25.2574 11.55 24.9914 12.593 24.4594 13.503C23.9274 14.413 23.1994 15.12 22.2754 15.624C21.3654 16.114 20.3574 16.359 19.2514 16.359ZM19.2514 14.343C19.8674 14.343 20.4414 14.189 20.9734 13.881C21.5194 13.573 21.9604 13.125 22.2964 12.537C22.6324 11.935 22.8004 11.214 22.8004 10.374C22.8004 9.534 22.6394 8.82 22.3174 8.232C21.9954 7.63 21.5684 7.182 21.0364 6.888C20.5044 6.58 19.9304 6.426 19.3144 6.426C18.6984 6.426 18.1314 6.58 17.6134 6.888C17.0954 7.182 16.6754 7.63 16.3534 8.232C16.0454 8.82 15.8914 9.534 15.8914 10.374C15.8914 11.214 16.0384 11.935 16.3324 12.537C16.6404 13.139 17.0464 13.594 17.5504 13.902C18.0684 14.196 18.6354 14.343 19.2514 14.343Z" transform="translate(56.5752 18.83)" fill="#5A28C6"/>
<path d="M38.103 4.599V16.17H35.709V14.805C35.331 15.281 34.834 15.659 34.218 15.939C33.616 16.205 32.972 16.338 32.286 16.338C31.376 16.338 30.557 16.149 29.829 15.771C29.115 15.393 28.548 14.833 28.128 14.091C27.722 13.349 27.519 12.453 27.519 11.403V4.599H29.892V11.046C29.892 12.082 30.151 12.88 30.669 13.44C31.187 13.986 31.894 14.259 32.79 14.259C33.686 14.259 34.393 13.986 34.911 13.44C35.443 12.88 35.709 12.082 35.709 11.046V4.599H38.103Z" transform="translate(56.5752 18.83)" fill="#5A28C6"/>
<path d="M47.0997 4.41C48.0097 4.41 48.8217 4.599 49.5357 4.977C50.2637 5.355 50.8307 5.915 51.2367 6.657C51.6427 7.399 51.8457 8.295 51.8457 9.345V16.17H49.4727V9.702C49.4727 8.666 49.2137 7.875 48.6957 7.329C48.1777 6.769 47.4707 6.489 46.5747 6.489C45.6787 6.489 44.9647 6.769 44.4327 7.329C43.9147 7.875 43.6557 8.666 43.6557 9.702V16.17H41.2617V4.599H43.6557V5.922C44.0477 5.446 44.5447 5.075 45.1467 4.809C45.7627 4.543 46.4137 4.41 47.0997 4.41Z" transform="translate(56.5752 18.83)" fill="#5A28C6"/>
<path d="M57.6924 6.552V12.957C57.6924 13.391 57.7904 13.706 57.9864 13.902C58.1964 14.084 58.5464 14.175 59.0364 14.175H60.5064V16.17H58.6164C57.5384 16.17 56.7124 15.918 56.1384 15.414C55.5644 14.91 55.2774 14.091 55.2774 12.957V6.552H53.9124V4.599H55.2774V1.722H57.6924V4.599H60.5064V6.552H57.6924Z" transform="translate(56.5752 18.83)" fill="#5A28C6"/>
<path d="M63.9309 3.066C63.4969 3.066 63.1329 2.919 62.8389 2.625C62.5449 2.331 62.3979 1.967 62.3979 1.533C62.3979 1.099 62.5449 0.735 62.8389 0.441001C63.1329 0.147001 63.4969 0 63.9309 0C64.3509 0 64.7079 0.147001 65.0019 0.441001C65.2959 0.735 65.4429 1.099 65.4429 1.533C65.4429 1.967 65.2959 2.331 65.0019 2.625C64.7079 2.919 64.3509 3.066 63.9309 3.066ZM65.1069 4.599V16.17H62.7129V4.599H65.1069Z" transform="translate(56.5752 18.83)" fill="#5A28C6"/>
<path d="M78.855 10.059C78.855 10.465 78.827 10.843 78.771 11.193H69.909C69.979 12.159 70.322 12.929 70.938 13.503C71.554 14.063 72.317 14.343 73.227 14.343C74.515 14.343 75.425 13.804 75.957 12.726H78.54C78.19 13.79 77.553 14.665 76.629 15.351C75.719 16.023 74.585 16.359 73.227 16.359C72.121 16.359 71.127 16.114 70.245 15.624C69.377 15.12 68.691 14.42 68.187 13.524C67.697 12.614 67.452 11.564 67.452 10.374C67.452 9.184 67.69 8.141 68.166 7.245C68.656 6.335 69.335 5.635 70.203 5.145C71.085 4.655 72.093 4.41 73.227 4.41C74.319 4.41 75.292 4.648 76.146 5.124C77 5.6 77.665 6.265 78.141 7.119C78.617 7.973 78.855 8.953 78.855 10.059ZM76.356 9.471C76.342 8.533 76.027 7.791 75.411 7.245C74.809 6.699 74.046 6.426 73.122 6.426C72.282 6.426 71.561 6.699 70.959 7.245C70.371 7.791 70.028 8.533 69.93 9.471H76.356Z" transform="translate(56.5752 18.83)" fill="#5A28C6"/>
<path d="M85.3689 16.359C84.4729 16.359 83.6679 16.198 82.9539 15.876C82.2399 15.54 81.6729 15.092 81.2529 14.532C80.8329 13.958 80.6089 13.321 80.5809 12.621H83.0589C83.1009 13.153 83.3319 13.594 83.7519 13.944C84.1859 14.294 84.7249 14.469 85.3689 14.469C86.0409 14.469 86.5589 14.336 86.9229 14.07C87.3009 13.79 87.4899 13.419 87.4899 12.957C87.4899 12.537 87.2799 12.215 86.8599 11.991C86.4399 11.767 85.7889 11.543 84.9069 11.319C84.0529 11.081 83.3529 10.857 82.8069 10.647C82.2749 10.423 81.8129 10.087 81.4209 9.639C81.0289 9.177 80.8329 8.582 80.8329 7.854C80.8329 7.224 81.0079 6.65 81.3579 6.132C81.7079 5.6 82.2119 5.18 82.8699 4.872C83.5419 4.564 84.3259 4.41 85.2219 4.41C86.5379 4.41 87.5949 4.746 88.3929 5.418C89.2049 6.076 89.6389 6.979 89.6949 8.127H87.3009C87.2589 7.567 87.0489 7.126 86.6709 6.804C86.2929 6.468 85.7819 6.3 85.1379 6.3C84.5079 6.3 84.0249 6.433 83.6889 6.699C83.3529 6.951 83.1849 7.294 83.1849 7.728C83.1849 8.036 83.2969 8.295 83.5209 8.505C83.7449 8.715 84.0249 8.883 84.3609 9.009C84.6969 9.121 85.1729 9.261 85.7889 9.429C86.6289 9.653 87.3149 9.877 87.8469 10.101C88.3789 10.325 88.8339 10.668 89.2119 11.13C89.5899 11.578 89.7789 12.166 89.7789 12.894C89.7789 13.552 89.6039 14.147 89.2539 14.679C88.9039 15.197 88.3929 15.61 87.7209 15.918C87.0629 16.212 86.2789 16.359 85.3689 16.359Z" transform="translate(56.5752 18.83)" fill="#5A28C6"/>
<path d="M93.3947 16.317C92.9607 16.317 92.5967 16.17 92.3027 15.876C92.0087 15.582 91.8617 15.218 91.8617 14.784C91.8617 14.35 92.0087 13.986 92.3027 13.692C92.5967 13.398 92.9607 13.251 93.3947 13.251C93.8147 13.251 94.1717 13.398 94.4657 13.692C94.7597 13.986 94.9067 14.35 94.9067 14.784C94.9067 15.218 94.7597 15.582 94.4657 15.876C94.1717 16.17 93.8147 16.317 93.3947 16.317Z" transform="translate(56.5752 18.83)" fill="#5A28C6"/>
<path d="M103.332 4.41C104.242 4.41 105.054 4.599 105.768 4.977C106.496 5.355 107.063 5.915 107.469 6.657C107.875 7.399 108.078 8.295 108.078 9.345V16.17H105.705V9.702C105.705 8.666 105.446 7.875 104.928 7.329C104.41 6.769 103.703 6.489 102.807 6.489C101.911 6.489 101.197 6.769 100.665 7.329C100.147 7.875 99.8881 8.666 99.8881 9.702V16.17H97.4941V4.599H99.8881V5.922C100.28 5.446 100.777 5.075 101.379 4.809C101.995 4.543 102.646 4.41 103.332 4.41Z" transform="translate(56.5752 18.83)" fill="#5A28C6"/>
<path d="M121.737 10.059C121.737 10.465 121.709 10.843 121.653 11.193H112.791C112.861 12.159 113.204 12.929 113.82 13.503C114.436 14.063 115.199 14.343 116.109 14.343C117.397 14.343 118.307 13.804 118.839 12.726H121.422C121.072 13.79 120.435 14.665 119.511 15.351C118.601 16.023 117.467 16.359 116.109 16.359C115.003 16.359 114.009 16.114 113.127 15.624C112.259 15.12 111.573 14.42 111.069 13.524C110.579 12.614 110.334 11.564 110.334 10.374C110.334 9.184 110.572 8.141 111.048 7.245C111.538 6.335 112.217 5.635 113.085 5.145C113.967 4.655 114.975 4.41 116.109 4.41C117.201 4.41 118.174 4.648 119.028 5.124C119.882 5.6 120.547 6.265 121.023 7.119C121.499 7.973 121.737 8.953 121.737 10.059ZM119.238 9.471C119.224 8.533 118.909 7.791 118.293 7.245C117.691 6.699 116.928 6.426 116.004 6.426C115.164 6.426 114.443 6.699 113.841 7.245C113.253 7.791 112.91 8.533 112.812 9.471H119.238Z" transform="translate(56.5752 18.83)" fill="#5A28C6"/>
<path d="M126.886 6.552V12.957C126.886 13.391 126.984 13.706 127.18 13.902C127.39 14.084 127.74 14.175 128.23 14.175H129.7V16.17H127.81C126.732 16.17 125.906 15.918 125.332 15.414C124.758 14.91 124.471 14.091 124.471 12.957V6.552H123.106V4.599H124.471V1.722H126.886V4.599H129.7V6.552H126.886Z" transform="translate(56.5752 18.83)" fill="#5A28C6"/>
<path d="M147.446 4.599L143.855 16.17H141.335L139.004 7.623L136.673 16.17H134.153L130.541 4.599H132.977L135.392 13.902L137.849 4.599H140.348L142.7 13.86L145.094 4.599H147.446Z" transform="translate(56.5752 18.83)" fill="#5A28C6"/>
<path d="M154.254 16.359C153.162 16.359 152.175 16.114 151.293 15.624C150.411 15.12 149.718 14.42 149.214 13.524C148.71 12.614 148.458 11.564 148.458 10.374C148.458 9.198 148.717 8.155 149.235 7.245C149.753 6.335 150.46 5.635 151.356 5.145C152.252 4.655 153.253 4.41 154.359 4.41C155.465 4.41 156.466 4.655 157.362 5.145C158.258 5.635 158.965 6.335 159.483 7.245C160.001 8.155 160.26 9.198 160.26 10.374C160.26 11.55 159.994 12.593 159.462 13.503C158.93 14.413 158.202 15.12 157.278 15.624C156.368 16.114 155.36 16.359 154.254 16.359ZM154.254 14.343C154.87 14.343 155.444 14.189 155.976 13.881C156.522 13.573 156.963 13.125 157.299 12.537C157.635 11.935 157.803 11.214 157.803 10.374C157.803 9.534 157.642 8.82 157.32 8.232C156.998 7.63 156.571 7.182 156.039 6.888C155.507 6.58 154.933 6.426 154.317 6.426C153.701 6.426 153.134 6.58 152.616 6.888C152.098 7.182 151.678 7.63 151.356 8.232C151.048 8.82 150.894 9.534 150.894 10.374C150.894 11.214 151.041 11.935 151.335 12.537C151.643 13.139 152.049 13.594 152.553 13.902C153.071 14.196 153.638 14.343 154.254 14.343Z" transform="translate(56.5752 18.83)" fill="#5A28C6"/>
<path d="M165.021 6.615C165.371 5.915 165.833 5.376 166.407 4.998C166.995 4.606 167.688 4.41 168.486 4.41V6.888H167.877C166.939 6.888 166.225 7.126 165.735 7.602C165.259 8.078 165.021 8.904 165.021 10.08V16.17H162.627V4.599H165.021V6.615Z" transform="translate(56.5752 18.83)" fill="#5A28C6"/>
<path d="M175.265 10.395L180.599 16.17H177.365L173.081 11.193V16.17H170.687V0.630001H173.081V9.66L177.281 4.599H180.599L175.265 10.395Z" transform="translate(56.5752 18.83)" fill="#5A28C6"/>
<path d="M2.18826 5.08667C2.16066 4.69719 2.07776 3.86254 1.96726 3.55642C1.69096 2.74967 0.585748 0.857723 0.0884501 0.0230716C0.060856 -0.0326204 -0.0220475 0.0230707 0.00554666 0.0786413L1.82917 5.33686C1.88448 5.30908 1.93967 5.25338 1.96726 5.2256C2.02257 5.17015 2.10548 5.11446 2.18826 5.08667Z" transform="translate(5.9375 9.34808)" fill="#5A28C6"/>
<path d="M6.21934 2.643C6.10884 2.75426 5.91544 2.643 5.91544 2.643C5.91544 2.643 4.47861 1.11287 4.20231 0.945913C3.40112 0.445171 0.941981 0.111263 0.0577626 5.62825e-07C0.00245374 5.62825e-07 -0.0251409 0.0834764 0.0301679 0.0834764C0.0301679 0.0834764 5.83254 3.14387 5.86013 3.08817C5.97063 2.92122 6.10884 2.78205 6.21934 2.643Z" transform="translate(0 13.7115)" fill="#5A28C6"/>
<path d="M5.33255 7.1782C5.77466 7.4842 6.71418 7.45641 7.23907 7.42863L7.84699 7.31725C7.90218 7.31725 7.90218 7.23377 7.87458 7.23377C6.93518 6.81651 3.23286 4.75772 2.43142 3.33873C2.26561 3.03273 2.90112 0.890342 2.90112 0.890342L1.70628e-06 6.51692e-07C1.70628e-06 6.51692e-07 1.0499 2.97691 1.49201 3.58904C2.1274 4.4795 4.17215 6.37133 5.33255 7.1782Z" transform="translate(25.7539 40.1418)" fill="#5A28C6"/>
<path d="M8.70361 0.0771989C8.37212 -0.173112 8.34453 0.0771992 7.43259 2.46989C6.5209 4.83468 4.03405 7.97854 1.67686e-06 7.1161C0.138093 7.31084 0.331614 7.45002 0.552608 7.64463C0.746008 7.83937 1.57492 8.4515 1.57492 8.4515C1.57492 8.4515 3.31564 9.98163 4.94586 10.3154C8.9522 11.1223 10.6653 6.55955 11.1902 5.19637C11.5218 4.33393 11.8257 2.66463 11.8809 1.60733C11.8809 1.41271 11.8809 0.85616 11.7704 0.967544C11.3836 1.38481 10.8587 1.35702 10.2508 1.19007C9.67061 1.05102 8.89713 0.244153 8.70361 0.0771989Z" transform="translate(24.6763 32.219)" fill="#5A28C6"/>
<path d="M18.6783 1.61526C18.3191 1.17009 18.0152 0.836298 17.6008 0.613652C16.4956 -0.109737 14.9483 -0.304477 12.4891 0.641437C9.91951 1.61514 7.93019 2.92274 6.18947 4.42521C1.00187 11.7665 0 15.1085 0 15.1085C0.911813 15.6372 2.34882 16.4719 2.34882 16.4719C2.34882 16.4719 10.9629 14.8535 15.5771 11.9601C17.7324 10.5969 18.9546 7.20727 19.1756 3.78518C19.2862 2.92287 19.148 2.19948 18.6783 1.61526Z" transform="translate(15 2.50296) rotate(-7.48599)" fill="#5A28C6"/>
<path d="M9.07719 1.59451C9.02188 0.676377 6.23125 -0.436491 5.95495 0.175635C5.07073 2.06746 4.0702 4.31783 0 5.7076C2.65242 4.95643 9.24288 4.2932 9.07719 1.59451Z" transform="translate(28.0703 9.91333) rotate(2.63737)" fill="#5A28C6"/>
<path d="M4.6163 0.711332C0.996647 2.54759 -0.0532569 5.99746 0.00205197 8.39003C0.0296461 9.05785 0.112549 9.72554 0.278355 10.282C0.49935 11.0611 0.526944 11.2001 0.830962 11.8957C1.30054 8.02846 2.68206 4.88471 5.27941 2.93719C6.90952 1.71306 8.29103 1.43484 9.34106 1.43484C9.72786 1.40706 10.391 1.46263 10.5015 1.51832C10.1147 0.98955 8.04244 -1.06911 4.6163 0.711332Z" transform="translate(20.0322 22.6819)" fill="#5A28C6"/>
<path d="M11.0829 1.00333C10.4475 0.391208 10.254 0.363424 9.72909 0.0574215C8.9279 -0.0538411 7.40817 -0.0816275 5.77794 0.725117C3.01491 2.1162 1.6058 4.53668 0.528303 7.84738C0.113908 9.09929 -0.0243057 10.6852 0.00340899 10.713C0.915101 12.0762 1.32962 12.8832 2.54545 13.1891C6.05437 14.0515 8.45819 10.7964 9.42532 8.57077C9.92273 7.40221 10.7239 5.17647 10.9449 5.06521C11.3318 4.84256 12.1054 6.06681 12.6029 6.59534C13.266 7.26304 13.7909 7.51347 14.4265 7.37442C16.167 6.98494 12.3539 2.19968 11.0829 1.00333Z" transform="translate(21.689 25.1165)" fill="#5A28C6"/>
<path d="M19.9364 36.1959C19.2457 35.7231 15.5709 33.1077 14.9905 31.6609C14.6315 30.7986 15.1564 28.851 14.9905 27.9329C14.9076 27.5156 14.5484 26.0132 14.2169 25.095C13.5814 23.37 11.6749 20.1149 11.1499 18.3622C11.067 18.0562 10.0171 13.7996 12.3657 10.6278C15.4878 6.39887 18.4167 6.78835 19.4943 7.12226C18.8312 6.17635 15.847 5.36948 14.8247 4.59052C13.5261 3.58904 11.4815 1.41887 9.93418 0.584219C9.54738 0.361694 9.18817 0.222524 8.80137 0.111261C8.41457 -1.59828e-06 8.00018 0.0277847 7.53047 -6.51692e-07C6.83966 -6.51692e-07 2.55702 0.417264 0.622892 5.7313C-0.648007 9.23686 0.374304 10.7392 0.650487 11.2122C0.73339 11.3512 0.843886 11.4904 0.981978 11.6294C1.89379 12.6033 3.74501 14.0221 3.82791 15.4689C3.85551 16.1365 2.7227 16.9433 2.6122 17.611C2.39121 19.0856 3.4963 22.2573 3.91082 23.6761C4.35293 25.095 6.06606 29.2405 6.06606 29.2405C6.03846 28.8788 6.23174 28.545 6.31464 28.4058C6.31464 28.4058 6.95015 28.684 7.11596 28.8787L7.25405 29.0734C7.25405 29.0734 7.22646 28.9899 7.14355 28.8507C6.75675 28.0718 5.67913 25.9016 5.20943 24.8723C5.04363 24.5107 4.82263 23.9542 4.62923 23.509C4.24243 22.6188 4.60163 20.3374 5.01603 19.475C5.48573 18.529 6.72904 18.223 6.72904 18.223C6.72904 18.223 10.6802 23.2308 11.5643 25.1507C12.1722 26.4861 12.3656 29.5465 13.0287 30.8541C13.6366 32.0782 16.0129 34.4431 17.2562 35.6672C17.7535 36.1402 18.4166 36.3906 19.1074 36.3349L19.881 36.2794C19.9364 36.2794 19.9639 36.2237 19.9364 36.1959Z" transform="translate(8.19385 14.6574)" fill="#5A28C6"/>
<path d="M2.14091 3.50617C2.00282 3.33922 1.80942 3.08891 1.75411 2.97752C1.5883 2.67152 1.09101 1.80909 1.17391 0.334524C1.11872 -0.333173 1.0081 0.195473 1.0081 0.251044C0.648896 1.14127 0.676612 2.92195 1.1462 4.20165C1.64349 5.50926 0.621303 6.84466 0.262096 7.65165C-0.0418013 8.34713 -0.0971105 8.59756 0.179193 8.29143C0.621302 7.87417 2.16863 6.42739 2.44493 5.92665C2.44493 5.92665 2.74883 5.50938 2.77642 4.20165C2.55543 3.95122 2.33431 3.70091 2.14091 3.50617Z" transform="translate(6.06787 23.1145)" fill="#5A28C6"/>
<path d="M8.1464 0.506621C9.05821 0.0336637 9.80422 -0.0219069 9.5002 0.00587846C8.5608 0.0336638 7.45558 0.172833 6.40568 0.924007C6.37808 0.951793 6.26759 0.868437 6.12937 0.757174C5.77017 0.39548 4.96885 0.145047 4.47155 0.228524C3.55974 0.367572 2.59274 0.618005 1.68093 2.037C0.741521 3.51156 -0.888706 8.43599 0.603308 9.32621C1.10061 9.60443 2.42693 8.51947 3.58746 7.74039C3.80845 7.15617 4.11235 6.01539 4.41637 5.26422C5.82536 1.70297 7.31737 1.03527 8.1464 0.506621ZM4.02944 2.03688C3.72555 2.23162 2.92423 2.45414 2.73083 2.03688C2.62034 1.81435 3.17294 1.48044 3.53215 1.53613C3.72555 1.5917 4.25044 1.89783 4.02944 2.03688Z" transform="translate(3.6543 14.2342)" fill="#5A28C6"/>
</svg>
