<?xml version="1.0" encoding="utf-8"?>
<!-- Generator: Adobe Illustrator 16.0.4, SVG Export Plug-In . SVG Version: 6.00 Build 0)  -->
<!DOCTYPE svg PUBLIC "-//W3C//DTD SVG 1.1//EN" "http://www.w3.org/Graphics/SVG/1.1/DTD/svg11.dtd">
<svg version="1.1" id="Layer_1" xmlns="http://www.w3.org/2000/svg" xmlns:xlink="http://www.w3.org/1999/xlink" x="0px" y="0px"
	 width="753.84px" height="639.42px" viewBox="0 0 753.84 639.42" enable-background="new 0 0 753.84 639.42" xml:space="preserve">
<title>Group 9</title>
<desc>Created with Sketch.</desc>
<path id="Bounties" fill="#FFFFFF" d="M148.986,529.015c3.335,0,6.063-0.455,8.337-1.213c2.122-0.758,3.941-1.817,5.154-3.186
	c1.213-1.363,2.274-2.881,2.729-4.697s0.758-3.484,0.758-5.455c0-1.975-0.303-3.94-0.91-5.457c-0.606-1.668-1.516-3.031-2.88-4.096
	c-1.364-1.213-3.032-1.971-5.305-2.574c-2.122-0.604-4.851-0.908-8.034-0.908H131.1v27.734h17.886V529.015L148.986,529.015z
	 M131.1,459.743v27.285h13.794c2.88,0,5.457-0.306,7.882-0.759c2.274-0.454,4.244-1.213,5.76-2.272
	c1.516-1.062,2.729-2.426,3.486-4.24c0.758-1.819,1.212-3.791,1.212-6.367c0-2.575-0.303-4.698-1.061-6.366
	c-0.758-1.666-1.667-3.183-3.031-4.244c-1.364-1.062-3.184-1.818-5.306-2.271s-4.699-0.76-7.579-0.76L131.1,459.743L131.1,459.743z
	 M146.106,443.979c6.821,0,12.581,0.605,17.432,1.972c4.851,1.213,8.792,3.031,11.823,5.457c3.032,2.272,5.305,5.151,6.669,8.487
	c1.364,3.335,2.122,7.123,2.122,11.218c0,2.272-0.303,4.547-1.061,6.67c-0.606,2.121-1.667,4.092-3.183,6.062
	c-1.364,1.814-3.183,3.638-5.457,5.15c-2.273,1.52-4.851,2.883-7.882,3.938c6.821,1.668,11.975,4.244,15.31,7.884
	c3.334,3.639,5.002,8.487,5.002,14.248c0,4.243-0.758,8.188-2.425,11.975c-1.667,3.643-4.093,6.822-7.276,9.555
	c-3.183,2.729-7.124,4.851-11.671,6.361c-4.547,1.52-10.004,2.273-15.916,2.273h-39.259V444.128h35.772V443.979L146.106,443.979z
	 M232.506,472.021c5.457,0,10.308,0.909,14.704,2.577s8.185,4.244,11.368,7.429c3.183,3.182,5.608,7.123,7.276,11.67
	c1.667,4.549,2.577,9.701,2.577,15.463c0,5.764-0.909,10.912-2.577,15.461c-1.667,4.547-4.093,8.488-7.276,11.67
	c-3.183,3.188-6.973,5.609-11.368,7.432c-4.396,1.668-9.247,2.578-14.704,2.578s-10.307-0.91-14.854-2.578
	c-4.396-1.666-8.185-4.244-11.369-7.432c-3.183-3.182-5.608-7.119-7.427-11.67c-1.819-4.549-2.577-9.697-2.577-15.461
	c0-5.762,0.909-10.914,2.577-15.463c1.819-4.547,4.244-8.484,7.427-11.67c3.184-3.185,6.973-5.605,11.369-7.429
	C222.047,472.778,227.05,472.021,232.506,472.021z M232.506,531.743c5.457,0,9.55-1.814,12.278-5.604
	c2.577-3.791,3.941-9.397,3.941-16.979c0-7.429-1.364-13.035-3.941-16.824c-2.577-3.789-6.669-5.605-12.278-5.605
	c-5.608,0-9.701,1.816-12.429,5.605c-2.577,3.789-3.941,9.396-3.941,16.824c0,7.432,1.364,13.188,3.941,16.979
	C222.805,529.771,226.898,531.743,232.506,531.743z M343.766,473.233v71.85h-11.819c-2.429,0-4.097-1.061-4.699-3.336l-1.212-5.002
	c-1.521,1.365-2.881,2.729-4.396,3.789c-1.516,1.213-3.183,2.123-4.851,3.033c-1.667,0.907-3.642,1.516-5.608,1.971
	c-1.97,0.453-4.244,0.762-6.518,0.762c-3.941,0-7.427-0.606-10.459-1.975c-3.032-1.365-5.608-3.185-7.579-5.605
	c-1.97-2.43-3.638-5.309-4.699-8.645c-1.061-3.334-1.667-6.971-1.667-11.062v-45.627h19.25v45.627c0,3.938,0.91,7.123,2.729,9.246
	c1.819,2.271,4.547,3.334,8.185,3.334c2.729,0,5.307-0.604,7.579-1.817c2.425-1.213,4.699-2.729,6.821-4.853v-51.688
	L343.766,473.233L343.766,473.233z M377.416,481.571c1.517-1.365,2.88-2.729,4.547-3.789c1.668-1.062,3.188-2.123,5.003-3.033
	c1.818-0.904,3.643-1.516,5.608-1.969c1.971-0.455,4.244-0.761,6.518-0.761c3.941,0,7.429,0.607,10.459,1.972
	c3.031,1.365,5.608,3.188,7.579,5.608c2.122,2.427,3.639,5.306,4.698,8.642c1.062,3.334,1.518,6.977,1.518,11.063v45.775h-19.252
	v-45.625c0-3.939-0.908-7.123-2.729-9.246c-1.818-2.273-4.547-3.334-8.188-3.334c-2.729,0-5.307,0.604-7.579,1.668
	c-2.427,1.213-4.695,2.729-6.817,4.85v51.689h-19.251V473.23h11.819c2.43,0,4.097,1.062,4.854,3.334L377.416,481.571z
	 M513.534,545.083h-19.104v-58.055h-31.827v37.438c0,1.972,0.451,3.64,1.359,4.695c0.909,1.217,2.273,1.818,4.094,1.818
	c0.908,0,1.667-0.15,2.429-0.304c0.604-0.151,1.213-0.455,1.668-0.76c0.454-0.305,0.909-0.453,1.36-0.76
	c0.453-0.148,0.762-0.303,1.214-0.303c0.604,0,1.062,0.149,1.362,0.452c0.307,0.306,0.758,0.759,1.062,1.365l5.76,9.246
	c-2.577,2.121-5.607,3.639-8.942,4.695c-3.335,1.062-6.817,1.668-10.459,1.668c-3.184,0-6.062-0.453-8.641-1.361
	c-2.577-0.91-4.699-2.272-6.366-4.096c-1.668-1.816-3.031-3.938-3.938-6.363c-0.909-2.428-1.364-5.309-1.364-8.488v-38.805h-6.821
	c-1.061,0-1.813-0.305-2.575-0.908c-0.759-0.606-1.062-1.668-1.062-2.881v-7.578l11.521-2.123l3.939-18.646
	c0.455-2.121,1.971-3.185,4.244-3.185h10.005v21.828h51.082L513.534,545.083L513.534,545.083z M516.565,452.62
	c0,1.52-0.308,3.031-0.909,4.547c-0.606,1.363-1.52,2.576-2.577,3.641c-1.062,1.062-2.425,1.816-3.789,2.578
	c-1.364,0.758-3.032,0.904-4.699,0.904c-1.516,0-3.03-0.303-4.548-0.904c-1.516-0.606-2.729-1.52-3.789-2.578
	c-1.062-1.062-1.971-2.272-2.576-3.641c-0.604-1.361-0.909-2.881-0.909-4.547c0-1.668,0.307-3.185,0.909-4.549
	c0.605-1.359,1.52-2.729,2.576-3.789c1.062-1.062,2.273-1.972,3.789-2.576c1.518-0.604,2.881-0.906,4.548-0.906
	s3.188,0.303,4.699,0.906c1.517,0.604,2.729,1.52,3.789,2.576c1.062,1.062,1.971,2.272,2.577,3.789
	C516.262,449.438,516.565,450.952,516.565,452.62z M575.682,500.669c0-1.973-0.305-3.938-0.759-5.764
	c-0.604-1.814-1.362-3.482-2.577-4.851c-1.213-1.364-2.576-2.426-4.396-3.336c-1.819-0.758-3.941-1.211-6.367-1.211
	c-4.547,0-8.185,1.359-10.762,3.938c-2.577,2.575-4.244,6.366-5.153,11.217h30.014V500.669L575.682,500.669z M545.365,512.038
	c0.604,6.67,2.577,11.676,5.76,14.854c3.185,3.183,7.428,4.699,12.582,4.699c2.576,0,5.002-0.309,6.82-0.91
	c1.971-0.606,3.638-1.364,5.15-2.123c1.52-0.758,2.729-1.516,3.939-2.12c1.213-0.607,2.426-0.91,3.484-0.91
	c1.518,0,2.575,0.606,3.484,1.668l5.607,6.977c-1.974,2.427-4.244,4.396-6.82,5.908c-2.576,1.521-5.003,2.729-7.729,3.641
	c-2.575,0.91-5.308,1.517-8.032,1.816c-2.729,0.307-5.31,0.453-7.884,0.453c-5.003,0-9.699-0.758-14.101-2.424
	c-4.396-1.668-8.185-4.095-11.367-7.277c-3.184-3.182-5.761-7.271-7.578-11.975c-1.815-4.851-2.729-10.308-2.729-16.675
	c0-4.854,0.759-9.549,2.426-13.793c1.668-4.396,3.941-8.032,6.977-11.368c3.028-3.183,6.671-5.761,11.062-7.578
	c4.396-1.818,9.246-2.881,14.703-2.881c4.547,0,8.791,0.76,12.731,2.123c3.938,1.362,7.271,3.639,10.005,6.366
	c2.729,2.728,5.003,6.215,6.519,10.308c1.519,4.092,2.273,8.641,2.273,13.944c0,1.517,0,2.576-0.151,3.482
	c-0.15,0.91-0.304,1.668-0.758,2.273c-0.306,0.604-0.759,0.909-1.364,1.213c-0.604,0.149-1.213,0.303-2.121,0.303L545.365,512.038
	L545.365,512.038z M649.5,487.938c-0.454,0.758-1.061,1.364-1.516,1.668c-0.455,0.303-1.213,0.454-2.122,0.454
	s-1.819-0.303-2.88-0.758c-0.909-0.455-2.122-0.91-3.336-1.52c-1.216-0.604-2.576-1.062-4.096-1.517
	c-1.517-0.455-3.334-0.758-5.457-0.758c-3.184,0-5.456,0.604-7.271,1.969c-1.667,1.214-2.577,3.033-2.577,5.005
	c0,1.516,0.455,2.575,1.517,3.637c0.909,0.91,2.273,1.817,3.94,2.578c1.668,0.758,3.485,1.362,5.457,1.973
	c1.971,0.604,4.093,1.361,6.366,2.119c2.121,0.762,4.24,1.668,6.362,2.576c1.975,0.91,3.94,2.123,5.457,3.643
	c1.667,1.517,2.88,3.185,3.94,5.306c0.909,2.122,1.516,4.547,1.516,7.428c0,3.485-0.604,6.67-1.971,9.701
	c-1.213,2.881-3.183,5.457-5.607,7.577c-2.426,2.123-5.457,3.791-9.242,5.005c-3.643,1.211-7.887,1.817-12.732,1.817
	c-2.426,0-4.852-0.151-7.275-0.606c-2.426-0.453-4.695-1.062-6.974-1.818c-2.122-0.758-4.244-1.814-6.062-2.881
	c-1.973-1.062-3.483-2.271-5.004-3.482l4.396-7.123c0.454-0.909,1.212-1.52,1.971-1.975c0.76-0.455,1.818-0.758,3.031-0.758
	s2.273,0.305,3.184,0.91c0.909,0.604,2.121,1.211,3.336,1.817c1.216,0.604,2.576,1.359,4.242,1.814
	c1.669,0.606,3.643,0.91,6.217,0.91c1.817,0,3.484-0.152,4.854-0.604c1.364-0.455,2.426-1.062,3.335-1.672
	c0.909-0.758,1.517-1.516,1.818-2.424c0.453-0.91,0.604-1.816,0.604-2.881c0-1.517-0.454-2.881-1.516-3.938
	c-1.062-1.062-2.273-1.819-3.94-2.578c-1.668-0.758-3.482-1.362-5.604-1.975c-2.122-0.604-4.244-1.213-6.366-1.971
	c-2.122-0.759-4.244-1.666-6.366-2.576c-2.122-1.062-3.938-2.271-5.457-3.938c-1.667-1.52-2.88-3.485-3.938-5.762
	c-1.062-2.271-1.519-5.004-1.519-8.338c0-3.027,0.604-5.76,1.667-8.484c1.213-2.729,2.88-5.002,5.308-7.125
	c2.271-1.975,5.151-3.643,8.643-4.854c3.483-1.213,7.428-1.816,11.975-1.816c5.153,0,9.701,0.906,13.945,2.574
	s7.579,3.789,10.31,6.521L649.5,487.938z"/>
<path id="Network" fill="#FFFFFF" d="M113.971,564.03c0.303,0,0.606,0,0.91,0c0.304,0,0.455,0.149,0.606,0.149
	c0.151,0.148,0.303,0.148,0.606,0.306c0.152,0.149,0.303,0.453,0.606,0.604l21.827,27.892c-0.151-0.604-0.151-1.363-0.151-1.972
	c0-0.607,0-1.213,0-1.817V563.88h6.821v41.836h-3.941c-0.606,0-1.061-0.149-1.516-0.307c-0.455-0.148-0.758-0.604-1.213-1.062
	l-21.827-27.739c0,0.606,0.151,1.213,0.151,1.819c0,0.604,0,1.211,0,1.666v25.617h-6.821V564.03H113.971z M222.199,564.03v6.215
	h-18.493v11.521h14.552v5.912h-14.552v11.818h18.493v6.219h-26.223V564.03H222.199L222.199,564.03z M300.717,564.03v6.364h-12.581
	v35.318h-7.73v-35.318h-12.581v-6.364H300.717z M344.221,564.03h6.521c0.604,0,1.213,0.149,1.667,0.455
	c0.455,0.303,0.758,0.758,0.91,1.211l7.124,24.858c0.146,0.604,0.303,1.213,0.45,1.972c0.151,0.758,0.308,1.516,0.455,2.272
	c0.15-0.758,0.307-1.52,0.454-2.272c0.151-0.759,0.454-1.363,0.606-1.972l8.185-24.858c0.151-0.453,0.455-0.908,0.909-1.211
	c0.455-0.306,1.062-0.604,1.668-0.604h2.273c0.604,0,1.213,0.146,1.668,0.451c0.454,0.307,0.758,0.762,0.907,1.215l8.188,24.855
	c0.454,1.213,0.758,2.576,1.062,4.094c0.15-0.758,0.308-1.518,0.455-2.119c0.15-0.604,0.307-1.363,0.453-1.975l7.125-24.855
	c0.151-0.453,0.454-0.908,0.909-1.215c0.454-0.305,1.062-0.451,1.667-0.451h6.063l-12.888,41.685h-6.974l-9.095-28.496
	c-0.152-0.306-0.308-0.758-0.308-1.213c-0.147-0.455-0.304-0.91-0.304-1.365c-0.151,0.455-0.304,0.91-0.304,1.365
	s-0.305,0.758-0.305,1.213l-9.247,28.496h-7.429L344.221,564.03z M490.797,584.948c0,3.03-0.454,5.91-1.516,8.487
	c-1.062,2.576-2.425,4.851-4.244,6.82c-1.818,1.971-4.093,3.336-6.67,4.396c-2.576,1.062-5.456,1.666-8.644,1.666
	c-3.184,0-6.062-0.604-8.641-1.666c-2.577-1.062-4.851-2.578-6.67-4.396c-1.817-1.975-3.335-4.096-4.244-6.82
	c-1.061-2.577-1.516-5.457-1.516-8.487c0-3.031,0.455-5.912,1.516-8.484c1.062-2.578,2.427-4.854,4.244-6.822
	c1.819-1.971,4.093-3.334,6.67-4.396c2.576-1.062,5.457-1.668,8.641-1.668c3.188,0,6.062,0.606,8.644,1.668
	c2.578,1.062,4.852,2.578,6.67,4.396c1.819,1.818,3.335,4.095,4.244,6.67C490.19,579.036,490.797,581.765,490.797,584.948z
	 M482.764,584.948c0-2.271-0.305-4.396-0.91-6.215c-0.604-1.82-1.517-3.337-2.572-4.548c-1.062-1.213-2.577-2.274-4.096-2.881
	c-1.669-0.604-3.483-1.062-5.457-1.062c-1.973,0-3.938,0.307-5.457,1.062c-1.668,0.604-3.028,1.668-4.094,2.881
	c-1.213,1.211-1.972,2.88-2.576,4.548c-0.604,1.817-0.906,3.788-0.906,6.215c0,2.424,0.304,4.396,0.906,6.215
	c0.604,1.818,1.52,3.334,2.576,4.551c1.213,1.213,2.576,2.271,4.094,2.879c1.671,0.604,3.484,1.062,5.457,1.062
	c1.974,0,3.788-0.303,5.457-1.062c1.666-0.604,3.029-1.666,4.096-2.879c1.061-1.217,1.971-2.729,2.572-4.551
	C482.46,589.192,482.764,587.222,482.764,584.948z M547.336,589.495v16.223h-7.729V564.03h12.729c2.881,0,5.307,0.303,7.276,0.908
	c1.97,0.606,3.638,1.364,5.002,2.426c1.361,1.062,2.271,2.272,2.88,3.789c0.604,1.52,0.909,3.033,0.909,4.854
	c0,1.359-0.151,2.729-0.606,3.938c-0.453,1.211-1.061,2.424-1.813,3.334c-0.762,0.91-1.669,1.975-2.884,2.729
	c-1.213,0.758-2.427,1.361-3.938,1.814c0.909,0.606,1.818,1.365,2.577,2.43l10.459,15.31h-6.977c-0.604,0-1.214-0.15-1.668-0.453
	c-0.454-0.306-0.908-0.604-1.214-1.213l-8.791-13.341c-0.303-0.455-0.758-0.907-1.062-1.062c-0.454-0.146-0.909-0.303-1.667-0.303
	h-3.486L547.336,589.495L547.336,589.495z M547.336,583.886h4.852c1.52,0,2.729-0.149,3.79-0.604
	c1.062-0.303,1.974-0.91,2.729-1.517c0.758-0.606,1.213-1.364,1.518-2.272c0.307-0.91,0.453-1.816,0.453-2.881
	c0-2.121-0.758-3.789-2.121-4.851c-1.36-1.062-3.482-1.668-6.362-1.668h-5.003v13.793H547.336L547.336,583.886z M627.521,581.462
	h1.813c0.759,0,1.364-0.152,1.819-0.307c0.455-0.148,0.906-0.455,1.213-0.91l11.521-14.553c0.455-0.604,0.909-1.062,1.52-1.211
	c0.455-0.306,1.213-0.306,1.971-0.306h6.67l-14.097,17.279c-0.455,0.604-0.91,1.062-1.213,1.361
	c-0.455,0.309-0.909,0.606-1.364,0.909c0.606,0.304,1.213,0.605,1.667,0.91c0.455,0.304,1.062,0.908,1.517,1.666l14.399,19.556
	h-6.82c-0.909,0-1.668-0.148-2.122-0.455c-0.454-0.304-0.759-0.604-1.212-1.213l-11.822-15.31c-0.452-0.455-0.759-0.91-1.361-1.062
	c-0.455-0.148-1.213-0.304-1.975-0.304h-2.427v18.188h-7.729V564.03h7.729v17.436L627.521,581.462L627.521,581.462z"/>
<path id="The" fill="#FFFFFF" d="M354.982,415.028v4.396h-8.488v24.103h-5.31v-24.103h-8.641v-4.396H354.982z M389.088,443.524
	h-5.306v-12.431h-13.339v12.431h-5.31v-28.496h5.31v12.276h13.339v-12.276h5.306V443.524z M419.252,415.028v4.244h-12.581v7.881
	h10.004v4.094h-10.004v8.033h12.581v4.244h-18.038v-28.496H419.252L419.252,415.028z"/>
<g>
	<path fill="#FFFFFF" d="M371.359,132.656l12.258,9.722c3.269-6.205,5.924-11.791,14.302-23.994
		C381.983,125.21,371.359,132.656,371.359,132.656z"/>
	<path fill="#FFFFFF" d="M271.867,117.558c-0.204-2.896-0.816-9.1-1.634-11.376c-2.043-5.998-10.214-20.063-13.892-26.268
		c-0.203-0.414-0.816,0-0.613,0.413l13.483,39.092c0.409-0.207,0.817-0.621,1.021-0.828
		C270.643,118.178,271.254,117.764,271.867,117.558z"/>
	<path fill="#FFFFFF" d="M257.771,131.83c-0.817,0.826-2.248,0-2.248,0s-10.624-11.376-12.666-12.617
		c-5.924-3.723-24.107-6.206-30.646-7.032c-0.409,0-0.613,0.62-0.204,0.62c0,0,42.901,22.752,43.105,22.338
		C255.933,133.898,256.954,132.863,257.771,131.83z"/>
	<path fill="#FFFFFF" d="M441.639,362.038c3.269,2.275,10.214,2.068,14.097,1.861l4.496-0.828c0.405,0,0.405-0.62,0.2-0.62
		c-6.944-3.101-34.317-18.407-40.243-28.956c-1.229-2.275,3.472-18.203,3.472-18.203l-21.451-6.619c0,0,7.764,22.133,11.031,26.682
		C417.938,341.978,433.058,356.041,441.639,362.038z"/>
	<path fill="#FFFFFF" d="M458.594,250.347c-2.451-1.861-2.653,0-9.396,17.788c-6.741,17.582-25.129,40.954-54.957,34.542
		c1.021,1.447,2.453,2.482,4.086,3.928c1.432,1.448,7.561,6,7.561,6s12.872,11.375,24.924,13.858
		c29.622,5.997,42.29-27.925,46.172-38.058c2.452-6.412,4.698-18.822,5.106-26.683c0-1.447,0-5.583-0.815-4.755
		c-2.859,3.102-6.742,2.896-11.236,1.654C465.744,257.586,460.025,251.588,458.594,250.347z"/>
	<path fill="#FFFFFF" d="M539.495,51.991L539.495,51.991c-2.654-3.31-4.902-5.792-7.965-7.446
		c-8.175-5.378-19.614-6.826-37.796,0.207c-18.999,7.239-33.709,16.96-46.58,28.13c-39.836,31.439-55.773,73.633-55.773,73.633
		s7.151,4.343,10.01,5.791c6.743,3.93,17.367,10.135,17.367,10.135s49.234,2.482,83.354-19.029
		c15.934-10.134,39.428-49.848,41.062-75.289C543.991,61.711,542.971,56.333,539.495,51.991z"/>
	<path fill="#FFFFFF" d="M566.668,112.593c-0.408-6.825-21.044-15.099-23.087-10.548c-6.537,14.064-16.548,35.782-37.997,48.193
		C525.195,144.654,567.892,132.656,566.668,112.593z"/>
	<path fill="#FFFFFF" d="M394.038,184.159c-26.765,13.651-34.527,39.298-34.118,57.086c0.204,4.965,0.817,9.929,2.043,14.065
		c1.634,5.793,1.838,6.825,4.086,11.998c3.472-28.75,13.688-52.122,32.893-66.601c12.054-9.101,22.268-11.169,30.03-11.169
		c2.859-0.206,7.763,0.207,8.581,0.621C434.691,186.228,419.37,170.922,394.038,184.159z"/>
	<path fill="#FFFFFF" d="M454.1,204.429c-4.698-4.55-6.129-4.757-10.011-7.032c-5.924-0.827-17.159-1.033-29.215,4.964
		c-20.428,10.342-30.849,28.336-38.814,52.949c-3.063,9.307-4.085,21.098-3.882,21.305c6.743,10.134,9.807,16.134,18.798,18.407
		c25.944,6.412,43.719-17.788,50.867-34.334c3.679-8.688,9.603-25.234,11.237-26.061c2.861-1.655,8.582,7.446,12.26,11.376
		c4.902,4.963,8.783,6.826,13.483,5.791C491.689,248.899,463.498,213.323,454.1,204.429z"/>
	<path fill="#FFFFFF" d="M419.778,388.308c-5.106-3.516-32.277-22.959-36.568-33.715c-2.656-6.41,1.224-20.892,0-27.716
		c-0.613-3.104-3.271-14.271-5.721-21.099c-4.698-12.824-18.795-37.024-22.679-50.053c-0.611-2.276-8.376-33.92,8.99-57.5
		c23.085-31.44,44.741-28.545,52.709-26.062c-4.902-7.032-26.969-13.031-34.525-18.822c-9.603-7.445-24.721-23.58-36.161-29.785
		c-2.86-1.654-5.516-2.689-8.375-3.516c-2.86-0.827-5.924-0.62-9.396-0.827c-5.107,0-36.773,3.103-51.074,42.608
		c-9.397,26.062-1.839,37.231,0.203,40.748c0.613,1.033,1.431,2.067,2.451,3.103c6.742,7.239,20.43,17.787,21.043,28.542
		c0.203,4.963-8.172,10.962-8.989,15.926c-1.634,10.963,6.537,34.542,9.602,45.09c3.27,10.548,15.936,41.367,15.936,41.367
		c-0.204-2.688,1.226-5.169,1.838-6.205c0,0,4.7,2.069,5.926,3.517l1.021,1.448c0,0-0.204-0.619-0.816-1.655
		c-2.86-5.79-10.828-21.924-14.302-29.577c-1.226-2.689-2.859-6.825-4.29-10.135c-2.859-6.619-0.205-23.58,2.859-29.991
		c3.473-7.032,12.667-9.308,12.667-9.308s29.214,37.23,35.751,51.503c4.495,9.928,5.925,32.681,10.827,42.401
		c4.496,9.099,22.065,26.683,31.258,35.782c3.676,3.518,8.58,5.378,13.688,4.965l5.721-0.414
		C419.778,388.929,419.981,388.515,419.778,388.308z"/>
	<path fill="#FFFFFF" d="M272.48,208.153c-1.022-1.241-2.452-3.102-2.861-3.93c-1.226-2.274-4.903-8.687-4.289-19.649
		c-0.408-4.963-1.227-1.033-1.227-0.62c-2.655,6.618-2.45,19.856,1.021,29.371c3.677,9.721-3.881,19.648-6.537,25.649
		c-2.247,5.17-2.656,7.032-0.613,4.755c3.27-3.102,14.71-13.858,16.753-17.58c0,0,2.247-3.104,2.451-12.825
		C275.544,211.46,273.911,209.601,272.48,208.153z"/>
	<path fill="#FFFFFF" d="M299.039,119.833c6.742-3.516,12.258-3.929,10.01-3.723c-6.945,0.207-15.117,1.241-22.881,6.826
		c-0.204,0.206-1.021-0.413-2.042-1.24c-2.657-2.689-8.582-4.551-12.258-3.93c-6.742,1.034-13.891,2.896-20.634,13.445
		c-6.945,10.962-18.999,47.572-7.968,54.19c3.677,2.068,13.485-5.998,22.065-11.79c1.634-4.343,3.881-12.824,6.129-18.409
		C281.878,128.727,292.91,123.763,299.039,119.833z M268.599,131.209c-2.247,1.448-8.171,3.102-9.602,0
		c-0.817-1.654,3.269-4.137,5.925-3.723C266.352,127.899,270.233,130.174,268.599,131.209z"/>
</g>
</svg>
