<?xml version="1.0" encoding="utf-8"?>
<!-- Generator: Adobe Illustrator 16.0.4, SVG Export Plug-In . SVG Version: 6.00 Build 0)  -->
<!DOCTYPE svg PUBLIC "-//W3C//DTD SVG 1.1//EN" "http://www.w3.org/Graphics/SVG/1.1/DTD/svg11.dtd">
<svg version="1.1" id="Layer_1" xmlns="http://www.w3.org/2000/svg" xmlns:xlink="http://www.w3.org/1999/xlink" x="0px" y="0px"
	 width="360px" height="115px" viewBox="0 0 360 115" enable-background="new 0 0 360 115" xml:space="preserve">
<title>Group 8</title>
<desc>Created with Sketch.</desc>
<path id="Bounties" fill="#5A31C3" d="M46.415,62.486c1.303,0,2.368-0.178,3.256-0.473c0.829-0.303,1.54-0.717,2.013-1.244
	c0.533-0.533,0.888-1.125,1.066-1.836c0.178-0.709,0.296-1.361,0.296-2.137c0-0.77-0.118-1.538-0.355-2.131
	c-0.237-0.651-0.592-1.185-1.125-1.601c-0.533-0.473-1.185-0.77-2.072-1.006c-0.829-0.236-1.895-0.354-3.138-0.354h-6.928v10.836
	L46.415,62.486L46.415,62.486z M39.428,35.428v10.658h5.388c1.125,0,2.131-0.119,3.079-0.296c0.948-0.177,1.658-0.474,2.25-0.888
	s1.066-0.947,1.362-1.658c0.296-0.71,0.474-1.48,0.474-2.487c0-1.007-0.119-1.835-0.415-2.487c-0.237-0.709-0.651-1.244-1.185-1.658
	c-0.533-0.414-1.243-0.711-2.072-0.887c-0.829-0.179-1.835-0.297-2.96-0.297H39.428z M45.29,29.27c2.665,0,4.915,0.237,6.809,0.771
	c1.895,0.533,3.434,1.185,4.619,2.132c1.184,0.889,2.072,2.014,2.605,3.316c0.533,1.302,0.829,2.783,0.829,4.381
	c0,0.888-0.119,1.775-0.415,2.605c-0.237,0.828-0.651,1.599-1.243,2.367c-0.533,0.71-1.244,1.422-2.132,2.014
	c-0.888,0.592-1.895,1.125-3.079,1.539c2.665,0.651,4.678,1.658,5.98,3.08c1.303,1.42,1.954,3.314,1.954,5.564
	c0,1.658-0.296,3.197-0.948,4.678c-0.651,1.422-1.599,2.665-2.842,3.73c-1.244,1.066-2.783,1.895-4.559,2.486
	c-1.776,0.592-3.967,0.83-6.276,0.83H31.256V29.27H45.29z M79.04,40.225c2.131,0,4.026,0.354,5.743,1.006
	c1.717,0.65,3.198,1.658,4.441,2.9c1.244,1.243,2.191,2.783,2.842,4.559s1.006,3.791,1.006,6.041s-0.355,4.264-1.006,6.039
	c-0.651,1.776-1.599,3.315-2.842,4.562c-1.243,1.243-2.724,2.188-4.441,2.898c-1.717,0.648-3.612,1.006-5.743,1.006
	c-2.132,0-4.026-0.354-5.803-1.006c-1.717-0.648-3.197-1.655-4.441-2.898c-1.243-1.243-2.19-2.782-2.901-4.562
	c-0.71-1.771-1.006-3.789-1.006-6.039s0.355-4.264,1.006-6.041c0.711-1.775,1.658-3.315,2.901-4.559
	c1.244-1.244,2.724-2.191,4.441-2.9C74.954,40.52,76.908,40.225,79.04,40.225z M79.04,63.553c2.131,0,3.73-0.711,4.796-2.188
	c1.007-1.48,1.54-3.672,1.54-6.633c0-2.9-0.533-5.092-1.54-6.571c-1.006-1.479-2.605-2.191-4.796-2.191s-3.79,0.71-4.855,2.191
	c-1.065,1.479-1.54,3.671-1.54,6.571c0,2.901,0.533,5.151,1.54,6.633C75.25,62.783,76.849,63.553,79.04,63.553z M122.5,40.698
	v28.065h-4.619c-0.947,0-1.599-0.414-1.835-1.308l-0.474-1.954c-0.592,0.532-1.125,1.062-1.717,1.479
	c-0.592,0.478-1.244,0.83-1.895,1.188c-0.71,0.354-1.421,0.595-2.191,0.771c-0.77,0.181-1.658,0.299-2.546,0.299
	c-1.54,0-2.901-0.237-4.085-0.771c-1.184-0.529-2.191-1.24-2.96-2.188c-0.77-0.944-1.421-2.069-1.835-3.375
	c-0.415-1.303-0.651-2.725-0.651-4.319V40.759h7.52v17.822c0,1.54,0.355,2.783,1.066,3.61c0.71,0.828,1.776,1.305,3.197,1.305
	c1.066,0,2.013-0.237,2.96-0.711c0.947-0.475,1.835-1.066,2.665-1.896V40.699L122.5,40.698L122.5,40.698z M135.645,43.954
	c0.592-0.533,1.125-1.065,1.776-1.479c0.592-0.475,1.244-0.83,1.954-1.186s1.421-0.592,2.191-0.77
	c0.77-0.179,1.658-0.297,2.546-0.297c1.54,0,2.901,0.237,4.085,0.771c1.184,0.532,2.191,1.243,2.96,2.19
	c0.829,0.947,1.421,2.072,1.835,3.375c0.415,1.303,0.592,2.725,0.592,4.322v17.884h-7.46V50.939c0-1.539-0.355-2.782-1.066-3.611
	c-0.71-0.889-1.776-1.303-3.197-1.303c-1.066,0-2.013,0.236-2.96,0.65c-0.947,0.475-1.835,1.066-2.665,1.896V68.76h-7.52V40.696
	h4.618c0.947,0,1.599,0.415,1.895,1.302L135.645,43.954z M188.816,68.764h-7.521V46.086h-12.434v14.625
	c0,0.77,0.178,1.421,0.533,1.836c0.355,0.473,0.888,0.65,1.599,0.65c0.355,0,0.651-0.059,0.947-0.118
	c0.237-0.06,0.474-0.179,0.651-0.296c0.177-0.119,0.355-0.178,0.533-0.297c0.178-0.117,0.296-0.117,0.474-0.117
	c0.237,0,0.415,0.059,0.533,0.178c0.119,0.117,0.296,0.295,0.415,0.532l2.25,3.612c-1.006,0.828-2.19,1.42-3.493,1.834
	c-1.303,0.416-2.665,0.646-4.085,0.646c-1.244,0-2.369-0.178-3.375-0.527c-1.007-0.355-1.836-0.894-2.487-1.604
	c-0.651-0.711-1.185-1.54-1.54-2.482c-0.355-1.012-0.533-2.072-0.533-3.314V46.086h-2.665c-0.414,0-0.71-0.119-1.006-0.355
	c-0.296-0.235-0.415-0.65-0.415-1.125v-2.959l4.5-0.83l1.54-7.282c0.178-0.829,0.77-1.244,1.658-1.244h3.908v8.526h19.953v27.947
	H188.816z M190,32.645c0,0.592-0.119,1.185-0.355,1.776c-0.23,0.533-0.592,1.006-1.006,1.421s-0.947,0.71-1.479,1.008
	c-0.533,0.295-1.186,0.354-1.836,0.354c-0.594,0-1.186-0.118-1.776-0.354c-0.592-0.238-1.063-0.593-1.479-1.008
	s-0.771-0.888-1.008-1.421c-0.231-0.532-0.354-1.125-0.354-1.776c0-0.65,0.118-1.244,0.354-1.775
	c0.237-0.532,0.592-1.066,1.008-1.48c0.414-0.414,0.893-0.77,1.479-1.006c0.595-0.236,1.125-0.355,1.776-0.355
	c0.65,0,1.242,0.119,1.836,0.355c0.592,0.236,1.064,0.592,1.479,1.006c0.414,0.416,0.771,0.889,1.006,1.48
	C189.881,31.4,190,31.994,190,32.645z M213.092,51.415c0-0.771-0.117-1.54-0.296-2.25c-0.237-0.71-0.532-1.362-1.007-1.896
	c-0.473-0.533-1.006-0.946-1.717-1.303c-0.711-0.355-1.539-0.474-2.486-0.474c-1.777,0-3.197,0.532-4.205,1.54
	c-1.006,1.006-1.656,2.486-2.012,4.381L213.092,51.415L213.092,51.415z M201.25,55.855c0.236,2.604,1.006,4.559,2.25,5.803
	c1.244,1.242,2.9,1.836,4.914,1.836c1.007,0,1.954-0.119,2.665-0.355c0.71-0.236,1.421-0.533,2.013-0.828
	c0.592-0.297,1.066-0.594,1.539-0.83c0.475-0.23,0.948-0.354,1.362-0.354c0.593,0,1.007,0.237,1.362,0.65l2.188,2.725
	c-0.771,0.947-1.654,1.717-2.665,2.311c-0.944,0.596-1.953,1.064-3.021,1.422c-1.063,0.354-2.07,0.596-3.137,0.711
	c-1.064,0.117-2.072,0.182-3.08,0.182c-1.953,0-3.789-0.297-5.51-0.945c-1.718-0.65-3.193-1.602-4.438-2.845
	c-1.241-1.243-2.25-2.842-2.961-4.683c-0.709-1.896-1.063-4.021-1.063-6.508c0-1.896,0.296-3.73,0.948-5.39
	c0.648-1.717,1.539-3.138,2.723-4.44c1.186-1.244,2.604-2.25,4.322-2.959c1.717-0.711,3.611-1.125,5.744-1.125
	c1.773,0,3.434,0.295,4.973,0.828c1.54,0.592,2.844,1.422,3.908,2.487s1.955,2.429,2.547,4.026c0.594,1.598,0.889,3.375,0.889,5.447
	c0,0.592,0,1.006-0.061,1.361s-0.118,0.65-0.295,0.889c-0.119,0.236-0.297,0.355-0.533,0.475c-0.236,0.117-0.477,0.117-0.83,0.117
	H201.25V55.855z M241.928,46.441c-0.178,0.295-0.414,0.533-0.592,0.65c-0.236,0.119-0.475,0.178-0.83,0.178
	c-0.354,0-0.71-0.119-1.125-0.295c-0.414-0.179-0.828-0.355-1.302-0.593c-0.474-0.238-1.007-0.415-1.599-0.592
	c-0.592-0.177-1.309-0.296-2.133-0.296c-1.242,0-2.137,0.236-2.848,0.77c-0.71,0.533-1.006,1.185-1.006,1.954
	c0,0.593,0.178,1.007,0.592,1.421c0.414,0.414,0.895,0.711,1.539,1.006c0.648,0.297,1.361,0.533,2.139,0.771
	c0.77,0.237,1.598,0.533,2.48,0.83c0.829,0.295,1.654,0.649,2.48,1.006c0.771,0.354,1.541,0.829,2.137,1.422
	c0.646,0.593,1.125,1.242,1.537,2.072c0.354,0.828,0.596,1.774,0.596,2.899c0,1.357-0.23,2.604-0.771,3.791
	c-0.476,1.125-1.244,2.131-2.188,2.959c-0.947,0.83-2.133,1.479-3.611,1.955c-1.422,0.474-3.076,0.711-4.974,0.711
	c-0.948,0-1.896-0.062-2.847-0.237c-0.943-0.177-1.834-0.414-2.725-0.71c-0.829-0.297-1.656-0.711-2.367-1.125
	c-0.771-0.415-1.359-0.889-1.953-1.362l1.717-2.783c0.182-0.354,0.477-0.592,0.771-0.77c0.301-0.179,0.711-0.296,1.188-0.296
	c0.476,0,0.89,0.117,1.244,0.354c0.354,0.237,0.828,0.475,1.304,0.71c0.474,0.237,1.006,0.533,1.657,0.711
	c0.646,0.236,1.42,0.355,2.429,0.355c0.71,0,1.36-0.06,1.896-0.236c0.531-0.178,0.946-0.415,1.303-0.651
	c0.354-0.295,0.597-0.593,0.711-0.942c0.182-0.354,0.236-0.71,0.236-1.125c0-0.597-0.179-1.125-0.594-1.539
	c-0.414-0.414-0.888-0.711-1.539-1.011c-0.65-0.297-1.361-0.528-2.189-0.771c-0.83-0.237-1.653-0.474-2.482-0.771
	c-0.829-0.295-1.658-0.65-2.486-1.006c-0.824-0.414-1.537-0.89-2.132-1.539c-0.647-0.592-1.125-1.362-1.54-2.25
	c-0.415-0.89-0.592-1.955-0.592-3.258c0-1.185,0.232-2.25,0.646-3.315c0.479-1.066,1.125-1.954,2.071-2.783
	c0.89-0.771,2.015-1.421,3.375-1.896c1.361-0.474,2.901-0.709,4.679-0.709c2.019,0,3.789,0.354,5.446,1.006
	c1.658,0.652,2.962,1.48,4.026,2.547L241.928,46.441z"/>
<path id="Network" fill="#5A31C3" d="M32.737,76.164c0.119,0,0.237,0,0.355,0c0.118,0,0.177,0.061,0.237,0.061
	c0.059,0.062,0.118,0.062,0.237,0.117c0.059,0.061,0.118,0.178,0.237,0.237l8.526,10.896c-0.06-0.231-0.06-0.533-0.06-0.771
	c0-0.238,0-0.474,0-0.71v-9.889h2.665v16.342h-1.54c-0.237,0-0.414-0.059-0.592-0.118c-0.178-0.06-0.296-0.237-0.474-0.415
	l-8.526-10.835c0,0.237,0.059,0.474,0.059,0.71s0,0.475,0,0.652v10.006h-2.665V76.164H32.737L32.737,76.164z M75.013,76.164v2.428
	H67.79v4.5h5.684v2.311H67.79v4.617h7.224v2.434H64.77V76.166L75.013,76.164L75.013,76.164z M105.684,76.164v2.486h-4.914v13.797
	h-3.02V78.65h-4.915v-2.486H105.684z M122.678,76.164h2.546c0.237,0,0.474,0.061,0.651,0.178c0.178,0.119,0.296,0.297,0.355,0.475
	l2.783,9.711c0.059,0.236,0.118,0.479,0.178,0.771c0.059,0.295,0.118,0.594,0.178,0.889c0.059-0.295,0.118-0.594,0.177-0.889
	c0.06-0.297,0.178-0.531,0.237-0.771l3.198-9.711c0.059-0.178,0.177-0.354,0.355-0.475c0.178-0.117,0.415-0.236,0.651-0.236h0.888
	c0.237,0,0.474,0.062,0.651,0.184c0.178,0.113,0.296,0.296,0.355,0.475l3.197,9.711c0.177,0.479,0.296,1.012,0.415,1.604
	c0.059-0.297,0.118-0.592,0.177-0.829c0.06-0.296,0.119-0.533,0.178-0.771l2.783-9.713c0.06-0.18,0.178-0.354,0.355-0.476
	c0.178-0.119,0.415-0.183,0.651-0.183h2.369l-5.033,16.283h-2.724l-3.553-11.133c-0.059-0.117-0.118-0.296-0.118-0.474
	c-0.06-0.179-0.119-0.354-0.119-0.533c-0.059,0.179-0.118,0.354-0.118,0.533c-0.06,0.178-0.119,0.296-0.119,0.474l-3.612,11.133
	h-2.901L122.678,76.164z M179.934,84.336c0,1.184-0.178,2.309-0.592,3.314c-0.415,1.008-0.948,1.896-1.658,2.666
	c-0.71,0.769-1.599,1.303-2.605,1.717c-1.007,0.414-2.132,0.65-3.375,0.65c-1.244,0-2.369-0.236-3.375-0.65
	c-1.007-0.414-1.895-1.008-2.605-1.717c-0.71-0.771-1.303-1.604-1.658-2.666c-0.415-1.006-0.592-2.131-0.592-3.314
	c0-1.186,0.178-2.311,0.592-3.316c0.415-1.006,0.947-1.895,1.658-2.664c0.711-0.769,1.599-1.303,2.605-1.717
	s2.131-0.646,3.375-0.646c1.243,0,2.368,0.231,3.375,0.646c1.006,0.414,1.895,1.006,2.605,1.717s1.303,1.604,1.658,2.605
	C179.697,81.966,179.934,83.092,179.934,84.336z M176.796,84.336c0-0.889-0.118-1.717-0.355-2.428
	c-0.237-0.711-0.592-1.303-1.007-1.776c-0.415-0.473-1.006-0.888-1.599-1.125c-0.651-0.237-1.362-0.415-2.131-0.415
	c-0.77,0-1.54,0.119-2.132,0.415c-0.651,0.237-1.184,0.651-1.599,1.125c-0.474,0.474-0.77,1.125-1.006,1.776
	c-0.237,0.65-0.355,1.48-0.355,2.428c0,0.948,0.118,1.717,0.355,2.428c0.237,0.711,0.592,1.303,1.006,1.775
	c0.474,0.475,1.007,0.889,1.599,1.125c0.651,0.236,1.362,0.415,2.132,0.415s1.48-0.118,2.131-0.415
	c0.651-0.236,1.184-0.65,1.599-1.125c0.415-0.473,0.77-1.064,1.007-1.775C176.678,85.994,176.796,85.225,176.796,84.336z
	 M202.02,86.111v6.336H199V76.164h4.975c1.125,0,2.071,0.119,2.842,0.355c0.771,0.231,1.42,0.527,1.953,0.941
	c0.533,0.415,0.895,0.895,1.125,1.479c0.236,0.594,0.355,1.188,0.355,1.896c0,0.533-0.059,1.064-0.236,1.54
	c-0.177,0.479-0.414,0.947-0.711,1.308c-0.297,0.416-0.65,0.771-1.125,1.062c-0.474,0.297-0.947,0.532-1.539,0.711
	c0.354,0.233,0.711,0.533,1.006,0.946l4.086,5.979h-2.725c-0.236,0-0.473-0.061-0.65-0.178c-0.178-0.119-0.354-0.236-0.475-0.479
	l-3.434-5.211c-0.118-0.177-0.297-0.354-0.414-0.414c-0.178-0.061-0.355-0.115-0.652-0.115h-1.361V86.111L202.02,86.111z
	 M202.02,83.922h1.896c0.592,0,1.064-0.061,1.479-0.236c0.414-0.119,0.771-0.354,1.066-0.594c0.295-0.236,0.473-0.531,0.592-0.888
	c0.118-0.354,0.178-0.71,0.178-1.125c0-0.829-0.297-1.479-0.828-1.896c-0.527-0.418-1.357-0.65-2.482-0.65h-1.953v5.389H202.02
	L202.02,83.922z M233.342,82.975h0.711c0.297,0,0.533-0.061,0.711-0.119c0.178-0.058,0.355-0.178,0.473-0.354l4.5-5.686
	c0.184-0.235,0.355-0.414,0.599-0.479c0.177-0.113,0.479-0.113,0.771-0.113h2.604l-5.507,6.75c-0.184,0.232-0.354,0.414-0.479,0.528
	c-0.179,0.118-0.354,0.237-0.533,0.354c0.236,0.119,0.479,0.237,0.65,0.354c0.178,0.119,0.415,0.354,0.592,0.652l5.625,7.638h-2.664
	c-0.354,0-0.646-0.062-0.828-0.178c-0.178-0.118-0.297-0.237-0.475-0.478l-4.617-5.979c-0.179-0.18-0.297-0.354-0.533-0.414
	c-0.178-0.061-0.475-0.119-0.771-0.119h-0.946v7.104h-3.021V76.162h3.021v6.812H233.342L233.342,82.975z"/>
<path id="The" fill="#5A31C3" d="M125.105,16.244v1.954h-3.849v10.895h-2.368V18.198h-3.908v-1.954H125.105z M140.441,29.092h-2.428
	v-5.625h-6.04v5.625h-2.428V16.243h2.428v5.506h6.04v-5.506h2.428V29.092z M154.059,16.244v1.895h-5.684v3.553h4.5v1.836h-4.5v3.611
	h5.684v1.896h-8.112V16.186L154.059,16.244L154.059,16.244z"/>
<g>
	<path fill="#5A31C3" d="M288.77,35.415l2.94,2.332c0.784-1.489,1.421-2.828,3.431-5.754
		C291.316,33.629,288.77,35.415,288.77,35.415z"/>
	<path fill="#5A31C3" d="M264.91,31.794c-0.049-0.695-0.195-2.183-0.393-2.729c-0.49-1.438-2.449-4.812-3.33-6.299
		c-0.049-0.1-0.197,0-0.147,0.099l3.233,9.375c0.098-0.05,0.194-0.149,0.244-0.199C264.617,31.942,264.764,31.844,264.91,31.794z"/>
	<path fill="#5A31C3" d="M261.529,35.216c-0.196,0.198-0.539,0-0.539,0s-2.549-2.728-3.038-3.026
		c-1.42-0.892-5.781-1.488-7.349-1.687c-0.101,0-0.147,0.149-0.049,0.149c0,0,10.287,5.456,10.338,5.357
		C261.088,35.712,261.333,35.464,261.529,35.216z"/>
	<path fill="#5A31C3" d="M305.625,90.424c0.782,0.547,2.449,0.495,3.381,0.446l1.078-0.197c0.097,0,0.097-0.149,0.047-0.149
		c-1.665-0.741-8.229-4.414-9.648-6.944c-0.297-0.544,0.832-4.363,0.832-4.363l-5.146-1.589c0,0,1.86,5.311,2.646,6.398
		C299.939,85.613,303.564,88.984,305.625,90.424z"/>
	<path fill="#5A31C3" d="M309.69,63.639c-0.59-0.445-0.638,0-2.256,4.269c-1.616,4.215-6.024,9.819-13.179,8.282
		c0.245,0.348,0.59,0.596,0.979,0.94c0.344,0.349,1.812,1.438,1.812,1.438s3.086,2.729,5.977,3.324
		c7.104,1.438,10.144-6.695,11.072-9.127c0.59-1.537,1.127-4.516,1.226-6.398c0-0.348,0-1.34-0.194-1.141
		c-0.686,0.742-1.617,0.692-2.695,0.396C311.404,65.375,310.033,63.936,309.69,63.639z"/>
	<path fill="#5A31C3" d="M329.091,16.07L329.091,16.07c-0.637-0.794-1.175-1.389-1.91-1.785c-1.96-1.29-4.702-1.637-9.062,0.049
		c-4.558,1.736-8.083,4.067-11.17,6.746c-9.554,7.54-13.378,17.658-13.378,17.658s1.718,1.042,2.402,1.388
		c1.615,0.943,4.164,2.432,4.164,2.432s11.81,0.594,19.99-4.564c3.821-2.43,9.455-11.954,9.847-18.056
		C330.17,18.4,329.926,17.111,329.091,16.07z"/>
	<path fill="#5A31C3" d="M335.608,30.604c-0.101-1.637-5.05-3.621-5.538-2.529c-1.566,3.372-3.97,8.581-9.11,11.557
		C325.662,38.292,335.902,35.415,335.608,30.604z"/>
	<path fill="#5A31C3" d="M294.209,47.766c-6.418,3.273-8.281,9.424-8.184,13.69c0.051,1.19,0.197,2.381,0.49,3.373
		c0.393,1.389,0.439,1.637,0.979,2.877c0.833-6.896,3.281-12.5,7.889-15.972c2.893-2.183,5.342-2.679,7.201-2.679
		c0.688-0.049,1.859,0.05,2.061,0.149C303.958,48.262,300.283,44.591,294.209,47.766z"/>
	<path fill="#5A31C3" d="M308.612,52.627c-1.127-1.091-1.472-1.141-2.4-1.687c-1.421-0.198-4.116-0.247-7.007,1.19
		c-4.898,2.48-7.396,6.795-9.309,12.698c-0.734,2.23-0.979,5.061-0.932,5.109c1.617,2.43,2.354,3.869,4.51,4.412
		c6.221,1.536,10.482-4.267,12.196-8.232c0.883-2.084,2.303-6.051,2.694-6.25c0.688-0.396,2.059,1.787,2.939,2.729
		c1.177,1.189,2.105,1.637,3.233,1.389C317.627,63.291,310.866,54.76,308.612,52.627z"/>
	<path fill="#5A31C3" d="M300.382,96.723c-1.225-0.842-7.741-5.506-8.771-8.084c-0.637-1.537,0.296-5.01,0-6.646
		c-0.146-0.745-0.782-3.423-1.37-5.062c-1.128-3.074-4.507-8.88-5.438-12.005c-0.146-0.545-2.01-8.134,2.155-13.79
		c5.535-7.54,10.729-6.845,12.64-6.249c-1.175-1.687-6.466-3.125-8.279-4.514c-2.303-1.785-5.928-5.655-8.67-7.143
		c-0.688-0.396-1.322-0.644-2.01-0.843c-0.686-0.199-1.421-0.148-2.254-0.199c-1.224,0-8.818,0.744-12.248,10.218
		c-2.252,6.25-0.438,8.928,0.049,9.772c0.146,0.248,0.346,0.495,0.59,0.744c1.615,1.736,4.896,4.265,5.046,6.847
		c0.049,1.188-1.96,2.627-2.156,3.818c-0.394,2.628,1.567,8.283,2.306,10.812c0.783,2.527,3.819,9.92,3.819,9.92
		c-0.049-0.646,0.295-1.24,0.44-1.487c0,0,1.127,0.495,1.422,0.842l0.242,0.351c0,0-0.049-0.148-0.193-0.396
		c-0.686-1.389-2.598-5.257-3.432-7.094c-0.293-0.645-0.685-1.637-1.026-2.432c-0.687-1.586-0.052-5.654,0.687-7.191
		c0.834-1.686,3.036-2.23,3.036-2.23s7.009,8.928,8.574,12.353c1.077,2.381,1.42,7.836,2.599,10.167
		c1.075,2.183,5.291,6.398,7.495,8.581c0.882,0.845,2.058,1.288,3.282,1.19l1.371-0.1C300.382,96.873,300.43,96.771,300.382,96.723z
		"/>
	<path fill="#5A31C3" d="M265.057,53.52c-0.244-0.297-0.586-0.743-0.687-0.942c-0.293-0.546-1.175-2.083-1.028-4.713
		c-0.097-1.19-0.294-0.248-0.294-0.147c-0.636,1.587-0.588,4.761,0.245,7.042c0.882,2.333-0.932,4.713-1.566,6.151
		c-0.539,1.239-0.639,1.687-0.146,1.141c0.783-0.745,3.525-3.323,4.02-4.216c0,0,0.537-0.744,0.588-3.076
		C265.792,54.313,265.4,53.867,265.057,53.52z"/>
	<path fill="#5A31C3" d="M271.427,32.339c1.617-0.843,2.939-0.942,2.4-0.893c-1.666,0.049-3.624,0.297-5.487,1.637
		c-0.049,0.049-0.244-0.099-0.49-0.297c-0.637-0.646-2.058-1.091-2.938-0.942c-1.617,0.248-3.332,0.694-4.947,3.224
		c-1.666,2.629-4.557,11.409-1.91,12.996c0.881,0.495,3.232-1.439,5.289-2.827c0.395-1.042,0.934-3.076,1.473-4.415
		C267.311,34.472,269.956,33.282,271.427,32.339z M264.127,35.068c-0.539,0.347-1.96,0.744-2.304,0
		c-0.194-0.397,0.784-0.993,1.422-0.893C263.588,34.273,264.518,34.82,264.127,35.068z"/>
</g>
</svg>
