<?xml version="1.0" encoding="utf-8"?>
<!-- Generator: Adobe Illustrator 16.0.4, SVG Export Plug-In . SVG Version: 6.00 Build 0)  -->
<!DOCTYPE svg PUBLIC "-//W3C//DTD SVG 1.1//EN" "http://www.w3.org/Graphics/SVG/1.1/DTD/svg11.dtd">
<svg version="1.1" id="Layer_1" xmlns="http://www.w3.org/2000/svg" xmlns:xlink="http://www.w3.org/1999/xlink" x="0px" y="0px"
	 width="720px" height="720px" viewBox="0 0 720 720" enable-background="new 0 0 720 720" xml:space="preserve">
<path fill="#5A28C6" d="M331.508,200.214l23.102,18.096c6.161-11.551,11.166-21.946,26.952-44.663
	C351.529,186.353,331.508,200.214,331.508,200.214z"/>
<path fill="#5A28C6" d="M144,172.107c-0.385-5.39-1.54-16.941-3.08-21.176c-3.851-11.166-19.251-37.348-26.182-48.898
	c-0.385-0.77-1.54,0-1.155,0.77l25.412,72.77c0.77-0.385,1.54-1.155,1.925-1.54C141.69,172.877,142.845,172.492,144,172.107z"/>
<path fill="#5A28C6" d="M117.433,198.289c-1.54,1.541-4.235,0-4.235,0s-20.021-21.176-23.872-23.486
	c-11.166-6.931-45.433-11.551-57.754-13.091c-0.77,0-1.155,1.155-0.385,1.155c0,0,80.856,42.353,81.241,41.583
	C113.968,202.524,115.893,200.214,117.433,198.289z"/>
<path fill="#5A28C6" d="M463.957,626.823c6.16,4.235,19.252,3.851,26.567,3.466l8.471-1.54c0.77,0,0.77-1.155,0.385-1.155
	c-13.091-5.775-64.685-34.268-75.851-53.904c-2.31-4.235,6.546-33.882,6.546-33.882l-40.428-12.321c0,0,14.631,41.198,20.791,49.669
	C419.294,589.861,447.786,615.658,463.957,626.823z"/>
<path fill="#5A28C6" d="M495.914,419.294c-4.62-3.465-5.005,0-17.711,33.112c-12.706,32.728-47.358,76.235-103.572,64.3
	c1.926,2.695,4.62,4.62,7.701,7.315c2.694,2.695,14.245,11.166,14.245,11.166s24.257,21.176,46.974,25.797
	c55.829,11.165,79.7-51.979,87.016-70.846c4.621-11.936,8.856-35.037,9.626-49.668c0-2.695,0-10.396-1.54-8.855
	c-5.391,5.775-12.706,5.39-21.177,3.08C509.391,432.771,498.609,421.22,495.914,419.294z"/>
<path fill="#5A28C6" d="M648.385,49.668L648.385,49.668c-5.005-6.161-9.24-10.781-15.016-13.861
	c-15.401-10.011-36.963-12.706-71.23,0.385c-35.807,13.476-63.529,31.572-87.786,52.364
	C399.272,147.08,369.24,225.625,369.24,225.625s13.477,8.086,18.867,10.781c12.705,7.315,32.727,18.866,32.727,18.866
	s92.792,4.621,157.091-35.422c30.032-18.866,74.311-92.792,77.391-140.149C656.855,68.15,654.931,57.754,648.385,49.668z"/>
<path fill="#5A28C6" d="M699.594,162.866c-0.771-12.706-39.658-28.107-43.508-19.636c-12.321,26.182-31.188,66.61-71.615,89.711
	C621.434,222.545,701.903,199.829,699.594,162.866z"/>
<path fill="#5A28C6" d="M374.246,295.701c-50.438,25.412-65.069,73.155-64.3,106.267c0.386,9.241,1.54,18.481,3.851,26.182
	c3.08,10.781,3.465,12.706,7.7,22.332c6.546-53.519,25.797-97.027,61.989-123.979c22.717-16.941,41.968-20.792,56.6-20.792
	c5.39-0.385,14.631,0.385,16.171,1.155C450.866,299.936,421.989,271.444,374.246,295.701z"/>
<path fill="#5A28C6" d="M487.443,333.818c-8.855-8.471-11.551-8.856-18.866-13.091c-11.165-1.54-32.342-1.925-55.059,9.241
	c-38.503,19.251-58.139,52.749-73.155,98.567c-5.775,17.326-7.7,39.272-7.315,39.657c12.706,18.866,18.481,30.032,35.423,34.268
	c48.898,11.936,82.396-33.112,95.871-63.914c6.931-16.172,18.097-46.974,21.177-48.514c5.391-3.081,16.171,13.86,23.102,21.177
	c9.241,9.24,16.557,12.705,25.412,10.78C558.289,416.214,505.155,350.375,487.443,333.818z"/>
<path fill="#5A28C6" d="M422.76,675.722c-9.626-6.545-60.835-42.737-68.92-62.759c-5.006-11.937,2.31-38.888,0-51.594
	c-1.155-5.775-6.161-26.567-10.781-39.272c-8.855-23.872-35.422-68.92-42.738-93.177c-1.155-4.235-15.786-63.145,16.941-107.038
	c43.509-58.524,84.321-53.134,99.337-48.513c-9.24-13.091-50.823-24.257-65.069-35.038c-18.096-13.861-46.588-43.893-68.149-55.444
	c-5.391-3.08-10.396-5.005-15.786-6.545c-5.391-1.54-11.166-1.155-17.711-1.54c-9.625,0-69.305,5.775-96.257,79.315
	c-17.711,48.513-3.465,69.305,0.385,75.85c1.155,1.925,2.695,3.851,4.62,5.775c12.706,13.476,38.503,33.112,39.658,53.134
	c0.385,9.24-15.401,20.406-16.941,29.647c-3.08,20.406,12.321,64.299,18.096,83.936c6.161,19.637,30.032,77.005,30.032,77.005
	c-0.385-5.005,2.31-9.625,3.465-11.551c0,0,8.855,3.851,11.166,6.546l1.925,2.695c0,0-0.385-1.155-1.54-3.08
	c-5.391-10.781-20.407-40.813-26.952-55.06c-2.31-5.005-5.39-12.705-8.085-18.866c-5.391-12.32-0.385-43.893,5.39-55.828
	c6.546-13.092,23.872-17.327,23.872-17.327s55.059,69.306,67.38,95.872c8.47,18.481,11.165,60.834,20.406,78.931
	c8.471,16.941,41.583,49.668,58.909,66.609c6.93,6.546,16.171,10.011,25.797,9.241l10.78-0.771
	C422.76,676.877,423.145,676.107,422.76,675.722z"/>
<path fill="#5A28C6" d="M145.155,340.749c-1.925-2.31-4.621-5.775-5.391-7.315c-2.31-4.235-9.241-16.171-8.085-36.578
	c-0.77-9.241-2.31-1.925-2.31-1.155c-5.005,12.321-4.621,36.962,1.925,54.674c6.931,18.096-7.315,36.577-12.321,47.743
	c-4.235,9.626-5.005,13.092-1.155,8.856c6.16-5.775,27.722-25.798,31.572-32.728c0,0,4.235-5.775,4.62-23.872
	C150.931,346.909,147.85,343.444,145.155,340.749z"/>
<path fill="#5A28C6" d="M195.208,175.957c12.706-6.545,23.102-7.315,18.866-6.93c-13.091,0.385-28.492,2.31-43.123,12.706
	c-0.385,0.385-1.925-0.77-3.85-2.31c-5.005-5.005-16.171-8.47-23.102-7.315c-12.706,1.925-26.182,5.39-38.888,25.027
	C92.021,217.54,69.305,285.69,90.096,298.011c6.931,3.85,25.412-11.166,41.583-21.947c3.08-8.085,7.315-23.872,11.551-34.267
	C162.866,192.513,183.658,183.272,195.208,175.957z M137.839,197.519c-4.235,2.695-15.401,5.775-18.096,0
	c-1.54-3.08,6.161-7.7,11.166-6.93C133.604,191.358,140.92,195.208,137.839,197.519z"/>
</svg>
