<svg width="48" height="47" viewBox="0 0 48 47" fill="none" xmlns="http://www.w3.org/2000/svg">
<path d="M1.70628e-06 1.91973L1.65794 3.22734C2.09993 2.39269 2.45914 1.64152 3.59206 -5.62825e-07C1.43683 0.918128 1.70628e-06 1.91973 1.70628e-06 1.91973Z" transform="translate(21.582 10.5459)" fill="#5A28C6"/>
<path d="M2.18826 5.08667C2.16066 4.69719 2.07776 3.86254 1.96726 3.55642C1.69096 2.74967 0.585748 0.857723 0.0884501 0.0230716C0.060856 -0.0326204 -0.0220475 0.0230707 0.00554666 0.0786413L1.82917 5.33686C1.88448 5.30908 1.93967 5.25338 1.96726 5.2256C2.02257 5.17015 2.10548 5.11446 2.18826 5.08667Z" transform="translate(5.9375 5.34814)" fill="#5A28C6"/>
<path d="M6.21934 2.643C6.10884 2.75426 5.91544 2.643 5.91544 2.643C5.91544 2.643 4.47861 1.11287 4.20231 0.945913C3.40112 0.445171 0.941981 0.111263 0.0577626 5.62825e-07C0.00245374 5.62825e-07 -0.0251409 0.0834764 0.0301679 0.0834764C0.0301679 0.0834764 5.83254 3.14387 5.86013 3.08817C5.97063 2.92122 6.10884 2.78205 6.21934 2.643Z" transform="translate(0 9.71143)" fill="#5A28C6"/>
<path d="M5.33255 7.1782C5.77466 7.4842 6.71418 7.45641 7.23907 7.42863L7.84699 7.31725C7.90218 7.31725 7.90218 7.23377 7.87458 7.23377C6.93518 6.8165 3.23286 4.75772 2.43142 3.33873C2.26561 3.03273 2.90112 0.890342 2.90112 0.890342L1.70628e-06 6.51692e-07C1.70628e-06 6.51692e-07 1.0499 2.97691 1.49201 3.58904C2.1274 4.4795 4.17215 6.37133 5.33255 7.1782Z" transform="translate(25.7539 36.1416)" fill="#5A28C6"/>
<path d="M8.70361 0.0771988C8.37212 -0.173112 8.34453 0.0771992 7.43259 2.46989C6.5209 4.83468 4.03405 7.97854 1.67686e-06 7.11611C0.138093 7.31084 0.331614 7.45002 0.552608 7.64463C0.746008 7.83937 1.57492 8.4515 1.57492 8.4515C1.57492 8.4515 3.31564 9.98163 4.94586 10.3154C8.9522 11.1223 10.6653 6.55955 11.1902 5.19637C11.5218 4.33393 11.8257 2.66463 11.8809 1.60733C11.8809 1.41271 11.8809 0.85616 11.7704 0.967544C11.3836 1.38481 10.8587 1.35702 10.2508 1.19007C9.67061 1.05102 8.89713 0.244153 8.70361 0.0771988Z" transform="translate(24.6763 28.2188)" fill="#5A28C6"/>
<path d="M20.0319 1.61526C19.6727 1.17009 19.3688 0.836298 18.9544 0.613651C17.8492 -0.109738 16.3019 -0.304477 13.8428 0.641437C11.2731 1.61514 9.28381 2.92274 7.54309 4.42521C2.15524 8.65416 -1.17674e-07 14.3296 -1.17674e-07 14.3296C-1.17674e-07 14.3296 0.967003 14.9139 1.3538 15.1086C2.26562 15.6373 3.70244 16.4719 3.70244 16.4719C3.70244 16.4719 10.3613 16.8057 14.9756 13.9123C17.1308 12.5491 20.3082 7.20727 20.5292 3.78518C20.6398 2.92287 20.5016 2.19948 20.0319 1.61526Z" transform="translate(24.2896)" fill="#5A28C6"/>
<path d="M8.26139 1.59451C8.20608 0.676377 5.41545 -0.436492 5.13914 0.175635C4.25493 2.06746 2.90113 4.98881 1.82395e-06 6.65811C2.65242 5.90693 8.42707 4.2932 8.26139 1.59451Z" transform="translate(39.7354 8.17261)" fill="#5A28C6"/>
<path d="M4.6163 0.711332C0.996647 2.54759 -0.0532569 5.99746 0.00205197 8.39003C0.0296461 9.05785 0.112549 9.72554 0.278355 10.282C0.49935 11.0611 0.526944 11.2001 0.830962 11.8957C1.30054 8.02846 2.68206 4.88471 5.27941 2.93719C6.90952 1.71306 8.29103 1.43484 9.34106 1.43484C9.72786 1.40706 10.391 1.46263 10.5015 1.51832C10.1147 0.98955 8.04244 -1.06911 4.6163 0.711332Z" transform="translate(20.0322 18.6821)" fill="#5A28C6"/>
<path d="M11.0829 1.00333C10.4475 0.391208 10.254 0.363424 9.72909 0.0574215C8.9279 -0.0538411 7.40817 -0.0816275 5.77794 0.725117C3.01491 2.1162 1.6058 4.53668 0.528303 7.84738C0.113908 9.09929 -0.0243057 10.6852 0.00340899 10.713C0.915101 12.0762 1.32962 12.8832 2.54545 13.1891C6.05437 14.0515 8.45819 10.7964 9.42532 8.57077C9.92273 7.40221 10.7239 5.17647 10.9449 5.06521C11.3318 4.84256 12.1054 6.06681 12.6029 6.59534C13.266 7.26304 13.7909 7.51347 14.4265 7.37442C16.167 6.98494 12.3539 2.19968 11.0829 1.00333Z" transform="translate(21.689 21.1165)" fill="#5A28C6"/>
<path d="M19.9364 36.1959C19.2457 35.7231 15.5709 33.1077 14.9905 31.6609C14.6315 30.7986 15.1564 28.851 14.9905 27.9329C14.9076 27.5156 14.5484 26.0132 14.2169 25.095C13.5814 23.37 11.6749 20.1149 11.1499 18.3622C11.067 18.0562 10.0171 13.7996 12.3657 10.6278C15.4878 6.39887 18.4167 6.78835 19.4943 7.12226C18.8312 6.17635 15.847 5.36948 14.8247 4.59052C13.5261 3.58904 11.4815 1.41887 9.93418 0.584219C9.54738 0.361694 9.18817 0.222524 8.80137 0.111261C8.41457 -1.59828e-06 8.00018 0.0277847 7.53047 -6.51692e-07C6.83966 -6.51692e-07 2.55702 0.417264 0.622892 5.7313C-0.648007 9.23686 0.374304 10.7392 0.650487 11.2122C0.73339 11.3512 0.843886 11.4904 0.981978 11.6294C1.89379 12.6033 3.74501 14.0221 3.82791 15.4689C3.85551 16.1365 2.7227 16.9433 2.6122 17.611C2.39121 19.0856 3.4963 22.2572 3.91082 23.6761C4.35293 25.095 6.06606 29.2405 6.06606 29.2405C6.03846 28.8788 6.23174 28.545 6.31464 28.4058C6.31464 28.4058 6.95015 28.684 7.11596 28.8787L7.25405 29.0734C7.25405 29.0734 7.22646 28.9899 7.14355 28.8507C6.75675 28.0718 5.67913 25.9016 5.20943 24.8723C5.04363 24.5107 4.82263 23.9542 4.62923 23.509C4.24243 22.6188 4.60163 20.3374 5.01603 19.475C5.48573 18.529 6.72904 18.223 6.72904 18.223C6.72904 18.223 10.6802 23.2308 11.5643 25.1507C12.1722 26.4861 12.3656 29.5465 13.0287 30.8541C13.6366 32.0782 16.0129 34.4431 17.2562 35.6672C17.7535 36.1402 18.4166 36.3906 19.1074 36.3349L19.881 36.2794C19.9364 36.2794 19.9639 36.2237 19.9364 36.1959Z" transform="translate(8.19385 10.6572)" fill="#5A28C6"/>
<path d="M2.14091 3.50617C2.00282 3.33922 1.80942 3.08891 1.75411 2.97752C1.5883 2.67152 1.09101 1.80909 1.17391 0.334523C1.11872 -0.333173 1.0081 0.195473 1.0081 0.251044C0.648896 1.14127 0.676612 2.92195 1.1462 4.20165C1.64349 5.50926 0.621303 6.84466 0.262096 7.65165C-0.0418013 8.34713 -0.0971105 8.59756 0.179193 8.29143C0.621302 7.87417 2.16863 6.42739 2.44493 5.92665C2.44493 5.92665 2.74883 5.50938 2.77642 4.20165C2.55543 3.95122 2.33431 3.70091 2.14091 3.50617Z" transform="translate(6.06787 19.1147)" fill="#5A28C6"/>
<path d="M8.1464 0.506621C9.05821 0.0336637 9.80422 -0.0219069 9.5002 0.00587846C8.5608 0.0336638 7.45558 0.172833 6.40568 0.924007C6.37808 0.951793 6.26759 0.868437 6.12937 0.757174C5.77017 0.39548 4.96885 0.145047 4.47155 0.228524C3.55974 0.367572 2.59274 0.618005 1.68093 2.037C0.741521 3.51156 -0.888705 8.43599 0.603308 9.32621C1.10061 9.60443 2.42693 8.51947 3.58746 7.74039C3.80845 7.15617 4.11235 6.01539 4.41637 5.26422C5.82536 1.70297 7.31737 1.03527 8.1464 0.506621ZM4.02944 2.03688C3.72555 2.23162 2.92423 2.45414 2.73083 2.03688C2.62034 1.81435 3.17294 1.48044 3.53215 1.53613C3.72555 1.5917 4.25044 1.89783 4.02944 2.03688Z" transform="translate(3.6543 10.2344)" fill="#5A28C6"/>
</svg>
